<?xml version="1.0" standalone="no"?><!DOCTYPE svg PUBLIC "-//W3C//DTD SVG 1.1//EN" "http://www.w3.org/Graphics/SVG/1.1/DTD/svg11.dtd"><svg t="1716520786335" class="icon" viewBox="0 0 1024 1024" version="1.1" xmlns="http://www.w3.org/2000/svg" p-id="129823" xmlns:xlink="http://www.w3.org/1999/xlink" width="200" height="200"><path d="M641.066667 552.746667c5.12 0 10.24-7.68 10.24-12.8v-53.12c0-50.56-68.48-50.56-68.48-50.56h-141.653334s-65.92 0-64 48V533.333333a17.28 17.28 0 0 0 10.026667 12.586667s78.506667 22.826667 78.506667 70.826667v149.333333c0 55.68-189.866667 60.8-189.866667 60.8a16.213333 16.213333 0 0 0-15.146667 15.146667v60.8a18.773333 18.773333 0 0 0 5.12 10.026666 18.133333 18.133333 0 0 0 11.52 4.48h473.6a18.346667 18.346667 0 0 0 15.146667-15.146666v-60.8a16.213333 16.213333 0 0 0-15.146667-15.146667s-187.52 0-187.52-60.8v-149.333333c0-53.12 78.506667-64 78.506667-64zM420.906667 149.333333H426.666667v-14.506666A29.013333 29.013333 0 0 1 456.32 106.666667h106.666667a30.08 30.08 0 0 1 33.066666 30.506666V149.333333h4.906667c170.666667 37.973333 288.853333 179.84 288.853333 344.533334a331.733333 331.733333 0 0 1-81.066666 217.6A573.866667 573.866667 0 0 1 752.64 768a83.413333 83.413333 0 0 0-12.8 10.026667 15.146667 15.146667 0 0 1-21.333333-2.56l-48-58.24a13.226667 13.226667 0 0 1 2.56-20.266667l7.466666-5.12a327.466667 327.466667 0 0 0 42.666667-42.666667 237.653333 237.653333 0 0 0 64-154.453333c0-139.306667-121.6-256-270.933333-256h-2.56c-146.986667 0-268.373333 113.92-268.373334 256a240.213333 240.213333 0 0 0 60.586667 154.453333 355.626667 355.626667 0 0 0 42.666667 42.666667l7.68 7.68a13.44 13.44 0 0 1 2.56 21.333333l-49.493334 57.173334a15.573333 15.573333 0 0 1-20.266666 2.56 103.253333 103.253333 0 0 0-15.146667-10.24 402.56 402.56 0 0 1-58.24-55.68 331.733333 331.733333 0 0 1-81.066667-217.813334C134.613333 334.933333 253.653333 190.506667 420.906667 149.333333z" fill="#75B36B" p-id="129824"></path></svg>