<?xml version="1.0" standalone="no"?><!DOCTYPE svg PUBLIC "-//W3C//DTD SVG 1.1//EN" "http://www.w3.org/Graphics/SVG/1.1/DTD/svg11.dtd"><svg t="1716518679374" class="icon" viewBox="0 0 1024 1024" version="1.1" xmlns="http://www.w3.org/2000/svg" p-id="80589" xmlns:xlink="http://www.w3.org/1999/xlink" width="200" height="200"><path d="M512 1024A512 512 0 0 1 0 512 512 512 0 0 1 512 0a512 512 0 0 1 512 512 512 512 0 0 1-512 512z" fill="#FFFFFF" p-id="80590"></path><path d="M227.545069 562.586544a45.490138 45.490138 0 0 1-45.490138-45.490138V335.607742a62.666912 62.666912 0 0 1 62.572534-62.572535h176.392259a45.584516 45.584516 0 0 1 0 91.074655H273.035207v152.986544a45.490138 45.490138 0 0 1-45.490138 45.490138z" fill="#FF2828" p-id="80591"></path><path d="M659.890138 523.325346A102.4 102.4 0 1 0 762.290138 625.725346a102.588756 102.588756 0 0 0-102.4-102.4z m0 295.874654a193.474654 193.474654 0 1 1 193.380277-193.474654 193.66341 193.66341 0 0 1-193.380277 193.474654z" fill="#FF8C14" p-id="80592"></path><path d="M659.890138 295.780276a68.329585 68.329585 0 1 0 68.235208 68.329586 68.329585 68.329585 0 0 0-68.235208-68.329586z m0 227.54507A159.309862 159.309862 0 1 1 819.2 364.109862a159.40424 159.40424 0 0 1-159.309862 159.215484z" fill="#50C414" p-id="80593"></path><path d="M659.890138 432.345069A192.153364 192.153364 0 0 0 542.861567 471.889401a159.121106 159.121106 0 0 0 234.151521 0 192.625253 192.625253 0 0 0-117.12295-39.544332z" fill="#28A032" p-id="80594"></path><path d="M318.619724 773.898618A171.201475 171.201475 0 0 1 179.317972 701.133272a45.490138 45.490138 0 1 1 74.464148-52.379724 79.654931 79.654931 0 1 0 65.215115-125.333824 78.711152 78.711152 0 0 0-57.948018 24.91576 45.490138 45.490138 0 1 1-66.064517-62.478157A170.635207 170.635207 0 1 1 318.619724 773.898618z" fill="#0091D7" p-id="80595"></path><path d="M194.418433 485.857327a45.678894 45.678894 0 0 0-12.363502 31.805346v4.530138a27.652719 27.652719 0 0 0 0.471889 2.736959 10.6647 10.6647 0 0 0 0 1.698801 21.612535 21.612535 0 0 0 0.660645 2.642581c0 0.566267 0 1.132535 0.47189 1.698802s0.566267 1.698802 0.943779 2.548203l0.566267 1.510046c0 0.943779 0.849401 1.79318 1.32129 2.736958l0.566268 1.226913c0.471889 0.849401 1.038157 1.698802 1.604423 2.548202l0.755024 1.226913a18.875576 18.875576 0 0 0 1.604423 2.170691l1.132535 1.415668a14.534194 14.534194 0 0 0 1.604424 1.79318l1.510046 1.510046 1.698802 1.604424 1.698802 1.415668 1.887557 1.415669 1.698802 1.132534 2.076314 1.32129 1.793179 0.943779 2.076314 1.038157 1.981935 0.849401 2.170691 0.755023 1.981936 0.660645a19.819355 19.819355 0 0 0 2.265069 0.566267l2.076313 0.47189h17.931798l1.981935-0.566268 2.359447-0.660645 1.887558-0.660645 2.170691-0.849401 1.981935-0.943779 1.981936-1.038156a20.008111 20.008111 0 0 0 1.887558-1.132535l1.887557-1.132534 1.604424-1.226913 1.981936-1.604424 1.32129-1.132534 2.076313-1.981936a45.112627 45.112627 0 0 0 12.741014-31.61659v-78.616774a171.107097 171.107097 0 0 0-78.050507 47.18894zM473.021935 675.556866a169.880184 169.880184 0 0 0 16.232996-72.57659 171.484608 171.484608 0 0 0-7.927742-51.435944 193.380276 193.380276 0 0 0-8.305254 124.012534z" fill="#006EC8" p-id="80596"></path></svg>