<?xml version="1.0" standalone="no"?><!DOCTYPE svg PUBLIC "-//W3C//DTD SVG 1.1//EN" "http://www.w3.org/Graphics/SVG/1.1/DTD/svg11.dtd"><svg t="1716520860966" class="icon" viewBox="0 0 1204 1024" version="1.1" xmlns="http://www.w3.org/2000/svg" p-id="131485" xmlns:xlink="http://www.w3.org/1999/xlink" width="235.15625" height="200"><path d="M1203.501176 0.963765H558.682353S0 0.963765 0 543.683765c0 285.033412 193.174588 399.841882 343.04 445.982117 140.589176 43.309176 293.466353 26.804706 419.358118-49.332706 103.002353-62.283294 203.354353-172.574118 223.171764-367.073882 0 0 168.056471-59.030588 217.99153-331.535059h-80.655059S1194.465882 137.216 1203.561412 0.963765z" fill="#FFB900" p-id="131486"></path><path d="M993.942588 289.972706h58.910118c-5.180235 20.600471-8.734118 39.875765-14.757647 58.307765-26.081882 79.510588-71.137882 144.865882-143.23953 189.620705-6.625882 4.156235-7.107765 9.336471-7.830588 15.902118-15.058824 157.214118-87.582118 274.793412-236.724706 337.438118-59.030588 24.997647-121.494588 32.286118-185.524706 29.093647-63.548235-3.252706-124.024471-18.070588-180.284235-48.188235-105.110588-56.199529-166.731294-144.504471-188.295529-260.758589-17.227294-92.762353-9.456941-183.296 32.527059-268.830117 51.380706-104.809412 136.673882-170.224941 245.639529-206.908236 66.198588-22.287059 134.686118-31.322353 204.197647-31.503058 152.937412-0.481882 472.365176 1.325176 472.365176 1.325176s-26.081882 128.783059-56.32 179.983059a15.962353 15.962353 0 0 0-0.662588 4.517647z" fill="#FFFFFF" p-id="131487"></path><path d="M993.942588 289.972706h58.910118c-5.180235 20.600471-8.734118 39.875765-14.757647 58.307765-26.081882 79.510588-71.137882 144.865882-143.23953 189.620705-6.625882 4.156235-7.107765 9.336471-7.830588 15.902118-15.058824 157.214118-87.582118 274.793412-236.724706 337.438118-59.030588 24.997647-121.494588 32.286118-185.524706 29.093647-63.548235-3.252706-124.024471-18.070588-180.284235-48.188235-105.110588-56.199529-166.731294-144.504471-188.295529-260.758589-17.227294-92.762353-9.456941-183.296 32.527059-268.830117 51.380706-104.809412 136.673882-170.224941 245.639529-206.908236 66.198588-22.287059 134.686118-31.322353 204.197647-31.503058 152.937412-0.481882 472.365176 1.325176 472.365176 1.325176s-26.081882 128.783059-56.32 179.983059a15.962353 15.962353 0 0 0-0.662588 4.517647z m-26.563764-127.096471h-14.878118c-124.867765 0-249.795765 0-374.66353-0.12047-59.392 0-117.699765 7.107765-174.320941 25.419294-88.726588 28.732235-161.189647 79.149176-209.257411 160.647529-45.176471 76.8-54.814118 159.984941-38.610824 246.482824 18.793412 100.472471 71.860706 177.091765 163.900235 223.774117 75.113412 38.128941 155.286588 46.381176 237.44753 32.165647 94.750118-16.444235 169.261176-64.572235 219.25647-147.937882 33.129412-55.235765 46.802824-115.832471 49.03153-179.501176 0.240941-6.083765 0-11.264 7.228235-14.757647 46.320941-22.287059 79.872-57.886118 103.905882-102.761412 13.010824-23.491765 22.106353-48.971294 26.864942-75.414588h-74.089412a333.402353 333.402353 0 0 0 78.185412-167.936z" fill="#4E4E4E" p-id="131488"></path><path d="M454.174118 456.282353h74.932706c82.522353 0 123.783529 41.261176 123.783529 123.783529s-41.261176 123.723294-123.783529 123.723294H454.174118c-82.522353 0-123.783529-41.200941-123.78353-123.723294 0-82.522353 41.261176-123.783529 123.78353-123.783529z" fill="#FF6D6D" p-id="131489"></path><path d="M275.877647 416.527059a32.948706 32.948706 0 1 0 65.897412 0 32.948706 32.948706 0 0 0-65.897412 0zM418.996706 578.861176a27.226353 27.226353 0 1 0 54.452706 0 27.226353 27.226353 0 0 0-54.452706 0zM509.771294 578.861176a27.226353 27.226353 0 1 0 54.512941 0 27.226353 27.226353 0 0 0-54.512941 0zM639.216941 416.527059a32.948706 32.948706 0 1 0 65.897412 0 32.948706 32.948706 0 0 0-65.897412 0z" fill="#4E4E4E" p-id="131490"></path></svg>