<?xml version="1.0" standalone="no"?><!DOCTYPE svg PUBLIC "-//W3C//DTD SVG 1.1//EN" "http://www.w3.org/Graphics/SVG/1.1/DTD/svg11.dtd"><svg t="1716522887696" class="icon" viewBox="0 0 1024 1024" version="1.1" xmlns="http://www.w3.org/2000/svg" p-id="2880" xmlns:xlink="http://www.w3.org/1999/xlink" width="200" height="200"><path d="M460.414028 0.041648c-23.356733 2.720262-5.346722 118.753512-78.137185 237.600827A411.603801 411.603801 0 0 1 351.04073 281.448076C206.866837 465.112671 76.575661 630.485848 103.965886 775.50396c23.075327 121.942785 153.929316 206.364714 256.361256 234.505357 150.083428 40.897734 333.841825-13.788915 347.067927-87.517399 10.881049-60.314778-88.080212-156.086765-175.1286-171.939328a180.006311 180.006311 0 0 1-31.236113-6.284743c-54.780451-18.010011-102.43194-73.353275-112.562571-137.607743-9.380214-60.127173 17.259594-106.84064 31.236113-131.323A237.600827 237.600827 0 0 1 510.41057 384.630432c56.281286-30.579498 127.289507-36.582836 140.703214-37.520857 33.112156-2.438856 53.748628 0 75.041714-15.664957 17.353396-13.038498 33.862573-37.520857 31.236113-62.566029-2.251251-21.574493-17.07199-25.701787-34.425386-59.376757-15.946364-31.048509-9.380214-39.3969-18.760429-56.281285-31.048509-55.624671-129.540759-14.44553-193.889028-75.041714C472.702109 43.003029 474.484349-1.552988 460.414028 0.041648z" fill="#53A564" p-id="2881"></path><path d="M469.794242 478.432575c-5.440524 11.350059-19.979856 45.96305-6.284743 81.326458A106.465432 106.465432 0 0 0 494.745612 600.37536c24.294755 22.512514 41.272943 27.671632 90.706672 53.185815 33.112156 17.07199 55.061858 30.110488 78.137185 43.805601 56.281286 33.205958 66.224313 43.617996 71.946243 49.996542a179.724905 179.724905 0 0 1 37.520857 71.946243 217.527168 217.527168 0 0 1 3.095471 109.4671c-8.817401 37.520857-23.450536 52.341596-18.760429 56.281286 9.380214 8.254589 87.423597-44.64982 131.323-128.227529a267.429908 267.429908 0 0 0 34.050177-150.083428 272.589026 272.589026 0 0 0-62.19082-146.987957c-17.259594-22.418712-94.364955-122.787005-225.125142-128.227529a286.846952 286.846952 0 0 0-165.654584 46.901071z" fill="#53A564" p-id="2882"></path></svg>