<?xml version="1.0" standalone="no"?><!DOCTYPE svg PUBLIC "-//W3C//DTD SVG 1.1//EN" "http://www.w3.org/Graphics/SVG/1.1/DTD/svg11.dtd"><svg t="1716518088368" class="icon" viewBox="0 0 1024 1024" version="1.1" xmlns="http://www.w3.org/2000/svg" p-id="36022" xmlns:xlink="http://www.w3.org/1999/xlink" width="200" height="200"><path d="M128 0h768a128.384 128.384 0 0 1 128 128v768a128.384 128.384 0 0 1-128 128H128a128.384 128.384 0 0 1-128-128V128a128.384 128.384 0 0 1 128-128z" fill="#FFFFFF" p-id="36023"></path><path d="M887.584 311.392a111.776 111.776 0 0 0-96-57.6h-128c-3.2 0-9.6 3.2-12.8-3.2 0-6.4 6.4-6.4 6.4-9.6l44.8-44.8a31.104 31.104 0 0 0 3.2-44.8 28 28 0 0 0-41.6 6.4l-89.6 89.6a29.056 29.056 0 0 1-22.4 9.6h-73.6a29.088 29.088 0 0 1-25.6-12.8c-28.8-32-60.8-60.8-89.6-89.6a26.144 26.144 0 0 0-38.4-3.2l-3.2 3.2a24 24 0 0 0 0 38.4l48 48c3.2 3.2 9.6 9.6 9.6 12.8h-147.2a92.8 92.8 0 0 0-73.6 32 171.744 171.744 0 0 0-48 121.6v291.2a132.64 132.64 0 0 0 6.4 51.2 127.264 127.264 0 0 0 137.6 108.8 17.536 17.536 0 0 1 19.2 12.8 44.192 44.192 0 0 0 41.6 32 41.6 41.6 0 0 0 41.6-32c3.2-9.6 6.4-12.8 16-12.8h278.4c9.6 0 12.8 3.2 16 12.8a44.192 44.192 0 0 0 41.6 32 41.312 41.312 0 0 0 41.6-28.8c3.2-12.8 9.6-16 22.4-16a119.456 119.456 0 0 0 108.8-54.4 158.624 158.624 0 0 0 25.6-83.2v-323.2a106.432 106.432 0 0 0-19.2-86.4z m-121.6 467.2h-505.6a44.256 44.256 0 0 1-51.2-38.4v-348.8a46.592 46.592 0 0 1 41.6-51.2h515.2a49.696 49.696 0 0 1 54.4 41.6v345.6a47.36 47.36 0 0 1-41.6 54.4 19.2 19.2 0 0 0-12.8-3.2z" fill="#22ACE5" p-id="36024"></path><path d="M436.384 506.592c-3.2-16-6.4-28.8-9.6-44.8 0-9.6-6.4-12.8-16-12.8-12.8 3.2-28.8 6.4-41.6 9.6-32 6.4-67.2 12.8-99.2 19.2-9.6 3.2-16 6.4-12.8 19.2a160.672 160.672 0 0 1 6.4 38.4c0 9.6 6.4 12.8 16 12.8 16-3.2 28.8-6.4 44.8-9.6l96-19.2c9.6-3.2 16-3.2 16-12.8zM759.584 477.792a877.472 877.472 0 0 0-89.6-16c-19.2-3.2-35.2-6.4-54.4-9.6-6.4 0-9.6 3.2-12.8 9.6-3.2 12.8-6.4 28.8-9.6 41.6-3.2 9.6 0 12.8 9.6 12.8l144 28.8c9.6 3.2 12.8 0 12.8-9.6 3.2-12.8 3.2-25.6 6.4-41.6 6.4-9.6 3.2-12.8-6.4-16zM609.184 644.192c-12.8-6.4-19.2-9.6-32 3.2-16 19.2-32 16-48-6.4-3.2-6.4-9.6-12.8-12.8-19.2a6.656 6.656 0 0 0-12.8 0c-6.4 9.6-9.6 16-16 25.6a25.6 25.6 0 0 1-35.2 9.6c-3.2-3.2-6.4-3.2-9.6-6.4-16-16-19.2-16-35.2 0-3.2 3.2-6.4 6.4-3.2 12.8a63.808 63.808 0 0 0 86.4 25.6 11.168 11.168 0 0 0 6.4-3.2c3.2-3.2 12.8-6.4 16 0a48 48 0 0 0 35.2 12.8 83.712 83.712 0 0 0 57.6-28.8c16-12.8 16-19.2 3.2-25.6z" fill="#22ACE5" p-id="36025"></path></svg>