<?xml version="1.0" standalone="no"?><!DOCTYPE svg PUBLIC "-//W3C//DTD SVG 1.1//EN" "http://www.w3.org/Graphics/SVG/1.1/DTD/svg11.dtd"><svg t="1722563355000" class="icon" viewBox="0 0 1024 1024" version="1.1" xmlns="http://www.w3.org/2000/svg" p-id="10886" xmlns:xlink="http://www.w3.org/1999/xlink" width="200" height="200"><path d="M796.458667 85.333333a113.792 113.792 0 0 1 113.749333 113.792v433.92A199.125333 199.125333 0 0 0 657.109333 938.666667L227.541333 938.666667a113.792 113.792 0 0 1-113.749333-113.792V199.125333A113.792 113.792 0 0 1 227.541333 85.333333h568.917334z m-270.250667 654.208H241.792a14.208 14.208 0 0 0 0 28.458667h284.416a14.208 14.208 0 1 0 0-28.458667z m0-85.333333H241.792a14.208 14.208 0 0 0 0 28.458667h284.416a14.208 14.208 0 1 0 0-28.458667z m-56.874667-85.333333H241.792a14.208 14.208 0 0 0 0 28.458666H469.333333a14.208 14.208 0 1 0 0-28.458666z m0-85.333334H241.792a14.208 14.208 0 0 0 0 28.458667H469.333333a14.208 14.208 0 1 0 0-28.458667z m199.125334-113.749333A113.792 113.792 0 0 0 554.666667 483.541333V512h227.541333v-28.458667a113.792 113.792 0 0 0-113.749333-113.749333zM469.333333 398.208H241.792a14.208 14.208 0 0 0 0 28.458667H469.333333a14.208 14.208 0 0 0 0-28.458667z m0-85.333333H241.792a14.208 14.208 0 0 0 0 28.458666H469.333333a14.208 14.208 0 0 0 0-28.458666z m199.125334-113.749334a71.125333 71.125333 0 1 0 0 142.208 71.125333 71.125333 0 0 0 0-142.208zM469.333333 227.541333H241.792a14.208 14.208 0 0 0 0 28.458667H469.333333a14.208 14.208 0 0 0 0-28.458667z" fill="#6DA013" fill-opacity=".5" p-id="10887"></path><path d="M796.458667 654.208a142.208 142.208 0 1 1 0 284.458667 142.208 142.208 0 0 1 0-284.458667z m0 42.666667a14.208 14.208 0 0 0-14.250667 14.250666v71.04l-71.082667 0.042667-2.901333 0.298667a14.208 14.208 0 0 0 2.901333 28.16h71.082667v71.125333l0.298667 2.858667a14.208 14.208 0 0 0 28.16-2.858667v-71.168l71.125333 0.042667 2.858667-0.298667a14.208 14.208 0 0 0-2.858667-28.16h-71.168L810.666667 711.082667l-0.298667-2.901334a14.208 14.208 0 0 0-13.909333-11.349333z" fill="#6DA013" p-id="10888"></path></svg>