<?xml version="1.0" standalone="no"?><!DOCTYPE svg PUBLIC "-//W3C//DTD SVG 1.1//EN" "http://www.w3.org/Graphics/SVG/1.1/DTD/svg11.dtd"><svg t="1718160128493" class="icon" viewBox="0 0 1024 1024" version="1.1" xmlns="http://www.w3.org/2000/svg" p-id="25418" xmlns:xlink="http://www.w3.org/1999/xlink" width="200" height="200"><path d="M916.48 77.312c-52.224-17.408-146.432-21.504-190.976-6.656-63.488 20.992-58.88 94.72-77.824 151.552-82.944 245.76-448 230.912-528.896 477.184-27.648 84.48-12.288 169.472-12.8 169.472-0.512 0-9.728-67.072 25.088-124.416 18.944-31.744 55.296-66.048 173.056-106.496 207.36-70.656 298.496-46.08 437.76-121.344 147.968-80.384 71.168-197.632 55.296-323.072-3.584-77.312 47.616-105.472 119.296-116.224z" fill="#FF0000" p-id="25419"></path><path d="M772.096 620.032c27.136-24.064 55.296-68.096 50.176-158.208-15.872 22.016-44.032 53.76-88.064 79.36-27.648 15.872-51.712 24.064-88.064 33.792-74.24 20.992-132.096 31.744-201.216 45.056-92.672 17.92-132.608 26.112-188.416 45.056-70.656 24.576-92.672 48.128-100.352 56.32-43.52 44.544-49.664 98.816-50.176 124.416 39.424-65.024 87.04-90.624 113.152-101.888 6.656-3.072 63.488-26.624 77.312-10.752 7.168 7.68 1.024 23.04-6.144 35.328-5.12 16.384-14.848 55.808 2.048 100.352 4.608 12.288 34.816 86.528 115.2 100.864 55.808 10.24 101.376-15.36 113.152-22.528 8.192-6.656 29.696-25.6 37.888-56.32 10.24-39.936-7.68-71.68-12.8-79.36-3.072 3.072-29.696 28.16-62.976 22.528-4.608-0.512-15.872-2.56-25.088-11.264-14.848-13.824-14.848-37.376-7.168-52.224 14.336-26.624 59.904-35.328 91.136-24.576 42.496 14.336 56.32 64 54.272 97.28-4.096 54.272-53.76 90.112-50.176 92.672 3.072 2.56 43.52-22.016 62.976-63.488 26.624-57.856-3.072-116.736-12.8-133.632-6.656-6.656-15.36-18.432-13.312-30.72 7.68-39.936 124.416-30.208 189.44-88.064z" fill="#666666" p-id="25420"></path></svg>