<?xml version="1.0" standalone="no"?><!DOCTYPE svg PUBLIC "-//W3C//DTD SVG 1.1//EN" "http://www.w3.org/Graphics/SVG/1.1/DTD/svg11.dtd"><svg t="1716520588741" class="icon" viewBox="0 0 1024 1024" version="1.1" xmlns="http://www.w3.org/2000/svg" p-id="125259" xmlns:xlink="http://www.w3.org/1999/xlink" width="200" height="200"><path d="M804.2752 613.9136c-12.928-7.0656-20.352-12.8256-20.0192-30.1568 0.4608-22.3232-41.5488-53.9136-58.88-48.0512-37.0688 12.5952-49.152 27.136-46.976 66.6368 3.072 55.7056-12.9792 102.3232-51.712 143.3088-51.0208 53.888-153.2416 61.184-204.3648 21.6576-45.3632-35.0208-61.9008-87.3728-64.0768-143.0272-1.28-31.8208 2.9184-63.872 4.6336-95.8464-32.8448 60.9536-33.6128 123.2896-10.9312 186.7776 22.2976 62.3872 68.1984 105.3184 120.2688 143.3088-82.0224-24.448-134.1696-80.1024-157.9008-158.9248-34.688-115.0464 12.8-227.2 116.7872-285.44 12.032-6.7072 28.2368-5.9904 42.496-8.7552-2.8672 11.5712-6.3232 23.0144-8.3456 34.7136-1.3056 7.552-3.584 18.2528 0.1792 22.528 3.7632 4.096 15.3344 4.1984 22.2208 2.048 37.0432-11.3408 58.8032-39.3472 72.576-73.344 14.6944-36.2752 41.1648-56.5248 77.696-66.7392 30.2848-8.448 60.1856-18.0224 93.0304-27.904-56.704-34.9696-56.704-34.9696-55.0912-55.9104 7.296 5.76 13.4656 10.752 19.7376 15.6672 27.6736 21.632 59.2896 32.8448 94.0544 28.672 18.176-2.2016 41.2672-6.0416 41.0368-31.6928-0.3328-24.3968-21.6832-28.672-40.448-33.4592a22.144 22.144 0 0 0-8.192-0.2048c-17.536 2.3552-25.856-5.7344-31.6416-22.272-27.9808-79.4112-107.1616-102.2976-173.4144-92.032-72.7808 11.3152-139.5456 40.32-199.3216 84.9152-9.5744 7.1168-24.832 10.4448-37.0688 9.6-47.872-3.3792-93.184 2.944-133.12 31.1552-25.8048 18.2016-46.336 40.7552-48.6912 82.1248 18.8672-6.3488 32.0768-13.2864 45.824-14.7456 11.4944-1.1776 26.9824 0.512 34.4064 7.552 5.7088 5.4528 3.4816 21.5552 1.28 32.2048-1.9456 9.472-8.7808 17.92-13.312 26.88-77.7216 151.68-46.1568 329.472 77.0048 434.5344 105.2672 89.728 225.0496 106.5728 353.6128 65.536 92.2624-29.4656 150.8608-93.0304 170.3168-189.6704 5.0688-25.2672 0.7424-48.2816-23.6544-61.6448z m-171.008-446.4384c-11.52 19.5328-16.3584 37.9392 16.1792 51.2768-28.8768 5.76-40.9088-2.6368-43.6736-24.1152-2.2528-17.3824 6.4768-26.112 27.4688-27.136z" fill="#2577E3" p-id="125260"></path><path d="M437.6576 777.6768c40.3968 29.44 94.976 40.7808 163.8144 33.8688 48.384-10.8032 116.4544-58.88 134.2464-114.4832 1.9456-41.0112-6.272-73.8304 30.1056-90.7264 8.2432-0.6656 16.512-1.5104 24.7296-2.5088-5.6064-51.7632-25.984-77.6448-61.0816-77.6448-37.0432 1.4848-46.976 21.9648-57.9584 49.0496-4.48 62.6432 5.4528 201.0624-145.792 210.6112-24.448 0-53.8112-2.7136-88.064-8.192v0.0256z" fill="#FF9913" p-id="125261"></path></svg>