<?xml version="1.0" standalone="no"?><!DOCTYPE svg PUBLIC "-//W3C//DTD SVG 1.1//EN" "http://www.w3.org/Graphics/SVG/1.1/DTD/svg11.dtd"><svg t="1718160047867" class="icon" viewBox="0 0 1024 1024" version="1.1" xmlns="http://www.w3.org/2000/svg" p-id="23275" xmlns:xlink="http://www.w3.org/1999/xlink" width="200" height="200"><path d="M888.0128 1010.2784H135.8848c-36.0448 0-63.7952-27.648-63.7952-63.7952V141.5168c0-36.0448 27.648-63.7952 63.7952-63.7952h752.2304c36.0448 0 63.7952 27.648 63.7952 63.7952v804.9664c0 35.84-27.8528 63.7952-63.8976 63.7952z" fill="#93f25c" p-id="23276"></path><path d="M198.9632 117.248h625.9712c16.384 0 29.7984 13.4144 29.7984 29.7984v793.2928c0 16.384-13.4144 29.7984-29.7984 29.7984H198.9632c-16.384 0-29.7984-13.4144-29.7984-29.7984V147.0464c0-16.384 13.4144-29.7984 29.7984-29.7984z" fill="#d3f5ec" p-id="23277"></path><path d="M718.7456 138.6496H305.152V74.8544c0-22.1184 16.5888-41.6768 38.8096-41.6768h333.0048c22.1184 0 38.8096 19.456 38.8096 41.6768v63.7952h2.9696z" fill="#F5BA2B" p-id="23278"></path><path d="M618.9056 108.1344H404.992V27.648c0-8.3968 5.5296-13.9264 13.9264-13.9264h185.9584c8.3968 0 13.9264 5.5296 13.9264 13.9264v80.4864h0.1024z" fill="#F5BA2B" p-id="23279"></path><path d="M361.472 596.3776c0 22.528-20.0704 42.3936-42.3936 42.3936-22.528 0-42.3936-20.0704-42.3936-42.3936 0-22.528 20.0704-42.3936 42.3936-42.3936 22.3232 0 42.3936 19.8656 42.3936 42.3936z m357.0688 25.8048h-267.264c-14.848 0-30.0032-9.9328-30.0032-24.064v-1.9456c0-13.9264 12.3904-24.064 30.0032-24.064h267.3664c14.848 0 30.0032 9.9328 30.0032 24.064v1.9456c-0.1024 12.1856-12.4928 24.2688-30.1056 24.064zM361.472 742.0928c0 22.528-20.0704 42.3936-42.3936 42.3936-22.528 0-42.3936-17.6128-42.3936-42.3936 0-22.528 20.0704-42.3936 42.3936-42.3936 22.528 0 42.3936 22.3232 42.3936 44.8512v-2.4576z m357.0688 26.2144h-267.264c-14.848 0-30.0032-9.9328-30.0032-24.064v-1.9456c0-13.9264 12.3904-24.064 30.0032-24.064h267.3664c14.848 0 30.0032 9.9328 30.0032 24.064v1.9456c0 13.9264-12.3904 23.6544-30.0032 23.6544v0.4096zM361.472 884.224c0 22.528-20.0704 42.3936-42.3936 42.3936-22.528 0-42.3936-20.0704-42.3936-42.3936 0-22.528 20.0704-42.3936 42.3936-42.3936 22.3232 0 42.3936 19.8656 42.3936 42.3936z m357.0688 25.8048h-267.264c-14.848 0-30.0032-9.9328-30.0032-24.064v-1.9456c0-13.9264 12.3904-24.064 30.0032-24.064h267.3664c14.848 0 30.0032 9.9328 30.0032 24.064v1.9456c-0.1024 12.1856-12.4928 24.1664-30.1056 24.064z" fill="#CBC6D3" p-id="23280"></path><path d="M599.2448 337.6128c16.9984-37.9904 35.7376-66.2528 55.9104-84.3776 20.48-18.1248 43.52-27.3408 69.3248-27.3408 25.6 0 40.448 9.216 44.8512 27.3408 4.1984 18.1248-2.1504 46.3872-19.0464 84.3776-16.9984 38.1952-35.7376 66.4576-56.1152 84.7872-20.48 18.1248-43.52 27.3408-69.3248 27.3408-25.6 0-40.448-9.216-44.6464-27.5456-4.3008-18.1248 2.2528-46.3872 19.0464-84.5824z m44.3392 0c-12.8 28.672-19.456 48.7424-20.2752 60.3136-0.7168 11.6736 4.9152 17.408 16.9984 17.408 11.9808 0 22.9376-5.7344 32.4608-17.2032s20.5824-31.744 33.5872-60.5184c12.8-28.672 19.456-48.7424 20.2752-60.1088s-4.9152-17.2032-16.9984-17.2032c-11.9808 0-22.9376 5.7344-32.256 16.9984-9.728 11.4688-21.0944 31.5392-33.792 60.3136zM407.4496 337.6128c16.9984-37.9904 35.7376-66.2528 55.9104-84.3776 20.48-18.1248 43.52-27.3408 69.3248-27.3408 25.6 0 40.448 9.216 44.8512 27.3408 4.1984 18.1248-2.1504 46.3872-19.0464 84.3776-16.9984 38.1952-35.7376 66.4576-56.1152 84.7872-20.48 18.1248-43.52 27.3408-69.3248 27.3408-25.6 0-40.448-9.216-44.6464-27.5456-4.1984-18.1248 2.048-46.3872 19.0464-84.5824z m44.3392 0c-12.8 28.672-19.456 48.7424-20.2752 60.3136-0.7168 11.6736 4.9152 17.408 16.9984 17.408 11.9808 0 22.9376-5.7344 32.4608-17.2032s20.5824-31.744 33.5872-60.5184c12.8-28.672 19.456-48.7424 20.2752-60.1088 0.7168-11.4688-4.9152-17.2032-16.9984-17.2032-11.9808 0-22.9376 5.7344-32.256 16.9984-9.728 11.4688-20.992 31.5392-33.792 60.3136zM267.6736 293.6832l13.4144-30.208h6.144c18.944 0 34.7136-4.1984 47.7184-12.5952 10.6496-6.8608 18.1248-15.2576 22.528-25.1904h35.328l-96.9728 218.112h-43.008l66.8672-150.1184h-52.0192z" fill="#ff5eb5" p-id="23281"></path></svg>