<?xml version="1.0" standalone="no"?><!DOCTYPE svg PUBLIC "-//W3C//DTD SVG 1.1//EN" "http://www.w3.org/Graphics/SVG/1.1/DTD/svg11.dtd"><svg t="1718160052443" class="icon" viewBox="0 0 1181 1024" version="1.1" xmlns="http://www.w3.org/2000/svg" p-id="23438" xmlns:xlink="http://www.w3.org/1999/xlink" width="230.6640625" height="200"><path d="M21.108867 0h337.741871a21.108867 21.108867 0 0 1 0 42.217734H21.108867a21.108867 21.108867 0 0 1 0-42.217734z m0 464.395072h274.41527a21.108867 21.108867 0 0 1 0 42.217734H21.108867a21.108867 21.108867 0 0 1 0-42.217734z m0 485.503939h506.612806a21.108867 21.108867 0 0 1 0 42.217734H21.108867a21.108867 21.108867 0 0 1 0-42.217734z" fill="#BEBEBF" p-id="23439"></path><path d="M1008.813859 699.16789c0.211089 0.295524 0.527722 0.485504 0.717701 0.802137l168.870936 292.48446a21.108867 21.108867 0 0 1-36.560558 21.108867l-168.870935-292.48446c-0.18998-0.316633-0.18998-0.696593-0.358851-1.013226a379.959605 379.959605 0 1 1 36.201707-20.897778z m84.94208-486.580491a337.741871 337.741871 0 1 0-123.613524 461.376504 337.741871 337.741871 0 0 0 123.613524-461.376504z" fill="#70C172" p-id="23440"></path><path d="M802.136943 379.959605m-337.741871 0a337.741871 337.741871 0 1 0 675.483742 0 337.741871 337.741871 0 1 0-675.483742 0Z" fill="#C5EABF" p-id="23441"></path></svg>