<?xml version="1.0" standalone="no"?><!DOCTYPE svg PUBLIC "-//W3C//DTD SVG 1.1//EN" "http://www.w3.org/Graphics/SVG/1.1/DTD/svg11.dtd"><svg t="1716522946409" class="icon" viewBox="0 0 1171 1024" version="1.1" xmlns="http://www.w3.org/2000/svg" p-id="3917" xmlns:xlink="http://www.w3.org/1999/xlink" width="228.7109375" height="200"><path d="M947.076604 0H195.326158c-10.368921 0-19.247885 7.405583-21.049093 17.573755L0.331511 999.044604C-1.976173 1012.065612 8.092547 1024 21.382446 1024h414.412432l32.839827-10.13318H661.08777L687.980662 1024h319.235683c10.368921 0 19.244201-7.411108 21.049094-17.570072L1171.338129 199.134849 947.076604 0z" fill="#0E73FF" p-id="3918"></path><path d="M936.759252 198.906475H1171.338129L946.605122 0 915.66964 173.978705C913.352748 186.984978 923.441727 198.906475 936.75741 198.906475" fill="#85B2F1" p-id="3919"></path><path d="M610.19718 42.359712l-42.031885 237.940029L158.388489 281.003281l178.036029 191.742158h197.595165L436.142964 1024h251.990561l97.989065-551.256403h297.52541l10.337612-0.228374z" fill="#FFFFFF" p-id="3920"></path></svg>