<?xml version="1.0" standalone="no"?><!DOCTYPE svg PUBLIC "-//W3C//DTD SVG 1.1//EN" "http://www.w3.org/Graphics/SVG/1.1/DTD/svg11.dtd"><svg t="1716882860064" class="icon" viewBox="0 0 1024 1024" version="1.1" xmlns="http://www.w3.org/2000/svg" p-id="113725" xmlns:xlink="http://www.w3.org/1999/xlink" width="200" height="200"><path d="M487.5 140.2l-335 193.1c-9.3 5.4-15 15.3-15 26v485.1c0 16.6 13.4 30 30 30h690c16.6 0 30-13.4 30-30v-485c0-10.7-5.7-20.6-15-26l-335-193.1c-15.5-9-34.5-9-50-0.1z" p-id="113726"></path><path d="M862.5 829.4V369.2c0-7.1-3.8-13.8-10-17.3l-325-187.4c-9.3-5.3-20.7-5.3-30 0l-325 187.4c-6.2 3.6-10 10.2-10 17.3v460.3c0 11 9 20 20 20h660c11-0.1 20-9 20-20.1z" fill="#B87733" p-id="113727"></path><path d="M206.445 501.462l519.642-146.88 92.48 327.182-519.642 146.88z" fill="#FFFFFF" p-id="113728"></path><path d="M798 682.3l-481.1 136c-8 2.3-16.3-2.4-18.5-10.4l-81.6-288.7c-2.3-8 2.4-16.3 10.4-18.5l481.1-136c8-2.3 16.3 2.4 18.5 10.4l81.6 288.7c2.2 8-2.5 16.3-10.4 18.5zM189.9 516.5l87 307.9c4.5 15.9 21.1 25.2 37 20.7l500.4-141.5c15.9-4.5 25.2-21.1 20.7-37l-87-307.9c-4.5-15.9-21.1-25.2-37-20.7L210.6 479.4c-15.9 4.5-25.2 21.1-20.7 37.1z" p-id="113729"></path><path d="M644.413 498.534a40 40 0 1 0 12.095-79.08 40 40 0 1 0-12.095 79.08z" fill="#08A87D" p-id="113730"></path><path d="M621.6 467.4c3.3-21.8 23.8-36.8 45.6-33.5 7.7 1.2 14.6 4.5 20.1 9.2-5.3-12.2-16.5-21.5-30.7-23.7-21.8-3.3-42.2 11.7-45.6 33.5-2.2 14.1 3.4 27.6 13.4 36.3-2.9-6.6-4-14.1-2.8-21.8z" fill="#30E5B1" p-id="113731"></path><path d="M658.1 409.6c-27.3-4.2-52.8 14.6-57 41.9-4.2 27.3 14.6 52.8 41.9 57 27.3 4.2 52.8-14.6 57-41.9 4.1-27.3-14.6-52.8-41.9-57z m-12.9 84c-19.1-2.9-32.2-20.8-29.3-39.9s20.8-32.2 39.9-29.3c19.1 2.9 32.2 20.8 29.3 39.9s-20.8 32.2-39.9 29.3z" p-id="113732"></path><path d="M512.5 734.7l-375-340.1v449.8c0 16.6 13.4 30 30 30h690c16.6 0 30-13.4 30-30V394.6l-375 340.1z" p-id="113733"></path><path d="M512.5 769.7L170.9 459.9c-3.2-2.9-8.4-0.6-8.4 3.7v385.9h700V463.6c0-4.3-5.1-6.6-8.4-3.7L512.5 769.7z" fill="#F0A960" p-id="113734"></path><path d="M158.5 819.6l340.6-308.9c7.6-6.9 19.2-6.9 26.9 0l340.6 308.9v33.2H158.5v-33.2z" p-id="113735"></path><path d="M850.5 840.2L519.2 539.7c-3.8-3.5-9.6-3.5-13.4 0L174.5 840.2c-3.4 3.1-1.2 8.7 3.4 8.7h669.3c4.5 0 6.7-5.7 3.3-8.7z" fill="#F0A960" p-id="113736"></path></svg>