<?xml version="1.0" standalone="no"?><!DOCTYPE svg PUBLIC "-//W3C//DTD SVG 1.1//EN" "http://www.w3.org/Graphics/SVG/1.1/DTD/svg11.dtd"><svg t="1716455661918" class="icon" viewBox="0 0 1024 1024" version="1.1" xmlns="http://www.w3.org/2000/svg" p-id="118291" xmlns:xlink="http://www.w3.org/1999/xlink" width="200" height="200"><path d="M959.6 278v563.6c0 32.6-26.4 59.1-59.1 59.1h-777c-32.6 0-59.1-26.4-59.1-59.1V179.9c0-32.6 26.4-59.1 59.1-59.1h345.9c17.3 0 33.8 6.8 46.2 18.8l51.3 50.1c19.2 18.8 45.1 29.3 72 29.3h261.6c32.7 0 59.1 26.4 59.1 59z m0 0" fill="#1EBB56" p-id="118292"></path><path d="M716.9 540.1L568.7 436.8c-5.2-3.6-12.3 0.2-12.2 6.5l0.6 52.8c0.1 4.4-3.5 7.9-7.8 7.9H299.6c-4.3 0-7.8 3.5-7.8 7.8V586c0 4.3 3.5 7.8 7.8 7.8h251c4.3 0 7.7 3.5 7.8 7.7l0.6 52.8c0.1 6.4 7.3 10 12.4 6.2l145.7-107.7c4.3-3.2 4.2-9.7-0.2-12.7z m0 0" fill="#FFFFFF" p-id="118293"></path></svg>