<?xml version="1.0" standalone="no"?><!DOCTYPE svg PUBLIC "-//W3C//DTD SVG 1.1//EN" "http://www.w3.org/Graphics/SVG/1.1/DTD/svg11.dtd"><svg t="1716518849643" class="icon" viewBox="0 0 1024 1024" version="1.1" xmlns="http://www.w3.org/2000/svg" p-id="84170" xmlns:xlink="http://www.w3.org/1999/xlink" width="200" height="200"><path d="M339.907048 1015.673905c8.789333-3.523048 19.309714-3.08419 23.356952 0.963047 4.047238 4.047238-3.145143 6.92419-15.993905 6.4-14.201905-0.585143-17.091048-3.474286-7.375238-7.363047zM108.092952 917.333333C78.019048 885.23581 24.990476 791.686095 25.453714 771.535238c0.121905-5.302857 16.761905 20.382476 36.985905 57.063619 20.21181 36.693333 48.505905 79.201524 62.854095 94.476191C139.641905 938.361905 148.711619 950.857143 145.444571 950.857143s-20.077714-15.079619-37.351619-33.52381zM878.567619 947.041524c0-2.096762 17.822476-19.931429 39.619048-39.619048L957.805714 871.619048l-35.803428 39.619047C888.624762 948.175238 878.567619 956.464762 878.567619 947.041524z m-560.761905-114.383238c0-11.373714-15.09181-42.471619-33.523809-69.095619-30.634667-44.251429-33.499429-57.965714-33.219048-159.134477 0.24381-89.819429 5.778286-122.953143 29.293714-175.555047 28.793905-64.402286 29.147429-64.682667 52.882286-40.96 23.722667 23.734857 23.722667 24.344381-0.658286 89.502476-13.494857 36.08381-25.673143 81.93219-27.050666 101.912381-7.228952 105.020952 13.348571 123.989333 36.083809 33.243429 7.972571-31.853714 24.868571-81.432381 37.546667-110.201905l23.04-52.284953 91.550476 48.518096c50.346667 26.672762 123.245714 58.148571 161.999238 69.936762 38.741333 11.78819 72.338286 22.710857 74.654476 24.259047 9.301333 6.217143-72.216381 112.274286-118.272 153.880381-67.925333 61.366857-119.893333 85.820952-187.623619 88.246857-31.817143 1.145905-61.537524 5.753905-66.035809 10.24C342.79619 860.854857 317.805714 853.162667 317.805714 832.658286z m695.820191-169.289143c0.585143-14.201905 3.474286-17.091048 7.363047-7.375238 3.523048 8.801524 3.08419 19.321905-0.963047 23.369143-4.047238 4.047238-6.92419-3.145143-6.4-15.993905zM608.158476 501.248C452.681143 434.371048 317.805714 329.276952 317.805714 275.029333c0-47.945143 143.701333-71.960381 246.406096-41.203809 57.86819 17.347048 74.215619 1.731048 62.902857-60.111238-4.717714-25.697524-2.401524-39.619048 6.582857-39.619048 20.918857 0 39.058286 59.026286 31.366095 102.070857-6.009905 33.645714-1.682286 41.398857 36.876191 66.03581 61.610667 39.375238 117.638095 131.193905 113.127619 185.417143-3.498667 42.142476-4.303238 42.703238-64.49981 45.665523-44.982857 2.218667-82.310095-6.180571-142.409143-32.036571z m405.455238-142.640762c0.597333-14.201905 3.486476-17.091048 7.375238-7.375238 3.523048 8.801524 3.08419 19.321905-0.963047 23.369143-4.047238 4.047238-6.92419-3.145143-6.4-15.993905zM141.446095 169.910857c13.824-26.745905 26.61181-36.242286 45.068191-33.523809 39.875048 5.888 39.204571 30.841905-1.414096 51.846095-55.02781 28.464762-65.560381 24.039619-43.641904-18.322286z" fill="#FDEFD4" p-id="84171"></path><path d="M376.478476 1015.673905c8.789333-3.523048 19.309714-3.08419 23.356953 0.963047 4.047238 4.047238-3.145143 6.92419-15.993905 6.4-14.201905-0.585143-17.091048-3.474286-7.375238-7.363047z m-173.787428-41.008762C135.619048 941.202286 106.22781 910.628571 64.487619 830.939429 6.985143 721.115429 4.839619 675.230476 62.073905 779.081143c66.950095 121.490286 88.81981 147.712 155.879619 186.916571 65.828571 38.485333 55.856762 44.153905-15.262476 8.667429zM817.615238 970.142476c0-2.80381 19.72419-17.298286 43.836952-32.195047 24.100571-14.896762 59.757714-49.091048 79.238096-75.971048C960.158476 835.096381 976.091429 820.46781 976.091429 829.476571 976.091429 848.249905 848.871619 975.238095 830.061714 975.238095 823.222857 975.238095 817.615238 972.946286 817.615238 970.142476zM307.541333 828.952381c0-16.761905 2.767238-23.625143 6.144-15.238095 3.388952 8.387048 3.388952 22.101333 0 30.47619-3.376762 8.387048-6.144 1.52381-6.144-15.238095z m55.771429 10.678857c8.277333-8.338286 18.115048-12.068571 21.857524-8.326095 3.754667 3.754667-3.011048 10.569143-15.030857 15.152762-17.371429 6.607238-18.773333 5.217524-6.826667-6.826667z m-83.626667-68.583619c-15.164952-19.334095-14.750476-19.760762 4.59581-4.608 11.739429 9.20381 21.333333 18.809905 21.333333 21.333333 0 10.032762-10.008381 3.584-25.941333-16.725333zM628.662857 731.428571c26.185143-26.819048 50.346667-48.761905 53.711238-48.761904 3.352381 0-15.335619 21.942857-41.520762 48.761904s-50.346667 48.761905-53.711238 48.761905c-3.352381 0 15.335619-21.942857 41.520762-48.761905z m360.582095 29.464381c0.585143-14.201905 3.474286-17.091048 7.363048-7.375238 3.523048 8.801524 3.08419 19.321905-0.963048 23.369143-4.047238 4.047238-6.92419-3.145143-6.4-15.993905zM1002.398476 707.047619c0-16.761905 2.767238-23.625143 6.144-15.238095 3.388952 8.387048 3.388952 22.101333 0 30.47619-3.376762 8.387048-6.144 1.52381-6.144-15.238095z m14.872381-195.047619c0-77.104762 1.987048-108.641524 4.400762-70.095238 2.413714 38.558476 2.413714 101.64419 0 140.190476-2.413714 38.558476-4.388571 7.009524-4.388571-70.095238z m-782.872381 97.52381c0-16.761905 2.767238-23.625143 6.144-15.238096 3.388952 8.387048 3.388952 22.101333 0 30.476191-3.376762 8.387048-6.144 1.52381-6.144-15.238095z m494.982095-69.571048c15.164952-2.925714 37.10781-2.80381 48.761905 0.243809s-0.75581 5.436952-27.574857 5.302858c-26.819048-0.134095-36.352-2.633143-21.187048-5.546667zM389.38819 380.952381c-15.152762-19.334095-14.726095-19.760762 4.608-4.608C414.305524 392.289524 420.754286 402.285714 410.721524 402.285714c-2.523429 0-12.129524-9.593905-21.333334-21.333333z m600.624762-96.219429c-7.655619-38.15619-11.654095-71.631238-8.899047-74.398476 2.779429-2.767238 11.483429 26.014476 19.358476 63.951238 7.875048 37.936762 11.885714 71.424 8.899048 74.398476-2.974476 2.986667-11.690667-25.795048-19.346286-63.951238z m-884.662857-51.712c-10.703238-17.286095 37.38819-92.330667 71.204572-111.11619 30.22019-16.786286 34.31619-16.39619 50.115047 4.839619 9.45981 12.714667 13.190095 30.293333 8.289524 39.046095-12.373333 22.113524-122.270476 79.11619-129.621333 67.230476z m79.737905-44.787809c40.618667-20.992 41.289143-45.958095 1.414095-51.846095-18.456381-2.718476-31.24419 6.777905-45.06819 33.523809-21.906286 42.361905-11.373714 46.787048 43.654095 18.322286z m251.574857 23.125333c8.387048-3.388952 22.101333-3.388952 30.476191 0 8.387048 3.376762 1.52381 6.144-15.238096 6.144s-23.625143-2.767238-15.238095-6.144z m186.86781-11.227428c0.585143-14.201905 3.474286-17.091048 7.363047-7.375238 3.523048 8.801524 3.08419 19.321905-0.963047 23.369142-4.047238 4.047238-6.92419-3.145143-6.4-15.993904z m-12.970667-50.078477c-0.292571-22.820571 24.868571-32.475429 40.496762-15.542857 10.971429 11.873524 10.422857 13.214476-2.425905 5.912381-9.825524-5.607619-20.943238-2.596571-27.233524 7.350857-6.997333 11.044571-10.715429 11.824762-10.837333 2.279619z m291.474286-49.481142L872.472381 67.047619l33.523809 29.549714C937.325714 124.220952 945.115429 134.095238 935.545905 134.095238c-2.182095 0-17.261714-15.09181-33.52381-33.523809z" fill="#FCDC9F" p-id="84172"></path><path d="M106.288762 856.210286c-57.173333-90.575238-91.075048-169.22819-98.620952-228.778667L0.024381 566.857143l17.237333 45.592381c9.472 25.088 25.112381 58.002286 34.767238 73.142857C61.659429 700.757333 82.407619 748.81219 98.133333 792.380952c15.725714 43.580952 33.852952 86.101333 40.277334 94.476191 6.436571 8.387048 8.350476 15.238095 4.266666 15.238095-4.08381 0-20.48-20.650667-36.400762-45.884952zM1003.093333 578.56c-2.584381-108.446476-23.698286-216.917333-56.661333-290.986667C922.88 234.642286 890.758095 133.205333 890.758095 111.750095c0-14.238476 5.36381-13.141333 25.624381 5.193143 64.853333 58.684952 99.59619 216.685714 93.561905 425.532952-3.900952 134.936381-4.437333 137.74019-6.851048 36.08381z m-769.657904-12.714667c0.585143-14.201905 3.474286-17.091048 7.363047-7.375238 3.523048 8.801524 3.08419 19.321905-0.963047 23.369143-4.047238 4.047238-6.92419-3.145143-6.4-15.993905z m-231.619048-170.666666c0.585143-14.201905 3.474286-17.091048 7.363048-7.375238 3.523048 8.801524 3.08419 19.321905-0.963048 23.369142-4.047238 4.047238-6.92419-3.145143-6.4-15.993904z m334.531048-4.790857c-11.983238-13.251048-27.40419-20.638476-34.255239-16.408381-7.387429 4.571429-8.679619 1.621333-3.169523-7.302096 6.814476-11.02019 16.993524-7.728762 38.448762 12.434286C353.426286 394.191238 366.567619 408.32 366.567619 410.502095c0 9.033143-9.630476 2.620952-30.22019-20.114285z m4.912761-46.006858L311.710476 310.857143l33.52381 29.549714C376.56381 368.030476 384.353524 377.904762 374.784 377.904762c-2.182095 0-17.261714-15.09181-33.52381-33.52381zM21.479619 298.666667C34.377143 235.52 60.379429 170.22781 85.211429 138.678857c27.282286-34.681905 96.49981-91.867429 81.16419-67.047619-7.643429 12.361143-3.961905 14.372571 15.213714 8.289524 14.555429-4.632381 41.545143 0.365714 63.573334 11.763809 32.633905 16.871619 37.144381 24.624762 30.573714 52.431239C267.093333 180.614095 227.449905 219.428571 198.777905 219.428571c-10.349714 0-39.704381 22.625524-65.219048 50.273524-36.534857 39.570286-52.918857 49.030095-76.946286 44.434286-16.786286-3.206095-33.243429 0.231619-36.571428 7.631238-3.31581 7.41181-2.669714-2.986667 1.438476-23.100952z m213.479619-132.876191c4.900571-8.752762 1.170286-26.331429-8.289524-39.046095-15.798857-21.23581-19.894857-21.625905-50.102857-4.839619-33.828571 18.785524-81.92 93.830095-71.228952 111.11619 7.350857 11.885714 117.248-45.104762 129.621333-67.230476z m71.619048 119.673905c0.585143-14.201905 3.474286-17.091048 7.363047-7.375238 3.523048 8.801524 3.08419 19.321905-0.963047 23.369143-4.047238 4.047238-6.92419-3.145143-6.4-15.993905z m94.268952-74.361905c8.801524-3.523048 19.321905-3.08419 23.369143 0.963048 4.047238 4.047238-3.145143 6.92419-15.993905 6.4-14.201905-0.585143-17.091048-3.474286-7.375238-7.363048z m85.333333 0c8.801524-3.523048 19.321905-3.08419 23.369143 0.963048 4.047238 4.047238-3.145143 6.92419-15.993904 6.4-14.201905-0.585143-17.091048-3.474286-7.375239-7.363048z m-97.523809-207.238095c8.801524-3.523048 19.321905-3.08419 23.369143 0.963048 4.047238 4.047238-3.145143 6.92419-15.993905 6.4-14.201905-0.585143-17.091048-3.474286-7.375238-7.363048z m231.619048 0c8.801524-3.523048 19.321905-3.08419 23.369142 0.963048 4.047238 4.047238-3.145143 6.92419-15.993904 6.4-14.201905-0.585143-17.091048-3.474286-7.375238-7.363048z" fill="#FDD65E" p-id="84173"></path><path d="M344.832 1010.432C225.828571 990.598095 146.41981 930.413714 113.493333 835.047619l-21.040762-60.952381c-4.632381-13.409524 8.606476 5.449143 29.42781 41.923048 20.809143 36.461714 47.34781 76.824381 58.977524 89.673143 35.169524 38.89981 113.347048 73.301333 216.185905 95.158857 103.253333 21.942857 64.609524 29.025524-52.21181 9.581714z m262.497524 5.485714c8.387048-3.376762 22.101333-3.376762 30.47619 0 8.387048 3.388952 1.52381 6.15619-15.238095 6.156191s-23.625143-2.767238-15.238095-6.144z m147.2-42.995809C944.505905 869.936762 968.155429 825.86819 969.240381 572.952381c0.414476-97.219048-3.34019-195.961905-8.350476-219.428571l-9.106286-42.666667 20.626286 48.761905c16.152381 38.204952 20.772571 88.33219 21.296762 231.619047 0.658286 179.139048-0.024381 184.039619-33.670096 241.273905-48.11581 81.846857-144.969143 150.089143-246.710857 173.83619-22.393905 5.205333-6.887619-7.363048 41.20381-33.426285zM413.037714 845.007238c8.801524-3.523048 19.321905-3.08419 23.369143 0.963048 4.047238 4.047238-3.145143 6.92419-15.993905 6.4-14.201905-0.585143-17.091048-3.474286-7.375238-7.363048zM622.567619 751.201524c0-2.523429 9.593905-12.129524 21.333333-21.333334 19.334095-15.152762 19.760762-14.726095 4.608 4.608C632.56381 754.785524 622.567619 761.234286 622.567619 751.201524z" fill="#FDB05A" p-id="84174"></path><path d="M61.769143 703.024762C7.509333 604.42819 6.948571 602.233905 7.314286 487.619048c0.463238-153.636571 8.228571-181.333333 48.700952-173.592381 24.771048 4.729905 40.630857-4.327619 77.543619-44.324572C159.085714 242.054095 188.42819 219.428571 198.765714 219.428571c28.672 0 68.327619-38.814476 76.958476-75.312761 6.570667-27.818667 2.06019-35.559619-30.573714-52.431239-21.345524-11.044571-50.139429-16.542476-65.097143-12.434285-26.209524 7.18019-26.282667 6.912-2.998857-11.678476C239.932952 17.310476 462.214095-10.386286 637.854476 10.105905 770.108952 25.551238 890.758095 70.765714 890.758095 104.899048c0 9.776762 16.505905 73.325714 36.668953 141.226666 20.175238 67.900952 34.57219 125.561905 31.987809 128.134096-2.57219 2.57219-16.042667-14.567619-29.927619-38.107429-31.366095-53.162667-76.995048-67.230476-125.379048-38.64381-25.673143 15.164952-40.825905 17.310476-57.807238 8.240762-12.653714-6.777905-26.465524-9.764571-30.707809-6.656-4.230095 3.120762-4.985905 2.048-1.670095-2.377143 3.303619-4.425143-4.924952-15.713524-18.285715-25.075809C678.485333 259.632762 671.329524 240.749714 671.329524 207.542857 671.329524 144.335238 661.211429 121.904762 632.710095 121.904762c-21.455238 0-22.979048 5.668571-15.323428 56.710095l8.508952 56.722286-41.289143-8.716191c-139.995429-29.525333-241.529905-17.834667-267.580952 30.817524-18.41981 34.450286-6.265905 60.14781 56.978286 120.429714 51.285333 48.871619 53.955048 54.186667 31.451428 62.524953-13.531429 4.998095-29.805714 18.383238-36.156952 29.732571-7.838476 13.994667-14.275048 16.213333-20.053334 6.863238-4.668952-7.558095-2.681905-13.750857 4.412953-13.750857 24.441905 0 12.860952-56.746667-17.383619-85.162666l-30.305524-28.464762-22.918095 53.76c-37.766095 88.624762-43.008 101.985524-44.970667 114.724571-1.024 6.704762-4.998095 20.419048-8.813714 30.476191-3.82781 10.057143-9.910857 32-13.531429 48.761904-4.071619 18.846476-23.600762 39.631238-51.163428 54.467048-51.894857 27.940571-66.889143 59.099429-52.516572 109.190095 5.656381 19.72419 8.996571 37.168762 7.41181 38.741334-1.584762 1.584762-27.550476-41.935238-57.697524-96.719239z" fill="#FDCE02" p-id="84175"></path><path d="M182.28419 902.070857c-25.526857-26.831238-51.748571-69.351619-58.270476-94.47619-25.880381-99.754667-22.016-117.784381 32.268191-150.430477 25.148952-15.11619 47.725714-29.013333 50.176-30.841904 2.450286-1.852952 8.752762-21.479619 13.994666-43.605334 8.752762-37.010286 9.630476-35.242667 10.776381 21.942858 1.401905 70.326857 18.834286 129.950476 51.870477 177.408C295.484952 799.865905 305.615238 822.51581 305.615238 832.390095s8.070095 24.661333 17.944381 32.853334c14.34819 11.910095 21.857524 10.983619 37.449143-4.608 22.406095-22.418286 37.473524-24.697905 48.225524-7.302096 4.144762 6.704762 19.553524 12.641524 34.243047 13.177905 59.087238 2.194286-46.957714 34.499048-115.041523 35.035429-64.304762 0.512-107.958857 21.052952-87.734858 41.289143 4.412952 4.412952 3.523048 8.021333-1.987047 8.021333-5.510095 0-30.902857-21.955048-56.429715-48.786286zM622.567619 785.846857c10.057143-13.116952 25.197714-31.171048 33.645714-40.106667 8.43581-8.96 12.458667-20.943238 8.935619-26.64838-3.535238-5.692952 0.01219-14.32381 7.862858-19.17562 9.472-5.851429 11.288381-3.047619 5.38819 8.289524-4.87619 9.423238-0.24381 6.473143 10.313143-6.534095 10.556952-13.019429 19.18781-30.841905 19.187809-39.619048 0-8.777143 6.4-15.957333 14.226286-15.957333 7.814095 0 10.605714-3.608381 6.192762-8.021333-4.412952-4.412952-2.108952-15.140571 5.12-23.844572 19.492571-23.491048 5.046857-37.180952-48.249905-45.689904-51.907048-8.301714-275.943619-115.46819-264.777143-126.659048 3.791238-3.779048 0.426667-14.665143-7.472762-24.198095-7.911619-9.508571 20.23619 2.974476 62.561524 27.782095 161.158095 94.439619 304.64 129.974857 342.198857 84.723809 37.948952-45.726476-21.638095-172.348952-111.859809-237.714285-61.805714-44.763429-51.846095-48.286476 13.775238-4.876191 46.616381 30.854095 48.603429 31.110095 83.504762 10.48381 51.273143-30.281143 92.976762-15.689143 132.961524 46.531047 27.14819 42.215619 34.023619 68.900571 37.912381 147.065905 4.900571 98.048-11.78819 311.881143-19.175619 245.845334-2.255238-20.114286-10.032762-51.687619-17.298286-70.156191l-13.202286-33.596952-105.167238 56.295619c-57.831619 30.96381-129.840762 70.546286-160.01219 87.966476-46.006857 26.563048-51.907048 27.818667-36.571429 7.814095zM309.686857 595.833905c8.740571-68.120381 31.768381-122.294857 47.786667-112.396191 6.92419 4.266667 8.728381-4.59581 4.412952-21.723428-3.998476-15.920762-4.059429-21.869714-0.121905-13.202286 5.863619 12.860952 10.691048 12.860952 26.404572 0 17.493333-14.32381 17.505524-12.995048 0.195047 14.726095-10.471619 16.761905-28.562286 60.647619-40.20419 97.52381-28.525714 90.368-47.823238 107.971048-38.473143 35.072z" fill="#FDAD01" p-id="84176"></path><path d="M396.117333 1001.898667c-116.46781-24.929524-172.860952-55.722667-150.771809-82.334477 9.313524-11.227429 38.985143-17.67619 83.090286-18.017523 73.813333-0.597333 171.885714-32.219429 111.274666-35.888762-22.918095-1.389714-15.225905-7.046095 31.049143-22.844953 84.248381-28.769524 143.225905-67.169524 195.754667-127.488 24.405333-28.013714 38.66819-39.972571 31.695238-26.563047-6.985143 13.409524-22.747429 35.425524-35.023238 48.920381-60.367238 66.340571-61.074286 73.264762-4.047238 40.350476 30.171429-17.42019 102.009905-56.905143 159.634285-87.759238l104.764953-56.088381 14.09219 30.915047c36.693333 80.542476 6.241524 180.49219-73.264762 240.457143-141.421714 106.666667-283.501714 135.899429-468.23619 96.341334z" fill="#FD9601" p-id="84177"></path></svg>