<?xml version="1.0" standalone="no"?><!DOCTYPE svg PUBLIC "-//W3C//DTD SVG 1.1//EN" "http://www.w3.org/Graphics/SVG/1.1/DTD/svg11.dtd"><svg t="1730357142067" class="icon" viewBox="0 0 1024 1024" version="1.1" xmlns="http://www.w3.org/2000/svg" p-id="4360" xmlns:xlink="http://www.w3.org/1999/xlink" width="200" height="200"><path d="M153.36 0h717.24C972.88 0 1024 51.12 1024 153.36v717.24c0 102.24-51.12 153.36-153.4 153.36H153.36C51.12 1024 0 972.88 0 870.64V153.36C0 51.12 51.12 0 153.36 0z m0 0" fill="#FFDA44" p-id="4361"></path><path d="M869.36 464.56h-103.72v36.4h103.72v-36.4z m52.96-25.96v178.2a26.46 26.46 0 0 1-34.08 25.36h-307.96c-14.64 0-26.48-11.84-26.48-26.48v-177.64c0-14.64 11.84-26.48 26.48-26.48h144.24c4.2-2.8 9.24-4.4 14.64-4.4 5.44 0 10.44 1.64 14.64 4.4h142.04a26.46 26.46 0 0 1 26.48 27.04z m-52.96 150.64v-35.32h-103.72v35.32h103.72z m-156.68-124.68h-105.92v36.4h105.92v-36.4z m0 124.68v-35.32h-105.92v35.32h105.92z m155.6-226.2h-262.64v3.32c0 14.64-11.84 26.48-26.48 26.48s-26.48-11.84-26.48-26.48v-29.8c0-14.64 11.84-26.48 26.48-26.48h315.6c14.64 0 26.48 11.88 26.48 26.48v29.8c0 14.64-11.88 26.48-26.48 26.48-14.64 0-26.48-11.84-26.48-26.48v-3.32z m-423.76-33.12c14.64 0 26.48 11.84 26.48 26.48v331.04c0 14.64-11.88 26.48-26.48 26.48-14.64 0-26.48-11.84-26.48-26.48V507.6H313.2v179.84c0 14.64-11.88 26.48-26.48 26.48-14.64 0-26.48-11.84-26.48-26.48V507.6H154.32v179.84c0 14.64-11.84 26.48-26.48 26.48s-26.48-11.84-26.48-26.48V356.4c0-14.64 11.84-26.48 26.48-26.48s26.48 11.84 26.48 26.48v98.2h105.92v-8.84c0-14.64 11.84-26.48 26.48-26.48s26.48 11.88 26.48 26.48v8.84h104.84V382.88H277.92c-14.64 0-26.48-11.84-26.48-26.48s11.84-26.48 26.48-26.48h166.6z m-237.24 240.56c14.64 0 26.48 11.88 26.48 26.48v90.48c0 14.64-11.84 26.48-26.48 26.48s-26.48-11.84-26.48-26.48v-90.48c0-14.64 11.88-26.48 26.48-26.48z m-4.4-260.44c14.64 0 26.48 11.88 26.48 26.48v29.8c0 14.64-11.84 26.48-26.48 26.48s-26.48-11.84-26.48-26.48v-29.8c0-14.6 11.84-26.48 26.48-26.48z m376.28 350.92c14.64 0 26.48 11.84 26.48 26.48s-11.84 26.48-26.48 26.48-26.48-11.84-26.48-26.48 11.84-26.48 26.48-26.48z m107.04 0c14.64 0 26.48 11.84 26.48 26.48s-11.84 26.48-26.48 26.48-26.48-11.84-26.48-26.48 11.84-26.48 26.48-26.48z m104.8 0c14.64 0 26.48 11.84 26.48 26.48s-11.84 26.48-26.48 26.48-26.48-11.84-26.48-26.48c0.04-14.64 11.88-26.48 26.48-26.48z m104.84 0c14.64 0 26.48 11.84 26.48 26.48s-11.84 26.48-26.48 26.48-26.48-11.84-26.48-26.48 11.84-26.48 26.48-26.48zM365.08 570.48c14.64 0 26.48 11.88 26.48 26.48v90.48c0 14.64-11.84 26.48-26.48 26.48s-26.48-11.84-26.48-26.48v-90.48c0-14.64 11.88-26.48 26.48-26.48z m0 0" p-id="4362"></path></svg>