<?xml version="1.0" standalone="no"?><!DOCTYPE svg PUBLIC "-//W3C//DTD SVG 1.1//EN" "http://www.w3.org/Graphics/SVG/1.1/DTD/svg11.dtd"><svg t="1716518214021" class="icon" viewBox="0 0 1024 1024" version="1.1" xmlns="http://www.w3.org/2000/svg" p-id="50265" xmlns:xlink="http://www.w3.org/1999/xlink" width="200" height="200"><path d="M341.0944 976.6912s185.3952 73.9328 339.6608 0 98.0992-504.1152 98.0992-504.1152l-235.52-129.0752S382.0032 429.568 378.4192 431.9232s-152.9344 212.7872-152.9344 212.7872l26.3168 201.984z" fill="#FAC01F" p-id="50266"></path><path d="M341.0432 976.6912a248.6784 248.6784 0 0 1 19.6096-286.1568 457.1136 457.1136 0 0 0 68.9152-159.2832 187.136 187.136 0 0 1 25.6 143.36 362.0352 362.0352 0 0 0 78.9504-271.36 468.5824 468.5824 0 0 1 146.432 573.44c526.848-298.0864 131.0208-744.1408 62.208-794.368 22.9376 50.2272 27.3408 135.3216-19.0464 176.5888C645.1712 60.9792 450.9184-0.0512 450.9184-0.0512c22.9888 153.6-83.2512 321.536-185.7024 447.0272a332.4928 332.4928 0 0 0-39.68-162.1504c-7.2704 111.3088-92.16 201.984-115.2512 313.4464-31.1808 151.04 23.3984 261.5296 230.4 378.3168z" fill="#F74E05" p-id="50267"></path></svg>