<?xml version="1.0" standalone="no"?><!DOCTYPE svg PUBLIC "-//W3C//DTD SVG 1.1//EN" "http://www.w3.org/Graphics/SVG/1.1/DTD/svg11.dtd"><svg t="1716517633807" class="icon" viewBox="0 0 1024 1024" version="1.1" xmlns="http://www.w3.org/2000/svg" p-id="5535" xmlns:xlink="http://www.w3.org/1999/xlink" width="200" height="200"><path d="M331.776 303.616h147.456V404.48H393.728v22.528h86.016v86.528c0 32.768 25.6 58.88 57.344 58.88h178.688c16.384 0 29.184-13.824 29.184-29.696V455.68l-35.84 57.856h-169.472V427.008h122.88V404.48h-122.88V303.616h184.32l-15.872 70.656 97.792-93.184-60.928-70.656-15.872 70.656h-189.44V190.976h122.88v-22.528h-122.88v-61.44l41.984-24.576L479.744 25.088v256H331.776v-28.672l-67.072-41.984v564.736s-1.536 122.88-55.808 226.304c0 0 122.368-102.4 122.368-294.912l0.512-402.944z" fill="#231815" p-id="5536"></path><path d="M777.728 894.976h-104.448c-6.144 0-10.752-5.12-10.752-11.264v-266.24l-56.32 39.424v6.144H471.04v-6.144l-56.32-39.424v202.24s2.56 103.936-91.136 172.032c0 0 147.456-74.752 147.456-175.616V686.08h134.656v245.76c0 14.848 11.776 26.624 26.112 26.624h160.256c6.656 0 12.8-2.048 17.92-5.632 48.64-36.864 10.752-180.736 10.752-180.736 7.168 111.616-43.008 122.88-43.008 122.88z" fill="#231815" p-id="5537"></path></svg>