<?xml version="1.0" standalone="no"?><!DOCTYPE svg PUBLIC "-//W3C//DTD SVG 1.1//EN" "http://www.w3.org/Graphics/SVG/1.1/DTD/svg11.dtd"><svg t="1716883027891" class="icon" viewBox="0 0 1024 1024" version="1.1" xmlns="http://www.w3.org/2000/svg" p-id="120043" xmlns:xlink="http://www.w3.org/1999/xlink" width="200" height="200"><path d="M0 512V0h1024v1024H0V512z" fill="#FFFFFF" p-id="120044"></path><path d="M433.493333 873.813333c-25.258667-3.413333-52.565333-7.850667-60.757333-9.898666-131.413333-35.84-215.722667-103.082667-249.173333-200.021334-33.109333-96.256-8.533333-220.501333 61.781333-309.930666 7.850667-9.898667 11.264-19.797333 14.677333-39.253334 7.168-42.666667 19.456-80.213333 38.912-120.149333 21.162667-43.349333 19.797333-41.984 39.253334-39.253333 34.133333 4.437333 93.525333 23.210667 116.736 36.522666 11.264 6.826667 11.946667 6.826667 46.421333 1.024 19.114667-3.413333 50.176-6.485333 69.290667-6.826666l34.474666-1.024 20.48-15.018667c11.605333-8.533333 27.648-17.066667 36.181334-19.456 13.653333-4.096 17.066667-3.754667 35.157333 3.754667 45.056 18.090667 97.621333 63.829333 130.730667 114.005333 9.898667 15.018667 25.941333 35.498667 36.181333 46.08 107.52 114.005333 143.36 272.725333 87.381333 386.730667-37.205333 75.093333-100.693333 123.221333-206.848 156.672-23.893333 7.509333-47.786667 11.946667-97.28 17.749333-54.272 6.485333-95.573333 5.802667-153.6-1.706667z m28.330667-119.125333c9.898667-9.216 16.725333-17.749333 15.36-19.114667-1.024-1.365333-13.312-4.437333-27.306667-7.509333-13.653333-2.730667-26.965333-6.826667-29.354666-8.533333-2.389333-2.048-5.12-2.730667-6.144-1.706667-5.461333 5.12 18.432 53.589333 26.282666 53.589333 2.048 0 11.605333-7.509333 21.162667-16.725333z m230.4-16.384c3.072-8.192 10.922667-41.984 10.922667-47.445333 0-1.365333-5.802667 1.365333-12.629334 5.461333-7.168 4.437333-21.845333 11.264-33.109333 15.36l-20.138667 7.509333 11.946667 8.874667c10.24 7.850667 31.744 19.114667 37.205333 19.456 1.365333 0 3.754667-4.096 5.802667-9.216z m-214.357333-122.197333c34.816-3.072 84.650667-6.826667 110.933333-8.533334 146.432-9.557333 203.434667-28.672 227.328-75.776 14.677333-28.672 5.802667-92.501333-18.773333-135.850666-28.672-50.858667-88.746667-97.621333-154.282667-119.808-41.642667-13.994667-70.997333-17.749333-122.538667-15.701334-62.805333 2.730667-102.058667 15.018667-153.941333 49.152-72.362667 47.104-114.005333 119.125333-114.005333 197.973334 0 41.642667 7.850667 63.829333 29.013333 82.602666 34.133333 29.696 77.482667 35.498667 196.266667 25.941334z" fill="#F59F00" p-id="120045"></path><path d="M271.018667 825.002667c-35.84-18.773333-66.218667-40.277333-66.218667-47.104 0-7.850667 18.773333-32.426667 40.618667-53.589334 23.210667-22.186667 89.088-56.661333 89.088-46.421333 0 1.365333-3.072 7.850667-6.826667 14.677333-13.994667 25.941333-22.528 63.829333-26.624 117.418667l-2.389333 29.354667-27.648-14.336zM427.690667 773.802667c-8.874667-12.970667-24.917333-48.469333-24.917334-54.954667 0-2.389333-3.072-8.533333-7.168-13.653333-3.754667-5.12-6.144-11.264-5.12-13.994667 2.048-5.802667 14.336-6.826667 17.408-1.706667 3.413333 5.461333 31.402667 16.725333 51.882667 20.48 44.714667 8.192 136.192 2.048 177.834667-12.288 31.744-10.581333 58.709333-27.989333 58.709333-37.888 0-5.802667 11.605333-5.802667 16.725333 0.341334 2.730667 3.413333 3.072 7.168 1.024 11.264-1.706667 3.413333-4.096 17.408-5.461333 31.402666-1.024 13.994667-5.12 32.085333-8.874667 40.277334-6.144 13.653333-7.168 14.677333-16.042666 12.629333-14.336-3.754667-33.450667-14.336-43.349334-24.234667-9.557333-9.557333-12.970667-9.557333-58.368-1.024-9.216 1.706667-33.109333 3.072-52.565333 3.072l-35.157333 0.341334-13.994667 16.042666c-12.970667 14.336-38.229333 35.157333-43.008 35.157334-1.024 0-5.461333-5.12-9.557333-11.264z m34.133333-19.114667c9.898667-9.216 16.725333-17.749333 15.36-19.114667-1.024-1.365333-13.312-4.437333-27.306667-7.509333-13.653333-2.730667-26.965333-6.826667-29.354666-8.533333-2.389333-2.048-5.12-2.730667-6.144-1.706667-5.461333 5.12 18.432 53.589333 26.282666 53.589333 2.048 0 11.605333-7.509333 21.162667-16.725333z m230.4-16.384c3.072-8.192 10.922667-41.984 10.922667-47.445333 0-1.365333-5.802667 1.365333-12.629334 5.461333-7.168 4.437333-21.845333 11.264-33.109333 15.36l-20.138667 7.509333 11.946667 8.874667c10.24 7.850667 31.744 19.114667 37.205333 19.456 1.365333 0 3.754667-4.096 5.802667-9.216zM822.613333 777.557333c0-7.850667-8.874667-44.373333-13.653333-55.637333-1.706667-3.754667-6.144-14.336-9.898667-23.210667-3.754667-9.216-11.605333-23.552-17.408-32.085333s-9.898667-16.042667-9.557333-16.725333c2.730667-2.389333 54.272 12.288 68.266667 19.456 7.850667 4.096 22.528 13.312 32.426666 20.821333 20.138667 15.36 20.138667 13.653333-0.341333 43.690667-11.946667 17.749333-42.666667 51.2-46.762667 51.2-1.706667 0-3.072-3.413333-3.072-7.509334zM149.504 719.530667c-13.653333-21.162667-33.450667-69.973333-33.450667-82.944 0-6.826667 23.210667-20.138667 54.613334-31.402667 15.701333-5.802667 72.362667-18.432 74.410666-16.725333 0.682667 1.024-6.826667 11.264-17.066666 23.210666-27.989333 33.109333-63.829333 88.746667-64.170667 99.328 0 2.389333-2.389333 6.826667-4.778667 10.24-4.437333 5.461333-4.778667 5.461333-9.557333-1.706666zM368.64 634.538667c-38.229333-2.389333-50.858667-5.461333-75.093333-18.773334-40.96-22.186667-58.026667-68.608-50.858667-137.216 9.898667-92.16 83.285333-177.493333 183.978667-213.674666 83.968-30.378667 171.349333-24.917333 260.437333 16.042666 16.384 7.509333 29.696 15.018667 29.696 16.384 0 1.706667 1.706667 3.072 3.754667 3.072 8.874667 0 48.469333 36.522667 68.608 63.146667 34.474667 46.08 50.176 95.573333 45.397333 145.066667-1.706667 17.749333-4.778667 25.941333-14.677333 40.96-32.768 48.469333-81.92 64.170667-236.202667 74.752-29.013333 2.048-68.949333 5.461333-88.746667 7.168-47.445333 4.778667-86.698667 5.461333-126.293333 3.072z m109.226667-18.432c34.816-3.072 84.650667-6.826667 110.933333-8.533334 146.432-9.557333 203.434667-28.672 227.328-75.776 14.677333-28.672 5.802667-92.501333-18.773333-135.850666-28.672-50.858667-88.746667-97.621333-154.282667-119.808-41.642667-13.994667-70.997333-17.749333-122.538667-15.701334-62.805333 2.730667-102.058667 15.018667-153.941333 49.152-72.362667 47.104-114.005333 119.125333-114.005333 197.973334 0 41.642667 7.850667 63.829333 29.013333 82.602666 34.133333 29.696 77.482667 35.498667 196.266667 25.941334z" fill="#AF4700" p-id="120046"></path><path d="M484.693333 527.018667c-15.36-19.114667-21.504-47.786667-21.845333-98.645334 0-71.68 10.581333-93.184 44.032-89.088 23.552 3.072 62.805333 20.138667 96.256 41.984 51.541333 33.792 56.32 47.786667 27.648 78.165334-19.114667 20.48-62.122667 50.517333-89.429333 62.805333-23.893333 10.581333-50.176 12.970667-56.661334 4.778667zM884.394667 600.405333c-13.653333-15.018667-31.061333-31.402667-38.229334-36.522666s-13.312-10.581333-13.312-12.288c0-3.413333 57.685333-0.341333 73.386667 4.096 8.874667 2.389333 10.24 4.778667 11.264 16.384 1.365333 16.725333-2.389333 55.978667-5.461333 55.637333-1.365333 0-13.653333-12.288-27.648-27.306667zM197.973333 326.656c0-0.682667 1.706667-10.24 3.754667-21.504 6.144-34.133333 19.797333-74.752 37.205333-110.592 21.162667-43.349333 19.797333-41.984 39.253334-39.253333 33.792 4.437333 94.890667 23.552 116.053333 36.181333 12.629333 7.850667 10.581333 8.192-8.874667 1.024-23.210667-8.192-63.829333-15.018667-88.746666-15.018667-21.845333 0-23.210667 0.682667-33.450667 11.946667-12.970667 14.677333-40.618667 72.021333-53.248 110.250667-7.850667 23.552-11.946667 32.426667-11.946667 26.965333zM749.909333 258.048c-35.498667-38.570667-65.877333-62.122667-104.106666-81.237333l-28.330667-13.994667-22.869333 6.144c-12.629333 3.413333-27.306667 8.192-32.426667 10.922667-17.066667 8.533333-13.653333 2.389333 5.802667-11.946667 10.24-7.168 25.6-15.36 33.792-17.749333 13.653333-3.754667 17.066667-3.413333 35.157333 4.096 41.642667 16.725333 88.746667 55.978667 122.197333 101.717333 15.36 20.821333 23.893333 34.133333 21.845334 34.133333-0.682667 0-14.336-14.677333-31.061334-32.085333z" fill="#AF4700" p-id="120047"></path></svg>