<?xml version="1.0" standalone="no"?><!DOCTYPE svg PUBLIC "-//W3C//DTD SVG 1.1//EN" "http://www.w3.org/Graphics/SVG/1.1/DTD/svg11.dtd"><svg t="1716878352417" class="icon" viewBox="0 0 1024 1024" version="1.1" xmlns="http://www.w3.org/2000/svg" p-id="80876" xmlns:xlink="http://www.w3.org/1999/xlink" width="200" height="200"><path d="M963.8 809H60.2C26.9 809 0 782.1 0 748.8v-575c0-33.2 26.9-60.2 60.2-60.2h903.7c33.2 0 60.2 26.9 60.2 60.2v575c-0.1 33.3-27 60.2-60.3 60.2z" fill="#D3EEF2" p-id="80877"></path><path d="M636.9 492.9L439.2 720.7h395.3L636.9 492.9z m0 0" fill="#86B26F" p-id="80878"></path><path d="M602.7 720.7L339.2 417.1 75.7 720.7H0v132.7c0 31.4 25.5 56.9 56.9 56.9h910.2c31.4 0 56.9-25.5 56.9-56.9V720.7H602.7z m0 0" fill="#8FC675" p-id="80879"></path><path d="M758.5 303.5c0 41.9 33.9 75.9 75.8 75.9s75.9-33.9 75.9-75.8v-0.1c0-41.9-33.9-75.9-75.8-75.9s-75.9 33.9-75.9 75.9z m0 0" fill="#F9D28C" p-id="80880"></path></svg>