<?xml version="1.0" standalone="no"?><!DOCTYPE svg PUBLIC "-//W3C//DTD SVG 1.1//EN" "http://www.w3.org/Graphics/SVG/1.1/DTD/svg11.dtd"><svg t="1716878670970" class="icon" viewBox="0 0 1024 1024" version="1.1" xmlns="http://www.w3.org/2000/svg" p-id="97881" xmlns:xlink="http://www.w3.org/1999/xlink" width="200" height="200"><path d="M829.1328 153.6H194.8672C143.872 153.6 102.4 189.8496 102.4 234.496v555.008C102.4 834.0992 143.8208 870.4 194.8672 870.4h634.2656C880.128 870.4 921.6 834.1504 921.6 789.504V234.496C921.6 189.9008 880.1792 153.6 829.1328 153.6z" fill="#BFF4FF" p-id="97882"></path><path d="M377.4464 544L715.0592 870.4H194.8672c-48.384 0-88.064-32.512-92.16-73.9328L102.4 789.4528v-75.4176l206.6432-172.544a51.2 51.2 0 0 1 68.4032 2.5088z" fill="#94D056" p-id="97883"></path><path d="M792.1152 420.4544a48.128 48.128 0 0 1 5.632 4.864L921.6 552.448v237.056c0 42.3424-37.1712 77.1072-84.48 80.64l-7.9872 0.3072H299.2128c-7.8848 0-14.336-5.5296-14.336-12.288 0-2.9696 1.2288-5.7344 3.3792-7.936l2.4064-1.9968 429.2096-423.4752c18.5856-18.3296 50.944-20.224 72.2432-4.2496z" fill="#6CA433" p-id="97884"></path><path d="M281.6 332.8m-76.8 0a76.8 76.8 0 1 0 153.6 0 76.8 76.8 0 1 0-153.6 0Z" fill="#FA7B5C" p-id="97885"></path></svg>