<?xml version="1.0" standalone="no"?><!DOCTYPE svg PUBLIC "-//W3C//DTD SVG 1.1//EN" "http://www.w3.org/Graphics/SVG/1.1/DTD/svg11.dtd"><svg t="1716875582194" class="icon" viewBox="0 0 1126 1024" version="1.1" xmlns="http://www.w3.org/2000/svg" p-id="63370" xmlns:xlink="http://www.w3.org/1999/xlink" width="219.921875" height="200"><path d="M704 285.44a101.5296 98.56 90 1 0 197.12 0 101.5296 98.56 90 1 0-197.12 0Z" fill="#FEBB00" p-id="63371"></path><path d="M587.4688 291.9424l246.6304 508.16a136.5504 136.5504 0 0 1-122.88 196.1472H218.0608a136.5504 136.5504 0 0 1-122.8288-196.096l246.6304-508.2112a136.5504 136.5504 0 0 1 245.6576 0z" fill="#00A316" opacity=".7" p-id="63372"></path><path d="M925.3888 582.0416l105.8304 218.112a136.5504 136.5504 0 0 1-122.88 196.096h-211.6096a136.5504 136.5504 0 0 1-122.8288-196.096l105.8304-218.112a136.5504 136.5504 0 0 1 245.6576 0z" fill="#00A316" opacity=".702" p-id="63373"></path></svg>