<?xml version="1.0" standalone="no"?><!DOCTYPE svg PUBLIC "-//W3C//DTD SVG 1.1//EN" "http://www.w3.org/Graphics/SVG/1.1/DTD/svg11.dtd"><svg t="1716873272429" class="icon" viewBox="0 0 1279 1024" version="1.1" xmlns="http://www.w3.org/2000/svg" p-id="16123" xmlns:xlink="http://www.w3.org/1999/xlink" width="249.8046875" height="200"><path d="M0 0h1279.981834v1024H0z" fill="#D7D7D7" p-id="16124"></path><path d="M36.568833 36.568833h1206.844167v950.844167H36.568833z" fill="#FFFFFF" p-id="16125"></path><path d="M1082.967925 117.699688H182.553506a56.31564 56.31564 0 0 0-56.315641 56.31564v543.954584h1012.991201V173.978995a56.31564 56.31564 0 0 0-56.31564-56.31564z" fill="#98DCF0" p-id="16126"></path><path d="M756.30088 492.707352l-195.524269 225.26256h391.012205z" fill="#699B54" p-id="16127"></path><path d="M722.456997 717.969912L461.824581 417.644053 201.192166 717.969912H126.237865v131.288107a56.31564 56.31564 0 0 0 56.315641 56.31564h900.396253a56.31564 56.31564 0 0 0 56.31564-56.31564v-131.288107z" fill="#80BB67" p-id="16128"></path><path d="M876.61652 305.194437a75.026966 75.026966 0 1 0 150.053931 0.108998V305.194437a75.026966 75.026966 0 0 0-150.053931 0z" fill="#FFE68E" p-id="16129"></path></svg>