<?xml version="1.0" standalone="no"?><!DOCTYPE svg PUBLIC "-//W3C//DTD SVG 1.1//EN" "http://www.w3.org/Graphics/SVG/1.1/DTD/svg11.dtd"><svg t="1716875352439" class="icon" viewBox="0 0 1447 1024" version="1.1" xmlns="http://www.w3.org/2000/svg" p-id="27539" xmlns:xlink="http://www.w3.org/1999/xlink" width="282.6171875" height="200"><path d="M744.052671 1016.850868l691.520127-399.220184c18.099068-10.587955 15.972427-29.003756-5.112986-41.220627l-655.276745-378.270514a79.273916 79.273916 0 0 0-71.355574-2.941098L12.352614 594.418629c-18.099068 10.587955-15.972427 29.003756 5.112986 41.220627l655.186249 378.270514a79.273916 79.273916 0 0 0 71.400822 2.941098z" fill="#F5F8FC" p-id="27540"></path><path d="M909.251911 864.773452l448.585392-258.997658c13.574301-7.737351 11.764394-21.311652-3.755557-30.27069l-584.645133-337.547612a58.324246 58.324246 0 0 0-52.442048-2.171888l-448.585392 259.088153c-13.574301 7.782599-11.764394 21.311652 3.755557 30.270691l584.645133 337.547612a58.550484 58.550484 0 0 0 52.442048 2.081392z" fill="#4BCAF7" p-id="27541"></path><path d="M479.534797 498.357828l181.488401 104.793601V184.927224z" fill="#5EB735" p-id="27542"></path><path d="M842.511599 498.357828l-181.488401-316.145464v420.803322" fill="#368420" p-id="27543"></path><path d="M579.622642 629.440325l294.969555 170.312227V120.087314z" fill="#5FBF2C" p-id="27544"></path><path d="M1169.516504 629.440325L874.546949 115.653042v684.09951" fill="#388E24" p-id="27545"></path><path d="M815.31775 66.423578A66.423578 66.423578 0 1 1 748.894172 0a66.423578 66.423578 0 0 1 66.423578 66.423578z" fill="#F96726" p-id="27546"></path><path d="M695.818656 106.467765A66.423578 66.423578 0 0 1 746.088816 0a59.183951 59.183951 0 1 1-50.27016 106.37727z" fill="#FF761A" p-id="27547"></path><path d="M1009.83748 498.629314l16.28916-7.284875a19.908974 19.908974 0 0 1 18.099068 2.53387 44.387963 44.387963 0 0 1 7.330122 5.384472 46.378861 46.378861 0 0 1 5.927445-23.664531l-2.850603-4.07229 13.574301-6.153683 1.53842-0.678715a38.958243 38.958243 0 0 1 34.071495 5.158234 117.64394 117.64394 0 0 1 50.496399 73.210729 36.605364 36.605364 0 0 1 9.366268 3.891299 75.292121 75.292121 0 0 1 34.16199 58.82197 22.623835 22.623835 0 0 1-12.307366 23.121559l-15.474703 6.922894-0.58822-7.556361a40.722902 40.722902 0 0 1-5.158234-2.398127l-120.087314-69.364676a59.953162 59.953162 0 0 1-27.148601-47.012329 33.890504 33.890504 0 0 1 0.361981-4.977243l-5.474968-0.361982z" fill="#EDF0F2" p-id="27548"></path><path d="M1027.031594 501.434669a43.347267 43.347267 0 0 1 7.284875 5.384473c0.407229-32.849808 23.755026-46.01688 52.487296-29.456233a118.277407 118.277407 0 0 1 50.405903 73.210729 36.514869 36.514869 0 0 1 9.366268 3.891299 75.337369 75.337369 0 0 1 34.071495 58.82197c0 21.718881-14.931731 30.315938-33.438028 20.044718L1027.122089 563.966948a60.043657 60.043657 0 0 1-27.148601-47.012328c-0.180991-17.058371 11.990632-24.162255 27.058106-15.519951z" fill="#FFFDFD" p-id="27549"></path><path d="M504.963987 339.357518l7.511114-3.348327a9.049534 9.049534 0 0 1 8.280323 1.176439 20.044717 20.044717 0 0 1 3.348327 2.488622 21.402147 21.402147 0 0 1 2.714861-10.904688l-1.266935-1.855155 6.334674-2.89585 0.723962-0.316734a17.827582 17.827582 0 0 1 15.655694 2.398126 54.297203 54.297203 0 0 1 23.257302 33.709514 16.651142 16.651142 0 0 1 4.298528 1.764659 34.659715 34.659715 0 0 1 15.700941 27.148601 10.225973 10.225973 0 0 1-5.655958 10.587955l-7.058637 3.167337-0.271486-3.529318a20.225708 20.225708 0 0 1-2.398126-1.131192l-55.292652-31.899607a27.55583 27.55583 0 0 1-12.488356-21.628386 13.031329 13.031329 0 0 1 0-2.262383h-2.53387z" fill="#EDF0F2" p-id="27550"></path><path d="M512.791834 340.714949a19.863727 19.863727 0 0 1 3.348328 2.488621c0-15.112721 10.904688-21.130661 24.162255-13.5743a54.297203 54.297203 0 0 1 23.212054 33.709513 16.470152 16.470152 0 0 1 4.524767 1.764659 34.704962 34.704962 0 0 1 15.700941 27.148602c0 9.999735-6.877646 13.936282-15.384207 9.049533l-55.292652-31.899606a27.55583 27.55583 0 0 1-12.488356-21.628386c-0.045248-7.873094 5.384473-11.040431 12.21687-7.058636z" fill="#FFFDFD" p-id="27551"></path></svg>