<?xml version="1.0" standalone="no"?><!DOCTYPE svg PUBLIC "-//W3C//DTD SVG 1.1//EN" "http://www.w3.org/Graphics/SVG/1.1/DTD/svg11.dtd"><svg t="1716875479868" class="icon" viewBox="0 0 1024 1024" version="1.1" xmlns="http://www.w3.org/2000/svg" p-id="41023" xmlns:xlink="http://www.w3.org/1999/xlink" width="200" height="200"><path d="M266.624 810.688a159.744 159.744 0 0 1-151.104-108.8l-1.472-4.928a155.712 155.712 0 0 1-7.424-46.272V359.744l-103.488 345.6a96.896 96.896 0 0 0 67.904 117.504l659.84 176.64c8.192 2.176 16.384 3.2 24.512 3.2 42.496 0 81.28-28.16 92.16-69.76l38.528-122.24H266.624z" fill="#ECEFF1" p-id="41024"></path><path d="M1024 160v490.688c0 52.928-43.072 96-96 96H266.624c-4.224 0-8.512-0.448-12.352-0.832a95.488 95.488 0 0 1-83.2-87.488c-0.448-2.56-0.448-5.12-0.448-7.68V160c0-52.928 43.136-96 96-96H928c52.928 0 96 43.072 96 96z" fill="#ECEFF1" p-id="41025"></path><path d="M469.312 277.312q0 4.224-0.384 8.384-0.448 4.16-1.28 8.32-0.768 4.096-1.984 8.128-1.28 3.968-2.816 7.872-1.6 3.84-3.584 7.552-1.984 3.712-4.352 7.168-2.304 3.52-4.992 6.72-2.624 3.264-5.568 6.208-3.008 3.008-6.208 5.632-3.264 2.688-6.784 4.992-3.456 2.368-7.168 4.288-3.712 1.984-7.552 3.584-3.84 1.6-7.872 2.816-4.032 1.28-8.128 2.048-4.096 0.832-8.32 1.28-4.16 0.384-8.32 0.384-4.224 0-8.384-0.448-4.16-0.384-8.32-1.216-4.096-0.832-8.064-2.048-4.032-1.216-7.936-2.816-3.84-1.6-7.552-3.584-3.712-1.92-7.168-4.288-3.52-2.304-6.72-4.992-3.2-2.624-6.208-5.632-2.944-2.944-5.632-6.208-2.688-3.2-4.992-6.72-2.304-3.456-4.288-7.168-1.984-3.712-3.584-7.552-1.6-3.84-2.816-7.872-1.28-4.032-2.048-8.128-0.832-4.16-1.28-8.32-0.384-4.16-0.384-8.32 0-4.224 0.448-8.384 0.384-4.16 1.216-8.32 0.832-4.096 2.048-8.128 1.216-3.968 2.816-7.872 1.6-3.84 3.584-7.552 1.92-3.712 4.288-7.168 2.304-3.52 4.992-6.72 2.688-3.264 5.632-6.208 2.944-3.008 6.208-5.632 3.2-2.688 6.72-4.992 3.456-2.368 7.168-4.288 3.712-1.984 7.552-3.584 3.904-1.664 7.936-2.88 3.968-1.216 8.128-1.984 4.096-0.832 8.256-1.28Q379.776 192 383.936 192q4.224 0 8.384 0.384 4.224 0.448 8.32 1.28 4.096 0.768 8.128 1.984 3.968 1.28 7.872 2.88 3.84 1.6 7.552 3.584 3.712 1.92 7.168 4.288 3.52 2.304 6.784 4.992 3.2 2.624 6.208 5.632 2.944 2.944 5.568 6.208 2.688 3.2 4.992 6.72 2.368 3.456 4.352 7.168 1.92 3.712 3.584 7.552 1.6 3.84 2.816 7.872 1.216 4.032 1.984 8.128 0.832 4.16 1.28 8.32 0.384 4.16 0.384 8.32z" fill="#FFC107" p-id="41026"></path><path d="M1024 530.816v119.872c0 52.928-43.072 96-96 96H266.624a112 112 0 0 1-12.352-0.832l439.488-439.488a75.2 75.2 0 0 1 105.792 0L1024 530.816z" fill="#388E3C" p-id="41027"></path><path d="M770.56 746.688H266.624a95.488 95.488 0 0 1-95.552-88.32L373.76 455.68a75.2 75.2 0 0 1 105.792 0l291.008 291.008z" fill="#4CAF50" p-id="41028"></path></svg>