<?xml version="1.0" standalone="no"?><!DOCTYPE svg PUBLIC "-//W3C//DTD SVG 1.1//EN" "http://www.w3.org/Graphics/SVG/1.1/DTD/svg11.dtd"><svg t="1716875526647" class="icon" viewBox="0 0 1024 1024" version="1.1" xmlns="http://www.w3.org/2000/svg" p-id="43850" xmlns:xlink="http://www.w3.org/1999/xlink" width="200" height="200"><path d="M877.489231 0A146.510769 146.510769 0 0 1 1024 146.510769v560.324923a146.510769 146.510769 0 0 1-146.510769 146.51077h-43.086769c1.339077-8.034462 2.048-16.226462 2.048-24.615385V382.897231a195.347692 195.347692 0 0 0-195.347693-195.347693H195.268923c-8.388923 0-16.620308 0.708923-24.615385 2.048V146.510769A146.510769 146.510769 0 0 1 317.164308 0H877.489231z" fill="#E6E7E9" p-id="43851"></path><path d="M706.835692 170.653538a146.510769 146.510769 0 0 1 146.51077 146.51077V877.489231a146.510769 146.510769 0 0 1-146.51077 146.510769H146.510769A146.510769 146.510769 0 0 1 0 877.489231V317.164308a146.510769 146.510769 0 0 1 146.510769-146.51077h560.324923z m-383.803077 309.523693a24.418462 24.418462 0 0 0-33.476923 8.546461L95.035077 816.443077a24.418462 24.418462 0 0 0 20.992 36.903385H734.129231a24.418462 24.418462 0 0 0 20.164923-38.163693l-151.512616-222.916923a24.418462 24.418462 0 0 0-32.964923-7.089231l-99.170461 61.046154a24.418462 24.418462 0 0 1-32.768-6.695384l-107.283692-152.418462a24.418462 24.418462 0 0 0-7.483077-6.931692z m286.483693-163.209846a73.137231 73.137231 0 1 0 0 146.274461 73.137231 73.137231 0 0 0 0-146.274461z" fill="#61CC7A" p-id="43852"></path></svg>