<?xml version="1.0" standalone="no"?><!DOCTYPE svg PUBLIC "-//W3C//DTD SVG 1.1//EN" "http://www.w3.org/Graphics/SVG/1.1/DTD/svg11.dtd"><svg t="1716523790429" class="icon" viewBox="0 0 1024 1024" version="1.1" xmlns="http://www.w3.org/2000/svg" p-id="41096" xmlns:xlink="http://www.w3.org/1999/xlink" width="200" height="200"><path d="M156.544 370.048c0 43.712 0 43.712-39.04 43.712-43.776 0-43.776 0-43.776-43.712 0-41.408 0-41.408 43.776-41.408 39.04 0 39.04 0 39.04 41.408z m0 195.584v103.488c0 18.432-6.848 25.28-27.584 27.584-55.232 2.368-55.232 2.368-55.232-52.864V468.992c0-20.672 6.912-29.952 29.952-29.952 62.08 0 52.864-4.48 52.864 50.624v75.968z m398.08-50.56v156.352c0 18.432-4.672 23.04-23.04 25.28C467.2 701.44 467.2 701.44 467.2 636.928V367.744c0-34.496 2.304-39.04 36.8-39.04h16c25.344-2.368 34.56 9.152 34.56 34.56v151.744z m393.344 0v151.808c0 20.672-6.848 29.824-27.52 29.824-57.6 0-57.6 2.368-57.6-57.472v-278.4c0-25.28 9.216-34.496 34.496-34.496 52.928 0 52.928 0 52.928 50.56l-2.304 138.112z m-241.536-66.752c11.456-34.56 20.672-62.08 27.52-92.096 4.672-20.672 16.128-29.888 39.232-29.888 68.992 0 59.776 4.608 41.344 55.232-16.064 45.952-29.888 91.968-48.32 133.44-20.672 43.712-13.76 89.728-16.128 135.744 0 16.128 6.976 34.56-13.696 41.408-20.8 6.912-43.776 2.24-64.448-2.304-4.672-2.304-6.912-6.912-6.912-13.824v-4.608c16-112.64-39.104-207.04-71.36-308.224-11.52-32.256-9.152-36.864 25.344-36.864h22.976c18.432-2.304 29.952 6.912 34.56 25.344 9.216 29.888 18.368 59.776 29.888 96.64zM336 512.704V397.696c0-16.128-2.304-27.648-23.04-27.648-18.432 0-25.28 9.216-25.28 25.344v227.712c0 16.128 4.48 29.952 25.28 29.952 20.736 0 23.04-16.128 23.04-32.256V512.704z m89.6 0v105.856c0 11.52-2.24 25.28-4.48 36.8-4.672 16.064-27.648 32.192 6.848 43.712 6.912 2.304 6.912 18.368 2.304 29.824-2.304 9.28-13.824 13.824-20.672 11.584-25.28-2.304-52.928 2.24-69.12-25.28-4.48-9.28-11.52-9.28-20.608-9.28-9.216 0-18.432 0-25.344-2.24-82.816-11.52-91.968-23.04-91.968-105.856V390.72c0-36.8 13.76-55.168 48.32-66.688 43.648-13.824 87.36-11.456 131.072 2.304 29.888 9.216 43.712 29.888 43.712 64.384v121.984z m96.64-358.912c99.008-6.912 207.104 4.544 315.264 23.04 64.384 9.152 94.336 25.28 108.096 101.248 4.608 20.672-4.544 27.52-23.04 27.52-11.52 0-25.28-2.24-36.736-2.24-16.064 0-25.344-4.608-29.888-20.736-7.04-20.672-23.04-29.888-43.776-32.192-126.464-16.128-255.36-27.648-384.192-20.672-75.904 4.544-149.568 13.696-225.408 20.672-16.128 2.304-32.256 11.52-36.8 29.888-7.04 20.736-23.04 25.28-41.472 23.04H96.64c-16.064 0-23.04-6.912-23.04-25.28 0-46.08 30.016-85.12 73.6-94.4 119.68-25.344 241.664-34.496 375.04-29.888z m0 717.824c-126.464 0-243.84-6.912-356.48-27.648-59.84-11.456-92.16-50.56-92.16-103.488 0-16.128 6.976-23.04 20.8-23.04h36.736c13.824 0 25.344 4.608 29.952 20.736 6.912 23.04 23.04 32.192 46.016 34.56 55.232 6.784 108.096 13.76 163.392 18.304 87.424 4.608 172.544 7.04 259.84 0 62.208-4.48 124.352-9.152 186.432-20.672 16.128-2.304 29.952-11.52 34.496-25.344 6.976-25.28 23.04-27.52 43.776-27.52 55.168 0 57.472 2.24 43.712 55.168-9.216 32.192-27.648 55.168-62.144 66.688-52.928 16.128-110.464 20.736-165.632 25.344-66.752 4.608-133.44 9.216-188.672 6.912z" fill="#42BD56" p-id="41097"></path></svg>