<?xml version="1.0" standalone="no"?><!DOCTYPE svg PUBLIC "-//W3C//DTD SVG 1.1//EN" "http://www.w3.org/Graphics/SVG/1.1/DTD/svg11.dtd"><svg t="1716517483731" class="icon" viewBox="0 0 1024 1024" version="1.1" xmlns="http://www.w3.org/2000/svg" p-id="3429" xmlns:xlink="http://www.w3.org/1999/xlink" width="200" height="200"><path d="M694.46 211.34c20.61-9.45 44.18-14.21 66.6-9.27 15.5 3.27 28.81 13.32 38.23 25.79 10.53 14.36 16.1 32.3 15.5 50.11 0.53 25.47-11.31 49.92-28.68 68.08-1.18 1.19-2.33 2.45-3 4.01 15.11 2.02 30.62 10.28 36.97 24.78 5.77 13.55 5.17 29.93-2.34 42.71-6.94 12.32-19.15 20.62-31.76 26.36-18.34 8.01-38.22 12.03-58.06 13.94-3.56 0.81-7.22 0.67-10.83 0.84 7.84 13.28 15.62 26.63 22.29 40.56C768.14 558.12 783.75 622.87 789 688c1.96 26.07 2.96 52.28 1.64 78.41-1.49 42.57-6.73 84.98-14.9 126.79-8.46 44.35-20.19 88.07-34.79 130.8H721c14.27-40.17 25.54-81.38 34.17-123.12 11.27-55.23 18-111.51 17.23-167.92-0.8-54.68-8.29-109.51-24.71-161.77-21.68-70.07-60.55-135.47-115.2-184.79-27.7-25.31-59.26-46.31-92.98-62.71-55.99-27.27-117.6-41.86-179.53-46.58-28.25-2.48-56.66-2.1-85-1.5-85.31 3.11-170.27 15.72-252.98 36.9-7.36 1.97-14.73 3.93-22 6.19v-19.25c4.01-1.55 8.25-2.42 12.37-3.61 19.15-5.01 38.36-9.87 57.8-13.6l0.75-0.46c1.71-0.2 3.4-0.45 5.07-0.87 24.62-4.8 49.29-9.6 74.19-12.63l0.72-0.53c20.36-2.3 40.7-5.13 61.14-6.8 21.66-1.81 43.36-3.57 65.12-3.7l0.73-0.49c17.06-0.21 34.11-0.37 51.17-0.09 12.93 0.94 25.93 1.01 38.82 2.52 78.12 6.7 155.88 29.1 222.27 71.56 8.99-21.09 20.32-41.22 33.85-59.73 18.49-24.88 42.28-46.38 70.46-59.68m22.68 11.21c-17.8 5.51-34.03 15.37-48.16 27.4-27.18 22.68-46.05 53.57-60.56 85.46-0.45 1.54-2.07 3.54-0.91 5.03 20.39 15.76 40.13 32.43 58.42 50.61 14.69 15.39 27.78 32.24 39.9 49.71 18.44-0.37 36.88-2.84 54.74-7.49 13.23-3.79 26.92-8.83 36.57-19.08 6.86-7.02 9.7-17.6 7.29-27.12-1.34-8.75-9.17-14.77-17.2-17.21-11.73-3.43-24.2-3.82-36.28-2.44-8.47 0.2-16.73 2.46-25.11 3.19 16.43-9.97 31.97-21.63 45.22-35.61 12.66-13.06 22.32-29.63 24.52-47.9 2.44-16.96-1.46-35.07-11.83-48.85-6.5-8.26-15.23-15.3-25.62-17.78-13.5-3.5-27.77-1.81-40.99 2.08z" fill="" p-id="3430"></path><path d="M293.56 487.6c7.66-8.26 21.78-9.1 30.09-1.32 7.6 6.31 9.48 18.21 4.32 26.61-4.97 8.85-16.6 12.85-26.07 9.37-6.55-2.54-11.96-8.19-13.45-15.15-1.91-6.81 0.43-14.36 5.11-19.51zM525.82 687.81c8.06-1.46 16.75 2.1 21.47 8.79 6.3 8.55 4.7 21.54-3.45 28.32-5.36 4.5-12.96 6.48-19.74 4.47-9.81-2.29-17.08-12.41-15.89-22.47 0.63-9.47 8.41-17.41 17.61-19.11zM267.56 743.88c3.09-0.3 6.3-1.05 9.37-0.3 3.3 1.31 3.93 5.38 2.99 8.44-3.52 30.28-7.1 60.55-10.64 90.85-0.04 2.89-1.46 5.94-4.46 6.75-41.91 14.5-83.8 29.07-125.72 43.54-4.04 1.24-8.15-3.19-6.66-7.15 12.57-42.61 24.92-85.3 37.56-127.9 0.79-3.2 4.22-3.97 7.06-4.08 30.15-3.37 60.33-6.64 90.5-10.15m-10.59 12.45c-22.96 2.34-45.85 5.49-68.83 7.44 1.89 3.04 4.96 5.06 7.35 7.68 13.01 12.35 25.86 24.85 38.92 37.15 8.27 7.84 16.18 16.13 24.9 23.47 2.89-25.55 5.65-51.13 9.08-76.61-3.83-0.52-7.63 0.51-11.42 0.87m-78.95 13.93c-10.47 36.18-21.09 72.33-31.78 108.45 35.7-11.77 71.05-24.7 106.69-36.66-24.8-24.1-49.9-47.9-74.91-71.79z" fill="" p-id="3431"></path><path d="M717.14 222.55c13.22-3.89 27.49-5.58 40.99-2.08 10.39 2.48 19.12 9.52 25.62 17.78 10.37 13.78 14.27 31.89 11.83 48.85-2.2 18.27-11.86 34.84-24.52 47.9-13.25 13.98-28.79 25.64-45.22 35.61 8.38-0.73 16.64-2.99 25.11-3.19 12.08-1.38 24.55-0.99 36.28 2.44 8.03 2.44 15.86 8.46 17.2 17.21 2.41 9.52-0.43 20.1-7.29 27.12-9.65 10.25-23.34 15.29-36.57 19.08-17.86 4.65-36.3 7.12-54.74 7.49-12.12-17.47-25.21-34.32-39.9-49.71-18.29-18.18-38.03-34.85-58.42-50.61-1.16-1.49 0.46-3.49 0.91-5.03 14.51-31.89 33.38-62.78 60.56-85.46 14.13-12.03 30.36-21.89 48.16-27.4z" fill="#DE1713" p-id="3432"></path><path d="M274.98 275.61c28.34-0.6 56.75-0.98 85 1.5 61.93 4.72 123.54 19.31 179.53 46.58 33.72 16.4 65.28 37.4 92.98 62.71 54.65 49.32 93.52 114.72 115.2 184.79 16.42 52.26 23.91 107.09 24.71 161.77 0.77 56.41-5.96 112.69-17.23 167.92-8.63 41.74-19.9 82.95-34.17 123.12H0V318.7c7.27-2.26 14.64-4.22 22-6.19 82.71-21.18 167.67-33.79 252.98-36.9m18.58 211.99c-4.68 5.15-7.02 12.7-5.11 19.51 1.49 6.96 6.9 12.61 13.45 15.15 9.47 3.48 21.1-0.52 26.07-9.37 5.16-8.4 3.28-20.3-4.32-26.61-8.31-7.78-22.43-6.94-30.09 1.32m232.26 200.21c-9.2 1.7-16.98 9.64-17.61 19.11-1.19 10.06 6.08 20.18 15.89 22.47 6.78 2.01 14.38 0.03 19.74-4.47 8.15-6.78 9.75-19.77 3.45-28.32-4.72-6.69-13.41-10.25-21.47-8.79m-258.26 56.07c-30.17 3.51-60.35 6.78-90.5 10.15-2.84 0.11-6.27 0.88-7.06 4.08-12.64 42.6-24.99 85.29-37.56 127.9-1.49 3.96 2.62 8.39 6.66 7.15 41.92-14.47 83.81-29.04 125.72-43.54 3-0.81 4.42-3.86 4.46-6.75 3.54-30.3 7.12-60.57 10.64-90.85 0.94-3.06 0.31-7.13-2.99-8.44-3.07-0.75-6.28 0-9.37 0.3z" fill="#FEE101" p-id="3433"></path><path d="M256.97 756.33c3.79-0.36 7.59-1.39 11.42-0.87-3.43 25.48-6.19 51.06-9.08 76.61-8.72-7.34-16.63-15.63-24.9-23.47-13.06-12.3-25.91-24.8-38.92-37.15-2.39-2.62-5.46-4.64-7.35-7.68 22.98-1.95 45.87-5.1 68.83-7.44zM178.02 770.26c25.01 23.89 50.11 47.69 74.91 71.79-35.64 11.96-70.99 24.89-106.69 36.66 10.69-36.12 21.31-72.27 31.78-108.45z" fill="#F1912B" p-id="3434"></path></svg>