<?xml version="1.0" standalone="no"?><!DOCTYPE svg PUBLIC "-//W3C//DTD SVG 1.1//EN" "http://www.w3.org/Graphics/SVG/1.1/DTD/svg11.dtd"><svg t="1716518473828" class="icon" viewBox="0 0 1204 1024" version="1.1" xmlns="http://www.w3.org/2000/svg" p-id="69668" xmlns:xlink="http://www.w3.org/1999/xlink" width="235.15625" height="200"><path d="M651.806118 277.383529c40.237176 51.079529 87.582118 84.389647 140.830117 102.520471 72.884706 24.877176 151.853176 20.299294 227.508706-2.650353 6.746353-2.048 13.010824-4.096 18.672941-6.083765l8.131765-2.891294 13.492706-5.360941 9.818353-4.457412a24.094118 24.094118 0 1 1 21.323294 43.248941 397.793882 397.793882 0 0 1-57.404235 21.684706c-84.510118 25.6-173.236706 30.72-257.084236 2.168471-62.042353-21.142588-117.097412-59.994353-163.117176-118.362353a24.094118 24.094118 0 1 1 37.827765-29.816471z m5.722353-106.375529c16.926118 0 30.72 12.348235 30.72 27.648s-13.793882 27.708235-30.72 27.708235c-16.986353 0-30.72-12.408471-30.72-27.708235s13.733647-27.708235 30.72-27.708235z m328.82447-76.498824c49.091765 0 88.847059 16.323765 88.847059 36.502589 0 20.118588-39.755294 36.442353-88.847059 36.442353-49.091765 0-88.847059-16.263529-88.847059-36.442353 0-20.178824 39.755294-36.502588 88.847059-36.502589z" fill="#D5312E" p-id="69669"></path><path d="M277.504 243.350588l-16.384-9.276235-10.541176-5.662118c-18.492235-9.517176-32.587294-15.36-43.971765-16.685176a69.692235 69.692235 0 0 0-73.968941 41.562353c-4.336941 9.697882-22.106353 72.101647-26.202353 84.510117a335.510588 335.510588 0 0 1-14.697412 37.76753l-6.866824 13.131294-12.709647 23.612235c-8.613647 16.384-15.058824 30.177882-19.877647 43.791059-17.468235 48.549647-12.167529 88.907294 27.286589 113.302588-0.602353 0 3.975529 3.192471 10.179764 5.963294 20.600471 9.396706 46.742588 9.637647 76.860236-3.011764l35.056941-16.865883c49.392941-24.455529 79.510588-52.224 91.316706-97.099294 25.178353 26.503529 55.416471 52.946824 90.714353 77.643294 75.173647 52.525176 164.382118 91.075765 268.047058 109.808942 237.266824 42.767059 459.595294-160.045176 495.856942-351.352471l4.758588-26.563765c17.347765-104.508235 4.035765-134.204235-67.46353-182.693647l-2.770823-1.566117a333.101176 333.101176 0 0 0-60.29553-20.841412C864.316235 21.624471 661.202824 37.104941 420.382118 147.576471l-25.057883 11.806117a480.496941 480.496941 0 0 0-75.655529 46.381177c-16.082824 12.047059-30.238118 24.576-42.164706 37.586823z m146.974118 451.523765s7.469176 85.594353 50.29647 105.773176c24.576 11.504941 45.537882 11.926588 61.741177 8.432942l-34.816 66.499764a171.489882 171.489882 0 0 1-19.094589-8.011294c-99.267765-49.272471-58.127059-172.694588-58.127058-172.694588z m585.125647-585.487059c24.395294 6.384941 41.080471 12.649412 49.694117 16.745412l12.890353 9.035294c45.718588 33.008941 46.863059 50.838588 28.069647 150.347294-31.744 167.755294-232.026353 350.388706-439.958588 312.922353-96.617412-17.468235-179.320471-53.248-248.95247-101.918118a541.575529 541.575529 0 0 1-89.208471-77.522823l-10.962824-12.408471-8.493176-10.300235a205.281882 205.281882 0 0 1-6.023529-8.011294L247.205647 313.223529l3.132235 86.076236c2.168471 58.307765-14.697412 83.606588-61.018353 108.303059l-34.153411 16.865882c-18.853647 9.517176-32.286118 11.023059-41.743059 8.372706l-5.12-2.048c-19.154824-12.227765-21.323294-28.852706-10.721883-58.428236a255.397647 255.397647 0 0 1 11.866353-27.226352l21.022118-39.393883c7.830588-14.757647 14.817882-32.165647 21.684706-52.826353l23.491765-77.402353a33.731765 33.731765 0 0 1 0.903529-2.469647c4.638118-10.360471 12.950588-14.878118 24.455529-13.492706 3.614118 0.421647 14.095059 4.758588 27.407059 11.625412l9.517177 5.059765 14.697412 8.372706 17.347764 10.480941 19.094588 12.047059 13.251765-18.191059c10.842353-14.938353 26.804706-30.117647 46.381177-44.815059a433.091765 433.091765 0 0 1 46.561882-30.298353l14.516706-7.890823 6.324706-3.132236c241.423059-116.193882 441.524706-133.180235 593.498353-93.485176z" fill="#3C3C3C" p-id="69670"></path><path d="M429.116235 970.390588l116.856471-0.722823 44.092235-59.331765-1.445647 59.813647h96.015059l8.493176-37.526588c5.12-22.528 11.745882-44.574118 19.395765-62.042353l3.252706 11.745882c3.915294 15.179294 7.107765 31.683765 9.396706 46.863059l6.204235 40.96H831.247059v-367.435294H783.058824l-16.986353 3.072c-6.625882 2.529882-15.480471 4.397176-26.684236 5.059765l-10.842353 0.301176c-12.348235 0-25.298824-1.204706-39.273411-3.19247l-16.865883-2.770824-33.430588-5.842824-209.92 371.049412z m354.002824-319.488v271.058824h-10.300235l-2.349177-14.034824c-1.867294-10.842353-4.577882-24.154353-8.011294-37.586823-12.047059-46.983529-26.744471-68.969412-46.200471-68.969412-38.369882 0-61.560471 83.124706-70.113882 120.591059h-8.192l2.590118-107.339294-11.023059-0.481883c-3.433412-0.120471-21.985882 0.903529-51.681883 33.731765-9.396706 10.420706-45.056 58.548706-56.32 73.728l-9.456941 0.060235 152.154353-269.010823 2.409412 0.421647c12.107294 2.168471 30.479059 5.059765 50.115765 6.023529l14.095059 0.240941c20.781176-0.120471 36.321882-3.192471 47.164235-6.625882l5.12-1.807059z" fill="#3C3C3C" p-id="69671"></path></svg>