<?xml version="1.0" standalone="no"?><!DOCTYPE svg PUBLIC "-//W3C//DTD SVG 1.1//EN" "http://www.w3.org/Graphics/SVG/1.1/DTD/svg11.dtd"><svg t="1716452619554" class="icon" viewBox="0 0 1024 1024" version="1.1" xmlns="http://www.w3.org/2000/svg" p-id="6300" xmlns:xlink="http://www.w3.org/1999/xlink" width="200" height="200"><path d="M237.4 859.5c-22.4 0-42.2-16.1-46.1-38.9-19.6-115.8 15.4-233.6 95-328.3-32.9-72.7-28.2-147.9 14.3-215.4 92.5-147 254.3-186.3 480.7-117 24.7 7.6 38.6 33.7 31 58.4-7.5 24.7-33.5 38.7-58.4 31-183.7-56.3-305.9-31-374.2 77.4-19 30.2-25.4 61.7-19 94.1 107.6-83.8 236.2-115.3 331-80 95.4 35.3 150.7 116.3 140.8 206.6-9.7 88.8-77.6 156.9-168.9 169.4-100.5 13.4-239.1-50.1-322.6-142.6-39.6 54.3-74.1 132.6-57.4 230.6 4.3 25.5-12.8 49.7-38.3 54-2.7 0.4-5.3 0.7-7.9 0.7z m167.5-354.1c65.6 77.7 181.9 127.3 246.1 118.7 55.5-7.6 84.4-49.2 88.6-86.9 5.2-47.6-24.8-88.2-80.2-108.7-65.9-24.2-169.2 6.3-251.4 74.4-1 0.8-2 1.6-3.1 2.5z" fill="#4C9895" p-id="6301"></path></svg>