<?xml version="1.0" standalone="no"?><!DOCTYPE svg PUBLIC "-//W3C//DTD SVG 1.1//EN" "http://www.w3.org/Graphics/SVG/1.1/DTD/svg11.dtd"><svg t="1716519010489" class="icon" viewBox="0 0 1036 1024" version="1.1" xmlns="http://www.w3.org/2000/svg" p-id="1902" xmlns:xlink="http://www.w3.org/1999/xlink" width="202.34375" height="200"><path d="M996.399 1236.4033333a1.314 1.314 0 0 1-0.233 0.93H978.72a5.13 5.13 0 0 0-0.174-0.989z" fill="#F2AD2C" p-id="1903"></path><path d="M527.53635555 784.27742811a1013.38453333 1013.38453333 0 0 1-109.36433777-4.40661334 1112.61240889 1112.61240889 0 0 1-138.38791111-21.17404443c-26.22805333-5.81063111-52.20693333-12.58609778-77.74776889-20.92373334-14.45205333-4.73770667-22.82837333-15.56252445-22.82837333-29.57767111 0-12.50531555 9.26378667-24.38940445 22.0205511-27.93699555a27.71171555 27.71171555 0 0 1 16.22471112 0.26510221c34.75228445 11.32771555 70.27256889 19.67900445 106.13646222 26.38848 29.31256889 5.4784 58.87658667 9.48906667 88.58737778 12.55879112 34.20956445 3.52028445 68.48512 5.29408 102.85397333 5.6775111 32.38229333 0.30378667 64.75320889-0.52906667 97.08316445-2.76593777 24.37688889-1.68049778 48.71395555-3.74556445 72.86556444-7.25219556 47.39072-6.88128 94.41052445-15.64216889 139.53820444-32.42325333 16.67527111-6.20657778 30.12039111-3.21536 38.97344 8.80071111 11.34136889 15.39072 5.08245333 37.25312-13.23235555 44.87623112-20.43448889 8.49578667-41.71434667 14.46456889-63.13984 19.85080888a887.99345778 887.99345778 0 0 1-119.58044445 20.98858667 1139.05322667 1139.05322667 0 0 1-140.00241778 7.05422222z" fill="#F2AD2C" p-id="1904"></path><path d="M503.77751193 729.78527663h2.41354108a1.3784687 1.3784687 0 0 1 0.15489459 0.00437294c0.32404003 0.03667037 0.48668156 0.21584911 0.47249734 0.54219768-0.01214206 0.27908995-0.04157603 0.55742522-0.06506106 0.83573826-0.04674806 0.55693687-0.09218648 1.11409572-0.14432855 1.67074404-0.00954497 0.10122089 0.02064373 0.12341845 0.11564931 0.11875694 0.123929-0.00619312 0.24839074-0.0090344 0.37231973 0.0191121 0.27236411 0.0619534 0.43658167 0.22022202 0.43582695 0.49753619-0.00182019 0.69218662-0.00801332 1.38670401-0.15775807 2.06548328-0.13786909 0.62819107-0.60261946 1.01365174-1.25143205 1.0815541-0.62921213 0.06583797-1.21709242-0.09940069-1.79647103-0.31342961-0.09760269-0.03615982-0.16137628-0.10765819-0.13580468-0.21842402s0.08674807-0.20657052 0.21944512-0.22102113c0.07152053-0.00825749 0.13451723 0.01753609 0.19906775 0.0418202 0.45775816 0.17143178 0.9266373 0.31707001 1.42004474 0.24193123 0.53236416-0.08133187 0.76215335-0.22281914 0.88506124-0.68470603a3.63838044 3.63838044 0 0 0 0.08184243-0.40355169c0.06918982-0.46992242 0.06455052-0.94341864 0.05576029-1.41642655-0.00230855-0.12907884-0.05680357-0.18845731-0.1851277-0.20110992-0.06401778-0.00621532-0.12907884-0.00466149-0.19336298-0.00466147H501.89764467a1.0441068 1.0441068 0 0 1-0.31809109-0.04079914c-0.21172037-0.06685907-0.32918986-0.22925643-0.30645956-0.44665938 0.0774695-0.75236422 0.16188683-1.50419569 0.24397342-2.25629353a0.57913444 0.57913444 0 0 1 0.02375139-0.11309659c0.03615982-0.11283022 0.11773588-0.16910104 0.2323863-0.16266374s0.18563823 0.07953387 0.213252 0.19107662c0.01806884 0.07254164 0.00621532 0.14612657-0.00179802 0.21842403-0.07436183 0.66637087-0.14872367 1.33251974-0.22796897 1.99811368-0.01369589 0.11462823 0.03817981 0.12907884 0.13140958 0.12779137q1.87804705-0.00310766 3.75582775-0.001798c0.12910103 0 0.25820206-0.00284128 0.38730309 0 0.06246395 0.00179801 0.08752499-0.01187571 0.09267482-0.0821088 0.06042177-0.80115446 0.12470592-1.60155421 0.18384022-2.40450667 0.0144506-0.1941399-0.0219534-0.2259046-0.21249728-0.2259046H501.29296084c-0.18872367 0-0.27547178-0.06326305-0.28683693-0.20654832-0.01085462-0.13502778 0.05576027-0.22384021 0.18925644-0.24579362a0.87784705 0.87784705 0 0 1 0.14148726-0.00594894z" fill="#F2AD2C" p-id="1905"></path><path d="M514.52353002 735.63759767c-0.26670373 0-0.53340746 0.00412876-0.80037756-0.00206438-0.08830191-0.00206437-0.10792455 0.02736959-0.10610437 0.10921202 0.00488347 0.21920094 0.00332964 0.43891242 0 0.65811336-0.00182019 0.17789128-0.08108768 0.26463936-0.23058826 0.26077698-0.14355164-0.00361821-0.21842402-0.09036628-0.21944513-0.25820206-0.00128744-0.21505001-0.0072364-0.43038856 0.00230855-0.64546075 0.00466149-0.10714764-0.03380689-0.12443955-0.12907884-0.12341847-0.42574928 0.00466149-0.85203129 0.00361821-1.27751417 0-0.19029972 0-0.28685912-0.08907883-0.27702559-0.24397341 0.00619312-0.10095451 0.05522753-0.16759161 0.1548946-0.19571592a0.60492801 0.60492801 0 0 1 0.16574918-0.0173141c0.41309665 0 0.82619332-0.00255272 1.23928999 0.00235295 0.09140956 0 0.12912322-0.01396227 0.12341846-0.11698116-0.00954497-0.20164267-0.00823528-0.40430644 0-0.60621546 0.00364041-0.09476139-0.0291676-0.11154277-0.11591567-0.11049947q-0.58712556 0.00670367-1.17425111 0c-0.20368485-0.00206437-0.31187577-0.16110991-0.23054391-0.32685913 0.05163154-0.10328527 0.14716987-0.12264153 0.24994458-0.1229079 0.29251949 0 0.58503898 0.00206437 0.87782484-0.00179802 0.12779138-0.00155383 0.29820206 0.05602666 0.37101007-0.02581575 0.06299669-0.06998893 0.01833517-0.23729197 0.01962267-0.36146514 0-0.11618205-0.00592674-0.23238629 0.00206436-0.34830197 0.00697002-0.09837961-0.01988903-0.13063266-0.1247059-0.12910102-0.40432862 0.00672587-0.80865725 0.00490567-1.21347422 0.00155384-0.18796897-0.00155383-0.28401781-0.15360713-0.21327419-0.32790241 0.04337405-0.10816872 0.13684798-0.11980025 0.23367375-0.12004443 0.29664822-0.00128744 0.59382921 0.00310766 0.89023327-0.00233075 0.13966706-0.00257492 0.32736967 0.06455052 0.4055939-0.02892342 0.06843509-0.08184242 0.01755828-0.26335188 0.01937846-0.40068822 0-0.03873474-0.00128744-0.0774695 0-0.11620424 0.00774696-0.14974475 0.08261934-0.2222864 0.22668152-0.22175367 0.13502778 0 0.21480581 0.07227527 0.22102114 0.21376253 0.0064373 0.15027749 0.00748059 0.30130973 0 0.45156505-0.00388457 0.08650391 0.02581576 0.10663711 0.10816873 0.10586017q0.69038861-0.00594893 1.38077725 0c0.21249727 0.00128744 0.30441739 0.1329634 0.23547174 0.32142074-0.04026638 0.11001113-0.12907884 0.12705886-0.2277248 0.12730302-0.45593796 0-0.91189811 0.00284128-1.36839098-0.00179801-0.09706995 0-0.13451723 0.01857937-0.12907885 0.1247059 0.00927858 0.19751393 0.00876804 0.39578257 0 0.59382923-0.00490567 0.11178692 0.01884574 0.15258606 0.14277474 0.14974476 0.38728089-0.00930079 0.77456178-0.00439511 1.16182047-0.00284129 0.1639734 0 0.24013325 0.05371811 0.26155388 0.17169817 0.03125416 0.17169816-0.0583352 0.2778025-0.24346288 0.27884579-0.3999335 0.00230855-0.80037756 0.00386238-1.20004468-0.00155382-0.09478359-0.00128744-0.12652612 0.01962265-0.12239735 0.11928969 0.00852387 0.20188685 0.00621532 0.40430644 0 0.60621547-0.00230855 0.08339623 0.0209101 0.10894563 0.10741401 0.10819092 0.50759168-0.00415092 1.01518336-0.00208656 1.52330781-0.00182019a0.76681483 0.76681483 0 0 1 0.12907882 0.00568257c0.13167595 0.0227303 0.22281914 0.13167595 0.21354056 0.24941181-0.00981133 0.12315207-0.0937403 0.19906776-0.23986688 0.20110994-0.27265268 0.00388457-0.54812444 0.00104329-0.82335202 0.00130964z" fill="#F2AD2C" p-id="1906"></path><path d="M503.69127439 734.91957309H500.91808839c-0.20501669 0-0.29951171-0.0965594-0.28091018-0.27833526 0.01032187-0.10326307 0.06583797-0.16652613 0.16523867-0.18716986a0.75622659 0.75622659 0 0 1 0.1549168-0.01265259h5.4818215c0.25096564 0 0.35243071 0.12237517 0.28117653 0.33149841-0.04261932 0.12548284-0.13840181 0.14845732-0.25482803 0.14821313q-1.03276385-0.00233075-2.06370749 0z" fill="#F2AD2C" p-id="1907"></path><path d="M522.71658411 735.69595507c0.00155383 0.15309659-0.18279694 0.2532742-0.33562714 0.17167595-0.13194232-0.07047727-0.25482803-0.1585128-0.38033305-0.24113212A10.60013571 10.60013571 0 0 0 520.47036826 734.78505584c-0.16961159-0.07538293-0.21402891-0.17684797-0.15283022-0.32506111 0.05653719-0.13709216 0.17633746-0.1913208 0.31600452-0.11953389 0.66741415 0.34261939 1.33458411 0.68679261 1.93924575 1.13602691 0.09500558 0.07152053 0.14304111 0.15049947 0.1438402 0.21946732z" fill="#F2AD2C" p-id="1908"></path><path d="M788.98133333 201.34968885c10.3712 2.37013333 18.61013333 8.6848 26.58773334 15.11146667 26.05333333 21.09226667 36.46293333 49.23093333 36.40106666 82.1824q-0.26026667 137.6288-0.07466666 275.25653333a161.98293333 161.98293333 0 0 1-0.4096 17.94133334c-1.6992 15.3088-13.57226667 25.95413333-28.91946667 25.44533333a28.11413333 28.11413333 0 0 1-27.23306667-26.8608c-0.224-5.1488 0.0864-10.32213333 0.0864-15.48373333V307.75075552c0-11.88586667 0.68266667-23.88266667-5.37173333-35.07413333-12.4064-22.87786667-42.432-29.85066667-63.12533333-14.09386667-5.5584 4.2304-10.608 9.13066667-15.89333334 13.7344-1.4144 0.75733333-1.98506667 4.28053333-4.51626666 1.376a4.20586667 4.20586667 0 0 1 0.24853333-2.12053333c8.97066667-10.96746667 18.41066667-21.0912 33.18826667-24.37973334 19.50293333-4.29226667 41.872 1.89866667 53.53493333 22.55573334 4.96213333 8.6848 6.0544 17.89013333 6.0672 27.456v205.87733333c0 20.26133333 0.1856 40.5216-0.08746667 60.7936-0.12373333 9.54133333 0.96746667 18.9824 1.57546667 28.448 0.65813333 10.16213333 8.13866667 17.76746667 18.4864 19.7152 9.25546667 1.74933333 18.672-3.00266667 23.57333333-11.16586667a36.848 36.848 0 0 0 4.96213334-19.4784q-0.16106667-142.31786667-0.112-284.624a101.10293333 101.10293333 0 0 0-7.072-38.176c-6.20266667-15.024-15.14773333-28.59733333-29.00586667-38.59733333-7.02293333-5.06133333-15.3728-8.13866667-21.4272-14.5408-1.1168-1.24053333-2.0224-2.4192-1.46346667-4.10666667z" fill="#F2AD2C" p-id="1909"></path><path d="M254.32426667 277.05635552c-3.30026667 8.51093333-2.75413333 17.43146667-2.75413334 26.29013333v283.35786667c0 22.98986667-19.36746667 36.848-40.48426666 27.8656-12.1952-5.18613333-16.24-16.128-16.21546667-28.8832V299.83502219c0-23.648 4.57813333-46.0288 19.2064-65.2224 15.52-20.384 35.55733333-34.05653333 61.23946667-38.4736 0.57066667 2.48213333-1.51466667 3.1392-2.97813334 4.20586666-10.33493333 5.0496-21.73653333 8.05226667-31.01653333 14.976a104.67626667 104.67626667 0 0 0-24.81386667 25.5328c-12.76586667 18.90773333-17.3696 39.70133333-17.3696 62.12053334q0.08746667 131.424 0 262.83733333c0 8.6848 0.9312 17.3696 1.7248 25.94133333 1.07946667 11.77493333 14.20586667 24.81493333 29.3792 19.45493334 8.6848-3.07733333 13.648-10.35946667 16.40213334-18.8704 1.24053333-3.94666667 0.84266667-8.1888 0.84266666-12.32V299.20248885a109.81226667 109.81226667 0 0 1 1.41546667-17.8912c0.4096-2.48106667 0.7936-4.96213333 2.816-6.69866666 2.24533333-0.832 2.14613333 1.11573333 2.60586667 2.44266666z" fill="#F2AD2C" p-id="1910"></path><path d="M254.32426667 277.05635552a2.48106667 2.48106667 0 0 1-1.3152-2.48106667c1.57546667-10.99306667 7.92746667-18.61013333 17.568-23.28746666a71.0784 71.0784 0 0 1 16.52586666-5.1488c13.16266667-2.80533333 25.08586667 0.496 36.09066667 8.4608 13.48693333 9.77706667 24.21866667 22.3328 35.97973333 33.89546666 8.4 8.2624 17.53066667 15.68213333 26.52586667 23.26293334a68.63466667 68.63466667 0 0 1 10.5824 10.2976 37.61706667 37.61706667 0 0 0 12.40746667 10.1728c2.03413333 1.06666667 4.16853333 2.15893333 5.11146666 4.33066666 3.2 7.44426667 9.75146667 11.56266667 15.89333334 16.04266667 5.5456 4.04266667 8.82133333 10.1728 14.29226666 14.42773333 6.464 4.9632 11.936 11.46453333 18.32533334 16.5632 16.92266667 13.536 35.97866667 23.00266667 58.1376 22.98986667a106.06506667 106.06506667 0 0 0 35.16053333-5.73226667c15.52106667-5.4336 27.69173333-14.97493333 38.6592-26.54933333 3.30026667-3.47413333 7.23306667-6.20373333 10.6208-9.504 14.88746667-14.7648 31.12853333-28.21333333 45.68106667-43.30026667 9.01973333-9.34186667 19.47946667-16.9472 28.3744-26.47466666 6.50133333-6.96106667 14.3552-12.79253333 20.5216-20.29866667 1.87306667-2.28266667 4.50346667-3.8208 7.57973333-1.52533333v1.30133333c-0.2976 3.99573333-3.808 5.248-6.29013333 7.3824-17.9776 16.99733333-35.86773333 34.08213333-53.95626667 50.95466667-20.3232 18.97066667-40.27306667 38.3616-61.376 56.42666666-20.72 17.728-45.69493333 24.16853333-72.704 21.41333334-23.78453333-2.48106667-44.0192-12.67946667-60.9792-29.61493334-7.25866667-7.2448-15.12426667-13.89546667-22.7168-20.80533333-3.04-2.74133333-6.3648-5.21173333-8.6848-8.6848q-36.37653333-34.3424-72.84053333-68.6592c-8.23786667-7.71733333-16.66133333-15.248-25.0496-22.80426667-17.8528-16.06613333-44.16746667-11.84746667-59.4528 4.3424-3.59786667 3.80906667-5.80586667 8.3872-8.672 12.60586667z" fill="#F2AD2C" p-id="1911"></path><path d="M272.85973333 198.85688885l2.48106667-2.68053333c13.152-4.05653333 26.37653333-3.08906667 39.61493333-0.55786667 21.17866667 4.05653333 38.18773333 15.19786667 53.68426667 29.85066667 23.2128 21.94773333 46.16533333 44.18026667 69.9488 65.54453333q26.92266667 24.16853333 52.36906667 49.8752c13.38666667 13.5488 35.07413333 17.5808 48.70933333 10.64533334 12.096-5.33546667 20.06186667-15.73226667 29.62773333-24.16853334 1.6864-1.48906667 3.06346667-3.3248 5.1488-4.33066666 3.97013333-3.04 6.20266667-7.92746667 11.06666667-10.048a47.97653333 47.97653333 0 0 1 11.2896-11.01866667c6.50133333-6.31466667 12.79146667-12.84053333 19.56586667-18.8576l1.36533333-1.14133333c0.992-1.36533333 2.05866667-2.48106667 3.93173333-1.4144a3.04 3.04 0 0 1 0.55893334 1.76213333c-1.6256 5.91786667-6.58773333 9.35466667-10.54613334 13.44853333-11.5872 12.04693333-24.90026667 22.23253333-36.62506666 34.18026667-6.20266667 6.2784-12.40533333 12.91626667-19.40266667 18.10133333-13.152 9.6896-27.63093333 13.97013333-44.6656 9.65333334-14.88746667-3.72266667-23.77066667-14.57813333-34.36693333-23.82186667-8.176-7.13386667-15.47093333-15.136-23.48586667-22.432-6.50133333-5.9296-13.2-11.6864-19.51573333-17.90186667-17.03466667-16.7616-33.36106667-34.21866667-51.8976-49.40373333-11.42613333-9.36746667-21.62453333-20.23466667-33.64693334-28.83306667-9.85066667-7.03466667-20.11093333-13.80906667-32.95253333-14.20586666-4.96213333-0.14933333-9.392-2.39466667-14.4416-2.76693334-7.3568-0.54613333-14.26773333 1.4272-21.41333333 1.712-2.2464 0.112-4.5536 0.73173333-6.40213334-1.1904z" fill="#F2AD2C" p-id="1912"></path><path d="M621.50186667 282.00675552l-0.13653334-1.6256c-0.32213333-2.86613333 2.3328-3.27466667 3.8336-4.64 20.89386667-19.93813333 41.2032-40.54506667 63.36213334-59.056 24.9248-20.8064 53.6832-27.69173333 85.6064-20.1856 1.74933333 1.72373333 5.7568 0 6.02986666 3.99466667-4.70293333 2.3328-9.45386667 0.2976-13.9328-0.4224a92.91413333 92.91413333 0 0 0-46.41386666 4.09493333c-13.648 4.8384-26.41386667 11.47626667-35.8304 23.17546667-4.59093333 5.79413333-11.3152 9.33013333-16.51413334 14.70186666-3.46133333 3.57333333-7.232 7.22133333-10.83093333 10.73173334-7.296 7.13386667-15.49546667 13.4368-21.84853333 21.52533333a26.60053333 26.60053333 0 0 1-10.35946667 7.56906667 3.3248 3.3248 0 0 1-2.96533333 0.13653333z" fill="#F2AD2C" p-id="1913"></path><path d="M570.529 334.8343333a199.966 199.966 0 0 1-24.682 23.53c-2.128 1.733-4.78 3.385-7.92 3.199 0.348-0.86 0.5-2.326 1.07-2.49 11.852-3.826 17.598-15.225 27.217-21.808 1.372-0.942 2.233-2.675 4.315-2.431z m39.325-37.43a77.395 77.395 0 0 1-18.342 17.68c1.36-6.153 7.735-7.549 11.038-11.969 1.838-2.326 3.117-6.036 7.304-5.71z m-28.95 28.02c-3.047 3.594-5.816 7.514-10.375 9.422 2.629-4.06 3.734-9.747 10.375-9.422z m10.585-10.328a51.748 51.748 0 0 1-10.585 10.328 15.993 15.993 0 0 1 10.585-10.328z" fill="#F2AD2C" p-id="1914"></path><path d="M426.137 361.5863333c3.164 2.257 6.7 4.164 8.142 8.142-4.57-0.884-6.944-3.931-8.142-8.142z" fill="#F2AD2C" p-id="1915"></path><path d="M689.006 296.2763333l5.897-6.92 3.652-2.094a15.342 15.342 0 0 1-9.55 9.014z" fill="#F2AD2C" p-id="1916"></path><path d="M763.516 219.6033333c-1.489-1.873-4.443-1.245-5.816-3.385 4.548 0.872 9.306 1.163 13.074 4.361-1.896 2.047-3.931 0.977-5.955 0.256a3.49 3.49 0 0 1-1.303-1.233z" fill="#F2AD2C" p-id="1917"></path><path d="M618.124 290.5073333l-3.594 4.35-3.396 1.477c0.605-4.013 3.036-5.827 6.99-5.827z" fill="#F2AD2C" p-id="1918"></path><path d="M764.621 219.6603333c2.117 0 3.978 1.64 6.188 0.931a0.86 0.86 0 0 1 0.86 0.186l1.164 2.326c-4.025 1.978-6.99 1.373-8.212-3.443z" fill="#F2AD2C" p-id="1919"></path><path d="M523.6305688 730.50791833c-0.05782465-0.29458386-0.18614877-0.42599344-0.47866828-0.47687025-0.21766929-0.03769147-0.43893462-0.01420644-0.6568259-0.01522755q-0.94239757-0.00490567-1.8847951 0c-0.08286351 0-0.13063266-0.00930079-0.14894565-0.1066371-0.01680355-0.09061045-0.06224197-0.17735854-0.10328527-0.26153169-0.06712543-0.1358047-0.18306331-0.18435075-0.29227533-0.13089903-0.11798004 0.05755828-0.16239738 0.19724755-0.1084351 0.33203116 0.02039956 0.05163154 0.0619534 0.09371811 0.05602666 0.16548283h-2.50055553c-0.33822427 0-0.53289691 0.16652613-0.54372932 0.47249735-0.00981133 0.27496121-0.00568258 0.55072155 0 0.82619332 0.00257492 0.15775808 0.11851279 0.234939 0.27391794 0.19955609 0.08805773-0.01986682 0.13789126-0.07744731 0.1830633-0.1631521-0.02814651 0.20912323 0.16781359 0.29897898 0.35707001 0.25096565 0.56803564-0.14432857 1.10091037-0.37955615 1.62219793-0.64261944a0.47247514 0.47247514 0 0 0 0.14095452-0.11025532c0.11231967-0.12910103 0.05784686-0.29900119-0.10765818-0.34159829-0.11618205-0.02994451-0.21866819 0.00799113-0.31755833 0.06947837a4.75787016 4.75787016 0 0 1-1.37769179 0.58865718c-0.11076585 0.0273474-0.22512768 0.03924528-0.30981138 0.1376249a0.23442847 0.23442847 0 0 1-0.009323-0.03822421V730.61790725c0-0.16419537 0.00570477-0.1703885 0.17274147-0.1758047h5.25411889c0.23804667 0 0.31187577 0.09061045 0.27627086 0.32970041-0.02583796 0.17917872-0.09500558 0.34543849-0.15751392 0.52488358a0.42730309 0.42730309 0 0 0-0.1427747-0.11618203c-0.50810224-0.25147619-1.03016673-0.46783585-1.57647098-0.62093246-0.09425086-0.02583796-0.18745842-0.06224197-0.2886793-0.06197559-0.10532744 0-0.18743623 0.03769147-0.21764712 0.14432856a0.21713658 0.21713658 0 0 0 0.10610434 0.26490571 0.52206449 0.52206449 0 0 0 0.15493902 0.0565372 5.48262061 5.48262061 0 0 1 0.66921214 0.18330748c0.34079919 0.11773588 0.66508341 0.26825756 0.96639312 0.48102121-0.06918982-0.00621532-0.12910103-0.01627082-0.18823533-0.0162708H518.95456324c-0.2496782 0-0.49909001-0.00337403-0.74874601 0.00155379-0.31498344 0.0064373-0.48719213 0.17786907-0.49314108 0.48923431-0.00412876 0.21948951-0.00621532 0.43893462 0 0.65815778 0.01058825 0.33072151 0.1931188 0.50319657 0.52359613 0.5037071h1.48432888c0.24139851 0 0.24115434 0 0.21609328 0.2323641a1.02938982 1.02938982 0 0 0-0.0090344 0.1156493c0 0.10974475-0.04388459 0.14461713-0.16006664 0.14357385-0.69271938-0.00670367-1.38543873-0.00517204-2.07813589-0.00284129-0.35786912 0-0.54788027 0.194939-0.54970048 0.55227536v2.05232015c0 0.1869257 0.11309658 0.29045512 0.28117657 0.26619317 0.13993345-0.02013319 0.19544955-0.09269703 0.1956937-0.26697011q0.00155383-0.95529434 0-1.91058867c0-0.23622647 0.00517204-0.24011105 0.23469485-0.23984466h1.76832448c0.04543842 0 0.09320757-0.01318536 0.136848 0.01211985-0.09269703 0.27163159-0.41309665 0.62301902-0.74073269 0.81587144-0.31809107 0.18745842-0.66355177 0.29718098-1.02295252 0.37231976-0.14974475 0.03123197-0.24890128 0.15877918-0.22384024 0.26981138s0.16470592 0.18304111 0.31471707 0.15309659a4.18832508 4.18832508 0 0 0 0.56182033-0.14277473c0.70821326-0.24579362 1.28293039-0.65245297 1.60281947-1.35600477 0.0410655-0.09036628 0.08417316-0.12443955 0.18745841-0.12366263 0.77016667 0.00541621 1.54033333 0.00284128 2.31052219 0.00310767 0.2021532 0 0.24035522 0.03613762 0.24088795 0.2395783q0.00179801 0.65194243 0 1.3038405c-0.00128744 0.3098336-0.13684798 0.44408447-0.44512773 0.45726979-0.27032193 0.01160933-0.52874596-0.05165375-0.78745856-0.11593786-0.158535-0.0400222-0.26310771 0.02013319-0.30699231 0.17041069-0.03820201 0.13089903 0.02219755 0.2323641 0.17504998 0.27780252a3.05977875 3.05977875 0 0 0 0.73351849 0.13400668c0.12674808 0.01962265 0.25456167 0.00332964 0.38184249 0.00876804 0.18488351 0.0064373 0.34495012-0.04543842 0.47817992-0.18073257 0.18073256-0.18330749 0.25198674-0.41309665 0.26024424-0.65655953 0.01653717-0.49831311 0.01860156-0.9976473 0-1.4959382-0.01522752-0.41877923-0.25638186-0.63411781-0.67127654-0.63462834q-1.06399582-0.00128744-2.12825798 0c-0.2323641 0-0.2323641 0-0.2122087-0.23496121 0.01420644-0.15877918 0.03536071-0.17840182 0.20110992-0.17891237h1.0585796c0.2323641 0 0.4647282 0.00748059 0.69709229-0.00284128 0.32661496-0.01447281 0.51458393-0.20965599 0.52000012-0.53394018 0.00361821-0.21067706 0.00412876-0.42135416 0-0.63203125-0.00361821-0.16654832-0.03769147-0.32452838-0.16652612-0.44563828a0.17271923 0.17271923 0 0 0 0.15491679-0.03149835c0.05602666-0.04594896 0.10455053-0.05163154 0.17556053-0.02581576 0.12910103 0.04776916 0.24475033 0.00179801 0.32634859-0.11334077 0.07564928-0.10690347 0.11409547-0.23029972 0.1530966-0.35347398 0.04956715-0.15695897 0.04286349-0.32117654 0.06792453-0.48124318v-0.12910104a0.2230855 0.2230855 0 0 1-0.02221976-0.0472586zM522.34117893 732.81586558q-1.98597161-0.00310766-3.97220961-0.00310765c-0.17558272 0-0.20526085-0.03485018-0.20836853-0.2158269-0.00179801-0.09889012 0-0.1977803 0-0.29667045 0-0.22927862 0-0.22952281 0.22359607-0.22952281h3.85602754c0.19544955 0 0.20448395 0.01032187 0.2050167 0.20293014 0 0.14612657-0.00284128 0.29251949 0.00206437 0.43891242 0.00284128 0.08031078-0.02865706 0.10328527-0.10610435 0.10328526z" fill="#F2AD2C" p-id="1920"></path><path d="M517.70568393 731.4838786c-0.07385129-0.00206437-0.1329634 0.00721421-0.14459494-0.06403997s0.04519425-0.10068816 0.0994229-0.11205329c0.34597121-0.07254164 0.67258618-0.19906776 0.99529435-0.33977811 0.154939-0.06736961 0.29382914-0.15904553 0.44177591-0.23675921 0.08674807-0.04543842 0.16601557-0.10921201 0.27289683-0.1004218 0.03536071 0.00284128 0.07074362 0.00386238 0.08779138 0.04079913a0.08597116 0.08597116 0 0 1-0.02168703 0.10559382 0.39760276 0.39760276 0 0 1-0.08031077 0.06326305c-0.49906782 0.26051062-1.00899025 0.49467269-1.55944543 0.62661501-0.03718091 0.0090344-0.07538293 0.01394007-0.0911432 0.01678137z m-6.12084496 4.68273141c-0.17196451-0.53829091-0.35862383-1.07172056-0.59693688-1.5852612-0.06066594-0.13089903-0.21043289-0.18384022-0.32273037-0.12366261s-0.15001115 0.20654834-0.09604887 0.33562714c0.07331855 0.17325199 0.13451723 0.35165381 0.20654833 0.52541633 0.02013319 0.04879026 0.01291898 0.07023309-0.03536072 0.08339625a198.24925897 198.24925897 0 0 0-0.57163166 0.1549168v-0.87369611c0-0.13274144-0.04621533-0.3098336 0.0209101-0.38601563 0.0774695-0.08597116 0.25817984-0.02581576 0.39425095-0.02581576 0.38159833-0.00412876 0.55072155-0.16987796 0.55149844-0.55147627v-1.53569405c0-0.33977811 0.00437293-0.67982259-0.00182018-1.01960066-0.00541621-0.3098114-0.16110991-0.47840189-0.46732529-0.50990026a2.84572764 2.84572764 0 0 0-0.39915661-0.00568255c-0.08055498 0.00310766-0.10326307-0.0227303-0.10068815-0.10199782 0.00517204-0.23649284 0.00284128-0.47325206 0.00155382-0.70974488 0-0.1869257-0.0774695-0.2760045-0.23236408-0.2734296s-0.22204223 0.08546061-0.22386242 0.26697009c0 0.14199781 0.00337403 0.28399563-0.00128746 0.42574926-0.00412876 0.12703666 0.05527192 0.29251949-0.02581576 0.37025539-0.07487239 0.07176471-0.23778029 0.01624862-0.36146513 0.01729189q-0.52102121 0.00488347-0.52179813 0.52719212v1.65240884c0 0.3098336-0.00386238 0.61966718 0 0.92947856 0.00388457 0.28892348 0.14768039 0.45081033 0.43169821 0.50450624 0.12910103 0.02426194 0.25817984 0.01289679 0.3872809 0.01109878 0.07409546 0 0.09371811 0.02142065 0.09294119 0.09425086q-0.00488347 0.6322976 0 1.26510573c0 0.07487239-0.02581576 0.10146508-0.09398449 0.12392899-0.25172037 0.08366261-0.50086582 0.17531635-0.75105454 0.26412882a0.24011105 0.24011105 0 0 0-0.15491681 0.27627088c0.03485018 0.16392902 0.15647061 0.22073258 0.33771372 0.15749171 0.60208671-0.21069927 1.20548308-0.4182687 1.80550543-0.63489472 0.10095451-0.03640399 0.12701447-0.01651499 0.1512986 0.08004441 0.03511656 0.14095453 0.08776918 0.2778025 0.13529415 0.41542742 0.05163154 0.14586018 0.13889015 0.19440626 0.27547176 0.15491678 0.14716987-0.04648171 0.21274145-0.1531188 0.16625975-0.29900117z m-1.29533882-5.07336413c0.39065491 0.00566037 0.39658169 0.00670367 0.39658167 0.39502785v2.10370746c0 0.17169816-0.04337405 0.21453945-0.2104329 0.21866821-0.30645956 0.00750277-0.30645956 0.00750277-0.30645957-0.30257499 0-0.76115445 0.00155383-1.52330779-0.001798-2.28341896-0.00104329-0.09500558 0.01316316-0.13374032 0.1221088-0.13140957z m-0.57729204 1.37225336c0 0.40794683-0.00259711 0.81587144 0.00206438 1.22381828 0 0.08983354-0.01265262 0.12548284-0.11593787 0.123929-0.33356279-0.00517204-0.34699233-0.01291898-0.34699231-0.34572706v-2.06135453c0-0.28091017 0.15491679-0.39347401 0.42341851-0.30983358 0.06428415 0.02013319 0.03615982 0.07023309 0.03615983 0.10637071 0.0017758 0.42110997 0.00102109 0.84195358 0.00102109 1.26281939z m5.77152191-0.42162052c-0.01214206-0.00412876-0.02350722-0.01109878-0.03589346-0.01420642a5.7560502 5.7560502 0 0 1-0.84994472-0.29123204 4.95565045 4.95565045 0 0 1-0.75778042-0.38934527l0.14277473-0.10455052c0.32297454-0.23573814 0.64546076-0.47303009 0.9111434-0.77456179 0.11540512-0.13140956 0.18073256-0.28892348 0.12652609-0.46319655-0.05165375-0.16679249-0.20657052-0.20448395-0.3581355-0.23083247-0.23467264-0.04077692-0.47196459-0.01522752-0.70794689-0.01806882-0.36559388-0.00437293-0.73118774 0-1.09702577-0.0025749-0.03718091 0-0.10122089 0.03254164-0.09786907-0.05527195 0.00490567-0.12907884-0.07564928-0.1967148-0.1902775-0.22306331-0.11902333-0.02708103-0.198535 0.03900111-0.25198674 0.13607107-0.24863491 0.45389578-0.57913444 0.84039976-0.96330767 1.18352968a0.39374037 0.39374037 0 0 0-0.10326305 0.13089904c-0.04079912 0.09063265-0.03795783 0.17891237 0.02581576 0.2532742s0.14510546 0.07980024 0.23598229 0.0500999a0.42290798 0.42290798 0 0 0 0.18253057-0.11489459c0.16861268-0.18073256 0.3379801-0.35937855 0.50863496-0.54091022a10.43076829 10.43076829 0 0 0 0.83782485 0.7670812 8.82148933 8.82148933 0 0 1-1.06348527 0.52852398c-0.18614877 0.07564928-0.3779801 0.13784688-0.56490579 0.21145399-0.12497227 0.04905662-0.16652613 0.13811323-0.13116541 0.25429528 0.03900111 0.12910103 0.12084353 0.18073256 0.25482803 0.15493901a0.89280819 0.89280819 0 0 0 0.14614875-0.04728082c0.56801345-0.21118763 1.11018894-0.4791788 1.6389571-0.77041084 0.07358493-0.04053276 0.12317428-0.0382242 0.19520537 0.00748059A6.64754874 6.64754874 0 0 0 514.27591619 732.08805189a6.56881399 6.56881399 0 0 0 1.08439537 0.39374037c0.15491679 0.04079912 0.2969146-0.01265262 0.33254171-0.11824643 0.04235295-0.11980025-0.05422866-0.26568265-0.20912326-0.3196449z m-1.99165419-0.99815782c-0.0400222 0.02583796-0.07229747 0.03615982-0.1156715 0.00284128-0.3098336-0.23778029-0.61294133-0.480999-0.87165395-0.79753627h1.95578294c-0.2879024 0.33047733-0.61709227 0.57602678-0.96847968 0.79469499z" fill="#F2AD2C" p-id="1921"></path><path d="M781.4624 200.17102219c2.1088 3.17653333 5.2608 3.8464 8.784 3.61066666 17.69173333 10.3104 34.7392 21.33973333 45.35893333 39.70133334 6.0672 10.48426667 10.34666667 21.48906667 11.7376 33.61066666 5.25973333 46.56213333 1.6128 93.23733333 2.208 139.88586667 0.72 56.41386667 0.3968 112.90133333 0.0864 169.26613333-0.0992 17.77813333-15.66933333 32.62933333-33.67146666 27.072-8.6848-2.69333333-16.128-10.78293333-16.9728-20-0.6944-7.9904-1.24053333-16.01813333-1.24053334-24.032q-0.12373333-137.6416 0-275.28213333c0-16.128-7.44426667-28.1632-18.72213333-38.4608-4.15573333-3.79733333-9.92533333-5.0496-15.136-6.30293333-16.7488-4.09386667-32.13333333-1.0912-44.8128 11.48906666-4.09493333 4.06933333-8.02773333 8.31253333-12.0352 12.48106667-3.15093333-0.30933333-6.0416 0.63253333-7.4432 3.424-3.16373333 6.4896-8.82133333 11.3152-14.08213333 15.03786667-9.42933333 6.736-15.4592 16.97173333-25.83146667 22.67946666-5.19786667 2.85333333-8.11306667 9.01973333-12.9024 13.05173334-9.64053333 8.11413333-18.84586667 16.8608-27.84 25.58293333-7.56906667 7.344-15.49653333 14.39146667-22.9536 21.8848-8.08853333 8.12693333-16.464 15.584-26.6368 21.51466667-15.0368 8.75733333-31.25333333 11.53706667-47.7664 11.81013333s-31.93493333-4.96213333-46.52586667-13.64693333c-12.53013333-7.44533333-21.94666667-18.06506667-32.74133333-27.296-8.31253333-7.09546667-15.07413333-15.9296-24.528-21.69813334a3.10186667 3.10186667 0 0 1-1.33973333-1.2416c-3.648-9.80053333-14.88853333-12.04693333-20.12373334-19.60213333-6.53866667-9.392-16.128-15.06133333-24.18133333-22.4064a5062.81813333 5062.81813333 0 0 0-22.1952-20.18666667c-5.1488-4.64-9.1936-10.6688-14.6528-15.3472-9.056-7.75466667-17.92746667-15.48266667-29.664-19.1552-5.80693333-1.8112-11.56266667-0.84373333-16.99733333 0a67.6416 67.6416 0 0 0-20.2848 6.6496c-6.55146667 3.36213333-10.336 9.92533333-13.1392 16.72533334a28.31253333 28.31253333 0 0 1-2.19626667 3.7216c-3.7216 6.30186667-3.7216 13.38666667-3.7216 20.26026666q-0.16106667 144.736 0.0992 289.48693334c0 12.0096-5.968 19.94986667-14.0192 27.12106666-5.03786667 4.47893333-22.19626667 2.48106667-28.36266667-3.38773333-10.91733333-10.384-9.44106667-23.2128-9.51466666-35.08586667-0.57173333-92.976-0.39786667-185.9648-0.21226667-278.94186666 0-13.64693333 3.6608-26.69866667 9.04533333-39.29173334a84.192 84.192 0 0 1 13.8336-22.49386666c7.81546667-8.9568 15.9296-18.49813333 26.81066667-22.976 8.53546667-3.51253333 16.3648-9.2064 25.8432-10.41066667 6.48853333 0.17386667 12.74133333-1.86026667 19.09333333-2.28266667 7.96586667-0.53333333 15.856 1.96053333 23.7344 2.77973334 17.3696 1.7984 30.75626667 11.16586667 42.6176 21.8976 9.34186667 8.43733333 18.73386667 17.184 28.34986667 25.1488 11.6864 9.6768 21.30133333 21.36426667 33.088 30.85546666 6.5632 5.29706667 11.74933333 12.28266667 17.70453333 18.3616 5.13706667 5.23626667 11.26613333 9.35466667 16.43946667 14.64 2.95253333 3.01546667 6.1408 5.94346667 9.20533333 8.6848 3.38773333 3.0272 6.20373333 6.82346667 10.07466667 9.35466667 5.21066667 3.39946667 9.21813333 8.34986667 13.18826667 12.816 13.1136 14.71466667 29.776 18.61013333 47.75466666 15.91786667 7.84-1.17866667 16.016-5.6448 22.2688-11.8112 12.97813333-12.82773333 26.72426667-24.8128 40-37.31946667 8.6848-8.21333333 18.74666667-15.3344 25.11146667-25.90506667 8.52266667-4.29226667 14.6144-11.16586667 20.70613333-18.32533333 4.67733333-5.52 10.9184-9.71413333 16.40213334-14.56533333 3.16373333-2.8032 6.20373333-6.016 8.9952-8.94506667 7.6544-7.8784 15.89333333-15.16053333 24.06933333-22.33173333 12.26986667-10.73173333 27.29493333-16.20266667 43.50933333-19.26826667 15.3728-2.89066667 30.112 0.3232 45.11146667 1.5264z" fill="#F2AD2C" p-id="1922"></path></svg>