<?xml version="1.0" standalone="no"?><!DOCTYPE svg PUBLIC "-//W3C//DTD SVG 1.1//EN" "http://www.w3.org/Graphics/SVG/1.1/DTD/svg11.dtd"><svg t="1716449160523" class="icon" viewBox="0 0 1024 1024" version="1.1" xmlns="http://www.w3.org/2000/svg" p-id="2668" xmlns:xlink="http://www.w3.org/1999/xlink" width="200" height="200"><path d="M896 665.6V428.8c0-19.2-12.8-44.8-32-51.2l-76.8-19.2-115.2 236.8S550.4 300.8 550.4 294.4l-128-38.4h-12.8c-38.4 0-64 25.6-64 64v352c0 32 25.6 57.6 57.6 57.6h6.4l51.2-6.4h-6.4V352l147.2 358.4 108.8-12.8 140.8-275.2v198.4c0 70.4-51.2 128-128 140.8l-352 32h-6.4c-57.6 0-108.8-44.8-108.8-102.4V326.4c0-38.4 0-70.4 25.6-108.8 25.6-25.6 57.6-38.4 96-38.4 12.8 0 25.6 0 38.4 6.4l403.2 115.2h6.4c12.8 0 19.2-12.8 19.2-19.2-6.4-19.2-12.8-25.6-19.2-25.6L390.4 140.8C371.2 128 345.6 128 320 128 211.2 128 128 211.2 128 313.6v409.6C128 819.2 204.8 896 307.2 896H320l390.4-38.4c108.8-6.4 185.6-89.6 185.6-192" fill="#F06000" p-id="2669"></path></svg>