<?xml version="1.0" standalone="no"?><!DOCTYPE svg PUBLIC "-//W3C//DTD SVG 1.1//EN" "http://www.w3.org/Graphics/SVG/1.1/DTD/svg11.dtd"><svg t="1711627955378" class="icon" viewBox="0 0 1024 1024" version="1.1" xmlns="http://www.w3.org/2000/svg" p-id="5485" xmlns:xlink="http://www.w3.org/1999/xlink" width="128" height="128"><path d="M439.690485 1003.522969l-321.233421-183.65337a144.61903 144.61903 0 0 1-72.949423-124.781907V327.780952c0-51.832484 27.51601-99.185618 72.949423-124.781907L439.690485 19.345675c44.793505-25.596289 100.465433-25.596289 145.258937 0l321.233421 183.65337c44.793505 25.596289 72.949422 73.58933 72.949423 124.781907v366.666833c0 51.832484-27.51601 99.185618-72.949423 124.781907l-321.233421 183.65337c-45.433412 26.236196-100.465433 26.236196-145.258937 0.639907z m0 0" fill="#FFA820" p-id="5486"></path><path d="M51.906714 284.907168c8.958701-17.917402 18.557309-35.834804 29.435731-52.472391-13.438051 15.357773-23.676567 32.635268-29.435731 52.472391zM596.467752 25.744747L584.309515 19.345675C542.075639-4.970799 490.883062-6.250614 447.369371 14.866324c12.798144-1.279814 25.596289-1.279814 38.394433-1.279814 38.394433 0 75.509051 3.839443 110.703948 12.158237zM44.867734 694.447785c0 51.832484 27.51601 99.185618 72.949423 124.781907l19.197216 10.878422A484.281779 484.281779 0 0 1 44.867734 694.447785z m934.264532 0V327.780952c0-51.832484-27.51601-99.185618-72.949423-124.781907l-71.0297-40.314154c83.187938 87.027381 134.380515 204.770308 134.380515 334.031565a483.129946 483.129946 0 0 1-593.833894 470.331802l63.990721 36.474711c44.793505 25.596289 100.465433 25.596289 145.258937 0l321.233421-183.65337c44.793505-26.236196 72.949422-73.58933 72.949423-125.421814z m0 0" fill="#FEAC33" p-id="5487"></path><path d="M969.533658 496.716456a479.93041 479.93041 0 0 0-134.380515-334.031565L596.467752 25.744747C561.272855 17.425953 524.158237 12.946603 485.763804 12.946603c-12.798144 0-25.596289 0.639907-38.394433 1.279814-2.559629 1.919722-5.119258 3.199536-7.678886 5.119258l-100.465433 56.951742c39.674247-12.798144 81.908123-19.197216 126.061721-19.197217a417.283494 417.283494 0 0 1 0 834.439007A417.283494 417.283494 0 0 1 186.927136 163.324798l-69.109979 39.674247c-13.438051 7.678887-25.596289 17.917402-36.474712 29.435732-10.878423 16.637588-20.477031 34.55499-29.435731 52.472391-4.47935 14.077959-7.038979 28.155917-7.03898 42.873784v366.026926c23.03666 50.55267 54.392113 97.265896 92.146639 136.940144l238.045483 136.300236c35.194897 8.318794 72.309515 12.798144 110.703948 12.798144 267.481215 0 483.769853-216.288638 483.769854-483.129946z m0 0" fill="#FEB133" p-id="5488"></path><path d="M48.707177 473.679796a417.283494 417.283494 0 0 0 834.439007 0c0-230.366597-186.852906-417.219503-417.219503-417.219503-44.153598 0-86.387474 7.038979-126.061721 19.197217L187.567043 163.324798A415.235791 415.235791 0 0 0 48.707177 473.679796z m396.102566-373.065905c193.891886 0 350.669153 156.777267 350.669153 350.669153 0 193.891886-156.777267 350.669153-350.669153 350.669153-193.891886 0-350.669153-156.777267-350.669153-350.669153 0-193.891886 157.417175-350.669153 350.669153-350.669153z m0 0" fill="#FEB633" p-id="5489"></path><path d="M444.809743 801.952197c193.891886 0 350.669153-156.777267 350.669153-350.669153 0-193.891886-156.777267-350.669153-350.669153-350.669153-193.891886 0-350.669153 156.777267-350.669153 350.669153 0 193.251978 157.417175 350.669153 350.669153 350.669153zM424.332712 143.487674c157.417175 0 284.75871 127.341535 284.75871 284.75871s-127.341535 284.75871-284.75871 284.75871-284.75871-127.341535-284.75871-284.75871 127.981443-284.75871 284.75871-284.75871z m0 0" fill="#FFBC34" p-id="5490"></path><path d="M424.332712 713.005094c157.417175 0 284.75871-127.341535 284.75871-284.75871S581.749886 143.487674 424.332712 143.487674 139.574002 270.82921 139.574002 428.246384s127.981443 284.75871 284.75871 284.75871z m-20.477031-526.003729c120.302556 0 218.20836 97.905804 218.20836 218.20836 0 120.302556-97.905804 218.20836-218.20836 218.208359-120.302556 0-218.20836-97.905804-218.20836-218.208359 0-120.302556 97.905804-218.20836 218.20836-218.20836z m0 0" fill="#FFC134" p-id="5491"></path><path d="M403.855681 624.057992c120.302556 0 218.20836-97.905804 218.20836-218.20836 0-120.302556-97.905804-218.20836-218.20836-218.20836-120.302556 0-218.20836 97.905804-218.20836 218.20836 0 120.302556 97.905804 218.20836 218.20836 218.20836zM383.37865 230.515055a152.297917 152.297917 0 1 1 0 304.595834 152.297917 152.297917 0 1 1 0-304.595834z m0 0" fill="#FFC634" p-id="5492"></path><path d="M231.080733 382.812972a152.297917 152.297917 0 1 0 304.595834 0 152.297917 152.297917 0 1 0-304.595834 0z m0 0" fill="#FFCB34" p-id="5493"></path><path d="M512 20.625489c21.756845 0 43.513691 5.759165 62.071 16.637588l321.233421 183.65337c38.394433 21.756845 62.071 62.710907 62.071 106.864505v366.666833c0 44.153598-23.676567 85.107659-62.071 106.864505l-321.233421 183.65337a123.502092 123.502092 0 0 1-124.142 0L128.055672 801.31229c-38.394433-21.756845-62.071-62.710907-62.071-106.864505V327.780952c0-44.153598 23.676567-84.467752 62.071-106.864505L449.289093 37.263077c19.197216-10.878423 40.954062-16.637588 62.710907-16.637588M512 0.148458c-25.596289 0-50.55267 6.399072-72.309515 19.197217L117.817157 202.999045C73.023652 228.595334 44.867734 275.948467 44.867734 327.780952v366.666833c0 51.832484 27.51601 99.185618 72.949423 124.781907l321.233421 183.65337a145.642882 145.642882 0 0 0 144.61903 0l321.233421-183.65337c44.793505-25.596289 72.949422-73.58933 72.949422-124.781907V327.780952c0-51.832484-27.51601-99.185618-72.949422-124.781907L584.309515 19.345675C562.55267 6.547531 537.596289 0.148458 512 0.148458z m0 0" fill="#FFA820" p-id="5494"></path><path d="M477.44501 745.640362l-153.577731-87.667288c-21.756845-12.158237-34.55499-35.194897-34.554989-59.511371V423.767034c0-24.316474 13.438051-47.353134 34.554989-59.511371l153.577731-87.667288c21.756845-12.158237 47.993041-12.158237 69.10998 0l153.577731 87.667288c21.756845 12.158237 34.55499 35.194897 34.554989 59.511371v174.694669c0 24.316474-13.438051 47.353134-34.554989 59.511371l-153.577731 87.667288c-21.116938 12.158237-47.993041 12.158237-69.10998 0z m0 0" fill="#FFE3B4" p-id="5495"></path><path d="M113.977713 402.010189c-11.51833 0-21.116938-9.598608-21.116938-21.116939v-44.793504c0-33.915082 17.277495-65.270536 46.07332-83.187938l40.314154-24.956382c9.598608-6.399072 23.03666-3.199536 28.795825 7.03898 6.399072 9.598608 3.199536 23.03666-7.03898 28.795824l-39.674247 24.316475c-15.99768 10.878423-26.236196 28.155917-26.236196 47.993041v44.793504c0 11.51833-9.598608 21.116938-21.116938 21.116939z m0 81.268216c-11.51833 0-21.116938-9.598608-21.116938-21.116938v-12.158237c0-11.51833 9.598608-21.116938 21.116938-21.116939s21.116938 9.598608 21.116938 21.116939v12.158237c0 11.51833-9.598608 21.116938-21.116938 21.116938z m0 0" fill="#FFFFFF" p-id="5496"></path></svg>