<?xml version="1.0" standalone="no"?><!DOCTYPE svg PUBLIC "-//W3C//DTD SVG 1.1//EN" "http://www.w3.org/Graphics/SVG/1.1/DTD/svg11.dtd"><svg t="1716874954703" class="icon" viewBox="0 0 1024 1024" version="1.1" xmlns="http://www.w3.org/2000/svg" p-id="13376" xmlns:xlink="http://www.w3.org/1999/xlink" width="200" height="200"><path d="M0 0h64v64H0zM64 0h64v64H64zM128 0h64v64H128zM192 0h64v64H192zM256 0h64v64H256z" fill="#FFFFFF" p-id="13377"></path><path d="M320 0h64v64H320zM384 0h64v64H384zM448 0h64v64H448zM512 0h64v64H512zM576 0h64v64H576zM640 0h64v64h-64z" fill="#000000" p-id="13378"></path><path d="M704 0h64v64h-64zM768 0h64v64h-64zM832 0h64v64h-64zM896 0h64v64h-64zM960 0h64v64h-64zM0 64h64v64H0zM64 64h64v64H64zM128 64h64v64H128z" fill="#FFFFFF" p-id="13379"></path><path d="M192 64h64v64H192zM256 64h64v64H256z" fill="#000000" p-id="13380"></path><path d="M320 64h64v64H320zM384 64h64v64H384zM448 64h64v64H448zM512 64h64v64H512z" fill="#FF0000" p-id="13381"></path><path d="M576 64h64v64H576zM640 64h64v64h-64z" fill="#FFFFFF" p-id="13382"></path><path d="M704 64h64v64h-64zM768 64h64v64h-64z" fill="#000000" p-id="13383"></path><path d="M832 64h64v64h-64zM896 64h64v64h-64zM960 64h64v64h-64zM0 128h64v64H0zM64 128h64v64H64z" fill="#FFFFFF" p-id="13384"></path><path d="M128 128h64v64H128z" fill="#000000" p-id="13385"></path><path d="M192 128h64v64H192zM256 128h64v64H256z" fill="#FFFFFF" p-id="13386"></path><path d="M320 128h64v64H320zM384 128h64v64H384zM448 128h64v64H448zM512 128h64v64H512z" fill="#FF0000" p-id="13387"></path><path d="M576 128h64v64H576zM640 128h64v64h-64zM704 128h64v64h-64zM768 128h64v64h-64z" fill="#FFFFFF" p-id="13388"></path><path d="M832 128h64v64h-64z" fill="#000000" p-id="13389"></path><path d="M896 128h64v64h-64zM960 128h64v64h-64zM0 192h64v64H0z" fill="#FFFFFF" p-id="13390"></path><path d="M64 192h64v64H64z" fill="#000000" p-id="13391"></path><path d="M128 192h64v64H128zM192 192h64v64H192z" fill="#FFFFFF" p-id="13392"></path><path d="M256 192h64v64H256zM320 192h64v64H320zM384 192h64v64H384zM448 192h64v64H448zM512 192h64v64H512zM576 192h64v64H576z" fill="#FF0000" p-id="13393"></path><path d="M640 192h64v64h-64zM704 192h64v64h-64zM768 192h64v64h-64zM832 192h64v64h-64z" fill="#FFFFFF" p-id="13394"></path><path d="M896 192h64v64h-64z" fill="#000000" p-id="13395"></path><path d="M960 192h64v64h-64zM0 256h64v64H0z" fill="#FFFFFF" p-id="13396"></path><path d="M64 256h64v64H64z" fill="#000000" p-id="13397"></path><path d="M128 256h64v64H128z" fill="#FFFFFF" p-id="13398"></path><path d="M192 256h64v64H192zM256 256h64v64H256z" fill="#FF0000" p-id="13399"></path><path d="M320 256h64v64H320zM384 256h64v64H384zM448 256h64v64H448zM512 256h64v64H512z" fill="#FFFFFF" p-id="13400"></path><path d="M576 256h64v64H576zM640 256h64v64h-64z" fill="#FF0000" p-id="13401"></path><path d="M704 256h64v64h-64zM768 256h64v64h-64zM832 256h64v64h-64z" fill="#FFFFFF" p-id="13402"></path><path d="M896 256h64v64h-64z" fill="#000000" p-id="13403"></path><path d="M960 256h64v64h-64z" fill="#FFFFFF" p-id="13404"></path><path d="M0 320h64v64H0z" fill="#000000" p-id="13405"></path><path d="M64 320h64v64H64zM128 320h64v64H128zM192 320h64v64H192z" fill="#FF0000" p-id="13406"></path><path d="M256 320h64v64H256zM320 320h64v64H320zM384 320h64v64H384zM448 320h64v64H448zM512 320h64v64H512zM576 320h64v64H576z" fill="#FFFFFF" p-id="13407"></path><path d="M640 320h64v64h-64zM704 320h64v64h-64zM768 320h64v64h-64zM832 320h64v64h-64zM896 320h64v64h-64z" fill="#FF0000" p-id="13408"></path><path d="M960 320h64v64h-64zM0 384h64v64H0z" fill="#000000" p-id="13409"></path><path d="M64 384h64v64H64zM128 384h64v64H128zM192 384h64v64H192z" fill="#FF0000" p-id="13410"></path><path d="M256 384h64v64H256zM320 384h64v64H320zM384 384h64v64H384zM448 384h64v64H448zM512 384h64v64H512zM576 384h64v64H576z" fill="#FFFFFF" p-id="13411"></path><path d="M640 384h64v64h-64zM704 384h64v64h-64z" fill="#FF0000" p-id="13412"></path><path d="M768 384h64v64h-64zM832 384h64v64h-64z" fill="#FFFFFF" p-id="13413"></path><path d="M896 384h64v64h-64z" fill="#FF0000" p-id="13414"></path><path d="M960 384h64v64h-64zM0 448h64v64H0z" fill="#000000" p-id="13415"></path><path d="M64 448h64v64H64z" fill="#FFFFFF" p-id="13416"></path><path d="M128 448h64v64H128zM192 448h64v64H192z" fill="#FF0000" p-id="13417"></path><path d="M256 448h64v64H256zM320 448h64v64H320zM384 448h64v64H384zM448 448h64v64H448zM512 448h64v64H512zM576 448h64v64H576z" fill="#FFFFFF" p-id="13418"></path><path d="M640 448h64v64h-64z" fill="#FF0000" p-id="13419"></path><path d="M704 448h64v64h-64zM768 448h64v64h-64zM832 448h64v64h-64zM896 448h64v64h-64z" fill="#FFFFFF" p-id="13420"></path><path d="M960 448h64v64h-64zM0 512h64v64H0z" fill="#000000" p-id="13421"></path><path d="M64 512h64v64H64zM128 512h64v64H128z" fill="#FFFFFF" p-id="13422"></path><path d="M192 512h64v64H192zM256 512h64v64H256z" fill="#FF0000" p-id="13423"></path><path d="M320 512h64v64H320zM384 512h64v64H384zM448 512h64v64H448zM512 512h64v64H512z" fill="#FFFFFF" p-id="13424"></path><path d="M576 512h64v64H576zM640 512h64v64h-64z" fill="#FF0000" p-id="13425"></path><path d="M704 512h64v64h-64zM768 512h64v64h-64zM832 512h64v64h-64zM896 512h64v64h-64z" fill="#FFFFFF" p-id="13426"></path><path d="M960 512h64v64h-64zM0 576h64v64H0z" fill="#000000" p-id="13427"></path><path d="M64 576h64v64H64zM128 576h64v64H128z" fill="#FFFFFF" p-id="13428"></path><path d="M192 576h64v64H192zM256 576h64v64H256zM320 576h64v64H320zM384 576h64v64H384zM448 576h64v64H448zM512 576h64v64H512zM576 576h64v64H576zM640 576h64v64h-64zM704 576h64v64h-64z" fill="#FF0000" p-id="13429"></path><path d="M768 576h64v64h-64zM832 576h64v64h-64z" fill="#FFFFFF" p-id="13430"></path><path d="M896 576h64v64h-64z" fill="#FF0000" p-id="13431"></path><path d="M960 576h64v64h-64zM0 640h64v64H0z" fill="#000000" p-id="13432"></path><path d="M64 640h64v64H64z" fill="#FFFFFF" p-id="13433"></path><path d="M128 640h64v64H128zM192 640h64v64H192z" fill="#FF0000" p-id="13434"></path><path d="M256 640h64v64H256zM320 640h64v64H320zM384 640h64v64H384zM448 640h64v64H448zM512 640h64v64H512zM576 640h64v64H576zM640 640h64v64h-64zM704 640h64v64h-64z" fill="#000000" p-id="13435"></path><path d="M768 640h64v64h-64zM832 640h64v64h-64zM896 640h64v64h-64z" fill="#FF0000" p-id="13436"></path><path d="M960 640h64v64h-64z" fill="#000000" p-id="13437"></path><path d="M0 704h64v64H0z" fill="#FFFFFF" p-id="13438"></path><path d="M64 704h64v64H64zM128 704h64v64H128zM192 704h64v64H192z" fill="#000000" p-id="13439"></path><path d="M256 704h64v64H256zM320 704h64v64H320z" fill="#FFFFFF" p-id="13440"></path><path d="M384 704h64v64H384z" fill="#000000" p-id="13441"></path><path d="M448 704h64v64H448zM512 704h64v64H512z" fill="#FFFFFF" p-id="13442"></path><path d="M576 704h64v64H576z" fill="#000000" p-id="13443"></path><path d="M640 704h64v64h-64zM704 704h64v64h-64z" fill="#FFFFFF" p-id="13444"></path><path d="M768 704h64v64h-64zM832 704h64v64h-64zM896 704h64v64h-64z" fill="#000000" p-id="13445"></path><path d="M960 704h64v64h-64zM0 768h64v64H0zM64 768h64v64H64z" fill="#FFFFFF" p-id="13446"></path><path d="M128 768h64v64H128z" fill="#000000" p-id="13447"></path><path d="M192 768h64v64H192zM256 768h64v64H256zM320 768h64v64H320z" fill="#FFFFFF" p-id="13448"></path><path d="M384 768h64v64H384z" fill="#000000" p-id="13449"></path><path d="M448 768h64v64H448zM512 768h64v64H512z" fill="#FFFFFF" p-id="13450"></path><path d="M576 768h64v64H576z" fill="#000000" p-id="13451"></path><path d="M640 768h64v64h-64zM704 768h64v64h-64zM768 768h64v64h-64z" fill="#FFFFFF" p-id="13452"></path><path d="M832 768h64v64h-64z" fill="#000000" p-id="13453"></path><path d="M896 768h64v64h-64zM960 768h64v64h-64zM0 832h64v64H0zM64 832h64v64H64z" fill="#FFFFFF" p-id="13454"></path><path d="M128 832h64v64H128z" fill="#000000" p-id="13455"></path><path d="M192 832h64v64H192zM256 832h64v64H256zM320 832h64v64H320zM384 832h64v64H384zM448 832h64v64H448zM512 832h64v64H512zM576 832h64v64H576zM640 832h64v64h-64zM704 832h64v64h-64zM768 832h64v64h-64z" fill="#FFFFFF" p-id="13456"></path><path d="M832 832h64v64h-64z" fill="#000000" p-id="13457"></path><path d="M896 832h64v64h-64zM960 832h64v64h-64zM0 896h64v64H0zM64 896h64v64H64zM128 896h64v64H128z" fill="#FFFFFF" p-id="13458"></path><path d="M192 896h64v64H192z" fill="#000000" p-id="13459"></path><path d="M256 896h64v64H256zM320 896h64v64H320zM384 896h64v64H384zM448 896h64v64H448zM512 896h64v64H512zM576 896h64v64H576zM640 896h64v64h-64zM704 896h64v64h-64z" fill="#FFFFFF" p-id="13460"></path><path d="M768 896h64v64h-64z" fill="#000000" p-id="13461"></path><path d="M832 896h64v64h-64zM896 896h64v64h-64zM960 896h64v64h-64zM0 960h64v64H0zM64 960h64v64H64zM128 960h64v64H128zM192 960h64v64H192z" fill="#FFFFFF" p-id="13462"></path><path d="M256 960h64v64H256zM320 960h64v64H320zM384 960h64v64H384zM448 960h64v64H448zM512 960h64v64H512zM576 960h64v64H576zM640 960h64v64h-64zM704 960h64v64h-64z" fill="#000000" p-id="13463"></path><path d="M768 960h64v64h-64zM832 960h64v64h-64zM896 960h64v64h-64zM960 960h64v64h-64z" fill="#FFFFFF" p-id="13464"></path></svg>