<?xml version="1.0" standalone="no"?><!DOCTYPE svg PUBLIC "-//W3C//DTD SVG 1.1//EN" "http://www.w3.org/Graphics/SVG/1.1/DTD/svg11.dtd"><svg t="1716455030057" class="icon" viewBox="0 0 1024 1024" version="1.1" xmlns="http://www.w3.org/2000/svg" p-id="91974" xmlns:xlink="http://www.w3.org/1999/xlink" width="200" height="200"><path d="M732.615111 142.222222l-438.840889 99.128889s-32.910222 7.509333-32.910222 33.052445v447.857777a204.330667 204.330667 0 0 0-54.855111-7.281777C139.377778 714.979556 85.333333 744.561778 85.333333 781.056c0 36.508444 54.030222 66.090667 120.675556 66.090667 66.659556 0 120.689778-29.582222 120.689778-66.090667V429.952l373.006222-81.678222v274.858666a204.046222 204.046222 0 0 0-54.855111-7.296c-66.645333 0-120.675556 29.596444-120.675556 66.090667 0 36.508444 54.030222 66.090667 120.675556 66.090667s120.675556-29.582222 120.675555-66.090667V175.260444A32.981333 32.981333 0 0 0 732.615111 142.222222z" fill="#758BFF" p-id="91975"></path><path d="M172.16 340.280889c9.6 0 17.493333 7.310222 18.446222 16.654222l0.099556 1.905778v247.338667a18.545778 18.545778 0 0 1-37.006222 1.891555l-0.099556-1.891555V358.840889c0-10.24 8.305778-18.56 18.56-18.56zM858.282667 290.631111c9.6 0 17.493333 7.296 18.446222 16.64l0.099555 1.905778V556.515556a18.545778 18.545778 0 0 1-37.006222 1.905777l-0.099555-1.905777V309.191111c0-10.254222 8.305778-18.56 18.56-18.56zM932.48 352.469333c9.614222 0 17.507556 7.296 18.460444 16.64l0.099556 1.905778v92.757333a18.545778 18.545778 0 0 1-37.006222 1.891556l-0.099556-1.891556v-92.757333c0-10.24 8.305778-18.545778 18.545778-18.545778zM103.879111 445.212444c9.614222 0 17.507556 7.310222 18.460445 16.654223l0.099555 1.905777v98.929778a18.545778 18.545778 0 0 1-37.006222 1.905778L85.333333 562.702222V463.786667c0-10.24 8.305778-18.56 18.545778-18.56z" fill="#BAC5FF" p-id="91976"></path></svg>