<?xml version="1.0" standalone="no"?><!DOCTYPE svg PUBLIC "-//W3C//DTD SVG 1.1//EN" "http://www.w3.org/Graphics/SVG/1.1/DTD/svg11.dtd"><svg t="1716454845360" class="icon" viewBox="0 0 1024 1024" version="1.1" xmlns="http://www.w3.org/2000/svg" p-id="76782" xmlns:xlink="http://www.w3.org/1999/xlink" width="200" height="200"><path d="M887.170943 957.462179H136.487837c-37.534155 0-68.243919-30.709763-68.243918-68.243918v-750.683106c0-37.534155 30.709763-68.243919 68.243918-68.243919h750.683106c37.534155 0 68.243919 30.709763 68.243919 68.243919v750.683106c0 37.534155-30.709763 68.243919-68.243919 68.243918z" fill="#FFFFFF" p-id="76783"></path><path d="M883.758747 1023.65878H257.279573c-37.534155 0-68.243919-30.709763-68.243918-68.243918V255.573476c0-37.534155 30.709763-68.243919 68.243918-68.243919H883.758747c37.534155 0 68.243919 30.709763 68.243919 68.243919V955.414862c0 37.534155-30.709763 68.243919-68.243919 68.243918z" fill="#BAD4FF" p-id="76784"></path><path d="M870.109963 0H153.548817C68.926358 0 0 68.926358 0 153.548817v716.561146c0 84.622459 68.926358 153.548817 153.548817 153.548817h349.067644v-73.020993H143.312229c-37.534155 0-68.243919-30.709763-68.243918-68.243918v-737.034322c0-37.534155 30.709763-68.243919 68.243918-68.243919h737.034322c37.534155 0 68.243919 30.709763 68.243919 68.243919v737.034322c0 37.534155-30.709763 68.243919-68.243919 68.243918h-112.943685V1023.65878H870.109963c84.622459 0 153.548817-68.926358 153.548817-153.548817V153.548817c0-84.622459-68.926358-153.548817-153.548817-153.548817z" fill="#4E8CEE" p-id="76785"></path><path d="M780.71043 289.695435c0-30.368544-13.648784-58.34855-37.875375-76.774409-23.885372-18.425858-54.595135-24.567811-83.94002-17.060979l-222.475175 58.34855c-42.652449 11.260247-72.338554 49.818061-72.338554 93.835388v273.316895c-17.06098-11.260247-37.534155-17.743419-59.372209-18.084639h-2.047318c-32.074642 0-63.125625 13.648784-84.622459 37.875375-21.496834 24.226591-31.733422 56.301233-28.321226 88.717094 2.047318 17.402199 7.848051 33.78074 17.06098 48.111963 0 0 0 0.34122 0.341219 0.34122 0.34122 0.34122 0.682439 1.023659 1.023659 1.364878 0.34122 0.34122 0.34122 0.682439 0.682439 1.023659 0 0 0 0.34122 0.34122 0.341219 10.236588 15.013662 23.885372 27.297567 39.922692 35.828058l2.047318 1.023659c11.942686 6.141953 24.90903 10.236588 38.899033 11.601466 4.094635 0.34122 8.53049 0.682439 12.625125 0.682439h0.34122c62.784405 0 113.626125-50.841719 113.626125-113.626125V348.043985c0-20.473176 13.990003-38.557814 33.780739-43.676108l221.792736-58.34855c13.648784-3.412196 27.980007-0.682439 38.899034 7.848051 11.260247 8.53049 17.402199 21.496834 17.402199 35.828057v258.644452c-17.743419-11.260247-38.899034-18.084638-61.419527-18.084639-8.53049 0-17.06098 1.023659-25.25025 2.729757h-0.682439c-27.297567 6.483172-50.841719 22.520493-66.537821 44.699767-13.307564 18.425858-20.814395 41.287571-20.814395 65.514162 0 30.709763 11.942686 59.372209 34.12196 80.869043 21.838054 21.496834 50.841719 33.098301 81.551482 32.415862 6.141953 0 11.942686-0.682439 17.743419-1.706098 53.230257-9.212929 93.835388-55.618794 93.835388-111.578807V289.695435z m0 0" fill="#4E8CEE" p-id="76786"></path><path d="M502.275242 987.148284m-36.851717 0a36.851716 36.851716 0 1 0 73.703433 0 36.851716 36.851716 0 1 0-73.703433 0Z" fill="#4E8CEE" p-id="76787"></path><path d="M638.763079 987.148284m-36.851716 0a36.851716 36.851716 0 1 0 73.703432 0 36.851716 36.851716 0 1 0-73.703432 0Z" fill="#4E8CEE" p-id="76788"></path><path d="M768.426524 987.148284m-36.851716 0a36.851716 36.851716 0 1 0 73.703433 0 36.851716 36.851716 0 1 0-73.703433 0Z" fill="#4E8CEE" p-id="76789"></path><path d="M413.558147 656.165278v-291.742752c0-19.108297 15.696101-38.557814 34.463179-43.334889L679.026991 265.127624c19.108297-4.777074 34.463179 6.824392 34.463179 25.932689v290.719094l66.537821-16.71976v-334.395202c0-37.534155-30.709763-60.737088-68.585139-51.524158l-296.519826 72.338553c-37.534155 9.554149-68.585138 47.770743-68.585139 85.646118v335.76008l67.22026-16.71976z" fill="#4E8CEE" p-id="76790"></path></svg>