<?xml version="1.0" standalone="no"?><!DOCTYPE svg PUBLIC "-//W3C//DTD SVG 1.1//EN" "http://www.w3.org/Graphics/SVG/1.1/DTD/svg11.dtd"><svg t="1718180822842" class="icon" viewBox="0 0 1024 1024" version="1.1" xmlns="http://www.w3.org/2000/svg" p-id="35010" xmlns:xlink="http://www.w3.org/1999/xlink" width="200" height="200"><path d="M320 307.2H256V102.4a102.4 102.4 0 0 1 102.4-102.4h563.2a102.4 102.4 0 0 1 102.4 102.4v563.2a102.4 102.4 0 0 1-102.4 102.4h-204.8v-64h192a51.2 51.2 0 0 0 51.2-51.2V115.2a51.2 51.2 0 0 0-51.2-51.2H371.2a51.2 51.2 0 0 0-51.2 51.2V307.2z" fill="#C2EB2C" p-id="35011"></path><path d="M102.4 256h563.2a102.4 102.4 0 0 1 102.4 102.4v563.2a102.4 102.4 0 0 1-102.4 102.4H102.4a102.4 102.4 0 0 1-102.4-102.4V358.4a102.4 102.4 0 0 1 102.4-102.4z m25.6 64c-35.328 0-64 28.672-64 64v512c0 35.328 28.672 64 64 64h512c35.328 0 64-28.672 64-64v-512c0-35.328-28.672-64-64-64h-512z" fill="#69C0FF" p-id="35012"></path></svg>