<?xml version="1.0" standalone="no"?><!DOCTYPE svg PUBLIC "-//W3C//DTD SVG 1.1//EN" "http://www.w3.org/Graphics/SVG/1.1/DTD/svg11.dtd"><svg t="1716519794897" class="icon" viewBox="0 0 1024 1024" version="1.1" xmlns="http://www.w3.org/2000/svg" p-id="89863" xmlns:xlink="http://www.w3.org/1999/xlink" width="200" height="200"><path d="M448.69 734.84c1.73 38.3 2.88 135.21-75.55 143.68-9.58 1.03-18.16 7.66-20.4 17.12-2.72 11.5 3.08 27.23 41.33 41.14 50.81 18.48 176.33 14.11 242.75 10.2 18.85-1.11 29.16-22.63 18.33-38.23l-86.12-123.98c-0.92-1.33-1.97-2.56-3.14-3.67l-46.33-44.41c-5.1-4.88-12.05-7.28-19.04-6.57l-22.07 2.26c-12.65 1.3-30.34-10.36-29.76 2.46z" fill="#FCEECD" p-id="89864"></path><path d="M700.61 903.18v-5.95c0-26.72-15.28-51.03-39.23-62.44l-32.63-15.54c-10.5-5-17.66-15.15-18.9-26.79L606.28 759c-1.09-10.16-6.65-18.79-14.52-24.16l-131.04 3.62s102.47 62.22 122.52 119.3c14.27 40.61-19.82 70.41-77.38 79.02h161.07c18.54 0.2 33.68-14.9 33.68-33.6z" fill="#F2C397" p-id="89865"></path><path d="M899 718.7H213.54c-55.68 0-100.82-45.53-100.82-101.7v-39.04H899V718.7z" fill="#FCEECD" p-id="89866"></path><path d="M947.41 540.59h-75.1V657.17c0 21.23-8.02 40.93-21.72 57.25h61.98c19.24 0 34.84-17.89 34.84-39.95V540.59z" fill="#F2C397" p-id="89867"></path><path d="M752.56 540.2v18.04c14.08-11.26 31.85-18.04 51.21-18.04h-51.21z" fill="#E2E1E1" p-id="89868"></path><path d="M947.41 577.97h-834.7v-321c0-72.09 57.94-130.53 129.4-130.53h600.64c57.8 0 104.66 47.26 104.66 105.57v345.96z" fill="#77C1EA" p-id="89869"></path><path d="M869.21 126.44h-77.94c43.19 0 78.2 52.02 78.2 116.19v335.34h77.94V242.63c0-64.17-35.01-116.19-78.2-116.19z" fill="#3398D3" p-id="89870"></path><path d="M637.86 147.53H392.81c-7.28 0-13.19-5.96-13.19-13.3 0-7.35 5.91-13.3 13.19-13.3h245.05c7.28 0 13.19 5.96 13.19 13.3 0 7.34-5.91 13.3-13.19 13.3z" fill="#54227A" p-id="89871"></path><path d="M857.39 742.3H166.86c-56.91 0-103.21-46.7-103.21-104.11V225.03c0-57.4 46.3-104.11 103.21-104.11h244.89c7.28 0 13.19 5.96 13.19 13.3 0 7.35-5.91 13.3-13.19 13.3H166.86c-42.37 0-76.84 34.77-76.84 77.5v413.16c0 42.73 34.47 77.5 76.84 77.5h690.53c42.37 0 76.83-34.77 76.83-77.5V225.03c0-42.73-34.46-77.5-76.83-77.5h-96.58c-7.28 0-13.19-5.96-13.19-13.3 0-7.35 5.91-13.3 13.19-13.3h96.58c56.91 0 103.21 46.7 103.21 104.11V638.2c0 57.39-46.3 104.1-103.21 104.1z" fill="#54227A" p-id="89872"></path><path d="M721.24 147.53h-41.27c-7.28 0-13.19-5.96-13.19-13.3 0-7.35 5.91-13.3 13.19-13.3h41.27c7.28 0 13.19 5.96 13.19 13.3 0 7.34-5.9 13.3-13.19 13.3zM201 577.87H76.83c-7.28 0-13.19-5.96-13.19-13.3s5.91-13.3 13.19-13.3H201c7.28 0 13.19 5.96 13.19 13.3s-5.91 13.3-13.19 13.3z" fill="#54227A" p-id="89873"></path><path d="M377.7 577.87H191.15c-7.28 0-13.19-5.96-13.19-13.3s5.91-13.3 13.19-13.3H377.7c7.28 0 13.19 5.96 13.19 13.3s-5.9 13.3-13.19 13.3zM443.01 577.87h-17.25c-7.28 0-13.19-5.96-13.19-13.3s5.91-13.3 13.19-13.3h17.25c7.28 0 13.19 5.96 13.19 13.3s-5.91 13.3-13.19 13.3zM619.09 577.87H482.57c-7.28 0-13.19-5.96-13.19-13.3s5.91-13.3 13.19-13.3h136.51c7.28 0 13.19 5.96 13.19 13.3s-5.9 13.3-13.18 13.3z" fill="#54227A" p-id="89874"></path><path d="M411.78 208.17h-56.75c-5.46 0-9.89-4.47-9.89-9.98s4.43-9.98 9.89-9.98h56.75c5.46 0 9.89 4.47 9.89 9.98s-4.43 9.98-9.89 9.98z" fill="#FFFFFF" p-id="89875"></path><path d="M947.41 577.87H659.55c-7.28 0-13.19-5.96-13.19-13.3s5.91-13.3 13.19-13.3h287.86c7.28 0 13.19 5.96 13.19 13.3s-5.91 13.3-13.19 13.3zM359.57 444.91c-4.49 0-8.86-2.31-11.33-6.48-3.73-6.31-1.7-14.48 4.55-18.25l229.15-138.26c6.25-3.77 14.35-1.71 18.09 4.59 3.73 6.31 1.7 14.48-4.55 18.25L366.32 443.02a12.994 12.994 0 0 1-6.75 1.89zM537.45 414.04c-4.49 0-8.86-2.31-11.33-6.48-3.73-6.31-1.7-14.48 4.55-18.25l153.63-92.7c6.25-3.76 14.35-1.71 18.09 4.59 3.73 6.31 1.7 14.48-4.55 18.25l-153.63 92.7a13.029 13.029 0 0 1-6.76 1.89zM635.09 849.86c-2.49 0-5-0.7-7.23-2.18-23.78-15.76-37.98-42.28-37.98-70.97v-47.72c0-7.35 5.91-13.3 13.19-13.3s13.19 5.96 13.19 13.3v47.72c0 19.69 9.75 37.91 26.08 48.73 6.09 4.03 7.79 12.28 3.79 18.42-2.53 3.89-6.75 6-11.04 6zM665.88 861.17c-0.68 0-1.36-0.05-2.04-0.16l-2.76-0.43c-7.2-1.13-12.13-7.93-11.01-15.19 1.12-7.26 7.93-12.27 15.06-11.1l2.76 0.43c7.2 1.13 12.13 7.93 11.01 15.19-1.02 6.57-6.64 11.26-13.02 11.26z" fill="#54227A" p-id="89876"></path><path d="M663.1 958.58H361.15c-34.01 0-61.69-27.91-61.69-62.22 0-30.52 21.7-56.09 51.6-60.8l8.06-1.26c28.32-4.46 48.87-28.67 48.87-57.58V729c0-7.35 5.91-13.3 13.19-13.3 7.28 0 13.19 5.96 13.19 13.3v47.72c0 42.11-29.94 77.38-71.18 83.87l-8.06 1.26c-16.97 2.67-29.29 17.18-29.29 34.51 0 19.64 15.84 35.62 35.31 35.62H663.1c19.47 0 35.31-15.98 35.31-35.62 0-7.01-2.05-13.77-5.94-19.56-1.43-2.13-3.09-4.1-4.94-5.86-5.31-5.04-5.55-13.46-0.56-18.8 5-5.35 13.36-5.6 18.64-0.56 3.26 3.1 6.19 6.56 8.7 10.31 6.85 10.2 10.47 22.13 10.47 34.48 0.01 34.29-27.67 62.21-61.68 62.21z" fill="#54227A" p-id="89877"></path><path d="M494.25 651.81a28.17 28.42 0 1 0 56.34 0 28.17 28.42 0 1 0-56.34 0Z" fill="#EC766A" p-id="89878"></path><path d="M522.4 686.88c-17.49 0-32.59-13.33-34.54-31.26-2.09-19.22 11.72-36.58 30.78-38.68 19.02-2.09 36.26 11.83 38.34 31.05 2.09 19.22-11.72 36.58-30.78 38.68-1.27 0.14-2.55 0.21-3.8 0.21z m0.04-56.84c-0.79 0-1.57 0.04-2.37 0.13-11.82 1.31-20.39 12.08-19.1 24.01 1.29 11.94 11.93 20.57 23.8 19.27 11.82-1.31 20.39-12.08 19.1-24.01-1.21-11.13-10.58-19.4-21.43-19.4z" fill="#54227A" p-id="89879"></path><path d="M168.45 260.31c-5.46 0-9.89-4.47-9.89-9.98 0-34.25 27.63-62.12 61.58-62.12h92.51c5.46 0 9.89 4.47 9.89 9.98s-4.43 9.98-9.89 9.98h-92.51c-23.05 0-41.8 18.92-41.8 42.16 0 5.51-4.43 9.98-9.89 9.98z" fill="#FFFFFF" p-id="89880"></path><path d="M268.07 824.21c-0.93 0-1.86-0.04-2.8-0.13-8.2-0.74-15.63-4.66-20.92-11.03-5.28-6.38-7.79-14.45-7.06-22.72 0.73-8.28 4.62-15.77 10.93-21.1 6.32-5.33 14.27-7.87 22.53-7.12 8.2 0.74 15.63 4.66 20.92 11.03 5.28 6.38 7.79 14.44 7.06 22.72-0.73 8.28-4.62 15.77-10.93 21.1-5.6 4.72-12.52 7.25-19.73 7.25z m-0.1-55.58c-5.67 0-11.1 1.98-15.51 5.7-4.96 4.19-8.02 10.08-8.6 16.59-0.57 6.51 1.4 12.85 5.55 17.86s9.99 8.09 16.45 8.67c6.46 0.58 12.74-1.4 17.7-5.6 4.97-4.19 8.02-10.08 8.6-16.59 0.57-6.51-1.4-12.85-5.55-17.86s-9.99-8.09-16.45-8.67c-0.73-0.06-1.46-0.1-2.19-0.1z" fill="#475CA7" p-id="89881"></path><path d="M143.66 783.34a9.67 9.76 0 1 0 19.34 0 9.67 9.76 0 1 0-19.34 0Z" fill="#9D509A" p-id="89882"></path><path d="M972.84 161.45c-10.71 0-19.42-8.79-19.42-19.59s8.71-19.59 19.42-19.59 19.42 8.79 19.42 19.59-8.71 19.59-19.42 19.59z m0-32.53c-7.07 0-12.83 5.8-12.83 12.94s5.76 12.94 12.83 12.94 12.83-5.81 12.83-12.94c0-7.14-5.76-12.94-12.83-12.94z" fill="#475CA7" p-id="89883"></path><path d="M845.18 73.62a9.67 9.76 0 1 0 19.34 0 9.67 9.76 0 1 0-19.34 0Z" fill="#E7322D" p-id="89884"></path><path d="M937.54 102.89l-17.97-76.35c-0.51-2.15 1-4.3 3.34-4.76 2.35-0.47 4.68 0.92 5.19 3.07l17.97 76.35c0.51 2.15-1 4.3-3.34 4.76-2.35 0.46-4.69-0.92-5.19-3.07z" fill="#F7D276" p-id="89885"></path><path d="M890.31 68.2l83.16-16.5c2.35-0.47 4.68 0.92 5.19 3.07 0.51 2.15-1 4.3-3.34 4.76l-83.16 16.5c-2.35 0.47-4.68-0.92-5.19-3.07-0.51-2.15 1-4.29 3.34-4.76z" fill="#F7D276" p-id="89886"></path><path d="M223.99 853.06l-22.37 1.8 14.56-17.23c1.09-1.29 0.94-3.25-0.34-4.35a3.05 3.05 0 0 0-4.31 0.35l-14.56 17.23-1.78-22.57c-0.13-1.69-1.62-2.97-3.29-2.83-1.68 0.13-2.94 1.63-2.81 3.32l1.78 22.57-17.08-14.69a3.05 3.05 0 0 0-4.31 0.35c-1.09 1.29-0.94 3.25 0.34 4.35l17.08 14.68-22.37 1.8c-1.68 0.14-2.94 1.63-2.81 3.32 0.13 1.69 1.62 2.97 3.29 2.83l22.37-1.8-14.56 17.23c-1.09 1.29-0.94 3.25 0.34 4.35a3.05 3.05 0 0 0 4.31-0.35l14.56-17.23 1.78 22.57c0.13 1.69 1.62 2.97 3.29 2.83 1.68-0.13 2.94-1.63 2.81-3.32l-1.78-22.57 17.08 14.68a3.05 3.05 0 0 0 4.31-0.35c1.09-1.29 0.94-3.25-0.34-4.35l-17.08-14.69 22.37-1.8c1.68-0.14 2.94-1.63 2.81-3.32a3.072 3.072 0 0 0-3.29-2.81z" fill="#37BDEC" p-id="89887"></path></svg>