<?xml version="1.0" standalone="no"?><!DOCTYPE svg PUBLIC "-//W3C//DTD SVG 1.1//EN" "http://www.w3.org/Graphics/SVG/1.1/DTD/svg11.dtd"><svg t="1716520278845" class="icon" viewBox="0 0 1024 1024" version="1.1" xmlns="http://www.w3.org/2000/svg" p-id="117620" xmlns:xlink="http://www.w3.org/1999/xlink" width="200" height="200"><path d="M176.128 42.656a75.104 75.104 0 0 0-74.784 74.816v789.056a75.104 75.104 0 0 0 74.784 74.816h671.744a75.104 75.104 0 0 0 74.784-74.816V340.384l-277.184-297.728H176.128z" fill="#FF8787" p-id="117621"></path><path d="M470.304 335.36c34.88-8.096 67.904 14.4 77.024 56.096 4 18.24 1.632 49.12-5.888 89.728l-3.84 19.424c-0.736 3.36-1.44 6.752-2.24 10.24l-3.36 14.816c20.384 31.808 42.24 62.528 63.264 88.64l4.256 5.216c36.864-7.616 67.296-10.464 89.088-7.52 42.336 5.696 71.296 35.072 70.72 69.76-0.64 36.928-33.696 61.248-78.688 56.672-28.224-2.88-60.32-27.296-97.6-69.184-28.8 7.104-60.064 16.64-90.048 27.456l-13.696 5.12-3.68 9.92-7.328 18.848c-21.76 54.528-42.016 90.72-60.8 103.456-34.432 23.328-73.664 11.008-88.32-23.776-14.016-33.088-0.544-72.896 36.48-98.496 20.832-14.4 53.28-30.4 92.192-45.888l-3.84 1.6a1557.12 1557.12 0 0 0 34.88-113.728l5.12-20.192-10.464-17.28-9.728-16.672-8.896-15.936a757.12 757.12 0 0 1-4.096-7.68l-7.456-14.528c-9.248-18.656-15.68-34.336-18.4-45.344-9.536-38.848 11.136-72.896 45.344-80.8z m-48.672 390.784l-1.92 0.832a297.92 297.92 0 0 0-38.56 21.632c-20.224 13.984-26.144 31.488-20.736 44.224 3.84 9.088 11.2 11.424 21.952 4.128 3.104-2.112 7.104-7.104 11.744-14.624l4.864-8.32a281.92 281.92 0 0 0 2.56-4.704l5.408-10.624 5.696-12.032 5.952-13.344 3.04-7.168z m261.024-69.76c-8.64-1.152-20.352-0.96-34.496 0.576l-7.264 0.896-6.208 0.832 2.784 2.752c17.152 16.672 31.744 27.36 42.048 31.04l2.944 0.928 2.72 0.48c20.576 2.08 29.184-4.256 29.344-12.896 0.16-10.56-10.88-21.76-31.872-24.608z m-165.408-72.064l-0.448 1.792-0.256-0.416-1.152 4.256-7.072 24.384-7.488 24.32-2.368 7.168 0.8-0.256-0.64 1.728c6.752-2.24 13.472-4.416 20.16-6.528l20.032-6.016 11.968-3.36-0.768-0.896 0.8-0.192-1.152-1.472a1008.544 1008.544 0 0 1-20.448-27.52l-11.968-16.992z m-13.696-183.296c-3.904-17.92-13.28-24.32-23.168-22.048-9.76 2.24-15.52 11.776-11.904 26.464 1.504 6.144 5.12 15.328 10.4 26.592l5.824 11.968 6.848 13.184 6.496 11.872 1.12-6.336c4.16-24.384 5.952-43.584 5.216-55.296l-0.32-3.616-0.512-2.784z" fill="#FFFFFF" p-id="117622"></path><path d="M922.656 341.856v14.688h-187.712s-93.888-19.072-90.944-99.744c0 0 2.944 85.056 88 85.056h190.656z" fill="#FF6262" p-id="117623"></path><path d="M644 42.656v214.144c0 23.456 17.6 85.056 90.944 85.056h187.712l-278.656-299.2z" fill="#FFFFFF" opacity=".5" p-id="117624"></path></svg>