<?xml version="1.0" standalone="no"?><!DOCTYPE svg PUBLIC "-//W3C//DTD SVG 1.1//EN" "http://www.w3.org/Graphics/SVG/1.1/DTD/svg11.dtd"><svg t="1716520211551" class="icon" viewBox="0 0 1024 1024" version="1.1" xmlns="http://www.w3.org/2000/svg" p-id="115557" xmlns:xlink="http://www.w3.org/1999/xlink" width="200" height="200"><path d="M934.95296 984.22784H172.56448V34.36544h544.44032l217.9072 216.8832z" fill="#D2E9CA" p-id="115558"></path><path d="M924.2624 236.99456l2.6624 701.6448a29.12256 29.12256 0 0 1-29.20448 29.20448H219.42272a29.12256 29.12256 0 0 1-29.20448-29.24544V73.03168c0-16.22016 12.98432-29.24544 29.20448-29.24544l515.19488-1.06496-40.63232-41.69728H220.85632c-37.96992 0-68.608 30.67904-68.608 68.608v872.52992c0 37.96992 30.63808 68.608 68.608 68.608h675.4304c37.92896 0 68.608-30.63808 68.608-68.608V278.69184l-40.63232-41.69728z" fill="#65A15E" p-id="115559"></path><path d="M693.98528 204.3904c0 41.1648 33.34144 74.46528 74.5472 74.46528h196.52608L693.98528 1.024V204.3904z" fill="#EBFFE8" p-id="115560"></path><path d="M553.20576 475.42272H136.72448A95.15008 95.15008 0 0 1 41.5744 380.27264V317.35808a95.15008 95.15008 0 0 1 95.15008-95.15008h416.48128a95.15008 95.15008 0 0 1 95.19104 95.15008v62.91456a95.15008 95.15008 0 0 1-95.19104 95.15008z" fill="#65A15E" p-id="115561"></path><path d="M98.42688 272.09728h83.5584c18.18624 0 31.9488 4.25984 40.83712 13.02528 9.09312 8.72448 13.5168 21.01248 13.5168 36.864 0 16.384-4.95616 29.24544-14.7456 38.5024-9.8304 9.25696-24.9856 13.9264-45.30176 13.9264h-27.27936v60.37504H98.42688V272.09728z m50.5856 69.30432h12.288c9.66656 0 16.5888-1.59744 20.52096-4.95616a16.34304 16.34304 0 0 0 5.89824-13.02528 18.18624 18.18624 0 0 0-5.20192-13.02528c-3.35872-3.56352-9.78944-5.3248-19.2512-5.3248h-14.25408v36.33152z m114.44224-69.30432h74.67008c14.7456 0 26.54208 1.96608 35.6352 6.06208 9.09312 3.93216 16.5888 9.8304 22.44608 17.12128 5.89824 7.45472 10.15808 16.1792 12.82048 26.0096 2.70336 9.95328 3.93216 20.48 3.93216 31.5392 0 17.44896-1.96608 30.84288-5.85728 40.46848a66.3552 66.3552 0 0 1-16.384 24.04352c-6.9632 6.43072-14.66368 10.6496-22.65088 12.98432-11.0592 3.03104-21.05344 4.5056-29.94176 4.5056H263.45472V272.05632z m50.25792 36.864V397.7216h12.288c10.52672 0 18.0224-1.2288 22.44608-3.56352a24.65792 24.65792 0 0 0 10.52672-12.12416c2.4576-5.85728 3.72736-15.1552 3.72736-28.13952 0-17.28512-2.8672-29.0816-8.35584-35.47136-5.7344-6.38976-14.99136-9.6256-27.97568-9.6256l-12.6976 0.2048z m125.99296-36.864h124.19072v34.93888h-73.76896v28.30336h63.0784v32.80896h-63.0784v66.47808H439.7056V272.09728z" fill="#FFFFFF" p-id="115562"></path><path d="M587.776 462.60224c-1.39264 0.69632-3.35872 1.2288-0.86016 0.69632-2.70336 0.53248-2.33472 0.90112-5.20192 0 2.17088 0.53248-3.72736-2.12992-0.86016-0.53248 2.6624 1.6384-1.96608-2.29376-0.53248-0.32768 0.16384 0.16384 1.39264 1.76128 1.76128 1.76128-0.90112 0-2.12992-3.19488-0.36864-0.36864 1.2288 1.96608 2.33472 4.096 3.39968 6.26688 1.4336 2.6624-1.06496-2.70336 0 0.16384 0.36864 1.06496 0.90112 2.12992 1.2288 3.19488 0.90112 2.49856 1.80224 4.99712 2.49856 7.65952 1.2288 4.5056 2.33472 8.92928 3.23584 13.55776 0.16384 1.2288 0.53248 2.33472 0.69632 3.56352-0.36864-2.29376 0.2048 1.80224 0.2048 2.49856 0.32768 3.93216 0.32768 8.02816 0.16384 11.96032 0 1.76128-0.16384 3.35872-0.36864 5.16096 0 0.69632-0.53248 4.79232-0.16384 2.4576-0.53248 3.76832-1.2288 7.3728-1.96608 11.0592a294.17472 294.17472 0 0 1-12.4928 41.00096c-1.2288 3.19488-2.4576 6.59456-3.8912 9.8304 0 0-1.06496 2.4576-0.36864 1.06496 0.53248-1.4336-0.53248 1.06496-0.53248 1.06496-0.69632 1.76128-1.6384 3.56352-2.33472 5.16096-2.8672 6.38976-5.85728 12.82048-9.09312 19.0464-6.38976 12.6976-13.18912 25.14944-20.31616 37.2736-13.5168 23.3472-27.60704 46.2848-42.3936 68.93568-7.29088 11.264-14.78656 22.28224-22.65088 33.1776-3.8912 5.3248-7.82336 10.8544-11.75552 16.01536-0.90112 1.2288-1.76128 2.49856-2.8672 3.76832l-0.49152 0.69632c1.06496-1.2288-0.53248 0.73728-0.53248 0.73728-2.17088 2.8672-4.5056 5.69344-6.59456 8.35584-16.5888 20.31616-34.4064 39.7312-53.82144 57.22112a339.39456 339.39456 0 0 1-15.1552 12.82048c-1.4336 1.06496-2.8672 2.29376-4.3008 3.39968l-0.69632 0.53248c1.2288-1.06496-0.69632 0.53248-0.69632 0.53248-2.70336 1.96608-5.36576 3.8912-8.192 5.85728a112.2304 112.2304 0 0 1-8.6016 5.3248c-1.39264 0.73728-2.6624 1.47456-4.096 2.17088l-2.12992 1.06496c-0.16384 0.16384-3.03104 1.2288-1.59744 0.69632 1.6384-0.69632-0.69632 0.4096-0.90112 0.4096-0.69632 0.16384-1.39264 0.49152-2.12992 0.69632a52.4288 52.4288 0 0 1-9.4208 2.29376c2.99008-0.36864-1.4336 0-2.33472 0-1.4336 0-3.03104-0.16384-4.46464-0.16384-1.96608 0 0.53248 0 0.73728 0.16384-0.73728-0.16384-1.2288-0.36864-1.96608-0.36864l-1.96608-0.53248c3.03104 0.90112 1.06496 0.53248 0.36864 0 0.53248 0.4096 1.06496 1.2288 1.59744 1.6384 1.76128 1.2288-1.2288-1.6384 0 0.16384 0.86016 1.4336-0.36864-1.80224-0.73728-2.49856-0.53248-1.80224 0.2048 0.53248 0.2048 0.90112 0-0.73728 0-1.4336-0.2048-2.12992 0-1.10592 0.73728-5.36576 0-1.96608 0.36864-1.6384 0.73728-3.23584 1.2288-4.83328 0.2048-0.69632 0.57344-1.2288 0.73728-1.96608-0.16384 0.36864-1.06496 2.17088-0.16384 0.73728 0.69632-1.2288 1.2288-2.49856 1.96608-3.76832 0.32768-0.53248 2.4576-3.56352 1.59744-2.4576-1.06496 1.39264 0.36864-0.57344 0.53248-0.57344a34.2016 34.2016 0 0 1 2.4576-2.6624c1.10592-1.06496 2.17088-1.96608 3.2768-2.8672 1.2288-1.2288-0.2048 0-0.4096 0.2048 0.53248-0.53248 1.2288-0.90112 1.80224-1.2288 2.8672-1.96608 5.89824-3.76832 9.09312-5.36576 1.4336-0.69632 2.6624-1.2288 4.096-1.96608 1.76128-0.69632-0.16384 0-0.36864 0.16384 0.73728-0.32768 1.4336-0.53248 2.12992-0.86016a386.8672 386.8672 0 0 1 29.9008-9.09312c14.336-3.93216 28.75392-7.33184 43.17184-10.36288a894.85312 894.85312 0 0 1 53.82144-9.25696l1.2288-0.16384c-1.76128 0.16384 1.80224-0.2048 2.17088-0.36864 1.96608-0.16384 3.93216-0.53248 5.85728-0.69632 7.33184-0.90112 14.82752-1.80224 22.1184-2.49856 58.81856-5.89824 118.1696-6.22592 177.3568-3.56352 7.29088 0.32768 14.58176 0.69632 21.87264 1.2288l9.8304 0.73728 4.95616 0.53248c1.96608 0.16384 0.2048 0-0.16384 0a108.1344 108.1344 0 0 1 23.87968 6.06208c2.8672 1.06496 0.36864 0.16384-0.16384-0.2048 0.53248 0.36864 1.2288 0.53248 1.76128 0.90112 1.2288 0.53248 2.49856 1.2288 3.56352 1.80224 2.49856 1.39264 4.99712 2.99008 7.49568 4.62848 0.16384 0.16384 1.96608 1.59744 0.53248 0.32768-1.6384-1.2288 0.53248 0.53248 0.90112 0.90112 1.06496 0.90112 1.96608 1.80224 2.8672 2.6624 0.86016 0.90112 1.76128 1.96608 2.6624 2.8672 0.32768 0.53248 0.86016 1.06496 1.2288 1.6384-0.90112-1.10592-1.06496-1.47456-0.16384 0 0.69632 1.024 1.4336 2.08896 2.12992 3.35872 0.36864 0.53248 2.12992 4.62848 1.4336 2.8672-0.73728-1.80224 0.53248 1.76128 0.69632 2.29376 0.2048 0.53248 1.2288 3.93216 0.90112 4.25984-0.16384 0.2048-0.16384-3.19488-0.16384-1.2288v1.96608c0 0.69632-0.53248 4.99712 0 2.8672 0.53248-2.17088-0.53248 1.39264-0.73728 2.12992a22.44608 22.44608 0 0 0-0.53248 1.76128c0.36864-1.06496 1.06496-2.29376 0.16384-0.53248-1.2288 2.49856 1.80224-1.4336-0.32768 0.53248l-1.2288 1.2288c-1.10592 1.26976 0.49152-0.49152 0.69632-0.49152-0.73728 0.32768-1.6384 0.86016-2.33472 1.2288 0.36864-0.16384 2.49856-0.69632 0.90112-0.53248a5.24288 5.24288 0 0 0-1.80224 0.53248c1.10592-0.36864 2.49856-0.16384 0.53248-0.16384-1.2288 0-2.6624-0.2048-3.8912 0l0.90112 0.16384c-0.73728-0.16384-1.4336-0.16384-1.96608-0.36864-1.6384-0.32768-3.23584-0.86016-4.62848-1.2288-1.10592-0.36864-4.83328-1.96608-1.96608-0.73728a148.6848 148.6848 0 0 1-16.384-9.25696c-2.53952-1.59744-4.99712-3.19488-7.33184-4.99712-1.2288-0.86016-2.33472-1.76128-3.56352-2.6624 0.16384 0.16384 1.76128 1.4336 0.36864 0.36864l-2.8672-2.33472a224.95232 224.95232 0 0 1-13.7216-12.288 284.42624 284.42624 0 0 1-25.8048-28.8768c-0.57344-0.53248-0.94208-1.2288-1.47456-1.76128 0-0.2048-1.59744-2.17088-0.53248-0.73728 1.06496 1.4336-0.69632-1.06496-1.06496-1.2288-0.53248-0.53248-0.90112-1.2288-1.4336-1.80224-1.92512-2.6624-3.8912-5.16096-5.69344-7.82336-3.72736-5.3248-7.49568-10.69056-11.0592-16.05632-16.384-24.20736-31.70304-49.152-46.2848-74.46528-14.45888-24.9856-28.71296-50.09408-40.46848-76.47232-0.73728-1.4336-1.2288-3.03104-1.96608-4.46464 1.06496 2.33472-0.90112-2.29376-1.2288-2.8672-1.26976-3.19488-2.70336-6.5536-3.76832-9.78944a264.35584 264.35584 0 0 1-6.43072-20.11136 203.12064 203.12064 0 0 1-4.46464-20.6848c-0.16384-0.53248-0.16384-1.2288-0.16384-1.76128-0.36864-1.80224 0.16384 1.2288 0.16384 1.39264 0.2048-0.86016-0.32768-2.6624-0.32768-3.56352a71.80288 71.80288 0 0 1-0.53248-8.72448 262.51264 262.51264 0 0 1 0-16.75264l0.53248-7.82336c0.16384-1.2288 0.16384-2.70336 0.32768-3.93216 0-0.69632 0.2048-1.2288 0.2048-1.96608 0.36864-2.4576-0.73728 3.93216 0-0.16384 0.90112-5.16096 1.76128-10.36288 3.03104-15.31904l2.12992-7.49568 1.06496-3.19488c0.16384-0.73728 1.80224-4.5056 0.90112-2.17088-1.06496 2.33472 0.69632-1.59744 0.90112-1.92512 0.53248-0.90112 0.86016-1.80224 1.39264-2.70336 0.90112-1.76128 1.96608-3.35872 3.03104-4.99712 0.2048-0.32768 0.53248-0.69632 0.90112-1.06496 0.90112-1.39264-1.06496 1.6384-1.06496 1.4336 0-0.53248 1.80224-1.96608 2.12992-2.29376l1.80224-1.80224c2.12992-3.19488-2.70336 0.90112-0.73728-0.53248 6.9632-4.79232 10.89536-14.41792 5.89824-22.28224-4.46464-6.9632-14.62272-10.8544-22.28224-5.85728-19.41504 13.18912-27.27936 37.92896-30.84288 60.2112a195.13344 195.13344 0 0 0 4.096 81.79712c8.192 30.47424 22.48704 59.1872 37.60128 86.95808 15.52384 28.672 32.11264 56.85248 49.5616 84.29568 15.85152 25.14944 32.44032 49.93024 52.0192 72.54016 9.09312 10.52672 18.92352 20.31616 29.40928 29.0816 11.22304 9.25696 23.552 18.51392 36.90496 24.576 14.9504 6.7584 32.60416 10.32192 47.39072 1.06496 15.1552-9.4208 19.78368-27.27936 17.12128-44.032-4.62848-30.47424-35.26656-49.88928-63.0784-55.95136-16.05632-3.56352-32.44032-4.25984-48.82432-5.16096-16.05632-0.69632-31.9488-1.4336-47.9232-1.6384a1188.90496 1188.90496 0 0 0-97.6896 2.00704c-64.512 3.8912-129.39264 13.5168-191.40608 32.07168-15.48288 4.62848-30.63808 10.6496-43.13088 21.21728-12.288 10.32192-20.48 25.64096-21.21728 41.69728a37.84704 37.84704 0 0 0 6.26688 23.51104c6.38976 8.88832 15.85152 12.4928 26.37824 13.7216 15.85152 1.76128 31.86688-3.93216 45.62944-11.75552 13.35296-7.65952 25.47712-17.8176 37.23264-27.81184 10.8544-9.25696 21.21728-19.0464 31.00672-29.40928 20.48-21.38112 39.03488-44.89216 56.32-68.97664a1212.416 1212.416 0 0 0 47.55456-72.704c15.89248-26.2144 31.5392-52.55168 44.56448-80.36352 13.7216-29.57312 26.2144-61.31712 29.0816-93.92128a123.37152 123.37152 0 0 0-4.3008-41.86112c-3.03104-11.22304-6.9632-22.81472-14.09024-31.9488a31.3344 31.3344 0 0 0-14.9504-11.18208c-6.9632-2.33472-13.9264-0.73728-20.31616 2.12992-7.65952 3.56352-10.15808 15.31904-5.89824 22.28224 4.99712 7.82336 13.7216 9.4208 21.9136 5.69344z" fill="#65A15E" p-id="115563"></path></svg>