<?xml version="1.0" standalone="no"?><!DOCTYPE svg PUBLIC "-//W3C//DTD SVG 1.1//EN" "http://www.w3.org/Graphics/SVG/1.1/DTD/svg11.dtd"><svg t="1716873190801" class="icon" viewBox="0 0 1379 1024" version="1.1" xmlns="http://www.w3.org/2000/svg" p-id="11510" xmlns:xlink="http://www.w3.org/1999/xlink" width="269.3359375" height="200"><path d="M1099.424465 102.349829H280.124122c-37.96309 0-68.065981 30.771844-68.065981 68.06598V853.249714c0 37.96309 30.771844 68.065981 68.065981 68.065981h819.133105c37.96309 0 68.065981-30.771844 68.065981-68.065981V170.415809c0.167238-37.294137-30.102891-68.065981-67.898743-68.06598z" fill="#BCE2EC" p-id="11511"></path><path d="M280.124122 921.650171h617.443737c-1.00343-156.70227-177.607055-283.636126-396.354728-283.636126-114.223747 0-217.07529 34.785563-289.823943 90.643149v124.926997c0.668953 37.294137 30.939082 68.065981 68.734934 68.06598z" fill="#6DBB58" p-id="11512"></path><path d="M1030.187816 441.843541c-218.580434 0-396.354728 127.435571-396.354728 284.639556 0 75.257227 40.973379 143.824922 107.032501 194.498121h358.391638c37.96309 0 68.065981-30.771844 68.065981-68.06598V459.738037c-42.311285-11.204965-88.970766-17.894496-137.135392-17.894496z" fill="#22AC38" p-id="11513"></path><path d="M554.562143 379.965376m-153.023028 0a153.023028 153.023028 0 1 0 306.046056 0 153.023028 153.023028 0 1 0-306.046056 0Z" fill="#FFAB00" p-id="11514"></path></svg>