<?xml version="1.0" standalone="no"?><!DOCTYPE svg PUBLIC "-//W3C//DTD SVG 1.1//EN" "http://www.w3.org/Graphics/SVG/1.1/DTD/svg11.dtd"><svg t="1716875657813" class="icon" viewBox="0 0 1024 1024" version="1.1" xmlns="http://www.w3.org/2000/svg" p-id="68810" xmlns:xlink="http://www.w3.org/1999/xlink" width="200" height="200"><path d="M536.82176 102.4h52.71552v85.64736c99.40992 0.57344 198.94272-1.06496 298.35264 0a32.52224 32.52224 0 0 1 36.00384 36.864c1.6384 177.7664 0 355.61472 0.94208 533.42208-0.94208 19.2512 1.8432 40.5504-8.92928 57.7536-13.59872 9.6256-31.21152 8.76544-47.18592 9.6256-92.9792-0.49152-185.91744 0-279.06048 0v94.69952h-57.7536c-141.84448-26.09152-283.81184-50.21696-425.65632-75.73504V178.70848C249.73312 153.31328 393.216 127.42656 536.82176 102.4z" fill="#D24625" p-id="68811"></path><path d="M589.53728 216.63744h306.7904v580.4032h-306.7904V720.896h223.19104v-38.01088h-223.19104v-48.08704h223.19104v-37.56032h-223.06816v-55.9104c36.864 11.6736 78.80704 11.34592 111.73888-11.264 35.59424-21.62688 54.14912-62.83264 57.26208-103.91552h-122.4704c0-41.3696 0.53248-82.7392-0.73728-124.06784a1834.5984 1834.5984 0 0 0-45.71136 9.6256l-0.2048-95.06816z" fill="#FFFFFF" p-id="68812"></path><path d="M654.78656 281.96864a132.42368 132.42368 0 0 1 122.42944 125.1328c-40.79616 0.45056-81.59232 0-122.51136 0 0.08192-41.86112 0.08192-83.3536 0.08192-125.1328z" fill="#D24625" p-id="68813"></path><path d="M255.42656 353.77152c50.50368 2.49856 111.616-20.39808 153.96864 18.26816 40.01792 49.84832 29.45024 141.39392-29.9008 171.13088-21.0944 11.0592-45.34272 9.6256-68.23936 8.76544V663.552l-55.33696-4.7104c-1.47456-101.62176-1.6384-203.3664-0.49152-305.07008z" fill="#FFFFFF" p-id="68814"></path><path d="M310.64064 405.25824c18.30912-0.77824 41.00096-4.21888 53.32992 13.39392 10.15808 19.456 10.6496 42.5984 1.2288 62.42304-10.56768 19.2512-34.52928 17.6128-53.08416 19.94752a1379.9424 1379.9424 0 0 1-1.47456-95.76448z" fill="#D24625" p-id="68815"></path></svg>