<?xml version="1.0" standalone="no"?><!DOCTYPE svg PUBLIC "-//W3C//DTD SVG 1.1//EN" "http://www.w3.org/Graphics/SVG/1.1/DTD/svg11.dtd"><svg t="1716523118104" class="icon" viewBox="0 0 1024 1024" version="1.1" xmlns="http://www.w3.org/2000/svg" p-id="6322" xmlns:xlink="http://www.w3.org/1999/xlink" width="200" height="200"><path d="M789.572267 582.0416c14.882133 2.116267 19.114667-2.116267 19.114666-10.581333a69.290667 69.290667 0 0 1-14.882133 8.8064 6.826667 6.826667 0 0 1-4.232533 1.774933zM755.575467 456.840533h104.0384v6.3488h-104.0384zM834.1504 503.534933l2.116267 2.116267a78.916267 78.916267 0 0 0 19.114666-14.882133l-29.354666 2.116266c1.774933 2.116267 3.8912 6.3488 8.123733 10.6496z" fill="#5A91DD" p-id="6323"></path><path d="M512 0a512 512 0 1 0 512 512A512 512 0 0 0 512 0zM218.453333 416.426667l-6.3488 12.6976H286.72v36.113066H199.4752l-4.232533 2.116267h78.506666v27.306667H182.4768V484.693333a46.557867 46.557867 0 0 0-10.581333 12.6976l-29.696-25.463466a154.077867 154.077867 0 0 0 34.133333-59.392z m-93.252266-2.048a179.268267 179.268267 0 0 1 40.3456 21.230933l-27.648 31.812267c-19.0464-10.581333-31.812267-19.114667-42.3936-23.3472z m0 197.358933l-34.133334-25.463467c12.765867-14.813867 21.230933-34.133333 29.764267-59.392L157.013333 546.133333a378.948267 378.948267 0 0 1-31.812266 65.604267z m131.618133 2.116267c-21.230933 0-31.880533-25.463467-29.764267-74.274134H152.7808v-38.024533l-16.9984 23.210667c-2.116267 0-2.116267-2.184533-4.232533-4.3008-12.6976-8.465067-25.463467-16.930133-35.976534-23.3472l23.3472-29.696a130.6624 130.6624 0 0 1 40.277334 25.463466l-6.212267 8.533334h114.414933v8.465066c-2.116267 42.461867-2.116267 61.44 4.232534 55.159467 2.116267 0 6.3488-4.232533 12.765866-12.6976l10.581334 42.461867a81.1008 81.1008 0 0 1-38.161067 19.0464z m235.588267-25.463467H422.365867v25.463467h-42.461867v-25.463467h-78.506667V550.229333h78.506667v-12.765866h-61.44v-42.461867a16.657067 16.657067 0 0 0 8.533333-8.465067l8.465067-10.6496h-31.9488v-38.161066h53.0432L375.466667 412.2624l38.161066 14.813867-8.465066 10.6496h83.012266v38.161066H382.293333l-16.9984 21.230934h14.882134v-16.930134h42.461866v16.930134h57.275734v40.3456h-57.5488v12.765866h70.0416z m201.659733 16.9984c-63.6928 6.3488-108.270933-2.116267-131.618133-23.3472-4.232533-4.232533-8.465067-2.116267-12.765867 0-6.3488 8.465067-12.6976 16.9984-16.930133 23.3472l-31.880534-29.696 2.116267-2.116267c10.6496-14.882133 19.114667-23.3472 23.3472-29.764266 10.6496-12.6976 23.3472-16.930133 36.113067-10.581334a318.805333 318.805333 0 0 0 78.506666-53.0432H515.754667v-40.3456h65.809066v-4.232533c-2.116267-6.417067-2.116267-12.765867-4.232533-19.114667l40.277333-4.232533c2.184533 8.465067 4.3008 19.0464 6.417067 29.696h65.809067v38.229333A252.586667 252.586667 0 0 1 600.746667 560.810667c14.813867 10.6496 46.6944 12.765867 101.853866 6.3488z m150.664533-27.306667a29.013333 29.013333 0 0 1-10.581333 25.463467 17.954133 17.954133 0 0 1-12.765867 4.232533c-4.232533 0-16.930133 2.116267-38.161066 2.116267l-14.882134-19.114667a343.8592 343.8592 0 0 1-42.461866 14.882134l-19.114667-27.306667c31.880533-6.3488 59.460267-21.230933 89.156267-40.3456 0-2.116267 0-2.116267-2.116267-4.232533-25.463467 19.114667-46.6944 29.696-72.157867 34.133333l-16.9984-25.463467c21.230933-4.232533 42.461867-14.813867 72.157867-29.696a6.826667 6.826667 0 0 1 4.3008-2.116266c-2.184533-2.116267-2.184533-4.232533-4.3008-4.232534a139.605333 139.605333 0 0 1-59.392 25.463467l-8.533333-21.230933h4.3008a84.650667 84.650667 0 0 0 36.0448-14.882134h-27.306667v-13.448533h-12.765867v-53.111467h69.768534l4.3008-12.6976 42.461866-6.3488 4.232534 16.930134h70.0416v53.111466h-14.882134v12.6976h-8.465066l21.230933 21.230934a241.8688 241.8688 0 0 1-31.880533 25.1904 289.792 289.792 0 0 0 36.113066 34.133333h4.232534l-27.306667 31.812267c-8.738133-4.096-19.387733-14.7456-34.269867-27.4432z" fill="#5A91DD" p-id="6324"></path></svg>