<?xml version="1.0" standalone="no"?><!DOCTYPE svg PUBLIC "-//W3C//DTD SVG 1.1//EN" "http://www.w3.org/Graphics/SVG/1.1/DTD/svg11.dtd"><svg t="1716517684428" class="icon" viewBox="0 0 1024 1024" version="1.1" xmlns="http://www.w3.org/2000/svg" p-id="6623" xmlns:xlink="http://www.w3.org/1999/xlink" width="200" height="200"><path d="M158.8 0h706.4C952.8 0 1024 71.2 1024 158.8v706.4c0 87.6-71.2 158.8-158.8 158.8H158.8C71.2 1024 0 952.8 0 865.2V158.8C0 71.2 71.2 0 158.8 0z" fill="#5495DF" p-id="6624"></path><path d="M62 609.6l-20-3.2c0-9.6 4.8-16 10-22 4.8-6 12.4-6.4 20-6.4 5.6-0.4 11.2 2 14.8 6.4 4.8 2.4 7.6 7.2 7.6 12.8 0 3.2 2.4 12.8 2.4 22v60h-20V660c-4.8 9.6-10 16-20 16-4.8-0.4-9.2-2.4-12.4-6.4-3.6-5.6-5.6-12.4-4.8-19.2-0.4-9.2 2.4-18 7.6-25.2 5.2-6.4 15.2-9.6 30-9.6v-3.2c0-6.4 0-9.6-2.4-12.8 0-3.2-2.4-3.2-4.8-3.2-5.6-2.4-8 4-8 13.2z m14.8 19.2c-4.8 0.4-9.2 2.4-12.4 6.4-2.4 3.2-4.8 3.2-4.8 9.6s2.4 12.8 7.6 12.8c2.4 0 4.8-3.2 7.6-6.4 2-3.6 2-10 2-22.4z m30-50.8h20v60c0 6.4 0 9.6 2.4 12.8 2.4 3.2 2.4 3.2 4.8 3.2s4.8 0 4.8-3.2 2.4-3.2 2.4-6.4v-63.2h20v91.6H144V660c-1.6 4.8-4.4 8.8-7.6 12.8-2.4 3.2-4.8 3.2-10 3.2s-10 0-12.4-3.2c-2.8-2.4-4.4-6-4.8-9.6l-2.4-85.2z m72.4-28.4h20v28.4h12.4v22h-12.4v47.6c0 3.2 0 3.2 2.4 3.2 0 0 2.4 3.2 4.8 3.2h4.8v19.2c-4.8 0-7.6 3.2-12.4 3.2-5.2 0.4-10.4-0.8-14.8-3.2-3.2-3.6-5.2-8-4.8-12.8v-63.2h-4.8v-22h7.6l-2.8-25.6z m94.4 76c0 31.6-10 47.6-30 47.6s-30-16-30-47.6 10-47.6 30-47.6c22.8 0 30 16 30 47.6z m-17.2 0c0-12.8 0-19.2-2.4-25.2-2.4-3.2-2.4-6.4-7.6-6.4-2.4 0-4.8 3.2-7.6 6.4-2.4 3.2-2.4 12.8-2.4 25.2s0 19.2 2.4 25.2c0 2 0.8 3.6 2.4 4.8 1.6 1.2 3.2 1.6 5.2 1.6 2.4 0 4.8-3.2 7.6-6.4-0.4-6.4 2.4-12.4 2.4-25.2z m29.6-79.2h20v44.4c2.8-7.2 9.6-12 17.6-12.8 4.8 0 10 0 12.4 3.2 3.2 3.6 5.2 8 4.8 12.8v76h-20v-60c0-6.4 0-9.6-2.4-12.8-2.4-3.2-2.4 0-4.8 0-2.8-0.4-5.6 0.8-7.6 3.2-2.4 3.2-2.4 6.4-2.4 12.8v60h-20l2.4-126.8z m122 79.2c0 31.6-10 47.6-30 47.6s-30-16-29.6-47.6c0-31.6 10-47.6 30-47.6s29.6 16 29.6 47.6z m-22.4 0c0-12.8 0-19.2-2.4-25.2-2.4-3.2-2.4-6.4-7.6-6.4-2.4 0-4.8 3.2-7.6 6.4-2.4 3.2-2.4 12.8-2.4 25.2s0 19.2 2.4 25.2c0 2 0.8 3.6 2.4 4.8 1.6 1.2 3.2 1.6 5.2 1.6 2.4 0 4.8-3.2 7.6-6.4 2.4-6.4 2.4-12.4 2.4-25.2z m32.4-47.6h20v12.8c2.4-9.6 10-16 17.6-16 7.6 0 12.4 6.4 14.8 16 2.4-9.6 10-16 17.6-16 4.8 0 7.6 0 10 3.2 2.8 2.4 4.4 6 4.8 9.6 0 3.2 2.4 12.8 2.4 22v60h-20V600s-2.4-3.2-4.8-3.2-4.8 0-4.8 3.2-4.8 9.6-4.8 19.2v53.6h-20v-72.4c0-3.2-2.4-3.2-4.8-3.2-2.8-0.4-5.6 0.8-7.6 3.2 0 3.2-2.4 9.6-2.4 16v53.6h-20v-92h2z m152 50.8h-37.2v6.4c0 9.6 0 12.8 2.4 16 1.6 2.4 4.4 3.6 7.6 3.2 4.8 0 10-6.4 10-16h17.6c-2.4 22-12.4 31.6-27.6 31.6-10 0-17.6-3.2-22.4-12.8-5.6-10.8-8-22.8-7.6-34.8-0.4-13.2 2-26 7.6-38 4.8-9.6 12.4-12.8 22.4-12.8 8.4 0 16.4 4.8 20 12.8 7.2 12.8 7.2 25.2 7.2 44.4z m-14.8-12.8c0-16-2.4-22-10-22-4.8 0-10 6.4-10 22h20z m27.2 28.4h20v28.4h-20v-28.4z m87.2-31.6H652c0-6.4 0-9.6-2.4-12.8 0-3.2-2.4-3.2-4.8-3.2-7.6 0-10 9.6-10 28.4 0 9.6 0 19.2 2.4 22 2.4 3.2 4.8 6.4 7.6 6.4 4.8 0 7.6-6.4 7.6-16h17.6c0 22-7.6 34.8-24.8 34.8-10 0-17.6-3.2-20-12.8-5.6-10.8-8-22.8-7.6-34.8-0.4-13.2 2-26 7.6-38 4.8-9.6 12.4-12.8 22.4-12.8 14.4 4 22 13.6 22 38.8z m67.2 12.8c0 31.6-10 47.6-30 47.6s-30-16-30-47.6 10-47.6 30-47.6 30 16 30 47.6z m-20 0c0-12.8 0-19.2-2.4-25.2 0-2-0.8-3.6-2.4-4.8s-3.2-1.6-5.2-1.6c-2.4 0-4.8 3.2-7.6 6.4-2.4 3.2-2.4 12.8-2.4 25.2s0 19.2 2.4 25.2c0 2 0.8 3.6 2.4 4.8 1.6 1.2 3.2 1.6 5.2 1.6 2.4 0 4.8-3.2 7.6-6.4 0-6.4 2.4-12.4 2.4-25.2z m32.4-47.6h20v12.8c2.4-9.6 10-16 17.6-16 7.6 0 12.4 6.4 14.8 16 2.4-9.6 10-16 17.6-16 4.8 0 7.6 0 10 3.2 2.8 2.4 4.4 6 4.8 9.6 0 3.2 2.4 12.8 2.4 22v60h-20V600c-2.4-1.6-4.8-2.4-7.6-3.2-2.4 0-4.8 0-4.8 3.2s-2.4 9.6-2.4 16v53.6h-20v-72.4c0-3.2-2.4-3.2-4.8-3.2-2.8-0.4-5.6 0.8-7.6 3.2 0 3.2-2.4 9.6-2.4 16v53.6h-20v-85.6h2.4v-3.2z m99.6 66.4h20v28.4h-20v-28.4z m87.2-31.6h-17.6c0-6.4 0-9.6-2.4-12.8 0-3.2-2.4-3.2-4.8-3.2-7.6 0-10 9.6-10 28.4 0 9.6 0 19.2 2.4 22 2.4 3.2 4.8 6.4 7.6 6.4 4.8 0 7.6-6.4 7.6-16h17.6c-2.4 25.2-10 38-27.6 38-10 0-17.6-3.2-20-12.8-5.6-10.8-8-22.8-7.6-34.8-0.4-13.2 2-26 7.6-38 4.8-9.6 12.4-12.8 22.4-12.8 14.8 0.8 22.4 10.4 24.8 35.6z m10-34.8h20v12.8c2.4-9.6 10-16 17.6-16 4.4-0.4 8.8 0.8 12.4 3.2 2.8 2.4 4.4 6 4.8 9.6 1.2 6.4 2 12.8 2.4 19.2v60h-20v-60c0-6.4 0-9.6-2.4-12.8 0 0-2.4-3.2-4.8-3.2-2.8-0.4-5.6 0.8-7.6 3.2 0 3.2-2.4 9.6-2.4 16v50.8h-20v-82.8zM948.8 460.8l36.4-28.8c-8-8.4-15.6-16-23.6-24.4l8-0.4v-14.8h16V330.4h-76.8c-4 0-6-1.2-6.8-5.2-0.8-4-2-8.4-3.2-13.2l-48.4 7.2 2.4 11.2h-82V392h14v15.2h30.8c-14.4 12.4-30.8 14.4-46.8 18.8 2.4 4.4 4.8 8.4 7.2 12 9.2 14.4 9.2 14.4 25.2 9.6 17.2-5.2 33.6-13.2 48.4-23.6 1.2-0.8 2.8-1.6 4-2.4 0.8 1.2 2 2.4 2.8 3.6 0.8 1.2 0 0.8 0 1.6-27.2 16.4-56.8 28.4-87.6 36 5.6 9.2 10.8 16.8 15.2 24.8 2 3.6 4 4 8 3.2 19.6-5.2 38.8-13.2 56-23.6 7.2-4.4 14.4-9.2 21.6-13.6 3.2 3.6 0.8 5.2-1.6 6.8-28 19.2-59.2 33.6-92.4 42.4l-7.2 2c6.8 9.2 13.2 18 18.8 27.2 1.2 2.8 4.8 4 7.6 2.8l0.4-0.4c12.8-4.8 25.6-9.2 38.8-14.4 1.2-0.8 2.4-0.8 3.6-0.8 1.2 0.4 2.4 1.2 3.2 2.4l0.4 0.4c3.6 5.6 7.6 10.8 11.6 16 1.2 1.6 2.8 2.8 4.8 3.2 14.4-0.8 29.2-2 43.6-3.2 8.8-0.8 16-7.2 18.4-15.6 2-5.2 2.8-11.2 4.4-16.8l38.4 30.4 30.4-36c-16-10.8-30.8-24.4-44-39.2zM862 508l18.4-12c1.6 10-5.6 15.2-18.4 12z m52.4-85.2c-1.6 0-3.2-0.8-4.4-2-2.8-4-5.2-8.4-8.4-13.6h33.2c-6 6.4-12.8 11.6-20.4 15.6z m-94.8-49.2v-6.4h118.4v6.4h-118.4zM361.2 326c-8.8 13.6-16.4 16-32.4 16.4H286.4v44h34.4c-1.6 2-2.4 3.2-3.2 4-5.2 6.8-15.6 20.8-15.6 20.8s-0.4 18-0.4 27.2v17.2h70.8v14.8H281.6v42.8h91.2v29.2H420v-29.2h82v-43.2H420v-14.8h65.6v-44.8h-66v-19.6H372.4v18.8H356l16-23.6h125.2V342.8h-96c2.8-4.4 6-8.8 9.2-13.2l-41.2-16.4-8 12.8z m302 164c-10-0.4-20-3.6-28.4-9.2l6-3.6c36-20 67.2-47.2 92-80.4 2-2.4 4.8-5.2 5.2-8 0.4-13.2 0.4-26.8 0.4-40.4h-75.6l-8.4-34.8-53.6 7.2c2 9.2 3.6 17.6 5.6 27.2h-74.8v44h143.2c-0.4 1.2-1.2 2-2 3.2-24.4 24-53.2 43.6-84.4 56.8-1.6 0.4-3.6 0.4-5.6 0-10-4.4-21.6-1.6-28.8 6.4-12.4 13.2-23.6 27.2-34 39.6l34.4 37.2c7.2-9.2 13.6-17.2 20.4-25.6 1.6-2.4 4-4.4 7.2-4.4 2.8-0.4 6 0.8 7.6 3.2 16.4 12 35.2 20 55.2 23.2 28 4.4 56.4 5.6 84.8 3.2 13.2-0.8 13.2-0.4 15.6-13.2 2-10.8 4.4-22 6.8-33.6l-13.6 1.2c-25.6 3.6-50.4 3.6-75.2 0.8zM91.6 382.8l34 27.2 10.8-10.4c0 3.2 0 6.8 0.4 10h105.6V380H152.4c1.2-4 5.2-6.4 9.2-6h97.6V333.6H172.8l6.4-14.8-48.4-3.2s-0.8 2.4-1.2 4c-5.6 16.4-13.6 32-24 46.4-4.8 5.2-9.2 10.8-14 16.8z m164 93.6l-5.2 6.4c-1.6 2-3.2 4-5.2 5.6-5.6 4.8-9.2 3.6-10.4-3.6-0.8-2.8-1.2-5.2-1.2-8V416H104.8v42h84.8v6.4c1.2 14 1.6 28.4 3.6 42.4 0.8 10 4.8 19.6 11.2 27.2 5.2 7.2 14 10.8 22.8 9.2 13.6-2.4 26.4-9.2 36.4-18.8 1.2-1.2 2-2.8 2-4.4-3.2-14.8-6.8-28.8-10-43.6z m-218.4 38.8l36.4 26.8 34-75.6-39.2-21.6-31.2 70.4z m72.4-109.2l-44.8-28-2.4 2c-8.4 10.8-16.8 21.6-25.2 32l45.6 29.2 26.8-35.2zM116.4 339.6l-46.4-22.8-2 2.8c-4.4 4.8-8.4 10-12.4 15.2-4.4 5.2-9.2 11.2-13.6 16.4L88.8 376l27.6-36.4z" fill="#F7F6F6" p-id="6625"></path></svg>