<?xml version="1.0" standalone="no"?><!DOCTYPE svg PUBLIC "-//W3C//DTD SVG 1.1//EN" "http://www.w3.org/Graphics/SVG/1.1/DTD/svg11.dtd"><svg t="1716520401638" class="icon" viewBox="0 0 1024 1024" version="1.1" xmlns="http://www.w3.org/2000/svg" p-id="120742" xmlns:xlink="http://www.w3.org/1999/xlink" width="200" height="200"><path d="M0.023467 2.145044h1021.854956v1021.854956H0.023467z" fill="#FFFFFF" p-id="120743"></path><path d="M329.869731 458.190395s-184.402242-156.386386-171.160705-186.062756 171.160705 60.970679 171.160705 60.970679-18.776585-131.350939 21.884727-184.529974A218.889847 218.889847 0 0 1 587.888107 73.547159c120.408576 26.568229 143.868662 262.701878 143.868663 262.701878s161.069887 23.460087 161.069887 50.028316-120.578885 68.592014-120.578885 68.592014a771.968842 771.968842 0 0 1-13.880196 155.023912 369.65603 369.65603 0 0 1-91.796637 111.339613z" fill="#231815" p-id="120744"></path><path d="M403.698752 375.292412a319.585138 319.585138 0 0 0-11.282982 101.631991c4.598347 46.835019 226.724068 220.039434 226.724068 220.039434a227.618191 227.618191 0 0 0 106.485802-103.803433 828.596638 828.596638 0 0 0 18.393389-163.113597z" fill="#FFFFFF" p-id="120745"></path><path d="M331.445091 395.644357c-67.229541 1.57536-92.605605 200.113262 48.112337 203.306559s19.117203-204.881919-48.112337-203.306559M744.231916 655.195515c-38.787911-18.095348-142.378457 72.807166-53.221613 123.899914s101.717145-101.291373 53.221613-123.899914" fill="#F5A81A" p-id="120746"></path><path d="M152.279855 546.666004s69.656446-71.444692 138.461347-69.869333 151.660306-15.625865 314.305553 156.386386 187.638116 193.343473 187.638117 193.343473l-95.37313 27.121733z" fill="#F3BF3D" p-id="120747"></path><path d="M189.109211 546.793735a173.417302 173.417302 0 0 1 128.242797-38.575024c93.670038 0 190.788836 71.913043 237.666432 125.092077s220.465207 234.55829 220.465207 234.55829-214.206345 32.82709-293.187218 9.367004-293.187218-330.442346-293.187218-330.442347" fill="#E3862A" p-id="120748"></path><path d="M370.488466 353.407685a245.883849 245.883849 0 0 0 154.89618 7.834221 823.955713 823.955713 0 0 0 196.962543-81.876128l22.3105 5.237007 12.09195 39.724611h18.776585s-47.643987 49.389656-30.868535 71.274383a58.160578 58.160578 0 0 0 48.06976 18.776585l-64.121399 26.568229s5.194429 29.804103-14.60401 35.935233-58.884392-49.985738-58.884392-49.985739-195.472338 48.452956-284.586605-73.488402" fill="#E81F1F" p-id="120749"></path><path d="M348.603739 286.178144c1.57536 14.093083 29.804103 20.351945 42.960485 31.251731a124.325686 124.325686 0 0 0 98.566426-7.791644c27.377197-17.030916 32.060699-29.250598 64.88779-30.272453s21.884727-24.481942-39.085952-21.288645-97.927767-3.704224-112.233736-0.298041a347.175221 347.175221 0 0 0-55.095013 28.44163" fill="#F5A81A" p-id="120750"></path><path d="M489.704877 130.132377c-45.685432-6.642057-64.504594 95.075088-7.408448 98.225808s61.353875-90.391586 7.408448-98.225808M391.436492 149.121848c-39.809766 3.108142-62.716348 96.905912-9.665045 97.501994s49.474811-100.610136 9.665045-97.501994" fill="#FFFFFF" p-id="120751"></path><path d="M385.135053 182.757907c-15.796175 2.256596-19.670708 32.188431 0 29.804103 13.965351-1.745669 17.030916-32.145854 0-29.804103M485.57488 161.384108c-19.79844 0-19.287512 35.424305 0.255464 35.424305s18.095348-35.424305-0.255464-35.424305" fill="#231815" p-id="120752"></path><path d="M62.441774 775.646668s15.625865 75.063762 59.608205 89.114268a122.963213 122.963213 0 0 0 78.171904 0S270.602144 960.134065 537.987524 960.134065s379.959735-116.363733 379.959734-145.78464a128.242797 128.242797 0 0 0-32.82709-65.35614s7.834221 44.876463-15.625866 61.524184-141.952684 22.651118-281.010112-27.377198A379.746848 379.746848 0 0 1 391.819688 628.031204z" fill="#12B7F5" p-id="120753"></path><path d="M317.352008 602.059058s-3.108142-63.865935-45.344814-71.01892-54.711817 19.415244-54.711817 19.415244a95.628593 95.628593 0 0 0-104.782711-19.415244c-59.608206 27.206888-45.344814 106.954152-45.344813 106.954152a62.120266 62.120266 0 0 0-62.588616 53.221613c-12.517723 56.287177 0 110.700954 45.344813 119.216411s96.77818 7.280717 102.185496-59.948824 165.072153-148.552164 165.072153-148.552164" fill="#82D2FF" p-id="120754"></path><path d="M306.409644 549.220641s7.834221 6.13113-10.942363 23.332355-81.322624 12.517723-115.725074 51.603675a114.192291 114.192291 0 0 0 20.351945 167.328749 106.443225 106.443225 0 0 0 146.976804-29.804103c20.351945-26.568229-6.940098-77.44809 18.095348-93.116533s57.905114 14.60401 98.566426 58.373465 191.597804 73.829021 191.597805 73.82902-146.551032-16.477411-284.20341-215.398509c-27.675238-51.773984-64.504594-36.233274-64.504594-36.233274" fill="#FFFFFF" p-id="120755"></path><path d="M399.568755 722.169592a15.285247 15.285247 0 1 0 0 30.570494 15.285247 15.285247 0 1 0 0-30.570494" fill="#FFFFFF" p-id="120756"></path><path d="M34.085299 586.773811a17.925039 17.925039 0 1 0 0 35.8075 17.925039 17.925039 0 1 0 0-35.8075" fill="#82D2FF" p-id="120757"></path></svg>