<?xml version="1.0" standalone="no"?><!DOCTYPE svg PUBLIC "-//W3C//DTD SVG 1.1//EN" "http://www.w3.org/Graphics/SVG/1.1/DTD/svg11.dtd"><svg t="1716518603978" class="icon" viewBox="0 0 1024 1024" version="1.1" xmlns="http://www.w3.org/2000/svg" p-id="78174" xmlns:xlink="http://www.w3.org/1999/xlink" width="200" height="200"><path d="M923.904 587.52a80.384 80.384 0 0 1-80.3328-84.2752c2.048-43.264 39.3216-76.4928 82.5856-76.4928a26.624 26.624 0 0 0 26.624-26.6752V271.36a156.5696 156.5696 0 0 0-156.5184-156.5696H234.8032A156.5696 156.5696 0 0 0 78.2336 271.36v128.7168a26.6752 26.6752 0 0 0 26.6752 26.6752h0.512c43.264 0 80.5376 33.2288 82.5344 76.4928A80.384 80.384 0 0 1 107.52 587.52h-2.7648a26.624 26.624 0 0 0-26.6752 26.624v122.88a156.5184 156.5184 0 0 0 156.5696 156.5184h561.6128a156.5184 156.5184 0 0 0 156.5184-156.5184V614.4a26.624 26.624 0 0 0-26.624-26.624z" fill="#F55651" p-id="78175"></path><path d="M223.3856 112.128c-84.5824 0-153.1392 70.0928-153.1392 156.5696v122.88a26.368 26.368 0 0 0 26.0608 26.624h2.2528a79.616 79.616 0 0 1 78.5408 84.1216 80.8448 80.8448 0 0 1-80.9472 76.4928 26.3168 26.3168 0 0 0-25.9072 26.624v128.6144c0 86.4768 68.5568 156.5184 153.1392 156.5184h34.5088C213.3504 867.6352 133.12 817.8176 133.12 756.2752v-109.3632a13.9776 13.9776 0 0 1 10.24-13.568c27.4432-7.6288 101.632-37.4784 101.632-137.3184 0-101.12-75.4176-130.5088-102.4-138.24a13.8752 13.8752 0 0 1-9.9328-12.9536c-1.024-30.72 0.512-73.6768 0.512-88.576 0-16.64 28.6208-85.2992 128-85.2992h504.2688c52.48 0 136.448 30.1056 159.9488 86.016-5.888-80.9984-71.9872-144.8448-152.6784-144.8448z" fill="#F67969" p-id="78176"></path><path d="M801.0752 893.3888a157.0304 157.0304 0 0 0 157.5936-156.5184V614.4a26.7264 26.7264 0 0 0-26.7776-26.624h-2.304a80.64 80.64 0 0 1-80.8448-84.2752c2.048-43.3152 39.6288-76.8 83.3024-76.4928a26.6752 26.6752 0 0 0 26.624-26.6752V271.36a157.0816 157.0816 0 0 0-157.5936-156.5696h-35.4816c46.08 22.9888 128.256 72.7552 128.256 134.3488v109.5168a13.9776 13.9776 0 0 1-10.24 13.5168C855.04 379.8016 778.8544 409.6 778.8544 509.5424c0 101.12 77.6192 130.5088 105.3184 138.24a13.9264 13.9264 0 0 1 10.24 12.9024c1.0752 30.72-0.512 73.728-0.512 88.6272 0 16.64-29.4912 85.2992-131.6864 85.2992H243.3024c-54.016 0-140.4416-30.1568-164.5568-86.016a157.1328 157.1328 0 0 0 157.0816 144.7936z" fill="#E3413F" p-id="78177"></path><path d="M796.2624 903.68H234.8032a167.0144 167.0144 0 0 1-166.8096-166.8096V614.4a36.9152 36.9152 0 0 1 36.9152-36.864H107.52a70.1952 70.1952 0 0 0 70.1952-73.8304 71.168 71.168 0 0 0-72.2944-66.56 37.0176 37.0176 0 0 1-37.4272-36.9152V271.36a167.0144 167.0144 0 0 1 166.8096-166.656h561.4592A166.9632 166.9632 0 0 1 963.0208 271.36v128.7168a36.9152 36.9152 0 0 1-36.864 36.9152 71.2192 71.2192 0 0 0-72.3456 66.56 70.1952 70.1952 0 0 0 70.0928 73.5744h2.2528a36.9152 36.9152 0 0 1 36.864 36.864v122.88a166.9632 166.9632 0 0 1-166.7584 166.8096z m-691.2-305.92a16.4352 16.4352 0 0 0-16.4352 16.384v122.88a146.4832 146.4832 0 0 0 146.176 146.176h561.4592a146.4832 146.4832 0 0 0 146.2784-146.3296V614.4a16.384 16.384 0 0 0-16.384-16.384h-2.2528a90.5728 90.5728 0 0 1-90.5216-95.232 91.648 91.648 0 0 1 92.7744-86.272 16.4352 16.4352 0 0 0 16.384-16.4352V271.36a146.4832 146.4832 0 0 0-146.2784-146.3296H234.8032A146.4832 146.4832 0 0 0 88.4736 271.36v128.7168a16.4352 16.4352 0 0 0 16.4352 16.4352A91.8016 91.8016 0 0 1 198.1952 502.784 90.5728 90.5728 0 0 1 107.52 597.76z" fill="#4B2254" p-id="78178"></path><path d="M654.592 540.0064h-87.6544v-18.9952h87.6544c24.2688 0 57.6512-21.0432 45.6704-71.0656-10.496-9.7792-21.4016-16.9472-45.6704-16.9472h-42.1376L666.2144 363.52c14.848-19.2 37.7856-48.1792-1.9968-88.064-17.152-17.152-52.8384 15.36-67.6352 34.304l-74.6496 96.768-80.128-97.9968A43.9808 43.9808 0 1 0 373.76 364.288l56.32 68.7104h-38.7584a44.032 44.032 0 0 0 0 88.0128h87.6544v18.9952H391.3216a43.9808 43.9808 0 0 0 0 87.9616h70.1952v47.5648c0 24.2688 14.9504 56.8832 60.7744 56.8832 28.928 0 60.0064-24.1664 60.0064-59.1872v-45.2608h72.2944c24.2688 0 51.5584-19.9168 45.1584-68.7104-7.1168-10.496-20.8896-19.2512-45.1584-19.2512z" fill="#E3413F" p-id="78179"></path><path d="M645.7856 513.28H558.08v-18.9952h87.6544a43.9808 43.9808 0 1 0 0-87.9616h-42.0864l53.76-69.7344a43.9808 43.9808 0 1 0-69.6832-53.76l-74.6496 96.768L432.9984 281.6a43.9808 43.9808 0 0 0-68.096 55.7568l56.32 68.7616h-38.7072a43.9808 43.9808 0 1 0 0 87.9616h87.6032v18.9952H382.5152a44.032 44.032 0 0 0 0 88.0128h87.6032v62.976a44.032 44.032 0 0 0 88.0128 0v-62.976h87.6544a44.032 44.032 0 0 0 0-88.0128z" fill="#F8B031" p-id="78180"></path><path d="M470.1184 664.2688a44.7488 44.7488 0 0 0 1.4336 10.8544 25.6 25.6 0 0 0 28.6208 15.6672c13.1072-1.5872 22.6816-13.8752 22.6816-30.0544V593.92a14.9504 14.9504 0 0 1 14.9504-14.9504h87.5008c9.5744 0 30.72-1.28 30.72-25.6s-15.36-30.72-35.2768-30.72h-84.5312a14.1824 14.1824 0 0 1-13.9776-14.1824v-22.8352a14.1824 14.1824 0 0 1 14.1312-14.1312h96.6656c17.664 0 24.2176-13.4656 24.2176-26.2144 0-36.7616-48.2304-29.696-57.2416-29.3888l-22.7328 0.6656a9.9328 9.9328 0 0 1-8.2432-15.872c15.36-20.992 42.3936-56.9856 57.3952-76.8a86.4768 86.4768 0 0 0 15.36-53.6064 44.1344 44.1344 0 0 0-54.1184 12.6976l-74.6496 96.768L432.9984 281.6a43.9808 43.9808 0 0 0-68.096 55.7568l56.32 68.7616h-38.7072a43.9808 43.9808 0 1 0 0 87.9616h87.6032v18.9952H382.5152a44.032 44.032 0 0 0 0 88.0128h87.6032z" fill="#FACF5D" p-id="78181"></path><path d="M514.1504 718.5408a54.3744 54.3744 0 0 1-54.272-54.272v-52.736H382.5152A54.2208 54.2208 0 0 1 373.76 503.808a54.2208 54.2208 0 0 1 9.0112-107.52h17.1008l-42.8544-52.224a54.2208 54.2208 0 1 1 83.9168-68.7104l71.68 87.808 66.56-86.5792A54.2208 54.2208 0 0 1 665.6 343.04l-40.96 53.248h21.3504a54.2208 54.2208 0 0 1 8.96 107.52 54.2208 54.2208 0 0 1-8.96 107.52H568.32v52.736a54.3232 54.3232 0 0 1-54.1696 54.4768z m-131.6352-195.0208a33.792 33.792 0 0 0 0 67.5328h87.6032a10.24 10.24 0 0 1 10.24 10.24v62.976a33.792 33.792 0 1 0 67.5328 0v-62.976a10.24 10.24 0 0 1 10.24-10.24h87.6544a33.792 33.792 0 0 0 0-67.5328H558.08a10.24 10.24 0 0 1-10.24-10.24v-18.9952a10.24 10.24 0 0 1 10.24-10.24h87.6544a33.7408 33.7408 0 1 0 0-67.4816h-42.0864a10.24 10.24 0 0 1-9.216-5.7344 10.24 10.24 0 0 1 1.0752-10.8032l53.8112-69.7344a33.7408 33.7408 0 0 0-53.4528-41.216l-74.6496 96.768a10.24 10.24 0 0 1-7.9872 3.9936 10.24 10.24 0 0 1-8.0384-3.7376L424.96 288.3072a33.7408 33.7408 0 1 0-52.224 42.8032l56.32 68.7104a10.24 10.24 0 0 1-7.936 16.7424h-38.6048a33.7408 33.7408 0 1 0 0 67.4816h87.6032a10.24 10.24 0 0 1 10.24 10.24v18.9952a10.24 10.24 0 0 1-10.24 10.24z" fill="#4B2254" p-id="78182"></path></svg>