<?xml version="1.0" standalone="no"?><!DOCTYPE svg PUBLIC "-//W3C//DTD SVG 1.1//EN" "http://www.w3.org/Graphics/SVG/1.1/DTD/svg11.dtd"><svg t="1718180536254" class="icon" viewBox="0 0 1024 1024" version="1.1" xmlns="http://www.w3.org/2000/svg" p-id="19750" xmlns:xlink="http://www.w3.org/1999/xlink" width="200" height="200"><path d="M847.6672 504.1664c0-37.888 26.624-69.4784 62.208-77.2608 8.0896-1.7408 13.9776-8.7552 13.9776-17.0496V274.5856c0-64.9728-52.6336-117.6064-117.6064-117.6064H220.5184c-64.9728 0-117.6064 52.6336-117.6064 117.6064v135.5776c0 8.192 5.7344 15.104 13.6704 16.9984 34.9696 8.192 61.0816 39.4752 61.0816 76.9536 0 37.4784-26.0608 68.8128-61.0816 76.9536-7.9872 1.8432-13.6704 8.8064-13.6704 16.9984v142.3872c0 64.9728 52.6336 117.6064 117.6064 117.6064h585.728c64.9728 0 117.6064-52.6336 117.6064-117.6064v-142.08c0-8.2944-5.888-15.2576-13.9776-17.0496-35.5328-7.68-62.208-39.2704-62.208-77.1584z" fill="#FF9797" p-id="19751"></path><path d="M317.7472 163.7888l5.1712-6.8096h-102.4c-64.9728 0-117.6064 52.6336-117.6064 117.6064v135.5776c0 8.192 5.7344 15.104 13.6704 16.9984 34.9696 8.192 61.0816 39.4752 61.0816 76.9536 0 37.4784-26.0608 68.8128-61.0816 76.9536-7.9872 1.8432-13.6704 8.8064-13.6704 16.9984v142.3872c0 64.9728 52.6336 117.6064 117.6064 117.6064H275.968c8.0384-2.8672 17.0496-4.5056 27.136-4.5056-65.5872-10.1888-98.3552-53.1456-98.3552-118.7328V274.5856c0-96.1024 112.9984-110.7968 112.9984-110.7968z" fill="#FFB8B8" p-id="19752"></path><path d="M694.9888 163.7888l-5.1712-6.8096h102.4512c64.9728 0 117.6064 52.6336 117.6064 117.6064v135.5776c0 8.192-5.7344 15.104-13.6704 16.9984-34.9696 8.192-61.0816 39.4752-61.0816 76.9536 0 37.4784 26.0608 68.8128 61.0816 76.9536 7.9872 1.8432 13.6704 8.8064 13.6704 16.9984v142.3872c0 64.9728-52.6336 117.6064-117.6064 117.6064h-55.4496c-8.0384-2.8672-17.0496-4.5056-27.136-4.5056 65.5872-10.1888 98.3552-53.1456 98.3552-118.7328V274.5856c0-96.1024-113.0496-110.7968-113.0496-110.7968z" fill="#FC6565" p-id="19753"></path><path d="M806.2464 883.712H220.5184c-78.9504 0-143.2064-64.256-143.2064-143.2064v-142.3872c0-20.0704 13.7728-37.3248 33.4848-41.9328 24.32-5.6832 41.3184-27.0848 41.3184-52.0704s-16.9984-46.3872-41.3184-52.0704c-19.712-4.608-33.4848-21.8624-33.4848-41.9328V274.5856c0-78.9504 64.256-143.2064 143.2064-143.2064h585.728c78.9504 0 143.2064 64.256 143.2064 143.2064v135.2704c0 20.3776-14.0288 37.6832-34.0992 42.0352-24.3712 5.3248-42.0864 27.2896-42.0864 52.224s17.7152 46.8992 42.0864 52.224c20.0704 4.352 34.0992 21.6576 34.0992 42.0352v142.08c0 79.0016-64.2048 143.2576-143.2064 143.2576zM128.512 604.4672v136.0384c0 50.7392 41.2672 92.0064 92.0064 92.0064h585.728c50.7392 0 92.0064-41.2672 92.0064-92.0064v-135.6288c-44.4928-12.6464-76.1856-53.9648-76.1856-100.7104s31.6928-88.064 76.1856-100.7104V274.5856c0-50.7392-41.2672-92.0064-92.0064-92.0064H220.5184c-50.7392 0-92.0064 41.2672-92.0064 92.0064v129.28c44.3392 13.1584 74.752 53.504 74.752 100.3008s-30.4128 87.1424-74.752 100.3008z m775.936 1.9456h0.0512-0.0512z" fill="#434A54" p-id="19754"></path><path d="M412.7232 362.4448m-79.1552 0a79.1552 79.1552 0 1 0 158.3104 0 79.1552 79.1552 0 1 0-158.3104 0Z" fill="#FFC50B" p-id="19755"></path><path d="M398.3872 339.8144m-24.1664 0a24.1664 24.1664 0 1 0 48.3328 0 24.1664 24.1664 0 1 0-48.3328 0Z" fill="#FFE8C0" p-id="19756"></path><path d="M597.4016 642.4576m-79.1552 0a79.1552 79.1552 0 1 0 158.3104 0 79.1552 79.1552 0 1 0-158.3104 0Z" fill="#FFC50B" p-id="19757"></path><path d="M583.0656 619.8784m-24.1664 0a24.1664 24.1664 0 1 0 48.3328 0 24.1664 24.1664 0 1 0-48.3328 0Z" fill="#FFE8C0" p-id="19758"></path><path d="M412.7232 467.2c-57.7536 0-104.7552-47.0016-104.7552-104.7552s47.0016-104.7552 104.7552-104.7552 104.7552 47.0016 104.7552 104.7552-47.0016 104.7552-104.7552 104.7552z m0-158.3104c-29.5424 0-53.5552 24.0128-53.5552 53.5552 0 29.5424 24.0128 53.5552 53.5552 53.5552 29.5424 0 53.5552-24.0128 53.5552-53.5552 0-29.5424-24.0128-53.5552-53.5552-53.5552zM598.1696 746.8544c-57.7536 0-104.7552-47.0016-104.7552-104.7552s47.0016-104.7552 104.7552-104.7552 104.7552 47.0016 104.7552 104.7552-47.0016 104.7552-104.7552 104.7552z m0-158.3104c-29.5424 0-53.5552 24.0128-53.5552 53.5552 0 29.5424 24.0128 53.5552 53.5552 53.5552 29.5424 0 53.5552-24.0128 53.5552-53.5552 0-29.5424-24.0128-53.5552-53.5552-53.5552zM355.4304 676.352c-6.6048 0-13.1584-2.5088-18.176-7.5776a25.56928 25.56928 0 0 1 0.1536-36.1984l297.0112-294.7584a25.56928 25.56928 0 0 1 36.1984 0.1536 25.56928 25.56928 0 0 1-0.1536 36.1984l-297.0112 294.7584c-4.9664 4.9664-11.4688 7.424-18.0224 7.424z" fill="#434A54" p-id="19759"></path></svg>