<?xml version="1.0" standalone="no"?><!DOCTYPE svg PUBLIC "-//W3C//DTD SVG 1.1//EN" "http://www.w3.org/Graphics/SVG/1.1/DTD/svg11.dtd"><svg t="1718159746402" class="icon" viewBox="0 0 1029 1024" version="1.1" xmlns="http://www.w3.org/2000/svg" p-id="14684" xmlns:xlink="http://www.w3.org/1999/xlink" width="200.9765625" height="200"><path d="M359.979197 795.619389s6.247509 36.74499 5.524657 51.072954c-11.376318 11.453766-76.450232 29.060382-70.176907 31.151491 19.241639 6.402406 86.888563 56.675059 139.519091 55.780099 57.208593-0.963803 110.140311-55.117485 121.542445-58.878038 4.044531-1.333835-47.639406-12.65852-51.675331-28.053552-5.963531-2.848382 0-51.072954 0-51.072954H359.979197z" fill="#FAB5A3" p-id="14685"></path><path d="M367.54333 879.392803s65.822583 16.651418 140.611975-2.2374c96.483566-14.921736-73.748141 81.794176-75.624115 81.011085-1.884579-0.774485-89.108752-23.811098-88.222397-26.840192 0.886355-3.037701 23.234537-51.933493 23.234537-51.933493z" fill="#FFFFFF" p-id="14686"></path><path d="M334.550287 780.164119s61.821079 63.507734 169.526066 68.67957c85.322383 9.009837 21.96094-98.454199 22.236313-98.032535 0.283978 0.430269-191.762378 29.352965-191.762379 29.352965z" fill="#E89A85" opacity=".349" p-id="14687"></path><path d="M325.471607 865.529529l17.15053-6.05819s64.213376 29.946737 88.239609 46.899343c26.117341-17.950831 89.470178-46.899343 89.470178-46.899343l26.11734 8.218141-81.200404 72.586415-106.20765-2.598826-33.569603-72.14754z" fill="#FF5A5A" p-id="14688"></path><path d="M325.471607 865.529529s-110.080073 17.46893-132.152883 24.473712c-1.445705 0.456085-5.300917 3.597051-6.540092 4.001504-12.598282 4.121979-28.234265 6.118428-34.438747 8.794702-49.377694 19.05232-60.951935 68.524673-60.951935 68.524674h688.430725s-4.509221-47.656617-54.626978-67.053153c-8.390249-3.24423-25.695677-7.856716-37.398999-11.720533-1.204754-0.395848-2.211584-2.246005-3.571235-2.68488-24.680241-7.916953-147.324175-25.609623-147.324175-25.609623s-89.005487 60.805644-105.519219 74.884052c-19.844016-16.36744-105.906462-73.610455-105.906462-73.610455z" fill="#5A6ED5" p-id="14689"></path><path d="M276.016465 907.179588s36.719174 52.346551 29.507862 98.669334c0.387242 38.741439 254.839844 3.416337 254.839843 3.416337s6.927334-98.230459 30.884724-102.429886c-24.955614-18.682289-315.232429 0.344215-315.232429 0.344215z" fill="#2D3669" p-id="14690"></path><path d="M450.043147 978.724751s140.551738-80.159153 273.169311-98.454199c70.873943 8.837729-36.435196-20.790608-36.435196-20.790608l-162.177068 27.356516-87.964236 91.888291h13.407189z" fill="#2D3669" opacity=".395" p-id="14691"></path><path d="M434.510428 987.22687s-140.551738-80.150547-273.169311-98.454199c-70.873943 8.846335 36.435196-20.790608 36.435196-20.790608l162.177068 27.365122 87.964236 91.879685h-13.407189z" fill="#2D3669" opacity=".395" p-id="14692"></path><path d="M170.015344 883.463149s103.445322 22.055599 148.399848 41.168158c44.963132 19.112558 115.862891 57.957262 115.862891 57.957261s52.751004-33.647052 106.199045-55.332619c53.44804-21.676962 149.088279-47.432877 149.088279-47.432877l-277.119183-75.357348-242.43088 78.997425z" fill="#1D2343" p-id="14693"></path><path d="M177.459001 1014.729678l12.615493-68.877494 8.123483 68.877494h-20.738976zM668.80922 1020.856711l12.624099-68.877494 8.123482 68.877494H668.80922z" fill="#2D3669" opacity=".395" p-id="14694"></path><path d="M616.109848 506.134269s64.213376-30.893329 103.101107 0c38.896336 30.893329-9.97364 123.444234-88.566613 118.564982-78.601578-4.870647-14.534494-118.564982-14.534494-118.564982z" fill="#FAB5A3" p-id="14695"></path><path d="M699.229253 520.238494a3.390521 3.390521 0 0 0-4.345719-2.005055c-25.377278 9.259393-42.381517 29.533678-50.900847 60.452823a3.390521 3.390521 0 0 0 6.531487 1.781315c3.898239-14.138646 9.595003-25.790336 17.124714-34.989492a3.390521 3.390521 0 0 0 1.092884 0.378637c11.178394 1.832947 17.761513 6.540092 20.317312 14.198884a3.390521 3.390521 0 0 0 6.428222-2.134136c-3.166781-9.465922-10.8686-15.532718-22.649371-18.140149a67.43179 67.43179 0 0 1 24.396264-15.222925 3.3561 3.3561 0 0 0 2.005054-4.319902z" fill="#C26B6B" p-id="14696"></path><path d="M253.031484 515.892775s-64.20477-30.893329-103.092501 0c-38.896336 30.901934 9.965035 123.444234 88.566613 118.582192 78.601578-4.879253 14.525888-118.582192 14.525888-118.582192z" fill="#FAB5A3" p-id="14697"></path><path d="M169.912079 530.005604a3.390521 3.390521 0 0 1 4.345719-2.005054c25.385883 9.259393 42.381517 29.533678 50.909452 60.452823a3.390521 3.390521 0 0 1-6.531486 1.781314c-3.898239-14.138646-9.603609-25.790336-17.124714-34.989491a3.381916 3.381916 0 0 1-1.10149 0.378637c-11.169789 1.832947-17.752907 6.540092-20.308706 14.198883a3.390521 3.390521 0 0 1-6.428222-2.134135c3.166781-9.465922 10.8686-15.532718 22.649371-18.140149a67.423184 67.423184 0 0 0-24.396264-15.222925 3.3561 3.3561 0 0 1-2.01366-4.319903z" fill="#C26B6B" p-id="14698"></path><path d="M196.519927 427.541296c-15.558534-126.240984 77.061214-240.055794 203.827127-250.476914l24.766295-2.03087c138.581105-11.393528 253.919068 104.994291 241.251942 243.472131l-18.60484 203.457096c-9.965035 109.047427-101.741456 192.330334-211.244968 191.676324-109.623988 0.654009-202.372817-80.873399-215.780005-189.679875l-24.215551-196.417892z" fill="#FFD4C6" p-id="14699"></path><path d="M600.24152 680.617036m-59.480415 0a59.480415 59.480415 0 1 0 118.96083 0 59.480415 59.480415 0 1 0-118.96083 0Z" fill="#FFA2A2" opacity=".625" p-id="14700"></path><path d="M191.795571 684.584118a71.381661 63.447497 0 1 0 142.763322 0 71.381661 63.447497 0 1 0-142.763322 0Z" fill="#FFA2A2" opacity=".625" p-id="14701"></path><path d="M390.072225 375.272194l99.134025 18.759737s43.629297 59.48902 115.002352 75.348743c51.546251 0 75.348743 59.48902 75.348743 59.48902l20.782003-153.606106H390.080831zM368.67924 383.197752s-27.760969 48.921608-79.315825 72.715496c-51.546251 23.793887-70.478095 39.051233-84.177866 55.564965-13.699771 16.522337-16.711656 65.443946-16.711656 65.443945l-28.397768-193.7158h208.59451z" fill="#422E23" p-id="14702"></path><path d="M516.967219 541.820797m25.704282 0l4.104768 0q25.704282 0 25.704282 25.704282l0 12.038932q0 25.704282-25.704282 25.704282l-4.104768 0q-25.704282 0-25.704282-25.704282l0-12.038932q0-25.704282 25.704282-25.704282Z" fill="#83573D" p-id="14703"></path><path d="M294.896677 541.820797m25.704283 0l4.104768 0q25.704282 0 25.704282 25.704282l0 12.038932q0 25.704282-25.704282 25.704282l-4.104768 0q-25.704282 0-25.704283-25.704282l0-12.038932q0-25.704282 25.704283-25.704282Z" fill="#83573D" p-id="14704"></path><path d="M497.458813 516.968448s58.48219-15.945777 80.357076-15.489692c-37.588318-54.756059-80.348471 15.489691-80.348471 15.489692zM361.097897 516.968448s-58.48219-15.945777-80.348471-15.489692c37.588318-54.756059 80.348471 15.489691 80.348471 15.489692z" fill="#65422D" p-id="14705"></path><path d="M434.975119 549.806593c2.598826 0.413058 4.388746 2.934436 3.992898 5.636527l-0.877749 6.101217c-3.278651 22.924743-5.378365 40.763704-6.28193 53.482462l-0.120476 1.635023c-0.44748 6.789648-0.516323 11.961484-0.258161 15.438059 0.086054 0.920776 0.172108 1.695261 0.283978 2.297637l0.077448 0.413059 0.215135 0.051632c3.304467 0.636798 10.19738-0.240951 20.136598-2.90862l3.261441-0.903565c2.538588-0.731458 5.16323 0.808906 5.868872 3.442154a4.973912 4.973912 0 0 1-3.313073 6.092612c-15.575745 4.49201-25.644045 5.61071-31.297782 2.822566-7.641581-3.769158-5.989347-28.871064 2.874198-89.444362a4.819015 4.819015 0 0 1 4.836226-4.208033l0.602377 0.051632z" fill="#F28080" p-id="14706"></path><path d="M772.598758 256.302759V464.346524h-4.844832V256.302759h4.844832z" fill="#2D3669" p-id="14707"></path><path d="M755.62894 329.052676v90.924488s9.896192 4.061741 14.852893 4.061741c4.956701 0 14.241911-4.061741 14.241911-4.061741V329.052676s-10.300645-3.80358-15.205714-3.80358c-4.905069 0-13.88909 3.80358-13.88909 3.80358z" fill="#1D2343" p-id="14708"></path><path d="M760.155372 440.724745l19.93007-3.941266s5.154625 208.172846 18.587629 233.575939c-16.522337 7.830899-32.803724 7.753451-44.489835 3.037701-1.127305-0.456085-1.764104-7.366209-2.116925-8.209536-0.421664 1.092884-2.005054 4.741567-3.175387 5.507445-4.655513-1.858763-9.853165-9.457317-9.853164-9.457317l21.117612-220.512966z" fill="#5A6ED5" p-id="14709"></path><path d="M780.601765 437.58378s2.753723 59.790208 1.015435 115.010958c-1.746893 55.22075-7.753451 123.719607-47.992227 147.651179-31.728051 5.335338 205.668679 124.287562 203.284988 122.437405-2.383691-1.850158-80.055888-383.757102-80.055888-383.757102l-76.252308-1.34244z" fill="#3E50AE" p-id="14710"></path><path d="M744.794762 670.875742s7.521106-34.223612 9.095891-63.912188c1.832947 65.366497 0 73.533007 0 73.533007L744.794762 670.875742z" fill="#3E50AE" p-id="14711"></path><path d="M427.058166 143.537806c-16.857947 0.817511-366.57215 106.448601-370.065936 117.05904-3.502391 10.610439 370.057331 94.848543 370.05733 94.848543s375.246377-84.143445 367.381057-96.784755c-27.253251-16.81492-350.514504-115.931734-367.363846-115.114222z" fill="#141932" p-id="14712"></path><path d="M413.668188 158.115327s110.493131 67.999745 4.044531 64.703883c-106.43139-3.295862-192.949921 30.626562-220.857182 79.651434-27.898655 49.024873 581.844438 74.49681 581.844438 74.49681l100.123643-195.084056L425.104744 128.564438l-11.436556 29.542283z" fill="#141932" opacity=".207" p-id="14713"></path><path d="M67.895251 268.1954S410.647698 158.597228 425.775964 156.609385C440.912834 154.638752 787.133251 264.013183 787.133251 264.013183l62.647196-43.483006L479.034686 0.008605 0.411829 196.116703l34.163375 88.712904 33.328653-16.642813z" fill="#1D2343" p-id="14714"></path><path d="M199.213412 301.782214s-18.036885 83.489436-14.887314 140.009598c180.110688 37.158048 387.62092 21.952335 495.463592-10.799757-2.400902-63.783107-21.556487-129.209842-21.556487-129.209841S534.040301 242.327615 428.004758 240.434431c-110.759898 3.313073-228.791346 61.339178-228.791346 61.339177z" fill="#141932" p-id="14715"></path><path d="M565.570428 265.717049s-67.449 20.962716-122.970939 96.913835c-55.513333 75.942514-340.127805 73.352294-340.127805 73.352294s768.727564 134.295624 772.531144 120.466772c3.80358-13.837458-133.349031-237.474179-133.349032-248.893524 0-11.419345-176.083369-41.839377-176.083368-41.839377z" fill="#10142A" opacity=".22" p-id="14716"></path></svg>