<?xml version="1.0" standalone="no"?><!DOCTYPE svg PUBLIC "-//W3C//DTD SVG 1.1//EN" "http://www.w3.org/Graphics/SVG/1.1/DTD/svg11.dtd"><svg t="1718155696546" class="icon" viewBox="0 0 1536 1024" version="1.1" xmlns="http://www.w3.org/2000/svg" p-id="11293" xmlns:xlink="http://www.w3.org/1999/xlink" width="300" height="200"><path d="M768 102.4l614.4 256-614.4 256-614.4-256z" fill="#515151" p-id="11294"></path><path d="M401.1776 724.224a26.2656 26.2656 0 0 1-1.8176-9.6128V455.68l36.4544 15.1936 322.048 134.1824a26.3296 26.3296 0 0 0 20.2624 0l322.048-134.1824L1136.64 455.68v258.9312c0 3.392-0.64 6.6432-1.8176 9.6128C1017.728 826.0608 895.4496 876.9792 768 876.9792S518.272 826.0608 401.1776 724.224z" fill="#000000" p-id="11295"></path><path d="M468.48 640.3584v294.4768c0 8.6912 11.6864 15.7312 26.112 15.7312s26.112-7.04 26.112-15.7312V640.3584H468.48z" fill="#F56C6C" p-id="11296"></path><path d="M468.48 640.3584c0 8.6912 11.6864 15.7312 26.112 15.7312 14.4128 0 26.112-7.04 26.112-15.7312 0-8.6784-11.6992-15.7184-26.112-15.7184-14.4256 0-26.112 7.04-26.112 15.7184z" fill="#FFA4A4" p-id="11297"></path><path d="M496.2816 633.1648H491.52v-140.416L769.4592 348.16l2.368 4.1344L496.2816 495.488z" fill="#FF8E8E" p-id="11298"></path><path d="M737.28 350.0928c0 9.5616 12.8512 17.2928 28.7104 17.2928 15.872 0 28.7232-7.7312 28.7232-17.28 0-9.5616-12.864-17.3056-28.7232-17.3056-15.8592 0-28.7104 7.744-28.7104 17.2928z" fill="#FFA4A4" p-id="11299"></path></svg>