<?xml version="1.0" standalone="no"?><!DOCTYPE svg PUBLIC "-//W3C//DTD SVG 1.1//EN" "http://www.w3.org/Graphics/SVG/1.1/DTD/svg11.dtd"><svg t="1718155538421" class="icon" viewBox="0 0 1024 1024" version="1.1" xmlns="http://www.w3.org/2000/svg" p-id="10118" xmlns:xlink="http://www.w3.org/1999/xlink" width="200" height="200"><path d="M727.376 711.744l-14.688 15.264-208 208-208-208-44.8-7.2c30.72-13.44 59.664-27.68 76.8-40.464l16.16-16.176 95.84 95.84 64-32 64 32 92.8-92.8 12.8 12.8c10.56 9.936 31.488 22.016 53.088 32.736z" fill="#E6E9ED" p-id="10119"></path><path d="M848.368 762.064a1884.608 1884.608 0 0 1-80-31.68c-14.896-6.4-27.232-11.904-41.008-18.624l-14.688 15.264-208 208-208-208-44.8-7.2c-39.52 17.28-82.08 32.976-106.896 42.256-58.88 22.064-88.32 44.16-88.32 103.024v149.92h880v-149.92c0.032-58.88-29.408-80.976-88.288-103.04z" fill="#656D78" p-id="10120"></path><path d="M504.688 695.008l-160-92.944v60.944l96 96 64-32 64 32 96-96v-60.944z" fill="#F5F7FA" p-id="10121"></path><path d="M760.688 373.248v-46.24H248.704v46.24c0 167.536 158.56 321.76 256 321.76s256-154.224 255.984-321.76z" fill="#F0C7B7" p-id="10122"></path><path d="M505.168 799.008c-4.416 0-8.08-3.584-8.08-8s3.504-8 7.904-8h0.176a8 8 0 0 1 0 16zM505.168 863.024c-4.416 0-8.08-3.584-8.08-8s3.504-8 7.904-8h0.176a8 8 0 0 1 0 16z" fill="#CCD1D9" p-id="10123"></path><path d="M760.688 144.128v182.896s-112 16-256 16-256-16-256-16V144.128l256 54.896 256-54.896z" fill="#545C66" p-id="10124"></path><path d="M504.688 247.008l256-54.848V128.128l-256 54.88-256-54.88v64.032z" fill="#434A54" p-id="10125"></path><path d="M727.376 711.744L504.688 935.008l-226.56-227.136-32.928 14.832 259.488 260.304 255.424-256.224z" fill="#FFCE54" p-id="10126"></path><path d="M520.336 10.352c-8.592-1.84-22.688-1.84-31.28 0L72.352 99.664c-8.592 1.84-8.592 4.864 0 6.704l416.688 89.296c8.592 1.84 22.688 1.84 31.28 0l416.72-89.296c8.592-1.84 8.592-4.864 0-6.704L520.336 10.352z" fill="#656D78" p-id="10127"></path><path d="M936.736 111.008H535.376a8 8 0 0 1 0-16h401.36a8 8 0 0 1 0 16z" fill="#F6BB42" p-id="10128"></path><path d="M936.736 239.024a8 8 0 0 1-8-8V103.008a8 8 0 0 1 16 0v128.016a8 8 0 0 1-8 8z" fill="#F6BB42" p-id="10129"></path><path d="M552.688 103.008c0 8.8-21.36 16-48 16-26.4 0-48-7.2-48-16s21.6-16 48-16c26.64 0 48 7.216 48 16z" fill="#545C66" p-id="10130"></path><path d="M954.304 270.848l-1.568-7.824h-32l-1.568 7.824-12.88 64.336c-0.864 4.32 2.032 7.84 6.432 7.84h48a6.32 6.32 0 0 0 6.432-7.84l-12.848-64.336z" fill="#FFCE54" p-id="10131"></path><path d="M944.736 231.008h-16c-4.4 0-8 3.616-8 8v23.984h7.968l0.032 0.016h16l0.032-0.016h7.968v-23.984c0-4.384-3.6-8-8-8z" fill="#656D78" p-id="10132"></path></svg>