<?xml version="1.0" standalone="no"?><!DOCTYPE svg PUBLIC "-//W3C//DTD SVG 1.1//EN" "http://www.w3.org/Graphics/SVG/1.1/DTD/svg11.dtd"><svg t="1716858110403" class="icon" viewBox="0 0 1024 1024" version="1.1" xmlns="http://www.w3.org/2000/svg" p-id="2848" xmlns:xlink="http://www.w3.org/1999/xlink" width="200" height="200"><path d="M127.667532 909.631169c-25.267532-31.916883-27.927273-53.194805-27.927272-246.025974 0-179.532468 3.98961-220.758442 26.597402-283.262338 34.576623-91.761039 110.379221-178.202597 200.81039-227.407792 65.163636-35.906494 83.781818-39.896104 191.501299-39.896104 135.646753 1.32987 199.480519 25.267532 289.911688 111.709091 45.215584 42.555844 111.709091 144.955844 99.74026 152.935065-2.65974 1.32987-31.916883 23.937662-66.493507 47.875325s-66.493506 54.524675-70.483117 69.153246c-13.298701 37.236364-59.844156 30.587013-59.844156-7.97922 0-18.618182-15.958442-50.535065-34.576623-74.472728-90.431169-107.719481-226.077922-107.719481-316.509091 0-34.576623 41.225974-34.576623 45.215584-34.576623 243.366234 0 178.202597-2.65974 207.45974-26.597403 246.025974-22.607792 37.236364-33.246753 42.555844-85.111688 42.555844-47.875325 0-63.833766-6.649351-86.441559-34.576623z" fill="#00CEE3" p-id="2849"></path><path d="M498.701299 920.27013c0-13.298701 9.309091-35.906494 19.948052-53.194805 18.618182-25.267532 18.618182-31.916883-1.32987-62.503896-11.968831-18.618182-26.597403-33.246753-33.246754-33.246754-14.628571 0-15.958442-39.896104-1.32987-39.896104 146.285714-7.979221 228.737662-77.132468 228.737662-195.490909 1.32987-27.927273 7.979221-63.833766 17.288312-79.792207 21.277922-38.566234 115.698701-109.049351 146.285714-110.379221 57.184416 0 83.781818 199.480519 42.555845 320.498701-51.864935 150.275325-212.779221 277.942857-353.745455 277.942857-53.194805 0-65.163636-3.98961-65.163636-23.937662z" fill="#00DF9D" p-id="2850"></path><path d="M398.961039 910.961039c-71.812987-70.483117-19.948052-179.532468 83.781818-179.532468 41.225974 0 57.184416 6.649351 74.472727 33.246754 26.597403 41.225974 26.597403 105.05974 0 146.285714-30.587013 46.545455-113.038961 46.545455-158.254545 0z" fill="#3C73FF" p-id="2851"></path></svg>