<?xml version="1.0" standalone="no"?><!DOCTYPE svg PUBLIC "-//W3C//DTD SVG 1.1//EN" "http://www.w3.org/Graphics/SVG/1.1/DTD/svg11.dtd"><svg t="1716517898930" class="icon" viewBox="0 0 1043 1024" version="1.1" xmlns="http://www.w3.org/2000/svg" p-id="24801" xmlns:xlink="http://www.w3.org/1999/xlink" width="203.7109375" height="200"><path d="M878.386576 815.175393A716.44805 716.44805 0 0 1 688.620681 924.290782a465.662604 465.662604 0 0 1-246.286686 27.728724 505.906061 505.906061 0 0 1-233.60836-95.537313A916.111218 916.111218 0 0 1 27.630078 672.850971a489.710523 489.710523 0 0 0 83.267966 152.139899q128.500957 163.591289 340.924246 190.256669a512.858691 512.858691 0 0 0 383.376186-99.872482q116.80418-87.112361 164.736428-212.668676a1267.014532 1267.014532 0 0 1-121.548328 112.469012z" fill="#F7D844" p-id="24802"></path><path d="M999.934904 702.624586a515.31256 515.31256 0 0 0 29.528227-125.065541 502.143461 502.143461 0 0 0-108.870003-378.468446Q788.329571 31.818506 577.215013 7.606995T201.445822 112.469011Q36.300416 239.743034 8.980671 450.448614a503.697578 503.697578 0 0 0 18.649407 222.402357 916.111218 916.111218 0 0 0 181.095557 183.304039 505.906061 505.906061 0 0 0 233.60836 95.537313A465.662604 465.662604 0 0 0 688.620681 924.290782a716.44805 716.44805 0 0 0 189.765895-108.788207 1267.014532 1267.014532 0 0 0 121.548328-112.877989z" fill="#F7D844" p-id="24803"></path><path d="M524.293231 1023.999673a583.775514 583.775514 0 0 1-72.961715-4.662352c-142.16083-18.158633-257.738076-82.695397-343.541706-191.810786A494.209284 494.209284 0 0 1 23.785683 674.159702 509.505069 509.505069 0 0 1 4.890889 449.876044C23.131318 309.023945 88.404242 194.346451 198.991953 109.197185S436.690096-12.02396 577.705787 3.599008A499.689592 499.689592 0 0 1 923.783159 196.309547a507.950952 507.950952 0 0 1 109.687959 381.494885 520.711073 520.711073 0 0 1-29.691819 126.047088 478.831703 478.831703 0 0 1-166.126954 214.549976 516.130516 516.130516 0 0 1-313.359114 105.598177zM31.556269 671.624037a486.520493 486.520493 0 0 0 82.531805 150.831168c84.576696 107.397681 198.354438 170.952897 338.22499 188.702552a510.650208 510.650208 0 0 0 380.431542-99.136321 469.67059 469.67059 0 0 0 163.591289-210.869172 511.631756 511.631756 0 0 0 29.282841-124.002197 500.09857 500.09857 0 0 0-107.970251-375.523803A491.919006 491.919006 0 0 0 576.806035 11.696777c-139.052596-15.377581-264.199932 19.630955-372.824548 103.962264s-172.997788 196.309547-190.992829 335.362142a502.225257 502.225257 0 0 0 18.567611 220.84824z" fill="#4E2B12" p-id="24804"></path><path d="M71.799726 571.83335A17.995042 17.995042 0 0 0 82.024182 558.173478c1.635913-12.596529-5.562104-19.140181-21.594051-19.549159s-25.111263 5.889286-26.583584 17.586063c0 0 0 3.271826 1.30873 8.997521a16.359129 16.359129 0 0 0 14.559625 10.224456 34.92674 34.92674 0 0 0 22.084824-3.353622m884.047325 121.302941a16.359129 16.359129 0 0 0 5.398513-9.651886c1.390526-10.715229-4.989534-17.913246-19.221977-21.757641s-22.248415 1.145139-24.047919 14.805011v9.651886a21.430459 21.430459 0 0 0 18.976589 11.206003 22.330211 22.330211 0 0 0 18.894794-4.253373z" fill="#E94848" p-id="24805"></path><path d="M598.318289 876.767513c-4.907739-8.752134-9.242908-16.359129-13.005507-21.757642a92.429078 92.429078 0 0 0-67.399611-39.343705 130.218666 130.218666 0 0 0-86.94877 17.422473 125.474519 125.474519 0 0 0-40.079866 38.11677q30.918754 63.309829 87.52134 70.753232 77.051497 10.060864 119.912414-65.191128z" fill="#E74646" p-id="24806"></path><path d="M585.312782 855.009871c3.7626 5.807491 8.179564 13.005507 13.005507 21.757642 0.490774-1.063343 0.899752-2.126687 1.308731-3.19003q27.483337-50.631504 38.771135-136.762318c0-1.063343 0.654365-8.670338 1.390526-22.739189a668.188619 668.188619 0 0 0-114.513902 3.680804 1192.662292 1192.662292 0 0 0-165.554385 31.245936 441.205706 441.205706 0 0 0 14.150647 77.133293 271.888722 271.888722 0 0 0 17.013494 45.232991 125.474519 125.474519 0 0 1 40.079866-38.11677 130.218666 130.218666 0 0 1 86.94877-17.422472 92.429078 92.429078 0 0 1 67.399611 39.180113z" fill="#C43030" p-id="24807"></path><path d="M642.487937 674.323293l-9.815477-1.717709a1015.820108 1015.820108 0 0 0-149.440642-5.80749q-66.172676 1.390526-124.492971 8.179564a489.95591 489.95591 0 0 0 0.654365 74.352241 1192.662292 1192.662292 0 0 1 165.554384-31.245936 668.188619 668.188619 0 0 1 114.513902-3.680804q1.472322-15.622968 3.026439-40.079866z" fill="#FFFFFF" p-id="24808"></path><path d="M982.839614 579.685732a299.699241 299.699241 0 0 0 55.375651-192.546947q-5.398513-102.489942-195.818773-122.693467-120.812167-13.741668-232.29963-29.28284c-13.578077-0.654365-21.103276 6.298265-22.739189 20.776093a114.513902 114.513902 0 0 0-67.317815-8.833929q3.844395-22.412007-16.359129-26.747176-110.42412-14.723216-230.254739-33.454418-188.947939-28.464884-221.339014 68.54475t4.007986 201.217285q36.317266 104.534834 149.11346 122.693467t189.520508-48.504818q75.088402-66.499859 123.511423-244.568976a87.52134 87.52134 0 0 1 65.436516 8.179564q-1.963095 186.248682 53.33076 269.925627t170.053145 95.700904q113.61415 11.696777 175.77884-80.405119z" fill="#523129" p-id="24809"></path><path d="M496.319121 947.193563a140.361326 140.361326 0 0 1-18.240429-1.226935c-39.016522-5.153126-69.526298-29.691819-90.629574-73.04351a269.925627 269.925627 0 0 1-17.340677-45.887357 449.876044 449.876044 0 0 1-14.559624-77.705862 515.31256 515.31256 0 0 1-0.981548-70.42605c-10.388047 0.899752-20.694298 1.963095-30.673367 3.353621a4.089782 4.089782 0 0 1-1.063343-8.179564c11.614982-1.472322 23.638941-2.781052 35.744696-3.680804 38.934727-4.335169 80.895892-6.95263 124.820154-8.179565a1035.860041 1035.860041 0 0 1 150.013212 5.889287l9.979068 1.717708c3.7626 0.736161 8.752134 1.717709 14.886808 2.781052a133.490492 133.490492 0 0 1 26.501788 6.543652 4.089782 4.089782 0 0 1 1.963096 5.480308 4.007987 4.007987 0 0 1-5.398513 1.963095 140.443122 140.443122 0 0 0-24.538693-5.971082L646.414128 678.903849c-0.899752 14.150646-1.717709 25.847424-2.453869 35.008536-0.981548 18.812998-1.226935 22.16662-1.30873 23.066371-7.606995 57.256951-20.857889 104.125855-39.343705 138.152844l-0.981548 2.699256c-26.092811 46.459926-61.673916 69.362706-106.007155 69.362707z m-100.526847-75.742767c19.876342 39.425501 47.850452 61.673916 83.349761 66.336268 49.077387 6.543652 86.866974-13.496281 114.513903-61.101347-4.416965-7.688791-8.179564-14.314238-11.696778-19.549159a88.993661 88.993661 0 0 0-64.536763-37.462405 127.028636 127.028636 0 0 0-84.331309 16.849903 122.693467 122.693467 0 0 0-37.298814 34.92674z m102.653533-61.183142a155.411724 155.411724 0 0 1 20.203525 1.30873 96.600656 96.600656 0 0 1 70.262458 40.897822c2.781052 4.335169 5.889286 9.406499 9.242908 15.21399 17.09529-32.718258 29.282841-77.296884 36.399062-131.609192 0-0.654365 0-4.416965 1.145139-18.40402a682.421062 682.421062 0 0 0-110.096938 3.926191 1189.30867 1189.30867 0 0 0-161.546397 30.264389 435.480011 435.480011 0 0 0 13.987055 72.798123 271.316153 271.316153 0 0 0 13.741668 38.280362 130.873031 130.873031 0 0 1 37.298814-33.61801 131.936374 131.936374 0 0 1 69.362706-19.058385zM362.828629 678.249484a499.853183 499.853183 0 0 0 0.408978 65.436515 1197.815417 1197.815417 0 0 1 161.464602-30.182592 689.864465 689.864465 0 0 1 111.487464-3.926191c0.654365-8.752134 1.390526-19.385568 2.208482-31.982097l-6.052878-1.063344A1030.62512 1030.62512 0 0 0 483.559 670.724284c-42.451939 0.981548-83.022579 3.435417-120.730371 7.5252z m469.016225-12.841916a238.843282 238.843282 0 0 1-25.029467-1.308731c-76.80611-8.179564-135.126405-40.897822-173.161379-97.173225s-55.130264-147.23216-54.066921-269.925627a84.004127 84.004127 0 0 0-57.829521-7.606995c-32.227484 117.949319-73.61608 200.235738-124.083993 244.568977-51.367665 44.660422-116.231611 61.183142-192.874129 49.077387S77.034647 528.890637 52.414158 458.055609c-24.538693-70.507846-25.765628-139.052596-4.007986-203.834746 22.16662-66.66345 98.154773-90.629574 225.837774-71.407598 79.832549 12.432938 157.293024 23.638941 230.41833 33.209032a23.229963 23.229963 0 0 1 20.28532 26.011015 117.540341 117.540341 0 0 1 59.465434 8.179564 23.148167 23.148167 0 0 1 26.09281-19.058385c74.434036 10.306251 152.548877 20.121729 232.545017 29.282841 128.664549 13.741668 195.818773 56.438995 199.417782 126.783249a305.015958 305.015958 0 0 1-56.030017 195.082612c-37.38061 55.130264-89.402639 83.104375-154.593768 83.104375zM540.570564 278.923148a93.574217 93.574217 0 0 1 45.0694 11.860368 4.171578 4.171578 0 0 1 2.126687 3.680804c-1.226935 122.693467 16.359129 212.668676 52.676395 267.962531S733.362898 647.821504 807.715139 656.001068s131.609192-18.97659 171.770853-78.605614a296.918189 296.918189 0 0 0 54.639491-190.011282c-3.353621-65.436516-68.053976-105.843564-192.137969-119.176254-80.077936-9.161112-158.274572-18.97659-232.463221-29.282841-10.960616-0.57257-16.359129 4.744147-18.076838 17.177086a4.171578 4.171578 0 0 1-2.044891 3.108234 4.089782 4.089782 0 0 1-3.7626 0 110.505916 110.505916 0 0 0-64.863946-8.179564 4.253374 4.253374 0 0 1-3.599008-1.145139 4.089782 4.089782 0 0 1-1.063343-3.599009c2.126687-12.841916-1.8813-19.630955-13.005508-22.003028-72.798124-9.57009-150.42219-20.776094-230.254739-33.209032-122.693467-18.567611-196.309547 3.517213-216.840253 65.845494s-19.794546 129.809688 4.007986 198.518029 72.634532 108.052046 145.92343 119.585232 136.762318-4.253374 186.166887-47.196086 89.975209-125.310927 122.693466-242.933064a3.926191 3.926191 0 0 1 2.944644-2.862848 93.410626 93.410626 0 0 1 22.820984-3.108234z" fill="#4E2B12" p-id="24810"></path><path d="M375.506954 508.687113q68.708341-62.410077 113.777741-227.882666 11.042412-27.97411-15.377581-35.417514-98.727343-13.250894-205.061681-29.85541-159.501507-24.047919-189.602303 49.077387a278.759556 278.759556 0 0 0 4.007986 182.486083q30.918754 88.584683 126.537862 103.389694 99.299912 15.622968 165.63618-40.897822v-0.408978m583.202945 54.475899a270.579992 270.579992 0 0 0 50.467913-174.388314v-0.408978q-9.324703-78.11484-170.216736-95.373722-106.334338-12.187551-205.225272-25.765628c-13.33269-0.654365-20.448911 8.179564-21.348664 25.602037a8.179564 8.179564 0 0 1 0 1.635913q-1.717709 174.879088 48.423022 253.566498 49.895343 71.816576 149.277051 82.777192 96.355269 9.897273 148.704482-68.135772z" fill="#5A3B33" p-id="24811"></path></svg>