<?xml version="1.0" standalone="no"?><!DOCTYPE svg PUBLIC "-//W3C//DTD SVG 1.1//EN" "http://www.w3.org/Graphics/SVG/1.1/DTD/svg11.dtd"><svg t="1716517857036" class="icon" viewBox="0 0 1118 1024" version="1.1" xmlns="http://www.w3.org/2000/svg" p-id="15674" xmlns:xlink="http://www.w3.org/1999/xlink" width="218.359375" height="200"><path d="M228.57591922 516.12301539C228.57591922 714.42677191 389.63953323 875.09138546 588.20929081 875.09138546c198.56975758 0 359.63337159-160.79761294 359.63337159-358.96837007S786.77904839 157.15464647 588.20929081 157.15464647c-198.70275811 0-359.63337159 160.66461241-359.63337159 358.96836892z m0 0" fill="#F9D706" p-id="15675"></path><path d="M346.68036893 251.31900587c103.47439445-94.03135886 252.30196281-119.43445504 381.17945457-65.03724829C856.73731527 240.67896547 942.25664114 365.03443911 946.91165867 504.81797234s-72.21927595 269.59202873-197.10675172 332.63426901c132.86750663-120.76446037 156.14259541-321.19622542 54.3972079-469.0927889-101.74538866-147.89656462-297.25613397-197.90475491-457.52174592-117.04044658z m0 0" fill="#FEBD34" p-id="15676"></path><path d="M393.23054649 191.26927664c112.51842958-73.28327907 256.55797874-77.67229667 373.33242425-11.30504306 116.77444551 66.36725362 186.73271239 192.31873365 181.27969166 326.64924615C942.38964167 640.81099169 862.5893376 760.77744886 740.76087296 817.56866523c157.87160235-102.94239232 209.34279851-310.29018397 117.83844978-475.07781178-91.37134819-164.78762894-294.59612331-230.75587982-465.36877625-151.22157681z m0 0" fill="#F78F22" p-id="15677"></path><path d="M418.76664434 471.4348453c0 9.57603613 5.05401913 18.48707072 13.43305159 23.27508878 8.24603193 4.78801806 18.48707072 4.78801806 26.86610204 0 8.24603193-4.78801806 13.43305159-13.69905266 13.4330516-23.27508878 0-9.57603613-5.05401913-18.48707072-13.4330516-23.27508879-8.24603193-4.78801806-18.48707072-4.78801806-26.86610204 0-8.24603193 4.78801806-13.43305159 13.69905266-13.43305159 23.27508879z m0 0M639.4144859 471.4348453c0 9.57603613 5.05401913 18.48707072 13.43305159 23.27508878 8.24603193 4.78801806 18.48707072 4.78801806 26.86610205 0 8.24603193-4.78801806 13.43305159-13.69905266 13.43305159-23.27508878 0-9.57603613-5.05401913-18.48707072-13.43305159-23.27508879-8.24603193-4.78801806-18.48707072-4.78801806-26.86610205 0-8.24603193 4.78801806-13.43305159 13.69905266-13.43305159 23.27508879z m0 0" fill="" p-id="15678"></path><path d="M495.77393835 577.56925042h137.12352256c0 37.90514403-30.72311751 68.62826155-68.62826155 68.62826155-37.77214464 0-68.49526101-30.72311751-68.49526101-68.62826155z m0 0" fill="#F48373" p-id="15679"></path><path d="M564.26919936 655.10854542c-43.09216483 0-78.60330041-33.91512917-80.46530674-76.87429233-0.13300053-3.32501219 1.06400427-6.51702499 3.3250122-8.77803407 2.26100907-2.3940096 5.32002019-3.72401379 8.64503353-3.72401379h137.12352256c3.32501219 0 6.38402446 1.33000533 8.64503352 3.72401379 2.26100907 2.3940096 3.45801273 5.58602126 3.3250122 8.77803407-1.995008 42.9591643-37.50614357 76.87429347-80.59830727 76.87429233z m-54.79620949-65.56924928c6.38402446 25.00409571 28.99411058 42.5601627 54.92921002 42.56016157 25.80209891 0 48.41218503-17.55606699 54.7962095-42.56016157h-109.72541952z m0 0" fill="" p-id="15680"></path><path d="M705.64873899 582.88927061c0 11.03904199 5.85202233 21.28008078 15.56105898 26.86610205 9.57603613 5.58602126 21.41308131 5.58602126 30.98911858 0 9.57603613-5.58602126 15.56105899-15.82706005 15.56105899-26.86610205 0-11.03904199-5.85202233-21.28008078-15.56105899-26.86610318-9.57603613-5.58602126-21.41308131-5.58602126-30.98911858 0-9.57603613 5.58602126-15.56105899 15.82706005-15.56105898 26.86610318z m0 0" fill="#F79121" p-id="15681"></path><path d="M536.87109518 914.45953536c-211.60380757 0-383.17446144-171.30465394-383.44046251-382.90846037-0.13300053-55.46121102 11.83704519-110.12441998 35.24513451-160.39861248 5.58602126-11.97004573 19.81707605-17.29006592 31.92012117-11.57104413 11.97004573 5.58602126 17.29006592 19.81707605 11.57104413 31.92012231-20.48207758 43.8901669-30.98911858 91.77034979-30.98911858 140.18253483 0.26600107 136.85752263 83.65731954 259.88299093 210.67280384 310.95518549 127.0154843 50.93919403 272.38503879 19.81707605 367.21440085-79.00230087 9.17703453-8.91103346 23.80709091-9.04403399 32.98412544-0.13300053 9.31003506 8.77803293 9.97503773 23.40808931 1.5960064 32.98412544-72.08627541 75.67728867-172.23565653 118.37045191-276.77405525 117.97145031zM839.18124829 748.74090269c-8.77803293 0.13300053-17.02406485-4.65501753-21.28008192-12.36904733-4.25601593-7.71402979-3.85701433-17.15706539 0.93100373-24.60509298 15.29505792-23.80709091 27.53110471-49.4761893 36.44213931-76.34229134 4.12301539-12.50204786 17.55606699-19.28507392 30.05811484-15.16205853 12.50204786 4.12301539 19.28507392 17.55606699 15.16205738 30.05811485-9.97503773 30.59011698-23.80709091 59.85022862-41.09715683 87.11533227-4.25601593 7.04902713-11.83704519 11.30504306-20.21607651 11.30504306z m56.65821582-193.78173839c-13.16705053 0-23.80709091-10.64004039-23.80709092-23.80709091-0.66500267-184.73770439-150.42357362-334.23027541-335.16127801-334.49627648l-32.18612337 1.72900693c-8.51203299 0.93100373-16.89106432-2.7930112-21.94508346-9.84203719-5.05401913-6.91602659-5.98502286-16.09306112-2.3940096-23.94009145s11.03904199-13.16705053 19.55107499-13.96505373l36.97414144-1.72900693c211.60380757 0 383.17446144 171.30465394 383.44046251 382.90846151 0 6.38402446-2.66001067 12.63504839-7.18202766 17.02406486-4.65501753 4.52201699-10.77304093 6.91602659-17.29006592 6.78302606v-0.66500267zM262.62404893 322.87327801c-9.31003506-0.13300053-17.68906752-5.58602126-21.54608186-13.96505259-3.85701433-8.37903246-2.3940096-18.35407019 3.59101327-25.40309731 20.34907819-24.07309198 43.62416697-45.4861733 69.16026368-63.84024349 10.77304093-7.71402979 25.66909838-5.32002019 33.38312704 5.3200202 7.71402979 10.77304093 5.32002019 25.66909838-5.3200202 33.38312817-22.47708558 16.09306112-42.9591643 34.97913344-60.78123121 55.99321316-4.65501753 5.58602126-11.43804359 8.64503353-18.48707072 8.51203186z m128.74449123-95.89336519c-11.43804359 0.26600107-21.54608185-7.71402979-23.80709091-19.01907285s3.72401379-22.61008611 14.36405418-26.86610205l32.85112604-11.97004573c12.50204786-4.25601593 26.06809998 2.3940096 30.45711531 14.89605632 4.25601593 12.50204786-2.3940096 26.06809998-14.89605632 30.45711645l-29.26011164 10.77304093c-3.19201166 1.06400427-6.38402446 1.72900693-9.70903666 1.72900693z m0 0" fill="" p-id="15682"></path><path d="M310.90323342 582.88927061c0 11.03904199 5.85202233 21.28008078 15.56105899 26.86610205 9.57603613 5.58602126 21.41308131 5.58602126 30.98911858 0 9.57603613-5.58602126 15.56105899-15.82706005 15.56105898-26.86610205 0-11.03904199-5.85202233-21.28008078-15.56105898-26.86610318-9.57603613-5.58602126-21.41308131-5.58602126-30.98911858 0-9.70903666 5.58602126-15.56105899 15.82706005-15.56105899 26.86610318z m0 0" fill="#F79121" p-id="15683"></path><path d="M611.48437959 1067.80912071c-8.77803293 0.13300053-16.35906219-6.25102393-17.95506858-14.89605746l-9.57603613-53.73220522c-0.93100373-9.31003506 5.58602126-17.82206805 14.76305579-19.28507278 9.17703453-1.5960064 18.08806912 4.25601593 20.34907818 13.43305045l9.57603613 53.73220523c0.93100373 4.65501753-0.13300053 9.44303559-2.7930112 13.43305158-2.66001067 3.85701433-6.78302606 6.65002553-11.43804359 7.44802874h-2.9260106z m-356.04235833-88.8443392c-6.38402446 0-12.23604679-3.45801273-15.56105899-8.9110346-3.19201166-5.58602126-3.19201166-12.36904733 0-17.95506858L267.27906645 904.3514971c3.19201166-5.58602126 9.04403399-9.17703453 15.56105899-9.17703566 6.51702499 0 12.50204786 3.45801273 15.69406066 9.04403513 3.19201166 5.58602126 3.19201166 12.50204786-0.13300053 18.08806912l-27.39810532 47.74718122c-3.32501219 5.45302073-9.17703453 8.91103346-15.56105899 8.9110346z m685.75061561-71.55427328c-4.12301539 0-8.11303139-1.46300587-11.30504306-4.1230154l-41.7621595-35.2451345c-4.92101859-4.12301539-7.18202766-10.64004039-6.1180234-16.89106432 1.1970048-6.38402446 5.58602126-11.57104413 11.57104413-13.69905266 5.98502286-2.12800853 12.76804893-0.93100373 17.68906752 3.1920128l41.7621595 35.24513451c5.71902179 4.78801806 7.84703033 12.63504839 5.3200202 19.81707491-2.52701013 7.04902713-9.17703453 11.83704519-16.62506325 11.8370452h-0.53200214zM40.11419989 681.97464861c-8.51203299-0.26600107-15.69405952-6.38402446-17.15706538-14.89605746-1.46300587-8.37903246 3.19201166-16.62506325 11.17204252-19.68407438l51.33819563-18.48707072c8.91103346-2.52701013 18.35407019 2.12800853 21.67908238 10.90604145s-0.66500267 18.48707072-9.17703453 22.47708559l-51.87019776 18.48707072-5.98502286 1.1970048zM1036.02199893 572.24923022c-9.84203719 0-17.95506859-7.98003086-17.95506858-17.82206805s7.98003086-17.95506859 17.95506858-17.95506859h54.7962095c9.84203719 0 17.95506859 7.98003086 17.95506858 17.95506859 0 9.84203719-7.98003086 17.82206805-17.95506858 17.82206805H1036.02199893zM117.65349603 334.31132274l-5.98502286-1.1970048-51.87019776-18.48707072c-7.98003086-4.12301539-11.70404466-13.43305159-8.64503352-21.94508345 3.05901113-8.37903246 11.83704519-13.30005106 20.61507925-11.43804359l51.87019776 18.48706958c7.98003086 3.05901113 12.63504839 11.30504306 11.17204252 19.68407552-1.46300587 8.37903246-8.64503353 14.63005525-17.15706539 14.89605746z m830.05616584-79.93330575c-7.44802873 0-14.09805426-4.78801806-16.62506326-11.83704518-2.52701013-7.04902713-0.3990016-14.89605632 5.3200202-19.81707492l41.7621595-35.24513451c7.58102926-6.38402446 18.88607232-5.45302073 25.40309732 2.1280074 6.38402446 7.58102926 5.45302073 18.88607232-2.12800854 25.40309731l-41.7621595 35.24513451c-3.32501219 2.66001067-7.58102926 4.25601593-11.97004572 4.12301539zM348.40937586 99.29942585c-6.38402446 0-12.36904733-3.45801273-15.56105899-8.9110346l-27.39810532-47.0821797c-3.32501219-5.58602126-3.32501219-12.50204786-0.13300053-18.08806798 3.19201166-5.58602126 9.17703453-9.04403399 15.69406066-9.04403512s12.36904733 3.59101326 15.56105899 9.17703566l27.39810418 47.08217856c3.19201166 5.58602126 3.19201166 12.36904733 0 17.95506858-3.19201166 5.45302073-9.17703453 8.91103346-15.56105899 8.9110346z m327.97925148-31.65412124h-2.92601173c-4.65501753-0.93100373-8.77803293-3.59101326-11.43804359-7.4480276-2.66001067-3.85701433-3.72401379-8.77803293-2.79301007-13.43305159l9.57603613-53.73220523c2.26100907-9.04403399 11.17204253-14.89605632 20.34907819-13.43305158 9.17703453 1.5960064 15.69405952 9.97503773 14.76305578 19.28507392l-9.57603612 53.73220522c-1.46300587 8.91103346-9.04403399 15.16205739-17.95506859 15.02905686z m0 0" fill="" p-id="15684"></path></svg>