<?xml version="1.0" standalone="no"?><!DOCTYPE svg PUBLIC "-//W3C//DTD SVG 1.1//EN" "http://www.w3.org/Graphics/SVG/1.1/DTD/svg11.dtd"><svg t="1716874651971" class="icon" viewBox="0 0 1024 1024" version="1.1" xmlns="http://www.w3.org/2000/svg" p-id="29617" xmlns:xlink="http://www.w3.org/1999/xlink" width="200" height="200"><path d="M659.178795 998.868082H364.381396l-97.88882-92.988097c29.404344-112.214014 104.800098-163.483127 104.800098-163.483126h281.100503s75.270094 51.269113 104.800098 163.483126l-98.01448 92.988097z m0 0" fill="#50E6CC" p-id="29618"></path><path d="M719.369739 905.879985c-29.404344-112.214014-104.674439-163.483127-104.674439-163.483126h37.697877s75.270094 51.269113 104.800098 163.483126h-37.823536z m-267.277949-79.54252c-11.309363 2.513192-23.875322-1.256596-31.791876-11.560683L361.993864 738.87839l16.084428 2.890171 56.044177 73.008221c4.775064 6.28298 11.058044 10.052767 17.969321 11.560683z m0 0" fill="#45DABD" p-id="29619"></path><path d="M557.645846 826.337465c-4.900724 1.130936-9.927108 1.005277-14.827832-0.251319l2.261873-5.780342c3.769788 3.01583 8.042214 5.026384 12.565959 6.031661z m0 0" fill="#46CDFB" p-id="29620"></path><path d="M545.079887 820.305804l-2.261873 5.780342c-5.654682-1.507915-11.058044-4.523745-15.33047-9.29881-0.879617-1.005277-1.759234-2.136213-2.638851-3.267149l-20.105534-28.901706 6.911277-9.927108 6.911278 9.927108 13.696895 19.728555 6.408639 9.29881c1.884894 2.638851 4.021107 4.900724 6.408639 6.659958z m0 0" fill="#45DABD" p-id="29621"></path><path d="M364.381396 899.597006v99.271076h-109.575162c0-34.682047 4.398086-71.877286 11.686342-99.271076h97.88882z m404.372562 99.271076H659.178795v-99.271076h97.888821c7.162597 27.393791 11.686342 64.589029 11.686342 99.271076z m0 0" fill="#FFECE3" p-id="29622"></path><path d="M326.683519 899.597006h37.697877v99.271076h-37.697877v-99.271076z m442.070439 99.271076h-37.697877c0-34.682047-4.398086-71.877286-11.686342-99.271076h37.697877c7.288256 27.393791 11.686342 64.589029 11.686342 99.271076z m0 0" fill="#F7DBD0" p-id="29623"></path><path d="M518.440054 765.141244L484.763284 813.645846c-12.063321 17.466683-37.697877 18.094981-50.640815 1.256596l-58.30605-75.898392 142.623635 26.137194z m0 0" fill="#FFFFFF" p-id="29624"></path><path d="M505.120137 765.141244L538.796908 813.645846c12.063321 17.466683 37.697877 18.094981 50.640814 1.256596l58.30605-75.898392-142.623635 26.137194z m0 0" fill="#FFFFFF" p-id="29625"></path><path d="M505.874095 765.015585l-0.376979 0.628298-0.376979-0.628298h0.753958z m0 0" fill="#EFEAEB" p-id="29626"></path><path d="M505.874095 765.015585l-0.376979 0.628298-0.376979-0.628298h0.753958z m141.869677-26.011535L589.437722 814.902442c-7.790895 10.052767-19.979875 13.948215-31.163578 11.560682 7.036937-1.382255 13.696895-5.277703 18.597619-11.560682l56.169837-73.259541 14.702172-2.638851z m0 0" fill="#EFEAEB" p-id="29627"></path><path d="M505.874095 765.015585l-0.376979 0.628298-0.376979-0.628298h0.753958z m0 0" fill="#EFEAEB" p-id="29628"></path><path d="M505.874095 765.015585l-0.376979 0.628298-0.376979-0.628298h0.753958z m5.906001 9.675788l-6.28298 9.047491-20.733832 29.906982c-7.539575 10.932384-20.356854 15.20481-32.043196 12.817278 7.539575-1.507915 14.576512-5.780341 19.477237-12.817278l27.016812-38.954473 6.282979-9.04749 6.28298 9.04749z m0 0" fill="#EFEAEB" p-id="29629"></path><path d="M85.668426 451.494907c0 53.295374 43.211192 96.506565 96.506565 96.506566 53.295374 0 96.506565-43.211192 96.506565-96.506566 0-53.295374-43.211192-96.506565-96.506565-96.506565-53.295374 0-96.506565 43.211192-96.506565 96.506565z m0 0M744.878635 451.494907c0 53.295374 43.211192 96.506565 96.506566 96.506566 53.295374 0 96.506565-43.211192 96.506565-96.506566 0-53.295374-43.211192-96.506565-96.506565-96.506565-53.295374 0-96.506565 43.211192-96.506566 96.506565z m0 0" fill="#F7DBD0" p-id="29630"></path><path d="M173.378819 437.672352c0 120.900233 64.494785 232.611609 169.200639 293.053872 104.705853 60.442263 233.695423 60.442263 338.401276 0S850.181372 558.556878 850.181372 437.672352c0-186.887225-151.514051-338.401276-338.401276-338.401276-186.902933 0-338.401276 151.514051-338.401277 338.401276z m0 0" fill="#FFECE3" p-id="29631"></path><path d="M850.181372 437.672352c0 186.855811-151.545466 338.401276-338.401276 338.401277-10.555406 0-21.110811-0.502638-31.414898-1.507915 172.153638-15.833108 306.986379-160.592956 306.986379-337.019021 0-176.426065-134.83274-320.934593-306.986379-336.893361 10.304086-1.005277 20.859492-1.382255 31.414898-1.382256 186.855811 0 338.401276 151.545466 338.401276 338.401276z m0 0" fill="#F7DBD0" p-id="29632"></path><path d="M190.091545 544.859983c14.953491 41.342005 37.697877 79.165542 66.473923 111.585716-28.776046-32.420174-51.520432-70.118051-66.473923-111.585716z m76.65235 122.64376c-2.387532-2.387532-4.649405-4.775064-6.911278-7.288256 2.261873 2.387532 4.649405 4.900724 6.911278 7.288256z m19.351577 18.47196c-2.890171-2.638851-5.906001-5.277703-8.670512-8.042214 2.890171 2.764511 5.780341 5.403362 8.670512 8.042214z m0 0" fill="#FFD8D2" p-id="29633"></path><path d="M416.655786 521.612959c-8.796171 0-15.958768-7.162597-15.958768-15.958768v-12.817278c0-8.796171 7.162597-15.958768 15.958768-15.958768 8.796171 0 15.958768 7.162597 15.958768 15.958768v12.817278c0 8.921831-7.162597 15.958768-15.958768 15.958768z m190.248619 0c-8.796171 0-15.958768-7.162597-15.958767-15.958768v-12.817278c0-8.796171 7.162597-15.958768 15.958767-15.958768 8.796171 0 15.958768 7.162597 15.958768 15.958768v12.817278c0 8.921831-7.162597 15.958768-15.958768 15.958768z m0 0M511.780096 660.592465c-20.608173 0-40.085409-8.921831-53.656645-24.37796-5.780341-6.659958-5.026384-16.712725 1.507915-22.493067 6.659958-5.780341 16.712725-5.026384 22.493066 1.507915 7.539575 8.544852 18.3463 13.571236 29.655664 13.571236 11.309363 0 22.116088-4.900724 29.655663-13.445576 5.780341-6.659958 15.833108-7.288256 22.493067-1.507915 6.659958 5.780341 7.288256 15.833108 1.507915 22.493066-13.571236 15.33047-33.048472 24.252301-53.656645 24.252301z m0 0" fill="#00435B" p-id="29634"></path><path d="M890.76942 372.455025c-142.749294-0.12566-274.440545-48.001963-379.743282-128.549761-104.925758 80.296478-235.98871 128.047122-378.109707 128.549761C140.079028 231.339305 224.270953 110.706099 344.275862 51.520432 394.791017 26.639833 451.714812 12.565959 511.905755 12.565959c59.688305 0 116.109461 13.822555 166.373298 38.326175 120.633207 58.808688 205.32777 179.944533 212.490367 321.562891z m0 0" fill="#EB866B" p-id="29635"></path><path d="M890.76942 372.455025c-25.634556 0-50.892134-1.633575-75.647074-4.649405-8.796171-139.607805-92.988097-258.733096-212.364707-317.039146C563.300528 31.414898 519.947969 18.848939 474.207878 14.325193c12.440299-1.256596 24.880599-1.884894 37.697877-1.884894 59.688305 0 116.109461 13.822555 166.373298 38.326175 120.633207 58.934348 205.32777 180.070193 212.490367 321.688551z m0 0" fill="#DA6749" p-id="29636"></path><path d="M294.137686 996.48055c-8.796171 5.026384-19.979875 2.010553-25.006259-6.659959L88.181617 676.299914c-5.026384-8.796171-2.010553-19.979875 6.659959-25.006258 8.796171-5.026384 19.979875-2.010553 25.006258 6.659958l180.94981 313.520677c5.152043 8.670512 2.136213 19.979875-6.659958 25.006259z m0 0" fill="#EB866B" p-id="29637"></path><path d="M903.02123 373.711621c-10.681065-137.97423-94.119033-260.869309-218.899006-321.688551-53.907964-26.262854-111.711376-39.582771-171.90232-39.582771-60.693582 0-118.999632 13.571236-173.158915 40.211069-61.070561 30.158302-113.596269 75.898392-151.796785 132.319549-37.949196 56.044177-60.567922 121.010185-65.845625 188.489385C91.637256 393.691496 73.416616 427.619585 73.416616 463.809547c0 60.190944 48.881581 109.072524 109.072524 109.072524h0.753957c1.130936 3.14149 2.387532 6.408639 3.769788 9.550129 0 0.12566 0 0.12566 0.12566 0.251319 0 0.12566 0.12566 0.251319 0.125659 0.376979 0 0.12566 0.12566 0.251319 0.251319 0.502639l0.12566 0.376978c0 0.12566 0.12566 0.251319 0.12566 0.376979 0.376979 0.753958 0.628298 1.633575 1.005276 2.387532 0.879617 2.136213 1.884894 4.398086 3.01583 6.911278l1.256596 2.89017c0.376979 0.753958 0.753958 1.633575 1.130937 2.387533s0.753958 1.507915 1.005276 2.261872l0.502639 1.130937c1.759234 3.644128 3.644128 7.413916 5.654681 11.058043 0 0.12566 0.12566 0.251319 0.12566 0.25132 2.513192 4.775064 5.277703 9.675788 8.042214 14.450852 0 0.12566 0.12566 0.251319 0.125659 0.376979 2.136213 3.518469 4.272426 7.036937 6.408639 10.429746 0.12566 0.12566 0.12566 0.251319 0.25132 0.376979 3.01583 4.649405 6.03166 9.29881 9.298809 13.696895 0.12566 0.12566 0.12566 0.251319 0.251319 0.25132 2.513192 3.518469 5.026384 6.911277 7.539576 10.178426l0.125659 0.12566c0.879617 1.130936 1.633575 2.136213 2.513192 3.14149 0.753958 0.879617 1.382255 1.884894 2.136213 2.638851l1.005277 1.256596c0.753958 0.879617 1.382255 1.759234 2.136213 2.638851 2.010553 2.513192 3.769788 4.523745 5.403362 6.408639 0.879617 1.005277 1.884894 2.136213 2.764511 3.14149 1.005277 1.130936 1.884894 2.136213 2.890171 3.26715 0.879617 1.005277 1.884894 2.010553 2.764511 3.01583 1.005277 1.130936 2.010553 2.136213 3.14149 3.267149 0.879617 1.005277 1.759234 1.884894 2.764511 2.890171 1.884894 2.010553 3.895447 4.021107 5.906 5.906 1.005277 1.005277 1.884894 1.884894 2.890171 2.764511 1.130936 1.005277 2.136213 2.010553 3.267149 3.015831 1.005277 0.879617 2.010553 1.759234 3.01583 2.76451 1.130936 1.005277 2.136213 1.884894 3.26715 2.890171 1.005277 1.005277 2.136213 1.884894 3.14149 2.764511 1.884894 1.633575 3.895447 3.392809 6.408639 5.403362 0.879617 0.753958 1.759234 1.507915 2.638851 2.136213l1.256596 1.005277c0.879617 0.753958 1.884894 1.507915 2.638851 2.136213l3.392809 2.638852c3.267149 2.513192 6.659958 5.026384 10.178427 7.539575 0.12566 0.12566 0.251319 0.12566 0.376979 0.251319 4.398086 3.14149 9.04749 6.28298 13.696895 9.17315h0.12566c3.518469 2.261873 7.162597 4.523745 10.681065 6.659959 0.12566 0.12566 0.251319 0.12566 0.376979 0.251319 4.021107 2.387532 8.042214 4.649405 12.18898 6.785618-23.247024 21.236471-61.19622 63.960731-84.317585 131.439931L131.220027 664.110934c-8.544852-14.576512-27.393791-19.728556-42.221622-11.183704-14.576512 8.544852-19.728556 27.393791-11.183704 42.221623l165.870659 287.383482c-0.628298 9.675788-1.005277 19.351577-1.005277 28.901706 0 6.911277 5.654682 12.565959 12.565959 12.565959h513.947724c6.911277 0 12.565959-5.654682 12.565959-12.565959 0-35.184685-4.523745-73.51086-12.063321-102.412566a12.690048 12.690048 0 0 0-3.267149-5.654682c-22.493067-74.641797-64.714689-121.889802-88.338692-143.628911 4.021107-2.136213 8.167873-4.398086 12.188981-6.785618 0.12566 0 0.251319-0.12566 0.376978-0.12566 3.644128-2.136213 7.288256-4.398086 10.681065-6.659958h0.12566c4.649405-3.01583 9.29881-6.03166 13.696895-9.298809 0.12566-0.12566 0.251319-0.12566 0.25132-0.25132 3.518469-2.513192 6.911277-5.026384 10.178426-7.539575l0.12566-0.12566c1.130936-0.879617 2.136213-1.633575 3.14149-2.513191 0.879617-0.753958 1.884894-1.382255 2.638851-2.136213l1.256596-1.005277c0.879617-0.753958 1.759234-1.382255 2.638851-2.136213 2.513192-2.010553 4.523745-3.769788 6.408639-5.403363 1.005277-0.879617 2.136213-1.884894 3.14149-2.764511 1.130936-1.005277 2.136213-1.884894 3.26715-2.89017 1.005277-0.879617 2.010553-1.884894 3.01583-2.764511 0.879617-0.753958 1.633575-1.507915 2.513192-2.387532l1.130936-1.130937c0.753958-0.753958 1.633575-1.507915 2.513192-2.387532 2.010553-1.884894 4.021107-3.895447 5.906-5.906001l2.387533-2.387532 1.130936-1.130936c0.753958-0.753958 1.507915-1.633575 2.387532-2.513192 1.005277-1.005277 1.884894-2.010553 2.764511-3.01583 1.005277-1.130936 2.010553-2.136213 2.890171-3.267149 1.005277-1.005277 1.884894-2.136213 2.764511-3.14149 1.633575-1.884894 3.392809-3.895447 5.403362-6.408639 0.753958-0.879617 1.507915-1.759234 2.136213-2.638852l1.005277-1.256596c0.753958-0.879617 1.507915-1.884894 2.136213-2.638851 0.879617-1.130936 1.633575-2.136213 2.513192-3.267149l0.125659-0.12566c2.513192-3.267149 5.026384-6.785618 7.539576-10.178427 0.12566-0.12566 0.12566-0.251319 0.251319-0.251319 3.14149-4.398086 6.28298-9.04749 9.298809-13.696895 0.12566-0.12566 0.12566-0.251319 0.25132-0.376979 2.136213-3.392809 4.398086-6.911277 6.408639-10.429746 0.12566-0.12566 0.12566-0.251319 0.125659-0.376979 2.890171-4.775064 5.529022-9.675788 8.042214-14.450853 0-0.12566 0.12566-0.251319 0.12566-0.251319 1.884894-3.644128 3.769788-7.413916 5.654681-11.183703l1.633575-3.26715c0.376979-0.753958 0.753958-1.633575 1.130936-2.387532l1.256596-2.764511c0.502638-1.005277 0.879617-2.010553 1.256596-2.89017 1.759234-4.021107 3.392809-7.916554 4.900724-11.937661 0-0.12566 0.12566-0.12566 0.12566-0.25132 0.753958-1.759234 1.382255-3.644128 2.136213-5.529022h0.753957c60.190944 0 109.072524-48.881581 109.072524-109.072524 0-36.566941-18.220641-70.62069-47.876303-90.726224zM208.689164 199.17045c35.812983-52.902687 84.945883-95.752608 142.120997-123.900356 50.766474-25.006258 105.302737-37.697877 162.100871-37.697877 56.295496 0 110.45478 12.440299 160.844275 37.06958C789.48779 131.062953 867.145417 244.407903 878.32912 372.203706c-10.932384-0.251319-21.990428-0.753958-32.797153-1.633575-14.953491-1.130936-30.158302-2.890171-44.986133-5.026383-101.784268-15.20481-198.793472-56.421156-280.723525-119.125292a12.817278 12.817278 0 0 0-15.33047 0c-81.804393 62.327157-178.562278 103.543502-279.843907 118.873973-14.827832 2.261873-29.906982 4.021107-44.734814 5.152043-10.806725 0.879617-21.739109 1.382255-32.671493 1.633574 5.403362-61.824518 26.514174-121.512824 61.447539-172.907596zM99.114002 463.935207c0-26.137195 12.440299-50.892134 32.922812-66.599583 0.628298 0.12566 1.130936 0.12566 1.759235 0.12566 10.555406 0 21.236471-0.376979 31.917535-0.879618-2.638851 17.592343-4.021107 35.561664-4.021106 53.530986 0 5.906001 0.12566 12.063321 0.502638 17.969321 0.12566 1.507915 0.12566 3.14149 0.251319 4.523745 0.251319 3.14149 0.376979 6.03166 0.628298 8.921831l0.376979 4.523746c0.376979 3.267149 0.628298 6.15732 1.005277 8.796171 0.376979 3.14149 0.753958 6.03166 1.256595 8.796171 0.502638 2.890171 0.879617 5.906001 1.382256 8.670512 0.502638 2.764511 1.005277 5.780341 1.633575 8.670512 0.628298 3.14149 1.256596 6.03166 1.884894 8.544852 1.382255 6.15732 3.01583 12.18898 4.775064 18.22064-42.724261-4.146766-76.275371-40.085409-76.275371-83.814946zM291.498834 994.595656c-0.251319 0.879617-0.879617 2.513192-2.638851 3.518468-0.753958 0.376979-1.382255 0.628298-2.136213 0.753958h-1.507915c-1.759234-0.12566-3.392809-1.130936-4.398086-2.764511l-180.94981-313.520677c-1.633575-2.764511-0.628298-6.28298 2.010554-7.916555 0.879617-0.502638 1.884894-0.753958 2.89017-0.753957 2.010553 0 3.895447 1.005277 4.900724 2.764511l180.94981 313.520677s0 0.12566 0.12566 0.12566c1.130936 1.759234 0.879617 3.392809 0.753957 4.272426z m61.196221 4.146766h-36.441282c1.382255-7.288256 0.12566-14.702172-3.644128-21.110811l-30.53528-53.028347h70.746349v74.139158h-0.125659z m404.121241 0h-84.191925v-74.139158h75.395754c4.900724 21.990428 8.042214 48.504602 8.796171 74.139158z m-17.592342-99.271076h-79.165542c-6.911277 0-12.565959 5.654682-12.565959 12.565959v86.705117H377.826973v-86.705117c0-6.911277-5.654682-12.565959-12.565959-12.565959h-79.039883c24.37796-71.625966 67.604859-113.34495 85.071543-128.047122 1.507915 0.628298 2.764511 1.256596 4.021107 1.759234 0.251319 0.12566 0.376979 0.12566 0.628298 0.251319l2.638851 1.130937 46.494049 60.442262c8.419193 10.932384 20.985152 17.215364 34.807706 17.215364h1.130936c14.199534-0.376979 26.891152-7.288256 34.933366-18.848938l16.712726-24.000982 16.712725 24.000982c8.042214 11.686342 20.859492 18.597619 34.933366 18.974598h1.130937c13.696895 0 26.388514-6.15732 34.807706-17.215364l46.368389-60.442263c0.879617-0.376979 1.633575-0.628298 2.387532-1.005277 0 0 0.12566 0 0.12566-0.125659 0.502638-0.12566 0.879617-0.376979 1.382255-0.628298 0.12566 0 0.251319-0.12566 0.376979-0.12566 0.12566-0.12566 0.251319-0.12566 0.502638-0.251319 0.879617-0.376979 1.633575-0.753958 2.638852-1.130936 17.592343 14.576512 60.693582 56.295496 85.197202 128.047122zM421.43085 789.142226c2.387532 0.628298 4.900724 1.256596 7.790895 2.010553l0.251319 0.12566c1.256596 0.251319 2.638851 0.628298 3.895447 0.879617 2.513192 0.628298 5.403362 1.256596 8.544853 1.884894 2.890171 0.628298 5.780341 1.130936 8.544852 1.633575l8.670511 1.507915c5.654682 0.879617 10.932384 1.507915 16.084428 2.010553 1.130936 0.12566 2.136213 0.251319 3.267149 0.376979 1.005277 0.12566 2.010553 0.251319 3.01583 0.251319 0.376979 0 0.753958 0.12566 1.256596 0.12566 0.879617 0.12566 1.884894 0.12566 2.764511 0.251319s1.759234 0.12566 2.638852 0.12566l-12.817278 18.597619c-3.392809 5.026384-8.921831 7.916554-14.953492 8.042214-6.03166 0.12566-11.686342-2.513192-15.33047-7.288257l-23.624003-30.53528z m115.606823 11.058044c0.879617 0 1.759234-0.12566 2.638852-0.12566 0.879617-0.12566 1.884894-0.12566 2.764511-0.251319 0.376979 0 0.753958 0 1.256596-0.125659 1.005277-0.12566 2.010553-0.12566 3.01583-0.25132 1.130936-0.12566 2.136213-0.251319 3.267149-0.376978 5.152043-0.502638 10.429746-1.256596 16.210087-2.136213 2.890171-0.376979 5.780341-0.879617 8.670512-1.382256 2.890171-0.502638 5.780341-1.005277 8.670512-1.633575 3.14149-0.628298 6.03166-1.256596 8.544852-1.884893 4.021107-0.879617 8.042214-1.884894 11.937661-3.015831l-23.498343 30.66094c-3.644128 4.775064-9.29881 7.413916-15.33047 7.288257-6.03166-0.12566-11.560682-3.14149-14.953492-8.042214l-13.194257-18.723279z m312.89238-252.701436c0.12566-0.502638 0.251319-0.879617 0.376979-1.382255 1.633575-5.529022 3.01583-11.183704 4.272426-16.838385 0.628298-2.513192 1.256596-5.403362 1.884893-8.544852 0.628298-2.890171 1.130936-5.780341 1.633575-8.544853 0.502638-2.890171 1.005277-5.906001 1.507915-8.670511 0.376979-2.764511 0.753958-5.529022 1.256596-8.670512 0.376979-2.638851 0.628298-5.529022 1.005277-8.796171l0.376979-4.523746c0.251319-2.890171 0.502638-5.780341 0.628298-8.796171 0.12566-1.507915 0.251319-3.14149 0.251319-4.523745 0.251319-6.03166 0.502638-12.063321 0.502638-17.969322v-0.125659c0-17.843662-1.382255-35.812983-4.021107-53.405326 10.681065 0.502638 21.36213 0.879617 32.043196 0.879617 0.502638 0 1.130936 0 1.633574-0.125659 20.482513 15.707449 32.922813 40.462388 32.922813 66.599582 0 43.603878-33.551111 79.542521-76.275371 83.437968z m-12.063321-97.260523C837.866732 630.120015 692.038778 775.947969 512.157074 775.947969c-179.881703 0-325.709658-145.827954-325.709657-325.709658 0-2.890171 0.047122-5.764634 0.109952-8.623389-0.078537 4.225304-0.109952 6.330102-0.109952 6.330102s0.031415-2.104798 0.109952-6.330102c0.408394-15.958768 1.994846-31.619094 4.61799-46.933857a609.920236 609.920236 0 0 0 36.724015-4.508038c102.412566-15.581789 200.175727-56.295496 283.488035-118.120014 83.689287 62.075838 181.955087 102.915204 284.744632 118.245674 12.236103 1.884894 24.613572 3.377101 36.975334 4.382378 2.623144 15.26764 4.193889 30.896552 4.61799 46.808197 0.094245 2.905878 0.141367 5.827463 0.141367 8.749049z" fill="#00435B" p-id="29638"></path></svg>