<?xml version="1.0" standalone="no"?><!DOCTYPE svg PUBLIC "-//W3C//DTD SVG 1.1//EN" "http://www.w3.org/Graphics/SVG/1.1/DTD/svg11.dtd"><svg t="1716874704092" class="icon" viewBox="0 0 1024 1024" version="1.1" xmlns="http://www.w3.org/2000/svg" p-id="30901" xmlns:xlink="http://www.w3.org/1999/xlink" width="200" height="200"><path d="M851.1488 853.7088c-15.36 32.4608-43.2128 69.4272-77.6192 79.4624-100.2496 29.3888-105.8816-0.4096-249.2416-0.4096-81.1008 0-133.5296 6.8608-165.376 13.5168-62.8736 13.2096-125.6448-24.1664-142.6432-86.1184-21.2992-77.6192 4.096-175.8208 14.0288-209.1008 2.2528-7.4752 1.2288-15.6672-2.8672-22.3232-36.6592-60.7232-53.5552-84.3776-60.6208-114.9952-10.8544-47.616 35.6352-88.2688 81.3056-71.0656 0.2048 0.1024 0.3072 0.1024 0.512 0.2048 0.4096 0.2048 0.8192 0.3072 1.2288 0.4096 13.9264 4.608 28.8768-23.4496 33.5872-37.376l30.5152-91.7504c6.9632-25.3952 13.9264-51.4048 25.7024-75.0592 15.6672-31.5392 45.568-44.7488 73.3184-64.2048 28.9792-20.2752 56.9344-42.0864 83.6608-65.3312 10.9568-9.5232 20.6848-15.4624 29.4912-18.6368 50.4832-18.1248 71.4752 54.6816 125.8496 70.656 67.3792 19.8656 113.9712 94.5152 146.0224 183.3984 8.704 24.2688 34.816 37.376 59.5968 30.0032 0.2048-0.1024 0.4096-0.1024 0.6144-0.2048 26.8288-7.7824 51.5072 5.2224 65.3312 28.4672 13.2096 22.1184 7.68 49.664 1.1264 73.0112-13.7216 48.4352-52.9408 102.2976-65.536 118.6816-2.4576 3.2768-3.584 7.3728-3.072 11.4688 5.4272 43.3152 11.264 86.6304 12.6976 130.3552 1.2288 39.6288-0.4096 80.5888-17.6128 116.9408z" fill="#CAC8E4" p-id="30902"></path><path d="M895.8976 476.4672c6.5536-23.3472 12.0832-50.8928-1.1264-73.0112-13.824-23.2448-38.6048-36.352-65.3312-28.4672-1.8432 0.512-3.584 1.1264-5.4272 1.7408 12.0832 5.0176 22.528 14.4384 29.7984 26.8288 13.2096 22.1184 7.68 49.664 1.1264 73.0112-13.7216 48.4352-52.9408 102.2976-65.536 118.6816-2.56 3.2768-3.584 7.3728-3.072 11.4688 5.4272 43.3152 11.264 86.6304 12.6976 130.3552 1.3312 39.424-0.2048 80.384-17.408 116.6336-15.36 32.4608-43.2128 69.4272-77.6192 79.4624-22.9376 6.7584-40.96 10.3424-56.7296 11.9808 27.4432 2.4576 53.3504 1.1264 97.6896-11.9808 34.4064-10.1376 62.2592-47.0016 77.6192-79.4624 17.2032-36.2496 18.7392-77.2096 17.408-116.6336-1.536-43.6224-7.2704-87.04-12.6976-130.3552-0.512-4.096 0.6144-8.192 3.072-11.4688 12.4928-16.4864 51.8144-70.3488 65.536-118.784z" fill="#ACABC2" p-id="30903"></path><path d="M391.4752 504.7296m-17.1008 0a17.1008 17.1008 0 1 0 34.2016 0 17.1008 17.1008 0 1 0-34.2016 0Z" fill="#8CD3B6" p-id="30904"></path><path d="M669.184 504.7296m-17.1008 0a17.1008 17.1008 0 1 0 34.2016 0 17.1008 17.1008 0 1 0-34.2016 0Z" fill="#8CD3B6" p-id="30905"></path><path d="M304.9472 956.5184c-57.1392 0-109.1584-37.7856-124.7232-94.4128-21.6064-78.5408 2.6624-175.4112 14.1312-213.2992 1.6384-5.5296 0.9216-11.264-2.048-16.2816-24.4736-40.6528-42.3936-77.2096-53.248-108.8512-3.2768-9.4208-6.0416-18.7392-8.2944-28.4672-5.8368-25.1904 2.3552-50.2784 21.8112-67.2768s45.4656-21.7088 69.632-12.5952l0.4096 0.1024c0.3072 0.1024 0.512 0.2048 0.7168 0.3072l0.3072 0.1024c4.3008 1.4336 8.9088 1.1264 13.1072-0.7168 5.12-2.1504 9.0112-6.4512 10.752-11.776 1.3312-3.9936 5.7344-6.144 9.728-4.8128 3.9936 1.3312 6.144 5.7344 4.8128 9.728-3.1744 9.4208-10.24 16.9984-19.2512 20.992-7.68 3.2768-15.872 3.6864-23.7568 1.2288-0.512-0.1024-0.9216-0.3072-1.1264-0.4096l-0.6144-0.1024-0.4096-0.2048c-0.1024 0-0.2048-0.1024-0.3072-0.1024-18.7392-6.9632-38.8096-3.2768-53.8624 9.9328-15.0528 13.2096-21.4016 32.768-16.896 52.224 2.1504 9.216 4.7104 18.0224 7.8848 26.9312 10.5472 30.6176 27.9552 66.2528 51.8144 105.8816 5.2224 8.4992 6.5536 18.944 3.6864 28.5696-8.6016 28.672-35.0208 128.1024-14.0288 204.9024 15.7696 57.6512 74.5472 93.0816 133.632 80.5888 29.9008-6.2464 83.0464-13.7216 166.912-13.7216 58.2656 0 93.7984 4.8128 122.368 8.704 41.3696 5.632 66.3552 9.0112 124.7232-7.9872 31.8464-9.3184 58.4704-45.056 72.8064-75.3664 1.8432-3.7888 6.3488-5.4272 10.24-3.6864 3.7888 1.8432 5.4272 6.3488 3.6864 10.24-7.68 16.1792-36.2496 70.0416-82.432 83.5584-61.44 18.0224-89.1904 14.2336-131.072 8.4992-28.16-3.7888-63.0784-8.6016-120.32-8.6016-82.5344 0-134.656 7.2704-163.84 13.312-9.0112 1.9456-18.1248 2.8672-26.9312 2.8672zM839.8848 744.6528c-4.096 0-7.4752-3.2768-7.68-7.3728-1.4336-41.3696-6.8608-83.3536-11.9808-124.0064l-0.7168-5.632c-0.7168-6.0416 0.8192-12.0832 4.5056-16.9984 8.3968-10.9568 36.9664-49.4592 54.4768-89.2928 4.096-9.3184 7.4752-18.432 9.9328-26.9312 6.5536-23.4496 11.0592-47.8208-0.3072-66.9696-13.0048-21.9136-34.7136-31.5392-56.5248-25.088-10.24 2.9696-21.0944 7.68-31.1296 13.6192-4.7104 2.7648-10.3424 3.1744-15.36 1.2288-5.12-1.9456-9.0112-6.144-10.6496-11.3664-0.4096-1.2288-0.7168-2.3552-1.1264-3.4816-0.4096-1.1264-0.7168-2.3552-1.1264-3.4816-17.408-55.5008-37.9904-101.0688-61.1328-135.3728-26.624-39.5264-57.0368-64.512-90.3168-74.3424-25.1904-7.3728-43.52-25.9072-59.6992-42.1888-23.04-23.1424-38.2976-36.9664-61.44-28.672-8.192 2.9696-17.3056 8.704-27.0336 17.2032-26.7264 23.1424-55.0912 45.2608-84.2752 65.8432-6.144 4.3008-12.3904 8.2944-18.432 12.1856-21.0944 13.5168-41.0624 26.3168-52.3264 49.152-1.8432 3.7888-6.4512 5.3248-10.24 3.4816-3.7888-1.8432-5.3248-6.4512-3.4816-10.24 13.1072-26.624 35.84-41.1648 57.7536-55.1936 5.9392-3.7888 12.0832-7.68 17.92-11.8784 28.7744-20.2752 56.7296-42.0864 83.0464-64.8192 11.264-9.8304 21.7088-16.384 31.9488-20.0704 33.4848-11.9808 55.9104 10.5472 77.5168 32.256 15.5648 15.6672 31.744 31.9488 53.1456 38.1952 67.7888 20.0704 122.2656 94.0032 161.6896 219.9552 0.4096 1.2288 0.7168 2.3552 1.1264 3.4816 0.4096 1.1264 0.7168 2.3552 1.1264 3.4816 0.3072 1.024 1.024 1.4336 1.536 1.6384 0.512 0.2048 1.2288 0.3072 2.048-0.2048 11.1616-6.5536 23.1424-11.776 34.6112-15.0528 28.4672-8.3968 57.5488 4.096 74.0352 31.9488 14.4384 24.1664 9.1136 53.5552 1.9456 79.0528-2.6624 9.216-6.2464 18.944-10.6496 28.8768-18.2272 41.472-47.7184 81.2032-56.32 92.4672-1.2288 1.6384-1.8432 3.7888-1.536 5.8368l0.7168 5.632c5.2224 40.96 10.6496 83.3536 12.0832 125.3376 0.1024 4.1984-3.1744 7.7824-7.3728 7.9872-0.1024-0.2048-0.2048-0.2048-0.3072-0.2048z" fill="#565656" p-id="30906"></path><path d="M653.601828 231.110258a7.9872 7.9872 0 1 0 13.791804-8.060248 7.9872 7.9872 0 1 0-13.791804 8.060248Z" fill="#FFFFFF" p-id="30907"></path><path d="M643.4816 217.088c-2.048 0-4.1984-0.8192-5.7344-2.56-28.7744-31.8464-74.4448-32.5632-74.9568-32.5632-4.1984 0-7.68-3.4816-7.5776-7.7824 0-4.1984 3.4816-7.5776 7.68-7.5776h0.1024c2.1504 0 53.0432 0.8192 86.2208 37.6832 2.8672 3.1744 2.56 7.9872-0.512 10.8544-1.536 1.2288-3.3792 1.9456-5.2224 1.9456z" fill="#FFFFFF" p-id="30908"></path><path d="M266.8544 385.6384c-1.8432 0-3.6864-0.7168-5.2224-2.048-3.072-2.8672-3.2768-7.5776-0.512-10.752 4.8128-6.656 20.5824-61.8496 33.0752-111.5136 1.024-4.096 5.2224-6.656 9.3184-5.5296 4.096 1.024 6.656 5.2224 5.5296 9.3184-0.1024 0.3072-6.7584 26.8288-14.336 54.1696-15.872 56.9344-20.1728 61.5424-22.2208 63.7952-1.4336 1.6384-3.584 2.56-5.632 2.56z m-5.632-12.9024zM830.464 841.0112c-0.9216 0-1.9456-0.2048-2.8672-0.512-3.8912-1.536-5.8368-6.0416-4.3008-10.0352 9.1136-22.528 9.3184-73.8304 9.3184-74.3424 0-4.1984 3.4816-7.68 7.68-7.68s7.68 3.4816 7.68 7.68c0 2.2528-0.2048 54.784-10.3424 80.0768-1.2288 2.9696-4.096 4.8128-7.168 4.8128z" fill="#565656" p-id="30909"></path><path d="M266.1376 869.888c-1.8432 0-3.7888-0.7168-5.2224-2.1504-4.608-4.4032-10.752-15.36-17.92-62.3616-3.8912-25.088-6.144-49.0496-6.2464-49.2544-0.4096-4.1984 2.6624-7.9872 6.8608-8.3968 4.1984-0.4096 7.9872 2.6624 8.3968 6.8608 0 0.2048 2.2528 23.7568 6.0416 48.3328 7.0656 46.3872 12.8 53.0432 13.4144 53.6576 2.9696 2.9696 3.1744 7.7824 0.2048 10.8544-1.536 1.7408-3.584 2.4576-5.5296 2.4576z" fill="#FFFFFF" p-id="30910"></path><path d="M235.979469 736.415402a7.9872 7.9872 0 1 0 15.650645-3.199808 7.9872 7.9872 0 1 0-15.650645 3.199808Z" fill="#FFFFFF" p-id="30911"></path><path d="M464.6912 418.5088m-19.456 0a19.456 19.456 0 1 0 38.912 0 19.456 19.456 0 1 0-38.912 0Z" fill="#565656" p-id="30912"></path><path d="M595.5584 418.5088m-19.456 0a19.456 19.456 0 1 0 38.912 0 19.456 19.456 0 1 0-38.912 0Z" fill="#565656" p-id="30913"></path><path d="M451.3792 479.9488c-33.8944 0-61.5424-27.648-61.5424-61.5424s27.648-61.5424 61.5424-61.5424 61.5424 27.648 61.5424 61.5424-27.648 61.5424-61.5424 61.5424z m0-107.6224c-25.4976 0-46.1824 20.6848-46.1824 46.1824s20.6848 46.1824 46.1824 46.1824 46.1824-20.6848 46.1824-46.1824-20.7872-46.1824-46.1824-46.1824zM615.0144 479.9488c-33.8944 0-61.5424-27.648-61.5424-61.5424s27.648-61.5424 61.5424-61.5424 61.5424 27.648 61.5424 61.5424-27.648 61.5424-61.5424 61.5424z m0-107.6224c-25.4976 0-46.1824 20.6848-46.1824 46.1824s20.6848 46.1824 46.1824 46.1824 46.1824-20.6848 46.1824-46.1824-20.6848-46.1824-46.1824-46.1824z" fill="#565656" p-id="30914"></path><path d="M561.2544 429.056h-56.1152c-4.1984 0-7.68-3.4816-7.68-7.68s3.4816-7.68 7.68-7.68h56.1152c4.1984 0 7.68 3.4816 7.68 7.68s-3.4816 7.68-7.68 7.68zM553.984 495.3088h-37.888c-4.1984 0-7.68-3.4816-7.68-7.68s3.4816-7.68 7.68-7.68h37.888c4.1984 0 7.68 3.4816 7.68 7.68s-3.4816 7.68-7.68 7.68zM844.8 431.5136l51.2-152.1664M844.8 439.1936c-0.8192 0-1.6384-0.1024-2.4576-0.4096-3.9936-1.3312-6.144-5.7344-4.8128-9.728l51.2-152.1664c1.3312-3.9936 5.7344-6.144 9.728-4.8128 3.9936 1.3312 6.144 5.7344 4.8128 9.728l-51.2 152.1664c-1.024 3.1744-4.096 5.2224-7.2704 5.2224z" fill="#565656" p-id="30915"></path><path d="M214.6304 529.6128h-98.304c-6.7584 0-12.288-5.5296-12.288-12.288V391.4752c0-6.7584 5.5296-12.288 12.288-12.288h98.304c6.7584 0 12.288 5.5296 12.288 12.288v125.8496c0 6.7584-5.5296 12.288-12.288 12.288z" fill="#89CBB0" p-id="30916"></path><path d="M214.6304 537.2928h-98.304c-11.0592 0-19.968-8.9088-19.968-19.968V391.4752c0-11.0592 8.9088-19.968 19.968-19.968h98.304c11.0592 0 19.968 8.9088 19.968 19.968v125.8496c0 11.0592-8.9088 19.968-19.968 19.968z m-98.304-150.4256c-2.4576 0-4.608 2.1504-4.608 4.608v125.8496c0 2.4576 2.1504 4.608 4.608 4.608h98.304c2.4576 0 4.608-2.1504 4.608-4.608V391.4752c0-2.4576-2.1504-4.608-4.608-4.608h-98.304z" fill="#565656" p-id="30917"></path><path d="M159.0272 434.688L143.2576 461.824c-2.8672 5.0176 0.7168 11.264 6.4512 11.264h31.3344c5.7344 0 9.4208-6.2464 6.4512-11.264l-15.6672-27.136c-2.7648-5.0176-9.9328-5.0176-12.8 0z" fill="#89CBB0" p-id="30918"></path><path d="M181.1456 480.768h-31.3344c-5.5296 0-10.4448-2.8672-13.1072-7.5776-2.7648-4.7104-2.7648-10.4448 0-15.1552l15.6672-27.136c2.7648-4.7104 7.68-7.5776 13.1072-7.5776s10.4448 2.8672 13.1072 7.5776l15.6672 27.136c2.7648 4.7104 2.7648 10.4448 0 15.1552-2.6624 4.7104-7.5776 7.5776-13.1072 7.5776z m-31.0272-15.36h30.72l-15.36-26.624-15.36 26.624z m8.9088-30.72z" fill="#565656" p-id="30919"></path></svg>