<?xml version="1.0" standalone="no"?><!DOCTYPE svg PUBLIC "-//W3C//DTD SVG 1.1//EN" "http://www.w3.org/Graphics/SVG/1.1/DTD/svg11.dtd"><svg t="1716517545694" class="icon" viewBox="0 0 1024 1024" version="1.1" xmlns="http://www.w3.org/2000/svg" p-id="4705" xmlns:xlink="http://www.w3.org/1999/xlink" width="200" height="200"><path d="M200.915134 302.491711c10.683381-192.269196 42.722969-226.441237 64.079175-228.563134C286.371629 71.785567 397.459794 208.494845 382.500948 236.258969c-14.958845 27.764124-181.575258 66.222186-181.575257 66.222186M932.494515 131.188124c-38.447505-19.223753-184.478351 73.263505-198.666556 111.077608-12.298557 32.810227 181.036866 194.106062 200.260618 179.147216 19.213196-14.948289 36.864-271.001072-1.583505-290.224824" fill="#F5BE4C" p-id="4706"></path><path d="M934.067464 179.13666c-14.39934-6.481814-77.940124 57.132866-74.62532 69.167505 3.314804 12.013526 70.370969 58.27299 76.029361 51.35835 5.668948-6.914639 12.995299-114.054598-1.404041-120.525855" fill="#FAE0B1" p-id="4707"></path><path d="M90.418144 562.27101C90.418144 346.703175 286.646103 171.958103 528.711258 171.958103S966.993814 346.703175 966.993814 562.27101c0 215.567835-196.217402 390.323464-438.282556 390.323464C286.646103 952.594474 90.418144 777.828289 90.418144 562.27101" fill="#F6CA55" p-id="4708"></path><path d="M758.023918 229.133196c43.651959 60.690474 68.945814 132.834969 68.945814 210.247258 0 215.567835-196.217402 390.312907-438.282557 390.312907-84.073567 0-162.594309-21.092289-229.302103-57.639588 77.88734 108.301196 214.195464 180.076206 369.315629 180.076206 242.065155 0 438.293113-174.745072 438.293113-390.312907 0-140.699711-83.609072-264.001979-208.969896-332.683876" fill="#F5BE4C" p-id="4709"></path><path d="M149.989608 603.452701c0-200.133938 182.187546-362.379876 406.929155-362.379876 131.357031 0 248.166928 55.454351 322.570557 141.480907-70.275959-108.649567-201.970804-181.786392-352.868289-181.786392-224.731052 0-406.918598 162.256495-406.918598 362.40099 0 83.155134 31.469526 159.744 84.348041 220.909526-34.383175-53.174103-54.050309-114.856907-54.050309-180.625155" fill="#F7D17B" p-id="4710"></path><path d="M70.180948 616.067959c19.593237-80.969897 91.030433-21.852371 157.252619-50.218227 80.885443-34.625979 205.137814-52.709608 287.733443 13.903175 82.595629 66.612784 392.835959 74.762557 451.826804 40.590516-24.54433 163.734433-170.152907 340.812536-481.079422 330.393072-509.835876-17.080742-415.722887-334.668536-415.722887-334.668536" fill="#FCEBD0" p-id="4711"></path><path d="M305.141443 522.123876H151.879258a53.839175 53.839175 0 0 1 0-107.67835h153.262185a53.839175 53.839175 0 1 1 0 107.67835" fill="#FEFEFE" p-id="4712"></path><path d="M151.879258 422.01468a46.322804 46.322804 0 0 0-46.270021 46.270021 46.322804 46.322804 0 0 0 46.270021 46.270021h153.272742a46.322804 46.322804 0 0 0 46.270021-46.270021 46.322804 46.322804 0 0 0-46.270021-46.270021h-153.283299z m153.272742 107.678351h-153.283299a61.461113 61.461113 0 0 1-61.397773-61.40833 61.47167 61.47167 0 0 1 61.40833-61.40833h153.272742a61.47167 61.47167 0 0 1 61.397773 61.40833 61.47167 61.47167 0 0 1-61.397773 61.397773z" fill="#796156" p-id="4713"></path><path d="M664.016495 522.123876H510.764866a53.839175 53.839175 0 0 1 0-107.67835H664.016495a53.839175 53.839175 0 0 1 0 107.67835" fill="#FEFEFE" p-id="4714"></path><path d="M510.754309 422.01468A46.322804 46.322804 0 0 0 464.494845 468.284701a46.322804 46.322804 0 0 0 46.270021 46.270021h153.272742a46.322804 46.322804 0 0 0 46.270021-46.270021 46.322804 46.322804 0 0 0-46.270021-46.270021H510.754309z m153.272743 107.678351H510.754309a61.461113 61.461113 0 0 1-61.397773-61.40833 61.47167 61.47167 0 0 1 61.397773-61.40833h153.272743a61.47167 61.47167 0 0 1 61.408329 61.40833 61.47167 61.47167 0 0 1-61.408329 61.397773z" fill="#796156" p-id="4715"></path><path d="M352.952742 468.210804a48.771959 48.771959 0 1 1-97.543917 0.010557 48.771959 48.771959 0 0 1 97.543917-0.010557M710.761567 468.210804a48.771959 48.771959 0 1 1-97.543918 0 48.771959 48.771959 0 0 1 97.543918 0M368.661113 547.259381c-28.492536-1.509608-72.630103 4.528825-85.002556 27.056825-13.575918 24.692124-0.665072 63.192412 43.704742 72.186722 58.378557 11.844619 111.077608-5.12 115.342515-45.478268 4.286021-40.358268-45.562722-52.25567-74.044701-53.765279" fill="#552A14" p-id="4716"></path><path d="M346.597608 704.628124c-4.729402 0-9.131546-2.97699-10.725608-7.706392-0.443381-1.287918-10.662268-32.535753 1.467381-81.138804a11.348454 11.348454 0 0 1 22.021279 5.489484c-10.398351 41.656742-2.048 68.196289-1.963547 68.460207a11.380124 11.380124 0 0 1-10.799505 14.895505" fill="#552A14" p-id="4717"></path><path d="M447.55134 751.848247c-5.046103 0-10.102763-0.190021-15.127752-0.601732-44.243134-3.610392-78.193485-22.169072-95.622598-52.25567a11.348454 11.348454 0 1 1 19.635464-11.380123c18.33699 31.659546 56.626144 39.281485 77.824 41.012783 48.360247 3.884866 98.810722-13.533691 122.594969-42.511835a11.337897 11.337897 0 1 1 17.545237 14.388784c-25.652784 31.268948-76.251052 51.358351-126.84932 51.35835" fill="#552A14" p-id="4718"></path><path d="M297.456165 733.606268c-1.382928 0-2.765856-0.073897-4.180454-0.211134-15.433897-1.541278-29.706557-11.527918-43.630845-30.498309a11.348454 11.348454 0 1 1 18.294763-13.428124c9.764948 13.301443 19.044289 20.48 27.605773 21.34565 13.40701 1.372371 28.714227-12.499134 43.440825-25.906145a11.35901 11.35901 0 0 1 15.275546 16.785155c-16.500124 15.022186-35.069361 31.912907-56.805608 31.912907" fill="#552A14" p-id="4719"></path></svg>