<?xml version="1.0" standalone="no"?><!DOCTYPE svg PUBLIC "-//W3C//DTD SVG 1.1//EN" "http://www.w3.org/Graphics/SVG/1.1/DTD/svg11.dtd"><svg t="1716453078970" class="icon" viewBox="0 0 1024 1024" version="1.1" xmlns="http://www.w3.org/2000/svg" p-id="3221" xmlns:xlink="http://www.w3.org/1999/xlink" width="200" height="200"><path d="M978.76938903 137.32461985H591.47954251l-23.13178073-78.90777126-16.3670092-9.33766637-96.30393836 24.45827793-9.81462281 16.4944403 39.33494992 154.88705422-1.14081185-0.87017245-20.20693333 4.41033008-24.4570643 45.86063645v12.77830636l33.85541215 63.46918874-18.63406934 51.76373097-15.56237274-14.00164504-20.98486992 3.56078933-25.985024 47.38980978-0.0533997 12.96520533 17.37432178 32.2558483-22.60021097 31.28858548-9.33766637-15.87670282-21.10744652-2.90785659-35.160064 33.79351704-4.16639052 9.78792296v30.77157926l-44.69919289 19.0175763v-25.33209126l-20.94846103-11.39598222-45.31693037 29.32250548-44.86667378-23.56140563 9.89714962-43.32050963-11.50520889-16.48473126-41.08500385-5.27200711c-5.74046815-16.91921067-18.38163437-71.26797275 3.7476883-181.9194406l-24.25924266-10.67994074c-4.26348089 5.81935408-104.14762667 144.06147792-80.19785957 275.99879585 10.6046957 58.4132077 43.91154725 106.31638282 99.0042643 142.3684646 70.70727585 46.27084325 137.3840877 72.7000557 196.00482608 85.9710957L278.22838518 914.09976889l7.37522726 17.47626666 52.74070281 22.1633043 5.25744356 1.0607123h74.14063407l13.57444742-13.5744474v-43.56809008l-9.7114643-13.01253689-30.82983349-9.15076741 26.99597749-38.45628207c46.71867259-1.29130192 82.42972445-11.52705422 102.90001541-23.79199527a80.80346075 80.80346075 0 0 0 3.38724029 3.69307497l-60.76522192 84.246528 6.0050394 20.55888592 81.01948682 32.10171733 5.0013677 0.95512653h90.19331318l13.57444742-13.57444741v-47.3910234l-13.57444742-13.57444742H593.48081778l-1.0073126-0.75487763 65.67435378-54.8621274a69.01183525 69.01183525 0 0 0 24.838144-53.10357807c0-19.09524859-7.82548385-37.13706667-21.58197571-50.1714489 18.56246518-13.59265185 48.4760083-41.36899318 69.87715319-90.06466844a108.01789155 108.01789155 0 0 0 35.97805037-16.40220444l30.04218785-21.102592c14.51015585-10.19448889 31.56286578-15.58421808 49.30249008-15.58421808h56.11216592l13.57444742-13.57444741v-28.66350459l-10.90567586-13.30866251-65.470464-13.12297719a112.65881125 112.65881125 0 0 0-64.02624474 5.83634489l-19.6523046 7.83762014c3.53044859-35.61517511 0.38472059-61.89147022-4.87272296-94.66553837h227.40627911l13.57444741-13.5744474V150.89906725l-13.57444741-13.5744474z" fill="#FCE3C3" p-id="3222"></path><path d="M591.47954251 137.32461985l-23.13178073-78.90777126-16.3670092-9.33766637-96.30393836 24.45827793-9.81462281 16.4944403 39.33494992 154.88705422-1.14081185-0.87017245-20.20693333 4.41033008-24.4570643 45.86063645v12.77830636l33.85541215 63.46918874-18.63406934 51.76373097-15.56237274-14.00164504-20.98486992 3.56078933-25.985024 47.38980978-0.0533997 12.96520533 17.37432178 32.2558483-22.60021097 31.28858548-9.33766637-15.87670282-21.10744652-2.90785659-35.160064 33.79351704-4.16639052 9.78792296v30.77157926l-44.69919289 19.0175763v-25.33209126l-20.94846103-11.39598222-45.31693037 29.32250548-44.86667378-23.56140563 9.89714962-43.32050963-11.50520889-16.48473126-41.08500385-5.27200711c-5.74046815-16.91921067-18.38163437-71.26797275 3.7476883-181.9194406l-24.25924266-10.67994074c-2.09472475 2.85931141-27.26054875 37.6832-49.48817541 88.00513897-18.80519111 85.82181925 1.02551703 203.7963283 52.01009777 256.77247526 50.98943525 52.98100148 159.99764859 108.84801422 318.01101274 49.01850074C607.93271941 643.81231408 573.77268622 525.17759052 611.14155615 469.60791703c42.44548267-63.11723615 110.80681245-52.31350518 110.80681243-52.31350518l69.32980623 11.25884207h187.49121422l13.57444741-13.5744474V150.89906725l-13.57444741-13.5744474H591.47954251z" fill="#ED8F27" p-id="3223"></path><path d="M645.51518815 954.80126578h-90.19331319l-5.00136771-0.95512653-81.02070044-32.10171733-6.0050394-20.55888592 60.76522192-84.246528c-15.91553897-16.23472355-19.51516445-34.80568415-43.18094222-34.80568415v-27.14768118c45.43222518 0 65.79693037 46.00263111 70.9839834 52.04286578l0.71118697 16.78692503-57.0612243 79.11044741 62.39998104 24.7277037h74.02898014v-20.24212859h-42.98433421l-8.14345482-2.71246222-18.34643911-13.75527823-0.557056-21.27978192 78.83738074-65.85639822a41.9309037 41.9309037 0 0 0 15.09027082-32.26434371 41.9309037 41.9309037 0 0 0-15.09027082-32.26070281l-2.47459081-2.71610311-49.48089364-53.8584557 22.34898964-15.40338726 48.48693096 52.41302281c14.86939022 13.13754075 23.35751585 31.916032 23.35751585 51.8268397a69.01183525 69.01183525 0 0 1-24.838144 53.10357808l-65.67435378 54.86212741 1.0073126 0.75487763h52.03437037l13.5744474 13.5744474v47.3910234l-13.5744474 13.57080653zM417.74239288 954.80126578h-74.14063407l-5.25744356-1.0607123-52.74070281-22.16451793-7.37522726-17.47505303 40.4927526-103.088128 25.26534163 9.92506311-35.64430223 90.74551467 37.99510282 15.96893867h57.83187911v-19.86226252l-39.20751881-11.63870815-7.24658252-20.81132089 42.03891673-59.88169956 22.21791764 15.597568-31.19634964 44.43826252 30.82983349 9.15076741 9.7114643 13.01375052v43.56809007z" fill="#300604" p-id="3224"></path><path d="M407.81368888 837.18477748c-75.90403792 0.00485452-178.34530133-23.35751585-291.012608-97.08672948-55.09150341-36.05208178-88.39835497-83.95525689-99.0042643-142.36846459-23.94976711-131.9361043 75.93437867-270.17822815 80.19785957-275.99758223l24.25924266 10.67994074c-22.12810903 110.65146785-9.48694282 165.00144355-3.7476883 181.9194406l41.08500385 5.27200711 11.50520889 16.48473126-9.89714962 43.32050963 44.86667378 23.56140563 45.31693037-29.32250548 20.94846103 11.39598222v25.33209126l44.69919289-19.0175763v-30.77157926l4.16639052-9.78792296 35.160064-33.79351704 21.10744652 2.90785659 9.33766637 15.87670282 22.60021097-31.28858548-17.37432178-32.2558483 0.0533997-12.96520533 25.985024-47.38980978 20.98486992-3.56078933 15.56237274 14.00164504 18.63406934-51.76373097-33.85541215-63.46918874v-12.77830636l24.4570643-45.86063645 20.20693333-4.41033008 1.14081185 0.87017245-39.33494992-154.88705422 9.81462281-16.4944403 96.30393836-24.45827793 16.3670092 9.33766637 23.13178073 78.90777126h387.28984652l13.57444741 13.5744474v264.07973927l-13.57444741 13.5744474H751.36432355c6.42010075 40.02914608 9.699328 70.35532325 1.50125986 119.85320771l-26.47168949 4.19551762c8.58157511-51.81713067 3.06198755-91.93851259-4.44552534-135.3075674l13.37541216-15.89005274h229.87237451V164.47230103h-383.88318814l-13.02710045-9.75636858-22.30893985-76.1030732-70.4596954 17.891328 45.57300622 179.46305423-21.38172682 14.13999882-19.4107923-14.79414519-13.53925215 25.39398637 33.28136534 62.39998104 0.79128652 10.98456178-27.51419734 76.43439407-21.85018785 5.49167408-17.83307378-16.04903823-14.20189392 25.89400178 17.90831882 33.24981097-0.94905837 14.38636562-39.74637037 55.03446282-22.70336949-1.06920771-11.1617517-18.97388562-18.59766044 17.87312355v33.96706607l-8.25874963 12.49067615-71.84808771 30.572544-18.89014519-12.49067615v-20.90962488l-31.0276551 20.0746477-13.68488771 0.622592-61.145088-32.1005037-6.92375703-15.040512 8.89469155-38.92474312-34.08114726-4.37028029-10.11438934-6.82666666c-1.0607123-1.89083497-21.594112-40.09104118-12.04527406-136.82703172-25.44253155 50.3195117-53.41184 125.61309392-40.53280238 196.37376949 9.23936237 50.757632 38.55822697 92.61086341 87.13982104 124.40189156 200.769536 131.38875733 359.51107792 89.94694637 381.95715792 67.49965274l19.19476623 19.19476621c-16.84639289 16.84882015-61.69607585 33.11024355-125.00263823 33.11388445z" fill="#300604" p-id="3225"></path><path d="M644.45933036 732.0164883l-11.76249836-24.47041422 5.88124918 12.23581392-5.93343526-12.20911408c0.46724741-0.229376 46.79755852-23.60388267 74.94891141-89.86563317l24.98256592 10.6131911c-32.37599763 76.21229985-85.85944178 102.60995792-88.11679289 103.69615645zM816.19399111 272.86399052h157.69296592v27.14768118H816.19399111z" fill="#300604" p-id="3226"></path><path d="M705.12746192 634.53411555a107.94750103 107.94750103 0 0 1-36.82030934-6.46864592l-17.76146962-3.66030696L657.52769422 598.1677037l19.57220503 4.20279941a80.92118282 80.92118282 0 0 0 74.55569541-9.68597808l30.03854697-21.102592c19.10617125-13.41910282 41.55346489-20.51640889 64.90976711-20.51640888h42.53893214v-3.9685689l-54.56600177-10.93601658a85.58637511 85.58637511 0 0 0-48.63135289 4.43217541l-68.90503586 27.47900207-7.43226785 0.75123674c-2.56682667-0.45996563-26.96199585 12.94578725-76.96353659-66.977792l23.01284504-14.39607467c37.22202075 59.48848355 43.01952948 50.26247111 55.36092919 53.80141511l64.87093096-25.87094281c20.37805511-8.13010489 42.50616415-10.14473008 64.02624474-5.83634489l65.470464 13.12297719 10.90567585 13.30866251v28.66350459l-13.5744474 13.57444741h-56.11216594c-17.74083792 0-34.79233422 5.39094282-49.30249006 15.5854317l-30.04218786 21.102592a108.09435022 108.09435022 0 0 1-62.13298252 19.63288652z" fill="#300604" p-id="3227"></path><path d="M803.04431408 936.37229985l40.04977777-98.82100622 25.15854223 10.19691615-40.04735053 98.82100622zM885.00072296 943.21959822l-25.15975585-10.19691614 16.63158044-41.04131319 25.16096948 10.19691614z" fill="#300604" p-id="3228"></path><path d="M172.95572385 946.4915437l-40.04856415-98.82221985 25.16096948-10.19691615 40.04856415 98.82100622zM99.57724918 902.21226667l25.16096948-10.19691615 16.63279408 41.04252681-25.16096949 10.19570252z" fill="#300604" p-id="3229"></path><path d="M632.6434323 201.25377422l107.01664711 35.25108623s-15.76626252 62.62450252-80.6129209 39.74637037c-37.95869392-13.39361659-26.40372622-74.99745659-26.40372621-74.9974566z" fill="#300604" p-id="3230"></path><path d="M816.19399111 284.13982341l26.83456474 65.40007348 29.1841517-64.31872948z" fill="#FCE3C3" p-id="3231"></path><path d="M852.97425066 354.05217185l-20.05037511-0.36772977-26.83335111-65.40007349 10.31585186-15.06599822 56.01871644 1.081344 9.73452326 15.433728-29.18536534 64.31872948z m-20.3610643-58.67049718l10.92023942 26.61368415 11.87536592-26.1731366-22.79560534-0.44054755z" fill="#300604" p-id="3232"></path><path d="M502.7936573-709.20194889s0.31898175 0.32219579 1.03197881 0.36623977 0.90810008-0.26589087 0.90810008-0.26589088l1.13685115-1.90575629-1.36211044-1.95321273-1.3954807 0.60776758-0.90869528 1.79120222 0.58935638 1.35965033z" fill="#B12800" p-id="3233"></path><path d="M502.7936573-709.20194889c-0.32048957-0.7983075-0.09907916-1.23227983 0.21688697-1.62149393 0.33894044-0.44619354 0.44405086-0.88734781 0.44405086-0.88734782s0.23291738 0.32576691 0.10483267 0.82390063c0.45647047-0.45837509 0.58193637-1.22914516 0.54170158-1.52356543 0.92754292 0.73847115 1.26192024 2.25775122 0.63260681 3.30881576 3.09121458-1.52185924 0.99896564-4.20064734 0.62796435-4.49605959 0.1177681 0.29922146 0.10721342 0.78513397-0.17859647 1.00102896-0.34060698-1.73374662-1.42539889-2.13161078-1.4253989-2.13161078 0.08185835 0.88088008-0.5778494 1.79382104-1.20382978 2.47527306 0.00214268-0.35020937-0.0028569-0.58403937-0.17518402-0.94504149-0.07828724 0.63744768-0.59411792 1.11161512-0.76938131 1.74307124-0.22835427 0.86179436 0.04352817 1.5014244 1.18434724 2.25302939z" fill="#B12800" p-id="3234"></path><path d="M314.76713244-86.02221977s4.42125275 4.46615703 14.30262519 5.07539911c9.88258608 0.6104557 12.58655289-3.68579318 12.58655288-3.68579318l15.75655349-26.41343526-18.87922252-27.07122252-19.3416154 8.42380326-12.5950483 24.8260077 8.17015466 18.84524089z" fill="#B12800" p-id="3235"></path><path d="M314.76713244-214.02221975c-4.44188445-11.06466133-1.37261511-17.07940978 3.00616059-22.47399348 4.6979603-6.18344297 6.15431585-12.29892267 6.15431585-12.29892267s3.22825482 4.51591585 1.45271467 11.41904119c6.32665125-6.35335111 8.06578252-17.03571911 7.50872653-21.11715555 12.85597867 10.2357523 17.48961659 31.29222637 8.76726043 45.85942281 42.84476682-21.09288297 13.84508682-58.22145422 8.70293807-62.31502696 1.63233185 4.14697245 1.4866963 10.88140325-2.4745908 13.87421393-4.72101925-24.02986667-19.75546311-29.54338608-19.75546312-29.54338608 1.1347437 12.20911408-8.00874192 24.86241659-16.68498015 34.30688236 0.03034075-4.85330489-0.04004978-8.09490963-2.42847288-13.09749095-1.08498489 8.8352237-8.23447703 15.40702815-10.66294993 24.1585114-3.1663597 11.94575645 0.6019603 20.81010725 16.41434074 31.227904z" fill="#B12800" p-id="3236"></path></svg>