<?xml version="1.0" standalone="no"?><!DOCTYPE svg PUBLIC "-//W3C//DTD SVG 1.1//EN" "http://www.w3.org/Graphics/SVG/1.1/DTD/svg11.dtd"><svg t="1716523304306" class="icon" viewBox="0 0 1024 1024" version="1.1" xmlns="http://www.w3.org/2000/svg" p-id="11379" xmlns:xlink="http://www.w3.org/1999/xlink" width="200" height="200"><path d="M0 0m170.666667 0l682.666666 0q170.666667 0 170.666667 170.666667l0 682.666666q0 170.666667-170.666667 170.666667l-682.666666 0q-170.666667 0-170.666667-170.666667l0-682.666666q0-170.666667 170.666667-170.666667Z" fill="#000000" fill-opacity=".04" p-id="11380"></path><path d="M276.224 219.989333a11.178667 11.178667 0 0 1 15.402667-4.138666l194.346666 113.834666a11.52 11.52 0 0 1 4.181334 15.616 11.178667 11.178667 0 0 1-15.402667 4.138667L280.405333 235.605333a11.52 11.52 0 0 1-4.181333-15.616zM748.970667 219.989333a11.52 11.52 0 0 1-4.181334 15.616L550.442667 349.44a11.178667 11.178667 0 0 1-15.36-4.138667 11.52 11.52 0 0 1 4.138666-15.616l194.346667-113.834666a11.178667 11.178667 0 0 1 15.402667 4.138666z" fill="#9DA8C4" p-id="11381"></path><path d="M192 730.538667V384.64c0-27.178667 22.016-49.194667 49.194667-49.194667h541.610666c27.178667 0 49.194667 22.016 49.194667 49.194667v345.898667c0 27.136-22.016 49.194667-49.194667 49.194666H241.194667A49.194667 49.194667 0 0 1 192 730.538667z" fill="#C7CFE2" p-id="11382"></path><path d="M236.672 688.768V437.76q0-23.466667 16.64-40.106667 16.554667-16.554667 40.064-16.554666h336.213333q23.466667 0 40.064 16.597333 16.597333 16.597333 16.597334 40.064v250.965333q0 23.466667-16.64 40.106667-16.554667 16.554667-40.064 16.554667h-336.213334q-23.466667 0-40.064-16.597334-16.597333-16.597333-16.597333-40.106666z m22.698667 0V437.76c0-18.773333 15.189333-34.005333 34.005333-34.005333h336.213333c18.773333 0 33.962667 15.232 33.962667 34.005333v250.965333c0 18.773333-15.189333 34.005333-34.005333 34.005334h-336.213334a34.005333 34.005333 0 0 1-33.962666-34.005334z" fill="#8DDB91" p-id="11383"></path><path d="M259.413333 688.768V437.76c0-18.773333 15.189333-34.005333 33.962667-34.005333h336.213333c18.773333 0 34.005333 15.232 34.005334 34.005333v250.965333c0 18.773333-15.232 34.005333-34.005334 34.005334h-336.213333a34.005333 34.005333 0 0 1-34.005333-34.005334zM708.48 694.357333v-91.306666c0-9.386667 7.594667-16.981333 16.981333-16.981334h55.850667c9.386667 0 16.981333 7.594667 16.981333 16.981334v91.306666c0 9.386667-7.594667 17.024-16.981333 17.024h-55.850667a16.981333 16.981333 0 0 1-16.981333-17.024z" fill="#464655" p-id="11384"></path><path d="M723.413333 613.12c0-4.181333 3.413333-7.594667 7.594667-7.594667h44.8a7.594667 7.594667 0 0 1 0 15.232h-44.8a7.594667 7.594667 0 0 1-7.594667-7.594666zM723.413333 648.704c0-4.181333 3.413333-7.594667 7.594667-7.594667h44.8a7.594667 7.594667 0 0 1 0 15.232h-44.8a7.594667 7.594667 0 0 1-7.594667-7.637333zM723.413333 684.288c0-4.224 3.413333-7.637333 7.594667-7.637333h44.8a7.594667 7.594667 0 0 1 0 15.232h-44.8a7.594667 7.594667 0 0 1-7.594667-7.594667z" fill="#8DDB91" p-id="11385"></path><path d="M290.261333 813.909333h-28.074666c-7.765333 0-14.08-5.12-14.08-11.392v-22.784h56.192v22.784c0 6.272-6.314667 11.392-14.08 11.392zM761.813333 813.909333h-28.074666c-7.722667 0-14.037333-5.12-14.037334-11.392v-22.784h56.149334v22.784c0 6.272-6.272 11.392-14.037334 11.392z" fill="#464655" p-id="11386"></path><path d="M781.653333 500.437333q0 3.072-0.597333 6.101334t-1.706667 5.888q-1.194667 2.858667-2.901333 5.461333-1.706667 2.56-3.84 4.736-2.133333 2.218667-4.693333 3.925333t-5.376 2.901334q-2.816 1.194667-5.802667 1.792-2.986667 0.597333-6.058667 0.597333-3.029333 0-6.016-0.597333-2.986667-0.597333-5.802666-1.792-2.858667-1.194667-5.376-2.901334-2.56-1.706667-4.693334-3.925333-2.133333-2.133333-3.84-4.736-1.706667-2.56-2.858666-5.461333-1.194667-2.858667-1.792-5.888-0.597333-2.986667-0.597334-6.101334 0-3.114667 0.597334-6.144t1.792-5.888q1.152-2.858667 2.858666-5.461333 1.706667-2.56 3.84-4.736 2.133333-2.218667 4.693334-3.925333t5.376-2.901334q2.816-1.194667 5.802666-1.792 2.986667-0.597333 6.016-0.597333 3.072 0 6.058667 0.597333 2.986667 0.597333 5.802667 1.792 2.816 1.194667 5.376 2.901334 2.56 1.706667 4.693333 3.925333 2.133333 2.176 3.84 4.736 1.706667 2.56 2.858667 5.461333 1.152 2.858667 1.749333 5.888 0.597333 3.029333 0.597333 6.144zM781.653333 412.416q0 3.114667-0.597333 6.144t-1.706667 5.888q-1.194667 2.858667-2.901333 5.461333-1.706667 2.56-3.84 4.736-2.133333 2.176-4.693333 3.925334-2.56 1.706667-5.376 2.901333-2.816 1.194667-5.802667 1.792-2.986667 0.597333-6.058667 0.597333-3.029333 0-6.016-0.597333-2.986667-0.597333-5.802666-1.792-2.858667-1.194667-5.376-2.901333-2.56-1.706667-4.693334-3.925334-2.133333-2.176-3.84-4.736-1.706667-2.56-2.858666-5.461333-1.194667-2.858667-1.792-5.888-0.597333-3.029333-0.597334-6.144 0-3.072 0.597334-6.101333t1.792-5.930667q1.152-2.858667 2.858666-5.418667 1.706667-2.56 3.84-4.736 2.133333-2.218667 4.693334-3.925333t5.376-2.901333q2.816-1.194667 5.802666-1.792 2.986667-0.597333 6.016-0.597334 3.072 0 6.058667 0.597334 2.986667 0.597333 5.802667 1.792 2.816 1.194667 5.376 2.901333 2.56 1.706667 4.693333 3.925333 2.133333 2.133333 3.84 4.736 1.706667 2.56 2.858667 5.418667 1.152 2.901333 1.749333 5.930667 0.597333 2.986667 0.597333 6.101333z" fill="#E4EAF6" p-id="11387"></path></svg>