<?xml version="1.0" standalone="no"?><!DOCTYPE svg PUBLIC "-//W3C//DTD SVG 1.1//EN" "http://www.w3.org/Graphics/SVG/1.1/DTD/svg11.dtd"><svg t="1716521291188" class="icon" viewBox="0 0 1408 1024" version="1.1" xmlns="http://www.w3.org/2000/svg" p-id="188521" xmlns:xlink="http://www.w3.org/1999/xlink" width="275" height="200"><path d="M668.16 193.536L513.472 11.52H338.304l154.688 182.016h175.168z m454.976 0L968.448 11.52h-175.168l154.688 182.016h175.168z m-227.52 0L740.928 11.52H565.76l154.688 182.016h175.168zM1189.12 11.52h-168.32l154.688 182.016h81.92V79.808c0-38.72-29.568-68.288-68.288-68.288zM286.08 11.52h-6.848c-38.656 0-68.288 29.568-68.288 68.288v113.728h229.76L285.952 11.52zM210.816 944.192c0 38.72 29.632 68.288 68.288 68.288h909.888c38.72 0 68.288-29.568 68.288-68.288V239.04H210.944v705.152z m364.032-500.48c0-38.656 31.808-56.832 68.224-56.832 11.392 0 24.96 2.304 36.416 9.088l259.328 150.144c45.44 25.024 45.44 88.704 0 113.728l-259.328 150.144a66.752 66.752 0 0 1-36.48 9.088c-36.352 0-68.16-18.176-68.16-56.832V443.776z" fill="#515151" p-id="188522"></path></svg>