<?xml version="1.0" standalone="no"?><!DOCTYPE svg PUBLIC "-//W3C//DTD SVG 1.1//EN" "http://www.w3.org/Graphics/SVG/1.1/DTD/svg11.dtd"><svg t="1716521178894" class="icon" viewBox="0 0 1024 1024" version="1.1" xmlns="http://www.w3.org/2000/svg" p-id="181296" xmlns:xlink="http://www.w3.org/1999/xlink" width="200" height="200"><path d="M976.018286 352.036571v430.445715a128 128 0 0 1-128 128H239.908571a128 128 0 0 1-121.417142-87.552l2.925714 1.243428c15.506286 5.851429 32.475429 8.777143 50.176 8.192l619.373714-23.186285A128 128 0 0 0 914.285714 681.252571V248.685714l-0.073143-2.413714-0.219428-3.949714c37.156571 22.381714 62.025143 63.195429 62.025143 109.714285z" fill="#C5CBD3" p-id="181297"></path><path d="M911.945143 289.499429v430.518857a128 128 0 0 1-128 128H176.054857a128 128 0 0 1-128-128V289.499429h863.963429zM154.916571 113.737143L229.010286 242.102857H47.981714v-2.121143a128 128 0 0 1 106.861715-126.244571z m178.468572-1.755429l75.190857 130.194286H283.794286L208.530286 111.908571h124.854857z m189.44 0l75.190857 130.194286H463.286857L388.096 111.908571h134.656z m189.293714 0l75.337143 130.194286H652.580571L577.462857 111.908571h134.656z m71.899429 0c70.656 0 128 57.344 128 128v2.194286h-69.997715l-75.190857-130.194286h17.188572z" fill="#7E8792" p-id="181298"></path><path d="M411.648 461.897143v191.634286a32.036571 32.036571 0 0 0 48.347429 27.428571L621.348571 585.142857a31.963429 31.963429 0 0 0 0-55.003428L460.068571 434.322286a31.963429 31.963429 0 0 0-48.274285 27.574857z" fill="#C5CBD3" p-id="181299"></path></svg>