<?xml version="1.0" standalone="no"?><!DOCTYPE svg PUBLIC "-//W3C//DTD SVG 1.1//EN" "http://www.w3.org/Graphics/SVG/1.1/DTD/svg11.dtd"><svg t="1722494945993" class="icon" viewBox="0 0 1024 1024" version="1.1" xmlns="http://www.w3.org/2000/svg" p-id="4493" xmlns:xlink="http://www.w3.org/1999/xlink" width="200" height="200"><path d="M62.4064 526.9696a452.288 450.9216 90 1 0 901.8432 0 452.288 450.9216 90 1 0-901.8432 0Z" fill="#FFFFFF" p-id="4494"></path><path d="M513.328 984.0608C262.0416 984.0608 57.6 779.008 57.6 526.9696S262.0416 69.8752 513.328 69.8752s455.7248 205.0528 455.7248 457.0912-204.4384 457.0944-455.7248 457.0944z m0-904.576c-245.9904 0-446.1184 200.7392-446.1184 447.4816s200.128 447.4848 446.1184 447.4848 446.1184-200.7392 446.1184-447.4848-200.128-447.4816-446.1184-447.4816z" fill="" p-id="4495"></path><path d="M513.328 528.3392m-387.68 0a387.68 387.68 0 1 0 775.36 0 387.68 387.68 0 1 0-775.36 0Z" fill="#FCEE21" p-id="4496"></path><path d="M513.328 920.144c-216.0416 0-391.8048-175.7632-391.8048-391.8048 0-216.0416 175.7632-391.8016 391.8048-391.8016 216.0416 0 391.8016 175.7632 391.8016 391.8016 0.0032 216.0416-175.76 391.8048-391.8016 391.8048z m0-775.36c-211.4944 0-383.5552 172.0608-383.5552 383.552 0 211.4944 172.0608 383.5552 383.5552 383.5552s383.552-172.064 383.552-383.5552c0-211.4912-172.0576-383.552-383.552-383.552z" fill="" p-id="4497"></path><path d="M572.688 292.1952c-34.2592 0-64.1184 25.4784-80.2528 63.296-16.7744-33.232-44.752-55.0496-76.4704-55.0496-51.3504 0-92.976 57.0688-92.976 127.4816 0 70.4032 41.632 127.4688 92.976 127.4688 34.2656 0 64.1184-25.4752 80.2496-63.3056 16.7776 33.2384 44.752 55.0624 76.4736 55.0624 51.3632 0 92.9952-57.072 92.9952-127.4752-0.0096-70.4064-41.632-127.4784-92.9952-127.4784z" fill="#FFFFFF" p-id="4498"></path><path d="M415.9648 559.52c-53.5392 0-97.1008-59.0336-97.1008-131.5968 0-72.5664 43.5584-131.6064 97.1008-131.6064 29.824 0 57.824 18.5248 76.1696 49.9808 17.9424-36.128 48.2304-58.2272 80.5536-58.2272 53.5424 0 97.1136 59.0368 97.12 131.6032 0 72.5664-43.568 131.6-97.12 131.6-29.8208 0-57.8208-18.528-76.1696-49.9904-17.9392 36.1312-48.2272 58.2368-80.5536 58.2368z m0-254.9536c-48.992 0-88.8512 55.3376-88.8512 123.3568 0 68.0128 39.8592 123.344 88.8512 123.344 31.168 0 60.464-23.296 76.4576-60.7968l3.4784-8.16 3.9968 7.92c16.688 33.0592 43.8976 52.7936 72.7936 52.7936 49.0016 0 88.8672-55.3344 88.8672-123.3504-0.0064-68.016-39.872-123.3536-88.8672-123.3536-31.1616 0-60.4608 23.2928-76.4576 60.7904l-3.4784 8.1536-3.9968-7.9168c-16.688-33.0496-43.8976-52.7808-72.7936-52.7808z" fill="" p-id="4499"></path><path d="M589.184 423.7888a21.0016 9.7472 90 1 0 19.4944 0 21.0016 9.7472 90 1 0-19.4944 0Z" fill="" p-id="4500"></path><path d="M598.9312 448.0672c-7.424 0-13.024-10.4384-13.024-24.2784s5.6-24.2784 13.024-24.2784 13.024 10.4384 13.024 24.2784-5.6 24.2784-13.024 24.2784z m0-42c-2.576 0-6.4672 7.0688-6.4672 17.7248s3.8944 17.7248 6.4672 17.7248 6.4672-7.0688 6.4672-17.7248-3.8912-17.7248-6.4672-17.7248z" fill="" p-id="4501"></path><path d="M415.9584 437.8464a21.0016 9.7536 90 1 0 19.5072 0 21.0016 9.7536 90 1 0-19.5072 0Z" fill="" p-id="4502"></path><path d="M425.712 462.128c-7.4304 0-13.0336-10.4384-13.0336-24.2784s5.6032-24.2784 13.0336-24.2784 13.0304 10.4384 13.0304 24.2784-5.6 24.2784-13.0304 24.2784z m0-42.0032c-2.5792 0-6.4768 7.0688-6.4768 17.7248s3.8976 17.7248 6.4768 17.7248 6.4736-7.0688 6.4736-17.7248-3.8944-17.7248-6.4736-17.7248z" fill="" p-id="4503"></path><path d="M505.2064 693.5488c-29.6448 0-52.864-26.2752-52.864-59.8144 0-3.168 0.832-6.256 2.4672-9.1808l7.1968 4.0256c-0.9536 1.7056-1.4144 3.392-1.4144 5.1552 0 28.9152 19.5968 51.5648 44.6144 51.5648 25.0176 0 44.6176-22.6496 44.6176-51.5648 0-0.7264-0.0864-1.4496-0.2752-2.2784l8.0448-1.824c0.3232 1.4208 0.48 2.7648 0.48 4.1024 0 33.5392-23.2192 59.8144-52.8672 59.8144z" fill="" p-id="4504"></path><path d="M207.4816 773.5936c-11.5328-99.5008 22.4992-172.4096 53.0784-216.0544 33.1424-47.296 68.5504-70.7424 70.0416-71.7184l5.2608 8.0384c-1.4048 0.9216-140.2112 94.2112-118.8384 278.624l-9.5424 1.1104z" fill="" p-id="4505"></path><path d="M805.344 785.056l-9.3888-2.0448c23.7312-108.912-14.2112-192.0768-50.2208-242.6656-39.1968-55.0656-84.6944-84.6624-85.1488-84.9536l5.1904-8.0864c1.9136 1.2288 47.2928 30.7072 87.5744 87.1744 37.2512 52.2176 76.5088 138.0768 51.9936 250.576z" fill="" p-id="4506"></path></svg>