<?xml version="1.0" standalone="no"?><!DOCTYPE svg PUBLIC "-//W3C//DTD SVG 1.1//EN" "http://www.w3.org/Graphics/SVG/1.1/DTD/svg11.dtd"><svg t="1716520416193" class="icon" viewBox="0 0 1024 1024" version="1.1" xmlns="http://www.w3.org/2000/svg" p-id="121793" xmlns:xlink="http://www.w3.org/1999/xlink" width="200" height="200"><path d="M112 112h800v800H112z" fill="#FF0033" p-id="121794"></path><path d="M750.464 459.808H750.4l0.016-5.44c0.032-3.6 0.048-7.168-0.016-10.752 0-3.52 1.472-5.04 4.752-4.976 1.696 0.016 3.408 0 5.12-0.016 2.176-0.032 4.336-0.064 6.496 0 6.224 0.176 9.28 3.056 9.44 9.856 0.192 6.112 0.128 12.224 0.08 18.336-0.032 3.072-0.08 6.128-0.08 9.184 0 3.568-1.52 5.04-4.752 5.04a325.792 325.792 0 0 0-16.592 0c-3.568 0.16-4.48-1.696-4.416-5.104v-16.128z m-2.128 189.6a90.72 90.72 0 0 1 2.064-0.272v-6.96-25.008c0.032-25.008 0.048-50.032-0.112-75.088 0-5.728 1.696-7.584 6.96-7.536 14.272 0.208 28.56 0.16 42.816 0.144l16.08-0.032c9.168 0 14.144 5.216 14.208 14.944 0.048 7.456 0.032 14.928 0.032 22.4 0 8.896-0.016 17.808 0.08 26.752 0.112 4.688-1.312 6.336-5.728 6.24-5.072-0.08-10.16-0.064-15.232-0.048-6.736 0.032-13.488 0.064-20.272-0.144-4.752-0.112-5.76 1.872-5.088 6.4a45.872 45.872 0 0 0 17.552 30.64c11.408 9.04 24.48 8.48 37.44 7.92l1.056-0.048c22.544-0.912 39.744-20.496 39.808-44.848V534.72c-0.112-31.04-19.824-52.896-48.528-53.568-4.48-0.112-5.76-1.808-5.648-6.336 0.16-10.032 0.048-20.048-0.176-30.016-0.448-23.328-10.192-40.64-28.88-52.368-11.376-7.136-23.84-7.872-36.512-7.52-9.856 0.272-10.08 0.048-9.68-10.72 0.224-4.976-1.6-6.176-5.776-6.048-12.176 0.16-24.416 0.224-36.64-0.128-4.864-0.112-6.848 1.712-6.24 6.912a15.168 15.168 0 0 1 0.048 1.648c0 0.656 0 1.328 0.08 1.984 0.624 5.04-1.536 6.672-6.064 6.512-3.904-0.16-7.824-0.144-11.728-0.112-2.736 0.016-5.472 0.048-8.192 0-3.456-0.112-5.04 1.12-4.992 5.152 0.112 14.368 0.112 28.752 0 43.136 0 3.92 1.424 5.328 4.928 5.28 3.232-0.096 6.464-0.064 9.696-0.048 3.632 0.016 7.248 0.048 10.864-0.08 4.064-0.112 5.6 1.648 5.536 5.952-0.16 10.192-0.16 20.384 0 30.56 0.128 4.704-1.52 6.288-5.888 6.176a815.84 815.84 0 0 0-16.896-0.064c-6.752 0-13.504 0.032-20.24-0.16-4.992-0.112-6.464 1.76-6.336 6.912 0.272 13.6 0.272 27.168 0 40.768-0.128 4.976 1.76 6.176 5.888 6.064 8-0.128 16-0.08 24-0.048 4.016 0.016 8.032 0.048 12.064 0.048 7.2-0.064 7.248 0.16 7.248 8.096 0 11.184 0 22.368 0.032 33.568 0.016 22.384 0.048 44.768-0.032 67.152-0.064 4.976 1.52 6.624 6.048 6.512 8.736-0.208 17.488-0.16 26.224-0.144l9.856 0.032c1.376 0 2.752-0.192 4.272-0.4z m-261.056-6.976l-3.04 6.656c0.896 0.128 1.664 0.272 2.336 0.4 1.248 0.224 2.176 0.384 3.088 0.384l52.544-0.016c35.04-0.032 70.064-0.064 105.088 0.016 3.968 0 5.088-1.584 5.088-5.664a1029.44 1029.44 0 0 1 0.064-39.568c0.112-5.216-1.76-6.464-6.112-6.336a886.72 886.72 0 0 1-25.088 0.128l-9.344-0.016h-0.16c-7.36 0.048-7.424 0.048-7.424-7.824V549.28c0-11.328 0-22.656 0.032-33.968 0.016-22.656 0.048-45.296-0.032-67.952-0.064-5.264 1.184-7.632 6.512-7.296 3.728 0.256 7.488 0.192 11.248 0.112 2.928-0.048 5.84-0.096 8.736 0 3.792 0.112 5.28-1.296 5.216-5.552a1047.36 1047.36 0 0 1-0.048-21.968l0.048-10.976c0-16.256 0-16.368-14.944-16.368-13.216-0.032-26.4-0.016-39.568 0-17.344 0-34.672 0-52.048-0.064-3.68 0-6.464 0.288-6.336 5.664 0.16 14.784 0.16 29.552 0 44.336 0 3.632 1.184 4.992 4.576 4.928 3.04-0.08 6.08-0.048 9.136 0 3.984 0.032 7.952 0.08 11.936-0.112 4.8-0.224 6.512 1.296 6.512 6.672-0.16 48.352-0.16 96.704 0 145.056 0.048 4.944-1.36 6.752-6.016 6.64a785.328 785.328 0 0 0-36.624 0c-2.208 0.048-5.44 1.408-6.336 3.216-6.416 13.28-12.592 26.72-19.04 40.8z m-257.376-36.32h-23.44c-0.72 8.608 1.12 17.232 5.264 24.8 10.016 18.848 42 26.496 59.28 14.16 2.16-1.568 4.16-3.36 5.936-5.328 8.224-9.12 10.928-20.608 11.04-32.896 0.08-16.528 0.064-33.04 0.032-49.552l-0.032-24.8V500.64c0-41.712-0.016-83.44 0.128-125.12 0-5.6-1.248-7.76-6.8-7.488-12.24 0.464-24.464 0.464-36.64 0-5.376-0.112-6.624 2.112-6.512 7.36 0.16 8.544 0.16 17.12 0.128 25.648v196.144c-0.064 8.768-0.128 8.832-8.384 8.944z m271.488-63.648l2.832-5.536a18.704 18.704 0 0 1-1.392-0.688c-0.448-0.24-0.736-0.384-0.992-0.384l-18.848-0.064c-10.432-0.048-12.24-3.056-7.6-12.8l33.184-69.76c1.12-2.384 2.192-4.8 3.296-7.344l2.144-4.816a116.992 116.992 0 0 1-1.84-0.256 23.584 23.584 0 0 0-3.264-0.32 3389.92 3389.92 0 0 0-13.968-0.032c-7.184 0-14.368 0-21.584-0.08h-0.384c-3.424 0-6.544 0-8.56 4.192-0.56 1.184-3.968 2.048-5.104 1.36-1.52-0.96-2.768-3.568-2.992-5.6-0.144-1.376 0.688-2.976 1.456-4.48l0.528-1.024 26.32-54c1.168-2.368 2.256-4.768 3.424-7.312 0.704-1.568 1.44-3.168 2.24-4.864l-2.24-0.288a24.256 24.256 0 0 0-3.136-0.288c-4 0-8 0.032-12 0.064-8.032 0.064-16.064 0.128-24.064-0.064-4.368-0.048-6.624 1.76-8.48 5.904-4.8 10.512-9.664 21.024-14.528 31.52-6.88 14.848-13.76 29.712-20.416 44.672a108.64 108.64 0 0 0-7.6 23.568c-1.808 9.504 3.12 15.392 12.176 15.728 6.944 0.256 13.92 0.224 20.864 0.192l6.88-0.016c1.2 0.032 2.352 0.16 3.632 0.32l2.144 0.24-0.56 2.08a12.096 12.096 0 0 1-0.8 2.512c-2.256 4.992-4.544 9.968-6.832 14.944a1514.8 1514.8 0 0 0-14.336 31.888 83.2 83.2 0 0 0-6.112 19.76c-1.824 11.488 2.768 16.864 13.696 17.024 16.8 0.24 33.632 0.24 50.448 0.128 1.76-0.064 4.304-1.136 5.088-2.56 5.856-11.008 11.488-22.112 17.28-33.52zM157.76 596.768l12.912 24.912c0.896-0.832 1.744-1.568 2.512-2.24 1.824-1.6 3.312-2.912 4.512-4.48 9.168-11.568 12.848-25.888 15.968-40.208 9.12-42.24 10.88-85.28 11.936-128.368 0.112-4.464-1.072-5.936-5.264-5.888a741.44 741.44 0 0 1-38.832-0.112c-5.488-0.112-6.736 1.92-6.512 7.52 1.632 37.776-1.36 75.04-10.24 111.552a21.008 21.008 0 0 0 2.24 16.368c2.4 4.384 4.656 8.864 6.928 13.36l3.84 7.584z m213.968-148.288v-7.584a90.576 90.576 0 0 1-2.48-0.224c-1.28-0.112-2.4-0.224-3.52-0.224-4.192 0-8.384 0.048-12.576 0.08-8.368 0.096-16.752 0.176-25.12-0.08-5.44-0.16-6.928 1.76-6.8 7.472 0.72 38.72 2.416 77.52 9.792 115.568 2.384 12.368 6.512 24.48 10.608 36.48l2.24 6.592a22.912 22.912 0 0 0 12.624 14.112l0.688-0.96a11.36 11.36 0 0 0 1.008-1.488l5.568-10.88c6.368-12.432 12.72-24.864 18.96-37.36a10.176 10.176 0 0 0 0.32-6.4 406.56 406.56 0 0 1-11.312-115.104z m104.896 161.216c2.08-4.144 4.224-8.352 6.368-12.704-1.28-0.064-2.288-0.16-3.152-0.224a36.16 36.16 0 0 0-2.976-0.16l-17.376 0.016c-11.584 0.032-23.168 0.048-34.768-0.016h-1.504c-3.792 0.032-7.712 0.048-11.12-1.248-3.84-1.424-5.152-0.4-6.8 3.04-6 12.8-12.224 25.552-18.448 38.24-4.32 8.592-2.88 11.872 6.288 13.12 1.68 0.256 3.472 0.24 5.184 0.24h0.864c5.008 0 10.032-0.016 15.04-0.064a675.632 675.632 0 0 1 31.616 0.288c7.936 0.32 12.736-1.712 16.256-10.08 4.32-10.24 9.312-20.112 14.528-30.448z m354.624-194.528a121.728 121.728 0 0 1-0.272 5.184l0.496 0.112-0.048 3.552c-0.064 2.976-0.144 5.984 0.224 8.896 0.224 1.6 2.384 4.08 3.792 4.144 6.96 0.448 14.048 0.672 21.008 0.16a24.56 24.56 0 0 0 22.816-24.576c0.4-13.984-7.472-24.448-20.32-27.008-11.152-2.208-23.28 5.728-26.448 18.176-0.944 3.632-1.088 7.52-1.248 11.36z" fill="#FFFFFF" p-id="121795"></path><path d="M416 32a64 64 0 0 1 64 64v192a64 64 0 0 1-64 64h-16v80l-125.6-80H96a64 64 0 0 1-64-64V96a64 64 0 0 1 64-64h320z" fill="#00C800" p-id="121796"></path><path d="M176 192a32 32 0 1 1-64 0 32 32 0 0 1 64 0z m112 0a32 32 0 1 1-64 0 32 32 0 0 1 64 0z m80 32a32 32 0 1 0 0-64 32 32 0 0 0 0 64z" fill="#FFFFFF" p-id="121797"></path></svg>