<?xml version="1.0" standalone="no"?><!DOCTYPE svg PUBLIC "-//W3C//DTD SVG 1.1//EN" "http://www.w3.org/Graphics/SVG/1.1/DTD/svg11.dtd"><svg t="1716520395987" class="icon" viewBox="0 0 1024 1024" version="1.1" xmlns="http://www.w3.org/2000/svg" p-id="120578" xmlns:xlink="http://www.w3.org/1999/xlink" width="200" height="200"><path d="M423.33 65.25l-114.88 226c-2.45 5.03-2.2 11.01 0.65 15.81 2.85 4.8 7.91 7.73 13.37 7.76h10.65l9.44-19.96h159.99l-137.94 278.7c-2.53 5.01-2.33 11.03 0.53 15.85 2.86 4.82 7.95 7.75 13.43 7.72h92.23L396.97 735.3H212.24c-79.15-3.41-29.66-103.75-29.66-103.75l84.81-178.64H156.08c-79.08-3.48-29.66-103.68-29.66-103.68L263.27 65.25h160.06z m483.2 54.24v175.23H801.01l-0.07 501.7h159.92v165.5H398.11l79.56-165.43h158.44V294.72h-107.2V119.49h377.62zM146.44 778.83c13.69 14.05 33.98 12.1 33.98 12.1h217.77l-87.85 171.54H105.11c-27.84 0-41.46-19.05-41.46-19.05l82.79-164.59z" fill="#FF2B2B" p-id="120579"></path></svg>