<?xml version="1.0" standalone="no"?><!DOCTYPE svg PUBLIC "-//W3C//DTD SVG 1.1//EN" "http://www.w3.org/Graphics/SVG/1.1/DTD/svg11.dtd"><svg t="1716519245897" class="icon" viewBox="0 0 1060 1024" version="1.1" xmlns="http://www.w3.org/2000/svg" p-id="12478" xmlns:xlink="http://www.w3.org/1999/xlink" width="207.03125" height="200"><path d="M55.537075 711.323082v164.198467c0 54.743003 44.804009 99.538285 99.538285 99.538285h755.581711c54.743003 0 99.538285-44.804009 99.538286-99.538285V153.879889c0-54.747366-44.799646-99.542648-99.538286-99.542649H155.079723c-54.73864 0-99.538285 44.799646-99.538285 99.542649v557.443193z" fill="#F0F0FF" p-id="12479"></path><path d="M33.721899 711.323082v164.198467c0 66.915871 54.441953 121.353461 121.353461 121.353461h755.581711c66.920234 0 121.353461-54.446316 121.353462-121.353461V153.879889c0-66.915871-54.441953-121.357824-121.353462-121.357825H155.079723C88.163852 32.522064 33.726262 86.964018 33.726262 153.879889v557.443193z m43.630352-557.443193c0-42.858095 34.869377-77.727472 77.723109-77.727473h755.581711c42.853732 0 77.723109 34.869377 77.72311 77.727473v721.64166c0 42.858095-34.869377 77.723109-77.72311 77.723109H155.079723c-42.853732 0-77.723109-34.865014-77.723109-77.723109V153.879889z" fill="#6E6E96" p-id="12480"></path><path d="M234.273175 383.872927s80.266759-196.633271 348.349094-196.633271c0-0.004363-68.229145 219.731179-348.349094 196.633271z" fill="#FFFFFF" p-id="12481"></path><path d="M256.354497 339.810634c-29.22361 48.530041-46.038748 105.384752-46.038748 166.166196 0 178.147091 144.420828 322.559193 322.559193 322.559193 178.151454 0 322.55483-144.420828 322.55483-322.559193 0-178.151454-144.412102-322.563556-322.55483-322.563556" fill="#FFFFFF" p-id="12482"></path><path d="M697.959105 554.821009l-217.985965 138.713978c-46.483777 29.585742-84.525081 8.704255-84.525081-46.409605V360.775018c0-55.113861 38.298723-76.405473 85.114091-47.325843l216.816671 134.699986c46.819731 29.07963 47.07715 77.086106 0.580284 106.671848z" fill="#88DBA7" p-id="12483"></path><path d="M686.248719 536.413363l-217.981602 138.713979c-15.235719 9.699027-28.896382 12.556815-37.482836 7.844737-8.590816-4.716441-13.516683-17.779368-13.516683-35.846697V360.775018c0-18.110959 5.021854-31.296052 13.782828-36.169562 8.765338-4.87351 22.617975-2.181518 38.002037 7.37353l216.821035 134.699986c16.038517 9.960809 24.904205 22.29511 24.974013 34.72976 0.069809 12.439013-8.669351 24.869301-24.598792 35.004631z m22.652878-106.794012l-216.821034-134.699986c-29.673002-18.433824-58.874797-21.431229-82.230125-8.446836-23.35969 12.988756-36.213192 39.37203-36.213192 74.302489v286.350364c0 34.982816 12.83605 61.296282 36.147747 74.084338 23.311697 12.801145 52.400053 9.502691 81.902897-9.280176l217.981602-138.709615c28.625874-18.220035 44.956715-44.476781 44.808371-72.055527-0.148343-27.561293-16.758418-53.643518-45.576266-71.545051z" fill="#6E6E96" p-id="12484"></path><path d="M491.238497 432.280802l89.42477 55.558891a21.815176 21.815176 0 0 0 23.032462-37.059622L514.27096 395.221181a21.815176 21.815176 0 0 0-23.032463 37.059621z" fill="#FFFFFF" opacity=".6" p-id="12485"></path><path d="M704.503658 480.4618l-236.607399 157.339776c-14.864861 9.45906-28.529887 12.308122-37.116341 7.596044-8.590816-4.716441-13.516683-17.779368-13.516683-35.842334h-43.630352c0 34.987179 12.83605 61.291919 36.147747 74.088701 23.31606 12.796782 52.404416 9.502691 81.902897-9.280176l236.969531-157.579743-24.1494-36.322268z" fill="#6E6E96" opacity=".15" p-id="12486"></path><path d="M33.721899 670.341092v164.20283c0 66.924597 54.441953 121.357824 121.353461 121.357824h755.581711c66.920234 0 121.353461-54.441953 121.353462-121.357824v-164.20283h-43.630352v164.20283c0 42.862458-34.869377 77.727472-77.72311 77.727472H155.079723c-42.853732 0-77.723109-34.865014-77.723109-77.727472v-164.20283H33.721899z" fill="#6E6E96" opacity=".15" p-id="12487"></path><path d="M188.500573 473.725274c0 91.985871 35.820519 178.461229 100.864648 243.514084 65.044129 65.039766 151.52385 100.860285 243.509721 100.860285 189.883655 0 344.370006-154.486351 344.370006-344.378732h-43.630352c0 165.834605-134.909412 300.74838-300.739654 300.748379-80.327841 0-155.856344-31.282962-212.654336-88.085317-56.806718-56.802355-88.085318-132.322132-88.085318-212.654336l-43.634715-0.004363z" fill="#6E6E96" opacity=".15" p-id="12488"></path><path d="M240.612666 330.329759c-31.837068 52.871261-48.669658 113.609074-48.669658 175.642708 0 187.998824 152.937473 340.936297 340.927571 340.936297 187.985735 0 340.923208-152.937473 340.923208-340.936297 0-187.990098-152.937473-340.931934-340.923208-340.931934a18.368378 18.368378 0 0 0 0 36.741119c167.723799 0 304.186452 136.458289 304.186451 304.186452s-136.453926 304.195178-304.186451 304.195177c-167.723799 0-304.182089-136.458289-304.182089-304.195177 0-55.353828 15.008841-109.538362 43.403475-156.689684a18.368378 18.368378 0 0 0-6.260956-25.21398 18.381467 18.381467 0 0 0-25.218343 6.265319z" fill="#6E6E96" p-id="12489"></path></svg>