<?xml version="1.0" standalone="no"?><!DOCTYPE svg PUBLIC "-//W3C//DTD SVG 1.1//EN" "http://www.w3.org/Graphics/SVG/1.1/DTD/svg11.dtd"><svg t="1716455338799" class="icon" viewBox="0 0 1024 1024" version="1.1" xmlns="http://www.w3.org/2000/svg" p-id="110058" xmlns:xlink="http://www.w3.org/1999/xlink" width="200" height="200"><path d="M0 0m204.8 0l614.4 0q204.8 0 204.8 204.8l0 614.4q0 204.8-204.8 204.8l-614.4 0q-204.8 0-204.8-204.8l0-614.4q0-204.8 204.8-204.8Z" fill="#E1E3E5" p-id="110059"></path><path d="M648.977067 496.384a22.4256 22.4256 0 0 0-5.546667-0.682667c-37.0176 0-67.601067 31.2832-72.0384 71.8336-0.6656 5.973333-5.085867 10.1376-10.410667 10.1376h-4.881066c-5.751467 0-10.6496-5.290667-10.6496-12.117333v-1.536c6.007467-55.108267 47.650133-97.621333 97.962666-97.621333h0.4608C627.456 403.797333 576.290133 358.4 515.720533 358.4c-58.2656 0-107.690667 42.0864-126.088533 100.488533-46.301867 5.290667-82.432 49.373867-82.432 103.3728 0 56.832 40.5504 102.912 90.88 103.338667h242.466133v-0.443733h1.109334c41.437867 0 75.144533-37.888 75.144533-84.616534 0-43.861333-29.696-80.008533-67.84-84.189866" fill="#323232" p-id="110060"></path></svg>