<?xml version="1.0" standalone="no"?><!DOCTYPE svg PUBLIC "-//W3C//DTD SVG 1.1//EN" "http://www.w3.org/Graphics/SVG/1.1/DTD/svg11.dtd"><svg t="1716455371314" class="icon" viewBox="0 0 1024 1024" version="1.1" xmlns="http://www.w3.org/2000/svg" p-id="110213" xmlns:xlink="http://www.w3.org/1999/xlink" width="200" height="200"><path d="M1024 691.2c0-102.4-64-192-160-224 0-12.8 6.4-25.6 6.4-38.4 0-185.6-147.2-339.2-332.8-339.2-160 0-294.4 115.2-326.4 268.8C89.6 396.8 0 505.6 0 640c0 134.4 89.6 249.6 217.6 275.2 12.8 6.4 25.6 6.4 38.4 6.4h556.8c19.2 0 38.4-6.4 51.2-12.8 96-25.6 160-115.2 160-217.6z" fill="#C68739" p-id="110214"></path><path d="M281.6 358.4c153.6 0 281.6 128 281.6 281.6v6.4c0 153.6-128 281.6-281.6 281.6-153.6 0-281.6-128-281.6-281.6V640c0-160 128-281.6 281.6-281.6z" fill="#FFE3C2" p-id="110215"></path></svg>