<?xml version="1.0" standalone="no"?><!DOCTYPE svg PUBLIC "-//W3C//DTD SVG 1.1//EN" "http://www.w3.org/Graphics/SVG/1.1/DTD/svg11.dtd"><svg t="1716517920577" class="icon" viewBox="0 0 1024 1024" version="1.1" xmlns="http://www.w3.org/2000/svg" p-id="27778" xmlns:xlink="http://www.w3.org/1999/xlink" width="200" height="200"><path d="M0 0h1024v1024H0z" fill="#DEFDFF" p-id="27779"></path><path d="M964.402116 334.831746c-29.618342-13.364374-65.738272-14.809171-99.691005-1.083598-49.484303 20.22716-79.825044 66.46067-78.741446 113.416579 29.618342 13.364374 65.738272 14.809171 99.691005 1.083598 49.123104-19.865961 79.463845-66.099471 78.741446-113.416579z" fill="#A5D34A" p-id="27780"></path><path d="M949.592945 346.028924c-7.946384 13.364374-18.059965 24.922751-28.895943 36.11993-10.835979 11.197178-22.755556 20.949559-35.397531 29.979541-12.641975 8.668783-26.367549 16.615168-41.17672 22.033157-14.809171 5.417989-31.063139 8.307584-46.233509 5.417989 15.17037-3.250794 28.534744-8.668783 41.899118-15.531569 13.003175-6.862787 25.283951-14.809171 37.564726-23.477954 12.280776-8.307584 24.200353-17.337566 36.11993-26.728748 11.919577-9.391182 23.839153-18.782363 36.119929-27.812346z" fill="#FFFFFF" p-id="27781"></path><path d="M469.559083 592.005644c-2.889594 3.611993-1.083598 1.083598 2.528395-2.889595 4.334392-5.05679 9.391182-10.11358 14.086772-14.809171 10.47478-9.391182 23.839153-19.504762 39.009524-21.310758 19.504762-2.167196 35.036332 16.615168 44.427513 33.230335 7.223986 13.003175 11.197178 22.394356 9.391182 37.203527-1.444797 10.835979-5.05679 22.033157-11.558377 31.06314-31.424339 42.982716-105.470194 30.70194-146.285715 10.11358-45.149912-22.755556-65.738272-65.015873-58.153086-114.500176 2.528395-15.892769 7.223986-31.424339 13.003175-46.594709 8.307584-22.033157 18.782363-36.481129 37.203527-51.2903 24.200353-19.865961 53.457496-33.591534 84.520635-37.925926 50.929101-6.501587 101.858201 12.280776 144.118518 39.731922 35.397531 22.755556 57.791887 52.012698 70.072664 93.189418 20.949559 71.156261 1.805996 140.867725-41.17672 199.74321-26.728748 37.203527-58.514286 69.711464-105.108995 79.102646-62.487478 12.641975-132.92134-5.779189-193.964021-18.059965-27.089947-5.417989-39.009524 36.119929-11.558377 41.899118 68.627866 14.086772 143.757319 31.785538 213.829982 18.782363 53.457496-9.752381 92.467019-45.149912 124.613757-87.04903 52.735097-68.627866 78.741446-151.342504 57.069488-236.946737-14.086772-55.624691-44.427513-97.16261-92.467019-127.86455-54.541093-35.397531-120.640564-55.263492-185.295238-42.621517-41.537919 7.946384-79.102646 30.70194-109.443387 59.597884-29.979541 28.534744-44.066314 75.129453-49.123104 115.222575-8.307584 64.293474 20.949559 123.891358 79.825044 153.148501 58.153086 29.257143 147.008113 39.370723 195.770018-13.003175 23.839153-25.64515 36.842328-70.795062 22.394356-103.664198-14.447972-32.507937-37.925926-67.544268-75.851851-74.407054-44.427513-7.946384-84.881834 25.64515-109.443387 59.236684-16.253968 22.033157 21.310758 43.705115 37.564727 21.671958z" fill="#FF8415" p-id="27782"></path><path d="M277.762257 598.507231c-9.752381-26.006349-30.340741-48.761905-58.875485-61.042681-41.537919-18.059965-87.771429-8.668783-115.944973 19.865961 9.752381 26.006349 30.340741 48.761905 58.875485 61.042681 41.537919 18.059965 87.771429 8.668783 115.944973-19.865961z" fill="#A5D34A" p-id="27783"></path><path d="M262.230688 596.340035c-13.003175 2.889594-26.006349 3.611993-39.009524 3.611993-13.003175 0-26.367549-1.083598-39.370723-3.611993-13.003175-2.528395-26.006349-6.140388-37.925926-11.919576-11.919577-5.779189-23.477954-13.725573-31.063139-24.561552 10.835979 7.585185 22.394356 12.641975 34.313933 16.615167 11.919577 3.973192 24.200353 6.862787 36.842328 9.029982 12.641975 2.167196 24.922751 3.973192 37.925926 5.779189l38.287125 5.05679z" fill="#FFFFFF" p-id="27784"></path><path d="M268.009877 433.800353c-1.805996-19.865961-11.919577-39.731922-29.257143-53.457496C213.107584 359.754497 179.516049 357.587302 154.232099 372.035273c1.805996 19.865961 11.919577 39.731922 29.257143 53.457496 25.64515 20.58836 59.597884 23.116755 84.520635 8.307584z" fill="#A5D34A" p-id="27785"></path><path d="M257.896296 429.465961c-9.391182-1.444797-18.421164-3.611993-27.089947-6.501587-9.029982-2.889594-17.698765-6.140388-26.006349-10.11358-8.307584-4.334392-16.615168-8.668783-23.839153-14.809171-7.223986-6.140388-14.086772-13.003175-18.059965-21.310759l4.334391 5.41799c1.444797 1.805996 3.250794 3.250794 4.695591 5.05679 1.444797 1.805996 3.250794 3.250794 5.05679 4.695591l5.41799 4.334391c7.585185 5.417989 15.53157 9.752381 23.839153 13.725573 8.307584 3.973192 16.976367 7.585185 25.283951 10.835979 4.334392 1.805996 8.668783 3.250794 13.003174 4.695591 4.334392 1.083598 8.668783 2.528395 13.364374 3.973192z" fill="#FFFFFF" p-id="27786"></path><path d="M420.435979 330.497354c15.892769-29.257143 20.58836-66.46067 10.11358-102.941798-15.17037-53.096296-58.153086-88.493827-104.747795-92.105821-15.892769 29.257143-20.58836 66.46067-10.113581 102.941799 15.17037 52.735097 58.153086 88.132628 104.747796 92.10582z" fill="#A5D34A" p-id="27787"></path><path d="M411.044797 314.243386c-11.919577-10.11358-22.394356-22.033157-32.146737-34.313933-5.05679-6.140388-9.391182-12.641975-13.725573-19.143562-4.334392-6.501587-8.307584-13.364374-12.280776-20.227161-7.585185-14.086772-13.725573-28.534744-17.698766-44.066314-3.973192-15.53157-5.779189-31.785538-2.167195-47.317107 1.083598 15.53157 4.695591 30.340741 10.11358 44.788712 5.417989 14.447972 11.919577 28.173545 19.143562 41.537919 7.223986 13.725573 15.17037 26.728748 23.477955 39.731922 8.307584 12.641975 16.615168 25.64515 25.28395 39.009524z" fill="#FFFFFF" p-id="27788"></path><path d="M608.982011 317.49418c23.477954 1.083598 47.678307-8.307584 66.821869-27.812346 27.451146-28.173545 35.036332-69.350265 22.033157-102.2194-23.477954-1.083598-47.678307 8.307584-66.821869 27.812346-27.451146 28.173545-35.036332 69.350265-22.033157 102.2194z" fill="#A5D34A" p-id="27789"></path><path d="M615.844797 305.574603c1.444797-11.558377 5.05679-22.394356 9.029983-33.230335 3.973192-10.835979 9.029982-20.949559 15.17037-31.063139 6.140388-9.752381 13.003175-19.143563 21.671958-27.089947 8.307584-7.946384 18.421164-14.809171 29.979541-17.337566-9.391182 6.501587-16.976367 14.447972-23.839153 23.116754-6.862787 8.668783-13.003175 17.698765-18.782364 27.089947-5.779189 9.391182-11.197178 19.143563-16.615167 28.895944-5.417989 9.752381-10.835979 19.504762-16.615168 29.618342z" fill="#FFFFFF" p-id="27790"></path></svg>