<?xml version="1.0" standalone="no"?><!DOCTYPE svg PUBLIC "-//W3C//DTD SVG 1.1//EN" "http://www.w3.org/Graphics/SVG/1.1/DTD/svg11.dtd"><svg t="1716519102040" class="icon" viewBox="0 0 1024 1024" version="1.1" xmlns="http://www.w3.org/2000/svg" p-id="5603" xmlns:xlink="http://www.w3.org/1999/xlink" width="200" height="200"><path d="M983.04 0H40.96A40.915478 40.915478 0 0 0 0 40.96v942.08c0 22.661565 18.298435 40.96 40.96 40.96h942.08c22.661565 0 40.96-18.298435 40.96-40.96V40.96a40.915478 40.915478 0 0 0-40.96-40.96zM410.000696 615.424l90.824347 103.290435c11.798261 42.25113-4.185043 80.762435-4.185043 80.762435L374.160696 656.250435v-0.133565a771.517217 771.517217 0 0 1-42.651826 108.410434c-28.93913 58.501565-70.656 70.032696-114.554435 73.906087-44.032 3.784348-29.829565-6.811826-29.829565-6.811826 87.04-71.056696 99.862261-112.37287 123.904-157.606956 15.226435-28.493913 26.134261-82.276174 32.411826-123.859479H194.693565s6.144-39.936 24.576-53.426087h130.003478c0.801391-19.545043-1.602783-131.561739-2.537739-168.158608h-63.220869C271.760696 386.181565 231.067826 401.14087 221.94087 405.504c-8.94887 4.36313-30.185739 9.082435-26.980174 0 3.294609-9.082435 34.54887-59.12487 55.296-141.712696 20.836174-82.67687 81.786435-79.337739 81.786434-79.337739-16.384 28.805565-28.672 94.208-28.672 94.208h204.399305c12.911304 0 13.57913 49.90887 13.57913 49.90887H405.147826c-0.890435 29.072696-3.606261 107.297391-6.41113 168.20313H520.904348s15.62713 19.72313 15.62713 53.381565H395.798261l-0.133565 1.914435c-1.914435 26.089739-8.058435 56.186435-16.517566 86.505739l30.853566-23.151304z m429.412174 148.48h-112.10574l-88.954434 59.65913-21.014261-59.65913h-51.333565V268.154435h273.408v495.749565z m-183.78574-4.452174l72.704-48.795826h58.323479-0.089044V323.450435h-166.15513v387.205565h18.031304l17.185391 48.751304z" fill="#0183FF" p-id="5604"></path></svg>